<?xml version="1.0" encoding="iso-8859-1"?>
<!-- Generator: Adobe Illustrator 21.0.0, SVG Export Plug-In . SVG Version: 6.00 Build 0)  -->
<svg version="1.1" id="Calque_1" xmlns="http://www.w3.org/2000/svg" xmlns:xlink="http://www.w3.org/1999/xlink" x="0px" y="0px"
	 viewBox="0 0 651.969 651.969" style="enable-background:new 0 0 651.969 651.969;" xml:space="preserve">
<g>
	<path d="M141.934,291.777l69.202,85.07v-85.07h7.787v102.849h-3.085l-69.35-84.924v84.924h-7.934V291.777H141.934z"/>
	<path d="M300.617,288.104c20.57,0,20.57,28.798,0,28.798C279.9,316.901,279.9,288.104,300.617,288.104z M300.617,293.687
		c-11.606,0-12.488,17.484,0,17.484C312.078,311.171,312.078,293.687,300.617,293.687z"/>
</g>
<rect x="372.668" y="400.675" style="fill:#AF9751;" width="151.502" height="13.773"/>
<g>
	<path d="M400.379,325.268v12.01c0,9.238,4.065,12.564,10.532,12.564s10.531-3.326,10.531-12.564v-28.455
		c0-9.238-4.064-12.749-10.531-12.749s-10.532,3.511-10.532,12.749v3.88h-19.216l3.695-75.016h53.583v18.477h-35.476l-1.663,30.856
		h0.37c3.695-6.097,9.423-9.423,17.553-9.423c14.966,0,22.542,10.532,22.542,29.563v28.824c0,20.694-10.348,32.519-30.303,32.519
		s-30.302-11.825-30.302-32.519v-10.717H400.379z"/>
	<path d="M453.96,269.837c0-21.803,9.978-33.628,31.041-33.628c19.956,0,30.302,11.825,30.302,32.52v3.326h-19.216v-4.619
		c0-9.238-4.065-12.749-10.533-12.749c-7.205,0-11.271,3.511-11.271,15.89v23.466h0.369c3.511-7.391,9.424-11.271,18.478-11.271
		c14.966,0,22.542,10.532,22.542,29.563v23.65c0,20.694-10.901,32.519-30.857,32.519c-19.955,0-30.856-11.825-30.856-32.519V269.837
		z M474.284,313.997v23.281c0,9.238,4.065,12.564,10.532,12.564s10.532-3.326,10.532-12.564v-23.281
		c0-9.238-4.065-12.749-10.532-12.749S474.284,304.759,474.284,313.997z"/>
</g>
</svg>
