<?xml version="1.0" encoding="UTF-8"?><svg id="Layer_2" xmlns="http://www.w3.org/2000/svg" viewBox="0 0 119.09 85.41"><defs><style>.cls-1{fill:#026032;}.cls-2{fill:#53b848;}</style></defs><g id="Pages"><g id="P2"><g id="Layer_2-2"><path class="cls-1" d="M0,2.15H21.4c2.49,3.36,3.5,6.14,4.54,8.75,.71,1.77,2.73,1.07,3.6,.46,3.63-2.51,14.11-11.36,37.94-11.36,33.61,0,51.6,13.41,51.6,33.99,0,14.11-5.57,26.13-16.18,34.54-10.04,7.96-23.61,12.96-23.61,12.96,0,0,19.4-2.88,37.04-8.66l-4.79,9.8c-14.73,1.51-28.23,2.79-53.87,2.79l-7.87-2.75s37.19-2.01,47.34-34.81C105.49,20.87,86.17,3.96,69.3,3.96c-22.3,0-34.38,21.55-38.05,31.35-3.68,9.8-4.81,30.88-9.42,50.1H2.3s4-16.15,4-38.97v-5.36C6.3,15.95,0,2.15,0,2.15Z"/><path class="cls-2" d="M95.25,24.11s-26.48-3.82-45.71,1.28c-9.21,2.45-25.3,13.38-25.3,30.74,0,19.66,16.02,29.28,33.43,29.28,18.53,0,21.8-2.08,31.39-3.76-.91-3.41,.04-7.03,2.76-10.56,0,0-14.1,10.46-27.41,10.65s-22.08-7.26-25.47-17.91c-3.9-12.27,3.05-27.06,11.29-32.09,6.38-3.9,22.59-8.08,38.55,3.8,0,0,2.14-6.58,6.46-11.43Z"/></g></g></g></svg>