<?xml version="1.0" encoding="UTF-8"?><svg id="Layer_2" xmlns="http://www.w3.org/2000/svg" viewBox="0 0 281.54 59.36"><g id="Pages"><g id="P2"><g><g><path d="M28.36,20.21c.11,.23,.11,.5-.04,.73-.11,.23-.31,.42-.57,.57-.04,.04-.15,.04-.27,.08h0s-.08,.04-.11,.04c-.08,0-.15,.04-.23,.08-.11,.04-.23,.08-.42,.15-.15,.08-.38,.15-.65,.23-.42,.15-.92,.34-1.53,.57s-1.41,.53-2.33,.88c-.95,.34-2.06,.76-3.36,1.22-1.3,.46-2.83,.95-4.58,1.49-1.8,.53-3.44,.95-4.93,1.26-1.49,.31-2.86,.46-4.13,.5-.65,0-1.26-.04-1.83-.11-.57-.11-1.15-.27-1.6-.57-.53-.31-.92-.69-1.22-1.15-.19-.23-.31-.46-.38-.69s-.11-.46-.15-.65c-.04-.42,0-.8,.04-1.15,.08-.34,.11-.65,.19-.92,.11-.31,.19-.57,.23-.76,.08-.19,.11-.34,.19-.46,.11-.23,.19-.46,.31-.65s.15-.31,.23-.38c.08-.11,.15-.23,.27-.31s.23-.15,.34-.19c.11-.04,.23-.04,.38-.04,.11,0,.23,.08,.34,.11,.19,.15,.31,.34,.34,.57s.04,.46-.08,.69h0c-.04,.11-.08,.15-.08,.19,0,0,0,.04-.04,.04-.04,.04-.08,.11-.11,.15-.04,.08-.11,.15-.15,.23-.04,.08-.11,.15-.15,.27s-.11,.23-.19,.38h0c-.08,.15-.15,.34-.23,.53s-.15,.42-.19,.69h0c-.04,.11-.04,.27-.08,.38,0,.15-.04,.27-.04,.42s.04,.31,.04,.42c.04,.15,.08,.27,.15,.38,.08,.11,.19,.27,.31,.38,.15,.11,.31,.23,.5,.34,.42,.23,.92,.34,1.45,.38,.38,.04,.8,.08,1.22,.08s.92-.04,1.41-.08c.53-.04,1.07-.11,1.6-.19,.38-.08,.8-.15,1.26-.23,.46-.11,.92-.19,1.41-.31,.5-.11,.95-.23,1.45-.38,.5-.11,.95-.27,1.45-.42,.73-.23,1.45-.46,2.14-.69,.69-.23,1.38-.46,2.02-.69s1.22-.46,1.76-.65c.53-.19,1.03-.38,1.45-.57,.8-.31,1.53-.61,2.18-.88s1.15-.5,1.49-.65h0c.46-.23,.8-.38,1.03-.5s.42-.23,.57-.31c.11-.04,.23-.11,.31-.15s.19-.08,.31-.11c.27-.11,.53-.11,.76-.04,.27,.08,.46,.23,.53,.42ZM7.16,13.52c-.08,0-.15,0-.23,.04-.08,0-.15,0-.23,.04-.04,0-.11,0-.15,.04-.04,0-.11,0-.15,.04-.5,.08-.95,.11-1.3,.15-.34,.04-.65,.04-.88,.04-.46,0-.76-.08-.92-.19-.15-.15-.27-.34-.27-.65,0-.27,.04-.5,.19-.69s.31-.27,.5-.27h.08s.08,0,.11,.04h0c.08,0,.19,.04,.38,.04s.53,.04,.99,.04c.38,0,.88,0,1.49-.04,.61,0,1.38-.04,2.29-.11,.69-.04,1.3-.08,1.76-.11,.46-.04,.8-.08,1.11-.11,.27-.04,.46-.08,.61-.11,.11-.04,.23-.08,.31-.08,.04,0,.08-.04,.11-.04s.08,0,.11-.04c.08-.04,.19-.08,.31-.08,.11-.04,.23-.04,.31,0,.11,.04,.19,.08,.23,.19,.08,.11,.11,.27,.11,.46,0,.23-.04,.42-.15,.53s-.31,.23-.53,.31c-.23,.08-.53,.15-.92,.19s-.8,.08-1.3,.11h-.38c-.46,.04-.99,.08-1.6,.11-.61,.04-1.3,.08-1.99,.15Z"/><path d="M59.87,20.28c.15-.11,.27-.19,.46-.23,.15-.04,.31-.08,.46-.08,.27,0,.5,.11,.65,.31,.08,.11,.11,.23,.11,.34s0,.27-.04,.38-.11,.27-.19,.38-.19,.23-.31,.34c0,0-.04,.04-.08,.04,0,0-.04,.04-.11,.08l-.11,.04-.08,.04h0c-.11,.08-.27,.15-.42,.23-.15,.08-.34,.23-.53,.34t-.04,.04c-.08,.04-.11,.08-.19,.15-.23,.15-.57,.34-.92,.57-.38,.23-.8,.5-1.26,.8-.31,.19-.65,.38-.99,.57-.38,.23-.76,.42-1.22,.65-.42,.23-.92,.42-1.45,.69-.53,.23-1.15,.46-1.76,.69-.34,.11-.69,.23-1.07,.34s-.76,.23-1.18,.31c-.42,.11-.84,.19-1.3,.23-.46,.08-.92,.08-1.38,.11-.46,0-.99-.04-1.53-.11-.53-.08-1.07-.19-1.6-.38-.53-.19-1.07-.42-1.64-.73-.53-.31-1.07-.65-1.53-1.07-.57-.53-1.03-1.03-1.38-1.53s-.65-.95-.88-1.34c-.11-.15-.19-.31-.27-.46l-.23-.46c-.34,.15-.73,.34-1.15,.53-.42,.23-.88,.46-1.41,.76-.42,.23-.92,.53-1.45,.92-.57,.34-1.15,.73-1.76,1.11-.04,.04-.11,.08-.19,.11-.08,.04-.11,.08-.15,.11-.19,.11-.34,.23-.57,.34-.19,.11-.38,.23-.57,.38-.53,.31-1.07,.61-1.57,.92-.5,.31-1.03,.53-1.49,.76-.27,.11-.53,.23-.8,.31-.27,.11-.53,.15-.76,.23-.23,.04-.46,.08-.73,.08-.19,0-.34,0-.5-.04-.15,0-.31-.04-.46-.11,0,0-.04,0-.08-.04t-.08-.04h-.11l-.23-.11c-.15-.11-.23-.23-.31-.34h0l-.04-.08-.04-.04h0c-.04-.11-.08-.23-.08-.31v-.42c0-.15,.04-.31,.08-.42l.11-.34h0c.15-.38,.31-.76,.46-1.07,.15-.31,.31-.57,.46-.88,.15-.27,.27-.5,.42-.73,.5-.84,.84-1.49,1.11-1.91,.27-.42,.42-.69,.5-.8,.08-.15,.19-.27,.34-.34,.11-.11,.27-.19,.38-.23s.27-.08,.38-.08,.23,.04,.34,.11h0c.11,.08,.19,.19,.27,.31,.04,.11,.08,.27,.08,.42,0,.11-.04,.27-.08,.38-.04,.15-.11,.27-.23,.42l.04-.04s-.08,.11-.11,.19c-.04,.08-.08,.11-.15,.19-.08,.11-.23,.31-.38,.53l-.69,1.03s-.04,.04-.04,.08-.04,.08-.04,.08c0,0,0,.04-.04,.04l-.04,.04s-.04,.08-.04,.08c0,.04-.04,.04-.08,.11h0c-.08,.15-.19,.27-.31,.42-.11,.15-.19,.31-.31,.5-.15,.27-.34,.57-.5,.88l-.23,.46c-.08,.15-.15,.31-.23,.5h.08c.19,0,.42,0,.65-.04,.27-.04,.5-.08,.69-.15,.23-.08,.5-.19,.76-.31,.31-.11,.57-.27,.88-.42s.61-.31,.92-.5c.31-.15,.61-.34,.88-.5l.92-.57c.31-.19,.57-.38,.84-.53,.11-.08,.19-.11,.31-.19s.19-.11,.31-.19c.04,0,.08-.04,.11-.08,.04-.04,.08-.04,.11-.08,.08-.04,.15-.08,.23-.15,.08-.04,.15-.08,.23-.15h0c.46-.27,.84-.53,1.26-.76,.38-.23,.76-.46,1.07-.65s.61-.38,.92-.53c.31-.19,.57-.34,.84-.46l.38-.19,.38-.15h0l-.11,.04,.08-.04s.04-.04,.08-.04c.04-.04,.08-.08,.15-.11l.88,.5s.04,.04,.04,.11c.04,.04,.04,.08,.04,.11h0s.04,.08,.04,.11c0,0,0,.04,.04,.04,.23,.38,.42,.73,.65,1.07,.23,.34,.5,.73,.84,1.15h0c.15,.19,.31,.34,.5,.53s.38,.42,.61,.65h0c.23,.23,.5,.42,.76,.65,.27,.23,.61,.42,.99,.61,.5,.27,.95,.46,1.41,.57s.84,.19,1.22,.23c.42,.04,.76,.08,1.11,.08h.46c.19,0,.34-.04,.5-.04,.53-.08,1.11-.19,1.68-.34s1.15-.31,1.72-.5c.99-.38,1.87-.76,2.64-1.18,.73-.42,1.34-.76,1.83-1.03h0c.53-.34,.95-.65,1.34-.88,.34-.23,.65-.46,.88-.65s.46-.34,.65-.5c.19-.15,.34-.27,.46-.34l.04-.04,.04-.04c.08-.08,.15-.15,.23-.19,.31-.08,.38-.15,.5-.19Z"/><path d="M80.46,20.05c.19-.15,.42-.23,.65-.23,.27,0,.5,.11,.69,.34,.11,.15,.19,.34,.19,.53,0,.15-.04,.27-.11,.42-.08,.15-.15,.27-.31,.38-.04,.04-.08,.08-.11,.08,0,0-.04,0-.04,.04l-.04,.04-.11,.08c-.08,.04-.23,.15-.42,.23-.19,.11-.46,.27-.76,.5h0l-.11,.08s-.04,0-.04,.04c0,0-.04,0-.04,.04-.04,0-.08,.04-.11,.08-.04,.04-.08,.04-.08,.08-.31,.23-.73,.5-1.22,.76-.5,.31-1.11,.65-1.83,1.03h0c-.42,.23-.88,.46-1.41,.69-.53,.23-1.11,.5-1.76,.76-.65,.27-1.3,.5-2.06,.76-.73,.23-1.53,.46-2.41,.69-.84,.19-1.68,.34-2.48,.42-.8,.11-1.6,.15-2.37,.15s-1.49-.04-2.18-.15-1.3-.27-1.87-.5h0c-.34-.11-.65-.27-.92-.46s-.53-.38-.73-.65c-.23-.23-.34-.53-.46-.92v.04c-.04-.15-.08-.31-.11-.5v-.46c0-.5,.08-.95,.23-1.41,.11-.42,.27-.8,.46-1.15,.19-.31,.38-.61,.57-.88,.23-.27,.42-.5,.61-.69,.15-.15,.34-.27,.53-.42l.57-.34c.23-.15,.42-.23,.57-.31s.27-.11,.34-.15c.04-.04,.11-.08,.19-.08,.15-.04,.27-.04,.42-.04s.27,.04,.38,.11,.19,.15,.27,.23c.08,.11,.11,.23,.15,.34,.04,.23,0,.46-.11,.65-.11,.23-.31,.34-.57,.46l.04-.04s-.04,.04-.08,.04-.08,.04-.08,.04c0,0-.04,0-.08,.04-.04,0-.08,.04-.11,.04s-.04,0-.08,.04c-.04,0-.08,.04-.11,.04l-.23,.11c-.08,.04-.19,.08-.31,.15h0c-.15,.08-.31,.19-.46,.31s-.31,.27-.46,.42c-.19,.19-.34,.42-.5,.65-.15,.27-.31,.53-.42,.88-.11,.38-.15,.76-.19,1.22,0,.15,.04,.31,.11,.46,.08,.15,.19,.31,.34,.42,.19,.15,.42,.31,.65,.42,.27,.11,.53,.23,.8,.31,.31,.08,.61,.15,.99,.23,.34,.04,.73,.08,1.11,.11,.11,0,.27,0,.42,.04h.42c.69,0,1.41-.04,2.14-.15,.73-.08,1.53-.23,2.29-.42s1.45-.38,2.1-.57c.65-.23,1.26-.46,1.87-.69,.53-.23,1.03-.42,1.53-.69,.46-.23,.92-.46,1.3-.69h0c.73-.42,1.38-.8,1.91-1.15s.92-.65,1.22-.88,.53-.46,.73-.61c.19-.19,.38-.31,.5-.46,0,0,.04-.04,.08-.04s.04-.04,.08-.04l.19-.19c.11,.04,.15-.04,.23-.08Z"/><path d="M113.05,20.17c.08,.11,.11,.23,.08,.38,0,.15-.08,.31-.15,.46-.08,.15-.19,.34-.34,.5-.15,.15-.34,.34-.53,.46,0,0-.04,.04-.08,.04s-.08,.04-.08,.04h0l-.04,.04h0c-.08,.04-.19,.11-.31,.19s-.27,.15-.46,.31c-.27,.15-.65,.38-1.11,.69-.46,.31-1.03,.61-1.64,.99-.34,.19-.76,.42-1.18,.65-.46,.23-.95,.5-1.49,.76-.5,.23-1.11,.53-1.8,.8-.69,.31-1.41,.57-2.22,.8-.42,.11-.84,.27-1.3,.38-.46,.11-.92,.23-1.38,.31-.34,.04-.73,.11-1.11,.15s-.8,.04-1.22,.04h-.42c-.15,0-.31,0-.42-.04-.57-.04-1.18-.15-1.8-.31-.61-.15-1.22-.38-1.8-.65-.61-.31-1.18-.69-1.72-1.18-.53-.46-1.03-1.03-1.45-1.64-.38-.57-.69-1.15-.95-1.72-.04-.11-.11-.27-.15-.38-.04-.15-.11-.27-.15-.38-.38,.23-.73,.46-1.07,.69-.34,.23-.69,.42-.99,.65-.8,.53-1.53,.99-2.22,1.45-.69,.46-1.3,.88-1.87,1.3-.31,.19-.57,.38-.8,.57-.27,.19-.5,.38-.73,.53-.04,0-.08,.04-.15,.08-.04,.04-.11,.08-.15,.11-.04,.04-.11,.08-.15,.11-.04,.04-.15,.11-.27,.19l-.04,.04s-.08,.11-.15,.23c-.08,.11-.23,.19-.34,.19-.04,.04-.08,.11-.08,.15-.04,.04-.04,.08-.04,.08l-.73-.76v-.73h.04s.04,0,.08-.04l.11-.11c.04-.11,.11-.23,.15-.34,.04-.11,.11-.23,.15-.34h0c.11-.31,.27-.57,.38-.84l.34-.8h0c.04-.15,.11-.27,.19-.42,.08-.15,.11-.27,.19-.38h0c.08-.15,.11-.31,.19-.46s.15-.31,.19-.42c.08-.15,.11-.27,.15-.38,.04-.11,.08-.19,.11-.31,0-.04,.04-.08,.04-.08v-.04s0-.04,.04-.08c0-.04,.04-.08,.08-.15-.04-.04-.11-.08-.23-.11-.08-.04-.15-.11-.15-.15-.04-.11-.08-.23-.04-.38,.04-.15,.08-.27,.19-.42,.08-.15,.19-.31,.34-.46l.46-.46,.11-.11s.08-.08,.11-.08c0,0,.04-.04,.11-.08,.04-.04,.08-.08,.15-.11,.38-.84,.8-1.76,1.26-2.79,.46-1.03,1.03-2.25,1.68-3.67l.11-.23,.11-.23c.19-.46,.38-.88,.57-1.3s.38-.84,.57-1.18c.11-.27,.27-.53,.38-.76,.11-.27,.23-.5,.34-.76,.38-.8,.73-1.57,1.07-2.29,.34-.73,.61-1.38,.88-1.91,0-.04,.04-.08,.04-.11h0s0-.04,.04-.04c.04-.11,.08-.19,.11-.27s.08-.19,.11-.27c.08-.15,.15-.31,.19-.46,.08-.15,.11-.31,.19-.42h0c.04-.11,.11-.27,.19-.38s.11-.27,.19-.38l.08-.15s.04-.08,.08-.11c.04-.04,.04-.11,.08-.15l.04-.04h0s.04-.08,.08-.11c.04-.04,.04-.08,.08-.11v.04l.04,.04c.04-.08,.08-.15,.11-.19-.08,0-.08-.04-.04-.04,.08-.04,.15-.08,.27-.15,.11-.04,.23-.08,.38-.04,.19,0,.34,.08,.46,.23,.11,.11,.19,.23,.23,.31l.11,.34c0,.11,.04,.19,.04,.27v.42c0,.15-.04,.27-.04,.38v.15c-.04,.23-.08,.5-.15,.8s-.15,.65-.23,.99c-.27,.99-.53,1.95-.84,2.79-.31,.84-.61,1.64-.92,2.41-.31,.73-.61,1.41-.88,2.02s-.57,1.18-.84,1.72c-.53,1.03-1.03,1.91-1.49,2.64s-.84,1.3-1.18,1.8c-.34,.46-.61,.84-.88,1.15s-.5,.57-.73,.8h0c-.11,.15-.27,.27-.38,.38s-.23,.23-.38,.34c-.27,.57-.46,1.03-.65,1.41s-.34,.73-.46,1.03c-.15,.31-.27,.61-.42,.88-.15,.31-.31,.61-.5,1.03,.23-.15,.5-.34,.73-.5,.23-.15,.5-.34,.8-.53,.5-.34,1.07-.73,1.64-1.11s1.26-.8,1.95-1.3c.15-.08,.27-.15,.42-.27,.15-.08,.27-.19,.42-.27l.11-.08s.04-.04,.08-.04,.04-.04,.08-.04c.11-.08,.19-.11,.31-.19s.19-.11,.31-.19l-.04,.04h.08s.04-.04,.04-.08,.04-.04,.08-.04,.08-.04,.11-.08c.04-.04,.11-.04,.11-.08l.04,.15v-.15s.11,0,.15-.04c.04,0,.08-.04,.11-.04,.08-.04,.15-.08,.23-.08s.11,0,.19,.04,.11,.11,.19,.19c.08,.11,.15,.23,.23,.42v.11l.04,.11c.11,.42,.27,.84,.5,1.3s.46,.88,.76,1.3c.31,.42,.61,.8,.99,1.15,.34,.34,.73,.65,1.15,.88,.38,.23,.8,.42,1.22,.57,.42,.15,.84,.27,1.3,.34h0c.31,.04,.57,.08,.84,.11,.27,.04,.53,.04,.8,.04,.57,0,1.11-.04,1.64-.11,.53-.08,1.03-.19,1.49-.31,.73-.19,1.38-.38,2.02-.61,.61-.23,1.22-.46,1.76-.73,.23-.11,.46-.23,.73-.34,.27-.11,.5-.23,.76-.38,.23-.11,.5-.23,.73-.38,.23-.11,.42-.23,.61-.34,.73-.42,1.38-.8,1.95-1.18,.57-.34,.99-.65,1.34-.88,0,0,.04-.04,.08-.04s.04-.04,.08-.04c.34-.23,.65-.42,.84-.57,.23-.15,.34-.27,.46-.31,.19-.15,.42-.27,.61-.34,.23-.08,.42-.15,.57-.19,.19-.04,.34-.04,.5,0,.04,.08,.15,.15,.23,.27Zm-24.29-13.33c-.08,.15-.11,.31-.19,.42-.08,.15-.11,.31-.19,.46-.11,.23-.19,.42-.27,.65s-.19,.46-.27,.65c-.11,.31-.27,.61-.38,.92-.15,.31-.27,.61-.42,.95-.15,.31-.27,.57-.34,.8-.08,.19-.15,.38-.23,.53-.08,.15-.11,.31-.19,.46-.08,.15-.11,.31-.19,.46-.08,.19-.15,.38-.27,.65-.11,.23-.23,.57-.42,.92,.11-.15,.19-.31,.27-.42s.15-.27,.27-.46c.31-.53,.61-1.15,.99-1.83,.34-.69,.69-1.41,1.07-2.18,.31-.76,.65-1.6,.99-2.56,.34-.92,.69-1.91,.95-2.98-.15,.34-.31,.69-.46,1.07-.15,.34-.31,.73-.46,1.11h0s-.04,.08-.04,.11-.04,.08-.04,.11l-.19,.15h0Zm1.34-5.88l-.11,.11c.04-.08,.08-.11,.08-.11,0,.04,0,0,.04,0Z"/><path d="M111.4,28c-.11-.11-.15-.23-.19-.34s-.04-.27-.04-.38c0-.15,0-.27,.04-.38,0-.11,.04-.19,.04-.27,.04-.04,.11-.04,.27-.04s.31,0,.5,.04,.34,.08,.53,.15c.19,.08,.31,.15,.42,.27,.08,.11,.15,.23,.15,.38s-.04,.31-.08,.42c-.04,.15-.08,.23-.11,.31-.04,.04-.11,.04-.23,.08-.11,0-.27,.04-.42,.04s-.31,0-.46-.04c-.19-.04-.31-.11-.42-.23h0Z"/><path d="M166.26,20.28c.04,.11,.04,.23,0,.38s-.11,.27-.23,.42c-.11,.15-.27,.27-.42,.42-.15,.15-.38,.27-.57,.34-.04,0-.08,.04-.11,.04s-.08,.04-.11,.04-.08,.04-.11,.04-.08,.04-.11,.04c-.08,.04-.15,.04-.23,.08-.08,.04-.19,.08-.34,.15s-.31,.11-.53,.23c-.19,.08-.46,.19-.76,.31-.15,.08-.34,.15-.53,.23-.19,.08-.38,.15-.61,.27-.15,.08-.31,.15-.5,.23-.19,.08-.34,.15-.53,.23-.34,.15-.73,.31-1.15,.5s-.88,.38-1.34,.57c-.11,.04-.27,.11-.38,.15s-.27,.11-.42,.19l-.5,.19c-.42,.19-.84,.34-1.34,.57-.46,.19-.95,.38-1.49,.61-.42,.15-.84,.31-1.26,.5-.46,.15-.88,.34-1.38,.5l-.11,.04h-.08s-.08,.04-.11,.04-.08,0-.11,.04c-.23,.08-.42,.15-.61,.19s-.34,.11-.5,.11h0c-.08,0-.19,.04-.27,.04s-.15,0-.23,.04h-.38s-.11-.04-.19-.08c-.11-.08-.23-.15-.31-.27-.08-.11-.11-.19-.15-.31h0c-.04-.15-.08-.31-.11-.5v-.57c.08-.57,.19-1.18,.34-1.91,.15-.69,.31-1.41,.5-2.06,.04-.15,.08-.27,.11-.38,.04-.11,.04-.19,.08-.27-.65,.76-1.22,1.49-1.83,2.1-.57,.65-1.15,1.22-1.72,1.72-.53,.5-1.11,.95-1.64,1.41-.57,.42-1.15,.76-1.8,1.07-.15,.08-.34,.15-.53,.19s-.38,.08-.53,.11c-.19,0-.42,0-.65-.04s-.46-.11-.65-.23h0c-.11-.04-.19-.11-.31-.19s-.19-.19-.31-.31c-.15-.23-.23-.46-.27-.69-.04-.19-.04-.38,0-.57s.08-.34,.11-.5c.08-.31,.19-.57,.27-.76s.19-.38,.27-.57c.11-.19,.19-.34,.31-.53s.19-.34,.31-.46c.19-.27,.34-.53,.53-.76,.15-.23,.31-.42,.46-.61,.23-.31,.46-.57,.65-.8s.31-.34,.38-.46c.15-.19,.31-.34,.5-.46s.34-.23,.53-.31c.15-.08,.34-.08,.46-.08,.15,0,.27,.04,.34,.11,.08,.08,.15,.19,.15,.34s0,.31-.04,.46-.11,.34-.23,.53c-.11,.19-.23,.34-.34,.53-.04,.04-.08,.11-.11,.15-.04,.04-.11,.11-.15,.19l-.08,.08-.08,.08-.08,.08s-.08,.08-.08,.11l-.11,.11c-.11,.11-.19,.23-.31,.38-.11,.11-.23,.31-.38,.5l-.04,.04-.04,.04s0,.04-.04,.04c-.15,.19-.31,.42-.46,.65-.19,.23-.34,.46-.46,.69h0c-.08,.15-.15,.31-.27,.46-.08,.15-.15,.34-.23,.53,0,.08-.04,.15-.04,.23s-.04,.15-.04,.19v.04c.08,.04,.15,.04,.27,.04,.27,0,.53-.08,.8-.19h0c.23-.11,.5-.27,.8-.46,.31-.19,.57-.38,.88-.61,.27-.23,.57-.46,.88-.76,.31-.27,.61-.57,.95-.92,.34-.31,.65-.65,.99-.99,.34-.34,.65-.69,.95-1.03,.46-.53,.95-1.11,1.45-1.72s.99-1.26,1.53-1.95c0,0,0-.04,.04-.08,.5-1.57,1.03-3.21,1.64-4.97,.57-1.76,1.26-3.55,2.02-5.42,.46-1.15,.92-2.18,1.34-3.06s.84-1.68,1.26-2.44h0s.04-.04,.04-.08,0-.04,.04-.08h0c.08-.15,.19-.31,.27-.46s.19-.31,.31-.42h0c.08-.11,.15-.19,.23-.31,.08-.08,.11-.15,.19-.19,.08-.08,.15-.11,.23-.19,.08-.08,.19-.11,.31-.15h0c.08-.04,.15-.04,.27-.08,.11,0,.23,0,.34,.04h0c.15,.04,.27,.08,.34,.15l.23,.23c.15,.23,.27,.46,.34,.69,.08,.27,.11,.5,.15,.69,0,.19,.04,.38,0,.61,0,.23-.04,.42-.04,.61-.04,.38-.15,.76-.27,1.18-.11,.42-.27,.84-.42,1.26s-.34,.88-.53,1.38c-.23,.5-.46,.99-.69,1.53-.27,.53-.57,1.11-.88,1.72-.34,.61-.69,1.26-1.11,1.95-.42,.69-.88,1.45-1.38,2.25-.5,.8-1.07,1.64-1.72,2.52l-.19,.31h0l-.46,.69c-.15,.23-.31,.42-.46,.65-.04,.11-.08,.19-.11,.31-.04,.11-.08,.19-.11,.31-.04,.11-.08,.27-.11,.38l-.11,.34h0l-.08,.31-.11,.34c-.15,.53-.31,1.07-.46,1.53-.15,.5-.27,.99-.38,1.49-.08,.23-.11,.5-.19,.73-.04,.23-.11,.5-.15,.76v.08c-.04,.23-.08,.5-.11,.73-.04,.23-.08,.5-.08,.76,.19-.04,.34-.11,.57-.15,.19-.08,.42-.11,.61-.19,.42-.15,.8-.27,1.15-.42,.34-.11,.73-.27,1.07-.42,.69-.27,1.34-.53,1.91-.8,.57-.27,1.15-.5,1.64-.73,1.03-.46,1.87-.84,2.56-1.18,.69-.34,1.26-.61,1.76-.84,.46-.23,.84-.42,1.18-.57l.84-.42c.27-.11,.5-.23,.69-.34,.19-.11,.46-.23,.73-.34,.23-.11,.42-.19,.65-.23s.42-.08,.57-.08c.42,.15,.69,.27,.8,.5h0Zm-12.22-8.4c-.11,.23-.19,.42-.23,.57-.04,.11-.08,.23-.11,.31-.04,.08-.04,.11-.04,.15s-.04,.08-.04,.11-.04,.11-.08,.19-.08,.23-.15,.42c.88-1.34,1.6-2.6,2.25-3.78,.65-1.18,1.15-2.22,1.57-3.13,.23-.53,.42-1.07,.61-1.6,.19-.57,.34-1.07,.42-1.53,.11-.46,.15-.88,.11-1.26,0-.11,0-.23-.04-.27,0-.04-.04,0-.04,.19l-.5,.88c-.19,.34-.34,.69-.53,1.07-.15,.34-.34,.73-.53,1.15-.34,.76-.76,1.76-1.22,2.86-.46,1.15-.92,2.37-1.45,3.67Z"/><path d="M163.89,20.13c.15-.04,.27-.11,.38-.15,.11-.04,.19-.08,.31-.11,.08-.04,.19-.04,.31-.08h.04c.27-.08,.53-.04,.76,.11,.23,.15,.38,.34,.42,.61,0,.23-.04,.46-.19,.65s-.34,.34-.57,.38h0c-.08,0-.11,.04-.15,.04h-.31c-.08,0-.23,.04-.42,.08-.08,0-.11,.04-.15,.04-.15,.04-.34,.11-.57,.19s-.46,.23-.73,.38h0c-.11,.08-.27,.19-.38,.34s-.23,.31-.31,.5c0,.08-.04,.15-.04,.19,0,.08-.04,.11-.04,.19,0,.19,.04,.34,.08,.53s.11,.38,.23,.61c.11,.27,.34,.53,.73,.76,.19,.11,.38,.23,.61,.34s.46,.19,.69,.27c1.03,.34,2.22,.5,3.63,.53,.42,0,.76,0,1.07-.04s.57-.04,.84-.08h.15c.27,0,.5-.04,.73-.08s.46-.04,.73-.11c.27-.04,.57-.11,.88-.15,.31-.08,.61-.15,.95-.23h0c.42-.11,.88-.27,1.38-.46,.53-.19,1.15-.46,1.83-.76h0c.69-.34,1.3-.65,1.87-.99,.57-.31,1.07-.61,1.49-.92,.46-.31,.88-.57,1.18-.8,.34-.23,.61-.46,.84-.65,.42-.31,.73-.57,.95-.76s.38-.31,.5-.42c.04,0,.04-.04,.08-.04,.19-.15,.42-.23,.65-.23,.15,0,.27,.04,.38,.08,.11,.04,.23,.11,.31,.23,.11,.19,.19,.34,.19,.53,0,.15-.04,.31-.11,.42-.08,.15-.15,.27-.31,.38h-.04s-.11,.08-.19,.15-.19,.15-.38,.23c-.04,0-.08,.04-.11,.08l-.11,.11c-.08,.04-.11,.08-.19,.15-.08,.04-.15,.11-.23,.15-.04,.04-.11,.08-.15,.11s-.11,.08-.19,.11c-.04,0-.08,.04-.11,.08-.04,.04-.08,.04-.11,.08h0c-.23,.11-.46,.27-.73,.46-.27,.15-.57,.34-.88,.53-.5,.31-1.07,.61-1.72,.99-.65,.38-1.45,.76-2.37,1.15-.88,.38-1.6,.69-2.22,.88-.61,.23-1.15,.38-1.64,.53-.46,.15-.88,.27-1.26,.34-.38,.08-.69,.19-.99,.23-.27,.04-.53,.11-.84,.15-.31,.04-.61,.08-.95,.11-.11,0-.27,.04-.42,.04h-.46c-.27,0-.57,0-.88-.04s-.65-.08-.99-.11c-.73-.11-1.38-.27-1.95-.46s-1.07-.42-1.41-.61c-.15-.08-.34-.19-.57-.34-.19-.11-.38-.27-.53-.38-.19-.15-.34-.31-.5-.5s-.31-.42-.42-.65h0c-.15-.31-.27-.57-.34-.88-.08-.31-.11-.57-.11-.88,0-.23,0-.38,.04-.53,.08-.34,.19-.65,.38-.92s.34-.46,.53-.65c.31-.31,.61-.53,.92-.69,.31-.15,.53-.31,.73-.38h0c.23,.11,.42,.04,.53,0Z"/><path d="M200.83,20.28c.04,.11,.08,.23,.04,.34,0,.11-.04,.27-.11,.38s-.15,.27-.23,.38c-.11,.11-.23,.23-.34,.31-.04,0-.08,.04-.11,.08-.04,.04-.08,.04-.11,.08l-.04,.04s-.04,0-.04,.04c0,0-.04,0-.04,.04l-.38,.19c-.15,.08-.34,.19-.61,.34-.27,.15-.61,.38-1.07,.65-.42,.27-.95,.61-1.6,.99-.65,.42-1.38,.92-2.25,1.49s-1.87,1.26-3.06,2.02c-.65,.42-1.3,.88-1.95,1.38-.69,.5-1.41,1.07-2.22,1.68-.69,.53-1.45,1.11-2.29,1.8-.84,.65-1.68,1.3-2.52,1.99l-.11,.46-.11,.46c-.23,.73-.5,1.45-.8,2.06-.31,.65-.65,1.18-1.07,1.64-.23,.23-.42,.46-.69,.65-.23,.19-.5,.34-.76,.46-.27,.11-.53,.19-.8,.23-.27,.08-.53,.11-.76,.11h-.38c-.11,0-.23-.04-.34-.04-.19-.04-.34-.11-.5-.19-.15-.11-.27-.27-.34-.5h0c-.08-.19-.11-.38-.11-.5,0-.15,.04-.31,.11-.42,.04-.11,.08-.23,.15-.31,.04-.08,.08-.19,.15-.23,.15-.23,.31-.46,.5-.69,.19-.23,.34-.42,.5-.61l-.04,.04,.08-.08s.04-.08,.08-.08c.31-.34,.65-.69,1.03-1.03,.38-.34,.76-.73,1.22-1.07,.27-.23,.53-.5,.84-.73,.27-.23,.61-.5,1.03-.8,.08-.31,.11-.61,.19-.92,.04-.27,.11-.57,.15-.84,.08-.5,.15-1.03,.19-1.57,.08-.53,.11-.99,.15-1.41,0-.08,0-.15,.04-.23,0-.08,0-.15,.04-.23,0-.08,0-.11,.04-.19,0-.08,0-.11,.04-.19,0-.11,.04-.27,.04-.38,0-.15,.04-.27,.04-.38,.08-.53,.11-1.07,.19-1.49,.04-.46,.11-.88,.15-1.26,.08-.53,.19-.99,.31-1.45s.19-.8,.31-1.07,.19-.5,.31-.69,.19-.34,.23-.38c.11-.15,.23-.27,.38-.34,.15-.11,.31-.19,.46-.23,.23-.04,.46-.04,.61,.04,.15,.08,.27,.19,.34,.34,.08,.11,.08,.27,.08,.38s-.04,.27-.11,.42l-.04,.08s-.08,.11-.11,.19c-.04,.08-.08,.11-.11,.19l-.04,.04s-.08,.11-.11,.15l-.11,.23c-.08,.15-.15,.34-.27,.57-.11,.23-.19,.57-.31,.99s-.19,.92-.31,1.6c-.11,.65-.23,1.49-.38,2.48l-.11,.92c0,.15-.04,.31-.08,.46-.04,.15-.04,.31-.08,.5-.04,.23-.08,.5-.11,.73-.04,.27-.08,.5-.11,.76,0,.04,0,.08-.04,.11,0,.04,0,.08-.04,.08v.15s-.08,.11-.08,.23v.31c.08-.04,.15-.11,.19-.15h0c.61-.46,1.15-.84,1.64-1.18s.92-.65,1.34-.95c.15-.11,.27-.19,.42-.31,.15-.08,.27-.19,.38-.27s.19-.15,.31-.23,.19-.15,.31-.23c.27-.19,.57-.38,.84-.57l.34-.23c.11-.08,.23-.19,.34-.23,.15-.11,.34-.27,.5-.38,.19-.11,.34-.23,.53-.38h0c.11-.08,.23-.15,.38-.27,.11-.08,.27-.19,.38-.27h0c.95-.65,1.76-1.22,2.48-1.72,.73-.5,1.34-.92,1.91-1.34,.57-.38,1.07-.73,1.53-1.07,.42-.31,.76-.57,1.03-.76,.19-.15,.38-.27,.53-.38s.31-.23,.42-.31h.04c.19-.15,.34-.27,.5-.38,.15-.11,.31-.19,.46-.31,.31-.19,.57-.27,.88-.27,.23,0,.5,.15,.69,.42Zm-21.73,17.57c.19-.27,.34-.57,.53-.88,.15-.34,.31-.69,.46-1.07-.27,.23-.53,.46-.76,.65s-.46,.38-.65,.57l-.08,.08s-.04,.04-.08,.04c-.31,.27-.57,.53-.84,.8s-.53,.53-.8,.84v.04s-.08,.08-.08,.15c-.04,.04-.04,.08-.08,.15,.27,0,.53,0,.8-.08,.23-.08,.53-.23,.84-.46,.27-.27,.5-.53,.73-.84Z"/><path d="M226.19,20.21c.11,.23,.11,.5-.04,.73-.11,.23-.31,.42-.57,.57-.04,.04-.15,.04-.27,.08h0s-.08,.04-.11,.04c-.08,0-.15,.04-.23,.08-.11,.04-.23,.08-.42,.15-.15,.08-.38,.15-.65,.23-.42,.15-.92,.34-1.53,.57s-1.41,.53-2.33,.88c-.95,.34-2.06,.76-3.36,1.22-1.3,.46-2.83,.95-4.58,1.49-1.8,.53-3.44,.95-4.93,1.26-1.49,.31-2.86,.46-4.13,.5-.65,0-1.26-.04-1.83-.11-.57-.11-1.15-.27-1.6-.57-.53-.31-.92-.69-1.22-1.15-.11-.23-.23-.46-.31-.73-.08-.23-.11-.46-.15-.65-.04-.42,0-.8,.04-1.15,.08-.34,.11-.65,.19-.92,.11-.31,.19-.57,.23-.76,.08-.19,.11-.34,.19-.46,.11-.23,.19-.46,.31-.65s.15-.31,.23-.38c.08-.11,.15-.23,.27-.31s.23-.15,.34-.19c.11-.04,.23-.04,.38-.04,.11,0,.23,.08,.34,.11,.19,.15,.31,.34,.34,.57,.04,.23,.04,.46-.08,.69h0c-.04,.11-.08,.15-.08,.19,0,0,0,.04-.04,.04-.04,.04-.08,.11-.11,.15-.04,.08-.11,.15-.15,.23-.04,.08-.11,.15-.15,.27-.04,.11-.11,.23-.19,.38h0c-.08,.15-.15,.34-.23,.53-.08,.19-.15,.42-.19,.69h0c-.04,.11-.04,.27-.08,.38,0,.15-.04,.27-.04,.42s.04,.31,.04,.42c.04,.15,.08,.27,.15,.38s.19,.27,.31,.38c.15,.11,.31,.23,.5,.34,.42,.23,.92,.34,1.45,.38,.38,.04,.8,.08,1.22,.08s.92-.04,1.41-.08c.53-.04,1.07-.11,1.6-.19,.38-.08,.8-.15,1.26-.23,.46-.11,.92-.19,1.41-.31s.95-.23,1.45-.38c.5-.11,.95-.27,1.45-.42,.73-.23,1.45-.46,2.14-.69s1.38-.46,2.02-.69,1.22-.46,1.76-.65c.53-.19,1.03-.38,1.45-.57,.8-.31,1.53-.61,2.18-.88s1.15-.5,1.49-.65h0c.46-.23,.8-.38,1.03-.5,.23-.11,.42-.23,.57-.31,.11-.04,.23-.11,.31-.15,.08-.04,.19-.08,.31-.11,.27-.11,.53-.11,.76-.04,.19,.11,.34,.27,.46,.46Zm-21.24-6.68c-.08,0-.15,0-.23,.04-.08,0-.15,0-.23,.04-.04,0-.11,0-.15,.04-.04,0-.11,0-.15,.04-.5,.08-.95,.11-1.3,.15-.34,.04-.65,.04-.88,.04-.46,0-.76-.08-.92-.19-.15-.15-.27-.34-.27-.65,0-.27,.04-.5,.19-.69s.31-.27,.5-.27h.08s.08,0,.11,.04h0c.08,0,.19,.04,.38,.04s.53,.04,.99,.04c.38,0,.88,0,1.49-.04,.61,0,1.38-.04,2.29-.11,.69-.04,1.3-.08,1.76-.11,.46-.04,.8-.08,1.11-.11,.27-.04,.46-.08,.61-.11,.11-.04,.23-.08,.31-.08,.04,0,.08-.04,.11-.04s.08,0,.11-.04c.08-.04,.19-.08,.31-.08,.11-.04,.23-.04,.31,0,.11,.04,.19,.08,.23,.19,.08,.11,.11,.27,.11,.46,0,.23-.04,.42-.15,.53-.11,.11-.31,.23-.53,.31-.23,.08-.53,.15-.92,.19s-.8,.08-1.3,.11h-.38c-.46,.04-.99,.08-1.6,.11-.61,.04-1.26,.08-1.99,.15Z"/><path d="M248.42,20.28c.04,.11,.08,.23,.04,.38,0,.15-.08,.27-.15,.42-.08,.15-.19,.27-.34,.42-.15,.15-.31,.27-.5,.38-.04,0-.08,.04-.08,.04-.04,0-.08,.04-.11,.04s-.08,.04-.11,.04c-.04,.04-.11,.08-.19,.11h.04c-.11,.08-.31,.15-.5,.27-.23,.11-.53,.31-.95,.53h0c-.42,.23-.92,.53-1.57,.88-.61,.34-1.41,.84-2.37,1.41h0c-.92,.57-2.02,1.26-3.29,2.06s-2.71,1.76-4.35,2.94c-.88,.61-1.83,1.34-2.83,2.1-.99,.8-2.02,1.64-3.06,2.52-.53,.46-1.07,.95-1.64,1.45-.53,.5-1.11,1.03-1.64,1.6-.27,.27-.5,.53-.73,.76-.23,.23-.46,.53-.73,.8-.31,.76-.61,1.45-.92,2.1-.31,.65-.57,1.22-.84,1.8h0s-.04,.08-.08,.11c-.04,.04-.04,.08-.08,.11,0,.04-.04,.04-.04,.08s0,.04-.04,.08c0,.04-.04,.08-.04,.15-.27,.53-.5,1.03-.76,1.49-.23,.46-.46,.88-.61,1.3-.08,.23-.19,.46-.34,.73-.15,.27-.31,.5-.46,.73s-.34,.42-.53,.53-.34,.15-.5,.11c-.15-.08-.27-.23-.38-.53-.08-.31-.15-.76-.15-1.41,0-.5,.08-.95,.19-1.45h0c.15-.69,.46-1.45,.84-2.25,.38-.73,.84-1.49,1.45-2.33s1.41-1.76,2.37-2.79c.23-.53,.46-1.11,.65-1.72s.46-1.26,.69-1.95c.53-1.6,.95-3.09,1.34-4.55s.65-2.75,.88-3.93c-.11,.04-.19,.11-.31,.15s-.19,.08-.27,.11h0c-.31,.15-.61,.23-.92,.31-.31,.08-.65,.08-.95,.04-.34-.04-.69-.19-.99-.38-.11-.11-.23-.19-.34-.31-.11-.11-.19-.23-.27-.34-.15-.23-.27-.5-.34-.76-.08-.27-.11-.53-.11-.76,0-.27,.04-.5,.11-.73,.08-.23,.15-.42,.23-.57,.15-.31,.34-.57,.53-.8s.38-.42,.57-.57c.34-.31,.61-.53,.8-.65s.31-.23,.42-.27c.19-.11,.38-.23,.57-.27,.19-.04,.38-.08,.57-.08s.38,.04,.53,.11,.23,.19,.27,.31v-.04c.04,.11,.08,.23,.04,.38-.04,.11-.08,.27-.19,.38-.08,.11-.19,.27-.34,.38s-.27,.23-.46,.34c0,0-.04,.04-.11,.08,0,0-.04,.04-.08,.04h-.04c-.08,.04-.15,.11-.23,.15-.08,.04-.19,.11-.31,.23-.11,.08-.19,.15-.31,.27s-.23,.19-.31,.31c-.11,.11-.19,.27-.31,.42-.11,.15-.19,.34-.23,.57-.04,.15,.04,.34,.15,.57,.08,.11,.15,.19,.23,.27,.08,.08,.15,.11,.27,.15,.19,.04,.34,.04,.57,0,.19-.04,.38-.11,.61-.19,.23-.11,.46-.23,.73-.42,.27-.15,.53-.34,.76-.53h0l.08-.08,.08-.08,.04-.04s.04-.04,.08-.04l.19-.15s.04,.04,.08,.04,.08,.04,.08,.04l.08,.04s.11,.04,.23,.11c.11,.04,.27,.11,.42,.19v.57l-.04,.11c0,.08-.04,.19-.04,.27,0,.11-.04,.19-.04,.31l-.04,.19s0,.08-.04,.11c0,.04,0,.08-.04,.11v.11c0,.11-.04,.19-.04,.31s-.04,.19-.04,.31c-.08,.38-.15,.8-.27,1.26-.11,.46-.23,.88-.31,1.3-.11,.42-.23,.92-.38,1.41-.15,.5-.31,1.03-.46,1.57s-.34,1.07-.5,1.6c-.15,.53-.34,1.03-.5,1.49-.04,.11-.08,.19-.11,.27s-.04,.15-.08,.23c-.04,.08-.08,.15-.08,.19v.04s-.04,.08-.04,.11-.04,.08-.04,.15c.19-.15,.38-.31,.57-.5s.38-.34,.53-.46h0s.04-.04,.08-.04,.04-.04,.08-.04c.5-.42,.95-.84,1.41-1.22s.88-.73,1.26-1.03c.76-.61,1.49-1.18,2.25-1.76,.73-.57,1.53-1.15,2.37-1.76,1.41-.99,2.67-1.87,3.78-2.6,1.11-.73,2.06-1.38,2.86-1.91,.84-.53,1.53-.99,2.1-1.38s1.07-.69,1.49-.95c.11-.08,.19-.11,.31-.19s.19-.11,.27-.19h0c.23-.15,.42-.27,.57-.38,.27-.19,.5-.31,.69-.42l.57-.34c.08-.04,.15-.08,.23-.15,.08-.04,.15-.08,.23-.15,.19-.11,.42-.19,.61-.27,.23-.08,.38-.08,.57-.08,.34-.08,.57,.04,.73,.27h0Z"/><path d="M279.86,20.28c.15-.11,.27-.19,.46-.23,.15-.04,.31-.08,.46-.08,.27,0,.5,.11,.65,.31,.08,.11,.11,.23,.11,.34s0,.27-.04,.38-.11,.27-.19,.38-.19,.23-.31,.34c0,0-.04,.04-.08,.04,0,0-.04,.04-.11,.08l-.08,.04-.08,.04h0c-.11,.08-.27,.15-.42,.23-.15,.08-.34,.23-.53,.34t-.04,.04c-.08,.04-.11,.08-.19,.15-.23,.15-.57,.34-.92,.57-.38,.23-.8,.5-1.26,.8-.31,.19-.65,.38-.99,.57-.38,.23-.76,.42-1.22,.65-.42,.23-.92,.42-1.45,.69-.53,.23-1.15,.46-1.76,.69-.34,.11-.69,.23-1.07,.34s-.76,.23-1.18,.31c-.42,.11-.84,.19-1.3,.23-.46,.08-.92,.08-1.38,.11-.46,0-.99-.04-1.53-.11-.53-.08-1.07-.19-1.6-.38s-1.07-.42-1.64-.73c-.53-.31-1.07-.65-1.53-1.07-.57-.53-1.03-1.03-1.38-1.53-.34-.5-.65-.95-.88-1.34-.11-.15-.19-.31-.27-.46l-.23-.46c-.34,.15-.73,.34-1.15,.53-.42,.23-.88,.46-1.41,.76-.42,.23-.92,.53-1.45,.92-.57,.34-1.15,.73-1.76,1.11-.04,.04-.11,.08-.19,.11-.08,.04-.11,.08-.15,.11-.19,.11-.34,.23-.57,.34-.19,.11-.38,.23-.57,.38-.53,.31-1.07,.61-1.57,.92-.5,.31-1.03,.53-1.49,.76-.27,.11-.53,.23-.8,.31-.27,.11-.53,.15-.76,.23-.23,.04-.46,.08-.73,.08-.19,0-.34,0-.5-.04-.15,0-.31-.04-.46-.11,0,0-.04,0-.08-.04t-.08-.04h-.11l-.23-.11c-.15-.11-.23-.23-.31-.34h0l-.04-.08-.04-.04h0c-.04-.11-.08-.23-.08-.31v-.42c0-.15,.04-.31,.08-.42l.11-.34h0c.15-.38,.31-.76,.46-1.07,.15-.31,.31-.57,.46-.88,.15-.27,.27-.5,.42-.73,.5-.84,.84-1.49,1.11-1.91s.42-.69,.5-.8c.08-.15,.19-.27,.34-.34,.11-.11,.27-.19,.38-.23s.27-.08,.38-.08,.23,.04,.34,.11h0c.11,.08,.19,.19,.27,.31,.04,.11,.08,.27,.08,.42,0,.11-.04,.27-.08,.38-.04,.15-.11,.27-.23,.42l.04-.04s-.08,.11-.11,.19-.08,.11-.15,.19c-.08,.11-.23,.31-.38,.53l-.69,1.03s-.04,.04-.04,.08-.04,.08-.04,.08c0,0,0,.04-.04,.04l-.04,.04s-.04,.08-.04,.08c0,.04-.04,.04-.08,.11h0c-.08,.15-.19,.27-.31,.42-.11,.15-.19,.31-.31,.5-.15,.27-.34,.57-.5,.88l-.23,.46c-.08,.15-.15,.31-.23,.5h.08c.19,0,.42,0,.65-.04,.27-.04,.5-.08,.69-.15,.23-.08,.5-.19,.76-.31,.31-.11,.57-.27,.88-.42s.61-.31,.92-.5c.31-.15,.61-.34,.88-.5l.92-.57c.31-.19,.57-.38,.84-.53,.11-.08,.19-.11,.31-.19s.19-.11,.31-.19c.04,0,.08-.04,.11-.08,.04-.04,.08-.04,.11-.08,.08-.04,.15-.08,.23-.15,.08-.04,.15-.08,.23-.15h0c.46-.27,.84-.53,1.26-.76,.38-.23,.76-.46,1.07-.65s.61-.38,.92-.53c.31-.19,.57-.34,.84-.46l.38-.19,.38-.15h0l-.11,.04,.08-.04s.04-.04,.08-.04c.04-.04,.08-.08,.15-.11l.88,.5s.04,.04,.04,.11c.04,.04,.04,.08,.04,.11h0s.04,.08,.04,.11c0,0,0,.04,.04,.04,.23,.38,.42,.73,.65,1.07,.23,.34,.5,.73,.84,1.15h0c.15,.19,.31,.34,.5,.53s.38,.42,.61,.65h0c.23,.23,.5,.42,.76,.65,.27,.23,.61,.42,.99,.61,.5,.27,.95,.46,1.41,.57s.84,.19,1.22,.23c.42,.04,.76,.08,1.11,.08h.46c.19,0,.34-.04,.5-.04,.53-.08,1.11-.19,1.68-.34,.57-.15,1.15-.31,1.72-.5,.99-.38,1.87-.76,2.64-1.18,.73-.42,1.34-.76,1.83-1.03h0c.53-.34,.95-.65,1.34-.88,.34-.23,.65-.46,.88-.65s.46-.34,.65-.5c.19-.15,.34-.27,.46-.34l.04-.04,.04-.04c.08-.08,.15-.15,.23-.19,.27-.08,.38-.15,.46-.19Z"/></g><g><path d="M26.22,52.1v7.18h-.42v-7.18h.42Z"/><path d="M32.22,52.1h.46l3.67,6.38v-6.38h.42v7.18h-.42l-3.71-6.46v6.42h-.42v-7.14Z"/><path d="M48.38,58.14l.31,.27c-.69,.65-1.53,.95-2.48,.95-1.03,0-1.87-.34-2.6-1.07-.73-.73-1.07-1.57-1.07-2.6s.34-1.87,1.07-2.6c.73-.73,1.57-1.07,2.6-1.07,.95,0,1.76,.31,2.48,.95l-.31,.27c-.61-.53-1.34-.8-2.18-.8-.92,0-1.68,.31-2.29,.95-.65,.65-.95,1.41-.95,2.29s.31,1.68,.95,2.29c.65,.65,1.41,.95,2.29,.95,.84,0,1.57-.27,2.18-.8Z"/><path d="M54.79,56.08v3.21h-.42v-7.18h.42v3.55h3.02v-3.55h.42v7.18h-.42v-3.21h-3.02Z"/><path d="M64.42,58.63c.08,.08,.11,.15,.11,.27s-.04,.19-.11,.31c-.08,.08-.19,.11-.27,.11-.11,0-.19-.04-.27-.11s-.11-.19-.11-.31,.04-.19,.11-.27,.19-.11,.27-.11c.11,0,.19,.04,.27,.11Z"/><path d="M78.17,52.1v7.18h-.42v-7.18h.42Z"/><path d="M84.21,52.1h.46l3.67,6.38v-6.38h.42v7.18h-.42l-3.71-6.42v6.42h-.42v-7.18Z"/><path d="M96.43,52.52v6.76h-.42v-6.76h-1.8v-.42h4.01v.42h-1.8Z"/><path d="M107.32,52.1v.42h-3.17v2.98h3.17v.42h-3.17v2.98h3.17v.42h-3.59v-7.18h3.59v-.04Z"/><path d="M114.84,56.8h-1.34v2.48h-.42v-7.18h1.87c.53,.08,.99,.31,1.38,.69,.46,.46,.69,.99,.69,1.64s-.23,1.18-.69,1.64c-.31,.31-.69,.53-1.07,.61l1.64,2.56h-.5l-1.57-2.44Zm-1.34-4.28v3.86h1.22c.53,0,.99-.19,1.38-.57s.57-.84,.57-1.38-.19-.99-.57-1.38-.84-.57-1.38-.57h-1.22v.04Z"/><path d="M123.05,52.1v7.18h-.42v-7.18h.42Z"/><path d="M135.24,53.1c.73,.73,1.07,1.57,1.07,2.6s-.34,1.87-1.07,2.6c-.73,.73-1.57,1.07-2.6,1.07s-1.87-.34-2.6-1.07c-.73-.73-1.07-1.57-1.07-2.6s.34-1.87,1.07-2.6c.73-.73,1.57-1.07,2.6-1.07s1.87,.34,2.6,1.07Zm-2.6-.69c-.92,0-1.68,.31-2.29,.95-.65,.65-.95,1.41-.95,2.29s.31,1.68,.95,2.29c.65,.65,1.41,.95,2.29,.95s1.68-.31,2.29-.95c.65-.65,.95-1.41,.95-2.29s-.31-1.68-.95-2.29c-.61-.61-1.38-.95-2.29-.95Z"/><path d="M143.87,56.8h-1.34v2.48h-.42v-7.18h1.87c.53,.08,.99,.31,1.38,.69,.46,.46,.69,.99,.69,1.64s-.23,1.18-.69,1.64c-.31,.31-.69,.53-1.07,.61l1.64,2.56h-.5l-1.57-2.44Zm-1.34-4.28v3.86h1.22c.53,0,.99-.19,1.38-.57s.57-.84,.57-1.38-.19-.99-.57-1.38-.84-.57-1.38-.57h-1.22v.04Z"/><path d="M159.76,52.1h0c1.22,0,2.14,.34,2.79,.99,.73,.73,1.07,1.57,1.07,2.6s-.34,1.87-1.07,2.6c-.65,.65-1.57,.99-2.75,.99h-.46v-7.18h.42Zm0,.42v6.34h.04c1.07,0,1.87-.31,2.44-.84,.65-.65,.95-1.41,.95-2.29s-.31-1.68-.95-2.29c-.57-.61-1.41-.92-2.48-.92h0Z"/><path d="M172.86,52.1v.42h-3.17v2.98h3.17v.42h-3.17v2.98h3.17v.42h-3.59v-7.18h3.59v-.04Z"/><path d="M180.47,55.31c-.5-.15-.92-.42-1.22-.69-.31-.31-.46-.65-.46-1.07s.15-.76,.46-1.07c.31-.31,.65-.46,1.07-.46s.76,.15,1.07,.46c.15,.15,.27,.34,.34,.53l-.34,.15c-.04-.15-.15-.27-.27-.42-.23-.23-.5-.31-.8-.31s-.57,.11-.8,.31c-.23,.23-.34,.5-.34,.8s.11,.57,.34,.8c.19,.19,.5,.38,.84,.53,.57,.19,1.07,.46,1.45,.88,.42,.42,.61,.92,.61,1.49s-.19,1.11-.61,1.49c-.42,.42-.92,.61-1.49,.61s-1.07-.19-1.49-.61c-.34-.34-.53-.73-.61-1.15l.38-.15c.04,.38,.19,.73,.5,1.03,.34,.34,.73,.5,1.22,.5,.46,0,.88-.15,1.22-.5,.34-.34,.5-.73,.5-1.22,0-.46-.15-.88-.5-1.22-.27-.31-.65-.53-1.07-.73Z"/><path d="M188.45,52.1v7.18h-.42v-7.18h.42Z"/><path d="M200.44,58.37c-.69,.65-1.49,.99-2.44,.99-1.03,0-1.87-.34-2.6-1.07-.73-.73-1.07-1.57-1.07-2.6s.34-1.87,1.07-2.6c.73-.73,1.57-1.07,2.6-1.07,.95,0,1.76,.31,2.48,.95l-.31,.27c-.61-.53-1.34-.8-2.18-.8-.92,0-1.68,.31-2.29,.95-.65,.65-.95,1.41-.95,2.29s.31,1.68,.95,2.29c.65,.65,1.41,.95,2.29,.95,.76,0,1.45-.23,2.02-.73v-2.18h.42v2.33h0Z"/><path d="M206.29,52.1h.46l3.67,6.38v-6.38h.42v7.18h-.42l-3.71-6.42v6.42h-.42v-7.18Z"/><path d="M224.47,59.28v-7.18h.42v6.76h2.79v.42h-3.21Z"/><path d="M234.71,52.52v6.76h-.42v-6.76h-1.8v-.42h4.01v.42h-1.8Z"/><path d="M242.42,52.1h0c1.22,0,2.14,.34,2.79,.99,.73,.73,1.07,1.57,1.07,2.6s-.34,1.87-1.07,2.6c-.65,.65-1.57,.99-2.75,.99h-.46v-7.18h.42Zm0,.42v6.34h.04c1.07,0,1.87-.31,2.44-.84,.65-.65,.95-1.41,.95-2.29s-.31-1.68-.95-2.29c-.57-.61-1.41-.92-2.48-.92h0Z"/><path d="M251.94,58.63c.08,.08,.11,.15,.11,.27s-.04,.19-.11,.31c-.08,.08-.19,.11-.27,.11-.11,0-.19-.04-.27-.11s-.11-.19-.11-.31,.04-.19,.11-.27,.19-.11,.27-.11,.19,.04,.27,.11Z"/></g></g></g></g></svg>