<?xml version="1.0" encoding="UTF-8"?><svg id="Layer_2" xmlns="http://www.w3.org/2000/svg" viewBox="0 0 207.19 95.87"><defs><style>.cls-1{fill:#d19425;}.cls-2{fill:#e11523;}.cls-3{fill:#0f0403;}</style></defs><g id="Pages"><g id="P2"><g id="Layer_2-2"><g id="Layer_1-2"><path class="cls-1" d="M30.03,95.87l23.61-23.61s14.24-10.36,1.15-23.5L30.72,24.68l9.67,14.52c9.67,14.48,1.77,21.42,1.77,21.42l-11.98,11.98-11.93-11.98s-7.96-6.94,1.72-21.42l9.67-14.52L5.57,48.76c-13.17,13.17,1.15,23.5,1.15,23.5l23.61,23.61"/><path class="cls-2" d="M30.25,0l-10.99,11.02s-6.68,4.84-.54,10.97l11.23,11.24-4.52-6.78c-4.52-6.78-.82-10-.82-10l5.59-5.6,5.59,5.6s3.7,3.22-.82,10l-4.58,6.78,11.23-11.24c6.13-6.13-.54-10.97-.54-10.97L30.11,0"/><path class="cls-3" d="M76.15,22.28v-.45h1.6l2.41-.05c.38-.01,.75,.04,1.11,.14,.29,.1,.53,.29,.71,.54,.21,.29,.31,.65,.29,1.01,.03,.84-.42,1.63-1.16,2.03-.39,.22-.84,.34-1.29,.33h-.34l-.32-.06c-.05-.13-.11-.26-.19-.37l.11-.12,.22,.05c.06,0,.13,0,.19,0,.33,.01,.64-.12,.86-.36,.25-.3,.37-.69,.34-1.08,.03-.4-.1-.8-.35-1.1-.27-.27-.64-.4-1.01-.37-.23,0-.46,.02-.68,.07v5.62c0,.2,.02,.39,.06,.59,.02,.04,.04,.07,.07,.1l.19,.06h.73v.53h-3.49v-.48c.26,.02,.52,0,.76-.09,.01-.01,.02-.02,.03-.04,.03-.13,.03-.27,0-.41,0-.58,.06-1.22,.06-1.92v-3.72c.01-.08,.01-.16,0-.23-.02-.03-.05-.06-.08-.07-.06-.03-.12-.05-.18-.06l-.65-.07Z"/><path class="cls-3" d="M88.6,22.28v-.45h3.41v.45c-.25-.02-.5,.02-.74,.1-.06,.05-.1,.12-.11,.19-.06,.49-.09,.98-.07,1.47v3.11c.01,.29,.1,.57,.25,.82,.16,.22,.37,.4,.63,.5,.34,.14,.71,.21,1.07,.19,.41,.02,.83-.07,1.2-.25,.28-.15,.5-.39,.64-.67,.15-.5,.22-1.03,.18-1.56v-2.84c.01-.28-.02-.55-.08-.82-.02-.06-.06-.11-.12-.13-.25-.08-.52-.12-.78-.11v-.45h2.51v.45c-.22-.02-.43,.01-.64,.08-.05,.05-.08,.1-.1,.16-.05,.36-.08,.73-.08,1.09v2.81c0,.34-.02,.68-.07,1.01-.03,.31-.12,.61-.27,.88-.15,.26-.36,.49-.61,.67-.28,.2-.59,.36-.92,.45-.4,.11-.82,.16-1.24,.15-.52,.01-1.04-.06-1.54-.21-.31-.09-.6-.23-.85-.44-.21-.16-.38-.37-.5-.61-.11-.2-.19-.42-.21-.65-.02-.34-.02-.68,0-1.01v-3.79c0-.12-.02-.23-.06-.34-.03-.06-.08-.11-.13-.14l-.77-.11Z"/><path class="cls-3" d="M103.04,29.37v-.46c.24-.01,.48-.04,.72-.08,.04-.02,.08-.04,.1-.08,.04-.06,.06-.13,.07-.2,0-.2,0-.66,.06-1.35v-3.67c.01-.34-.01-.68-.07-1.01-.01-.05-.04-.09-.07-.12-.05-.03-.11-.05-.17-.06-.21-.04-.42-.06-.64-.07v-.46h2.64l.48,1.06,.37,.81,1.72,3.55c.36-.71,.64-1.26,.82-1.65l.72-1.5c.4-.83,.64-1.35,.72-1.54s.19-.44,.3-.73h2.51v.47h-.07c-.24-.03-.48,.01-.69,.13-.12,.14-.17,.32-.15,.51v4.9c0,.28,.03,.56,.07,.84,0,.05,.03,.09,.06,.12,.04,.03,.08,.06,.12,.07,.22,.04,.45,.06,.68,.06v.46h-3.4v-.46c.26,.01,.51-.01,.76-.08,.07,0,.11-.12,.14-.25,.02-.45,.02-.89,0-1.34v-3.89l-1.26,2.53-.6,1.26c-.16,.33-.38,.81-.67,1.44l-.42,.92h-.36l-.57-1.24c-.42-.9-.73-1.57-.95-2.03l-1.42-2.9v5.24c0,.06,.03,.12,.07,.17,.04,.05,.1,.08,.16,.09,.22,.05,.44,.07,.66,.07v.46h-2.46Z"/><path class="cls-3" d="M120.11,29.37v-.28c.19-.09,.37-.19,.54-.31v-5.48c0-.25-.02-.5-.08-.74-.02-.04-.05-.06-.08-.08-.25-.07-.51-.1-.77-.1v-.46h5.66v.07l-.1,.78v.78h-.43c.02-.26,.02-.53,0-.79,0-.04-.03-.08-.06-.1-.14-.05-.29-.08-.44-.09-.34-.04-.67-.06-1.01-.06h-1.01c-.05,.51-.08,1.03-.07,1.55v1.1c.24,0,.5,0,.76,0h.9c.11,.02,.22,.02,.33,0,.04-.03,.07-.07,.08-.11,.05-.23,.08-.46,.08-.69h.44v2.37h-.47c.03-.26,0-.52-.08-.77-.05-.08-.14-.13-.23-.13-.32-.05-.63-.07-.95-.06h-.86v2.95h2.09c.21,0,.41-.04,.61-.1l.07-.1c.1-.33,.16-.67,.2-1.01h.45c-.07,.58-.11,1.17-.12,1.76l-.07,.07h-3.66l-1.71,.04Z"/><path class="cls-3" d="M132.38,28.96c.24,0,.49-.02,.73-.06,.04-.01,.08-.04,.1-.07,.04-.06,.06-.12,.06-.19,0-.14,0-.48,.08-1.01v-4.96c-.01-.06-.04-.12-.08-.17-.05-.05-.11-.08-.17-.09-.23-.04-.46-.06-.69-.07v-.46h2.29c.74,1.01,1.64,2.09,2.69,3.34,.76,.91,1.39,1.63,1.88,2.14v-1.25c0-1.93,0-3.04-.06-3.41,0-.1-.04-.19-.1-.26-.27-.09-.56-.13-.84-.1v-.46h2.58v.42c-.26-.02-.53,.02-.78,.09-.03,.02-.05,.05-.06,.08-.08,.41-.11,.82-.1,1.24v1.43c0,2.39,0,3.84,.07,4.35l-.07,.05-.92-.14c-1.15-1.3-2.8-3.24-4.94-5.84v4.43c0,.25,.02,.51,.07,.76,.01,.04,.04,.08,.07,.11,.06,.03,.12,.05,.18,.05,.17,.03,.34,.04,.52,.05h.1v.45h-2.58l-.03-.42Z"/><path class="cls-3" d="M157.35,29.37v-.44c.26,0,.52-.02,.77-.09,.08-.04,.14-.12,.16-.21,.06-.46,.08-.93,.06-1.4v-4.67h-2s0,.08-.06,.18c-.05,.28-.08,.57-.08,.85h-.46v-1.25c0-.09,0-.32-.06-.52v-.05h6.89l.05,.05c-.03,.19-.05,.38-.05,.58v1.19h-.5c0-.27-.03-.54-.07-.8,0-.13,0-.21-.07-.23s-.07,0-.17,0h-1.78v4.71c-.03,.47-.03,.93,0,1.4,.02,.09,.08,.17,.16,.21,.25,.06,.52,.09,.78,.09v.4h-3.58Z"/><path class="cls-3" d="M169.11,25.73c-.01-.59,.09-1.17,.3-1.71,.19-.48,.48-.91,.85-1.26,.35-.32,.76-.58,1.21-.74,.59-.19,1.21-.29,1.83-.28,.6,0,1.2,.08,1.77,.27,.37,.14,.72,.34,1.01,.61,.28,.23,.51,.51,.69,.82,.17,.28,.29,.59,.36,.91,.08,.36,.13,.73,.12,1.09,0,.65-.12,1.28-.35,1.88-.36,.86-1.04,1.55-1.89,1.91-.64,.26-1.33,.38-2.03,.36-.72,.02-1.43-.13-2.09-.44-.57-.29-1.05-.74-1.37-1.3-.32-.67-.47-1.41-.43-2.15Zm1.66-.31c-.02,.71,.1,1.41,.34,2.08,.17,.47,.48,.88,.89,1.16,.38,.24,.82,.36,1.27,.34,.43,0,.85-.11,1.23-.32,.39-.26,.69-.65,.84-1.09,.22-.6,.32-1.24,.3-1.87,0-.47-.05-.93-.16-1.39-.1-.38-.26-.74-.48-1.06-.19-.28-.44-.51-.73-.67-.34-.17-.72-.25-1.1-.23-.48-.02-.95,.12-1.35,.37-.38,.26-.66,.65-.8,1.08-.17,.52-.26,1.06-.25,1.6Z"/><path class="cls-3" d="M183.91,28.96c.24,0,.49-.02,.73-.06,.04-.01,.08-.04,.1-.07,.04-.06,.06-.12,.06-.19,0-.14,0-.48,.08-1.01v-4.46c.01-.17,.01-.34,0-.51-.01-.06-.04-.12-.08-.17-.05-.05-.11-.08-.17-.09-.23-.04-.46-.06-.69-.07v-.46h2.29c.74,1.01,1.64,2.09,2.69,3.34,.76,.91,1.39,1.63,1.88,2.14v-1.25c0-1.93,0-3.04-.06-3.41,0-.1-.04-.19-.1-.26-.27-.09-.56-.13-.84-.1v-.46h2.58v.42c-.26-.02-.53,.02-.78,.09-.03,.02-.05,.05-.06,.08-.08,.41-.11,.82-.1,1.24v1.43c0,2.39,.02,3.84,.06,4.35l-.06,.05-1-.14c-1.15-1.3-2.8-3.24-4.94-5.84v4.43c0,.25,.01,.51,.06,.76,.01,.04,.04,.08,.07,.11,.06,.03,.12,.05,.18,.05,.17,.03,.34,.04,.52,.05h.1v.45h-2.47l-.05-.42Z"/><path class="cls-3" d="M206.35,24.06h-.44v-.52c0-.14-.03-.27-.05-.41-.09-.1-.19-.19-.29-.26-.25-.16-.52-.29-.81-.37-.33-.09-.67-.13-1.01-.13-.81-.03-1.59,.27-2.17,.84-.57,.63-.86,1.46-.81,2.3-.05,.92,.26,1.83,.86,2.53,.52,.61,1.29,.95,2.1,.94,.23,0,.47-.02,.7-.07,.23-.05,.46-.12,.68-.22v-1.06c.03-.21,.03-.41,0-.62-.03-.05-.08-.08-.14-.09-.34-.06-.67-.09-1.01-.1v-.48h3.24v.35c-.15,.01-.29,.08-.41,.18,0,0-.06,.13-.06,.29v.89c0,.28,.02,.56,.05,.84-.57,.21-1.16,.39-1.75,.52-.49,.1-.99,.15-1.49,.15-.74,.02-1.47-.12-2.15-.41-.42-.18-.8-.44-1.12-.76-.3-.29-.53-.63-.7-1.01-.46-1.04-.51-2.22-.14-3.3,.16-.41,.4-.78,.7-1.1,.29-.31,.64-.57,1.01-.77,.38-.19,.78-.33,1.2-.42,.45-.09,.91-.14,1.37-.13,.57,0,1.14,.06,1.7,.17,.42,.08,.84,.2,1.24,.36v.1c-.14,.58-.23,1.16-.28,1.75Z"/><rect class="cls-2" x="26.88" y="25.42" width="6.59" height="6.59" transform="translate(-11.47 29.75) rotate(-45)"/><path class="cls-3" d="M94.38,58.97h-15.36c-.3,.02-.55-.2-.58-.49,0-.02,0-.04,0-.06,0-.33,.35-.22,.56-.22h9.37c.63,0,.79-.18,.78-.79v-10.46c0-.53-.14-.7-.68-.7h-8.15c-.34,0-.61-.08-.6-.49s.34-.3,.58-.3h7.84c.82,0,.89-.09,.65-.9-.46-1.51-.9-3.04-1.4-4.52-.17-.51,0-.62,.43-.57,1.09,.03,2.16,.3,3.14,.78,1.36,.68,1.91,2.34,1.22,3.7-.06,.12-.13,.24-.21,.35-.2,.32-.73,.67-.55,1.01s.79,.13,1.21,.14h3.54c.68,0,.89-.24,.94-.87,.11-1.52,.25-3.04,.43-4.54,.09-.86,.13-.87,.93-.61,1.15,.37,2.3,.77,3.45,1.17,.23,.08,.57,.12,.61,.4,.02,.31-.17,.6-.46,.72-1.44,.72-2.3,2.08-3.46,3.1-.13,.12-.43,.23-.29,.5s.35,.11,.54,.11h9.25c.21-.02,.43-.02,.64,0,.26,.06,.74-.23,.74,.3s-.44,.49-.81,.49h-7.96c-.56,0-.73,.14-.73,.72v10.46c0,.65,.22,.77,.81,.77h8.98c.21,0,.61-.14,.6,.23-.01,.31-.27,.56-.59,.55h-15.4v.02Zm1.86-6.8v-5.32c0-.43-.09-.63-.56-.61h-2.38c-.35,0-.49,.12-.49,.49v10.96c0,.36,.14,.5,.5,.49h2.31c.48,0,.63-.14,.63-.62-.01-1.79-.01-3.6-.01-5.39Z"/><path class="cls-3" d="M83.47,70.9v-8.75c0-.76,0-.75,.74-.61,1.09,.18,2.1,.67,2.92,1.41,.25,.23,.59,.35,.93,.33h13.17c.71-.09,1.4-.32,2.03-.69,.65-.25,1.29-.57,1.91-.88,.47-.24,.56,0,.56,.37v17.53c0,.76-.09,.85-.85,.79-.58-.03-1.14-.15-1.68-.36-1.01-.42-1.15-.63-1.15-1.71q0-.87-.87-.87h-12.83c-.6,0-.84,.11-.81,.76,0,1.16-.15,1.42-1.29,1.76-.63,.21-1.28,.32-1.94,.34-.55,0-.74-.12-.74-.71-.07-2.92-.08-5.83-.08-8.72Zm11.22,6.08h6.61c.45,0,.65-.09,.65-.6v-5.13c0-.44-.16-.55-.57-.55h-13.4c-.43,0-.55,.15-.55,.56v5.06c0,.51,.15,.66,.66,.66,2.19-.09,4.39-.07,6.59-.07v.06Zm0-7.09h6.54c.54,0,.76-.1,.74-.7v-4.61c0-.49-.12-.68-.64-.68h-13.28c-.5,0-.61,.17-.6,.64v4.74c0,.5,.16,.62,.63,.61,2.18-.09,4.38-.08,6.57-.08l.03,.08Z"/><path class="cls-3" d="M87.73,53.68c.02,1.73-1.16,3.24-2.84,3.65-.29,.1-.5,0-.55-.34-.28-1.82-.7-3.61-1.15-5.38-.27-1.05-.61-2.09-1.01-3.1-.07-.18-.2-.36-.06-.54s.33,0,.47,0c1.88,.76,3.69,1.64,4.67,3.57,.35,.66,.51,1.4,.48,2.15Z"/><path class="cls-3" d="M100.56,57.49c.15-.74,.36-1.47,.64-2.17,.81-2.31,1.45-4.68,1.91-7.09,.13-.76,.26-.8,.91-.34,1.12,.77,2.26,1.54,3.37,2.33,.24,.16,.63,.27,.52,.7-.09,.37-.4,.63-.78,.66-.62,0-.89,.44-1.2,.85-1.41,1.91-3.12,3.59-5.06,4.95-.06,.06-.12,.17-.31,.11Z"/><path class="cls-3" d="M192.19,49.18c.14,.15,.35,.23,.56,.2h4.43c.36,.06,.7-.17,.76-.53,0-.01,0-.03,0-.04,.16-.62,.38-1.22,.6-1.82s.34-.62,.74-.18l3.62,4c.41,.46,.34,.84-.2,.84-.88,.13-1.71,.5-2.4,1.07-.92,.54-1.87,1.01-2.84,1.48-.45,.15-.73,.59-.68,1.06v10.46c0,.85-.11,1.01-.96,.9-.73-.05-1.44-.26-2.09-.61-.6-.33-1.08-.77-.93-1.57,.09-.49-.15-.63-.62-.61h-2.56c-.4,0-.53,.13-.52,.52v5.21c0,.51,.25,.54,.65,.54h9.75c.28,0,.8-.26,.82,.24s-.44,.6-.92,.6h-9.5c-.6,0-.82,.13-.8,.77v5.14c0,.52,.16,.65,.66,.65h12c.28-.04,.57,0,.84,.09-.02,.28-.26,.49-.54,.47h-29.41c-.33,0-.9,.17-.88-.34s.57-.21,.86-.21h11.49c.57,0,.79-.12,.77-.74v-5.14c0-.55-.18-.68-.7-.68h-8.56c-.46,0-.57-.3-.57-.61s.34-.23,.55-.23c2.83,0,5.65,0,8.48,.05,.63,0,.79-.19,.78-.8v-4.94c0-.42-.11-.59-.54-.57h-2.03c-.36,0-.61,.09-.53,.5,.26,1.33-.55,1.84-1.59,2.21-.57,.17-1.16,.29-1.75,.35-.48,.07-.66-.12-.65-.6v-12.62c0-.73,.05-.79,.78-.62,.97,.18,1.89,.55,2.71,1.08,.27,.21,.61,.31,.95,.3h9.95c.51-.06,1-.19,1.47-.41,.36-.11,.7-.33,1.07-.42,1.19-.14,2.14-1.06,2.31-2.25,.23-1.25,.71-1.2-.84-1.2h-18.71q-.89,0-.85,.92c.17,1.52-.04,3.05-.6,4.47-.28,.74-.83,1.36-1.54,1.72-.93,.51-2.09,.19-2.62-.73-.24-.4-.44-.83-.6-1.27-.1-.33-.01-.7,.23-.94,1.29-1.86,2.38-3.85,3.25-5.94,.19-.48,.33-1.01,.51-1.45,.06-.16,.12-.36,.31-.36s.16,.22,.21,.34c.26,.61,.44,1.25,.56,1.9,0,.27,.22,.48,.49,.48,.02,0,.04,0,.07,0h7.52c.47,0,.44-.29,.44-.6v-8.1c0-.9,0-.89,.85-.69,1.33,.31,2.66,.61,3.99,.9,.59,.13,.68,.31,.37,.83-.08,.15-.17,.34-.31,.4-.73,.28-.65,.89-.65,1.49v5.21c0,.47,.13,.63,.62,.63,1.38,0,1.4,0,1.74-1.34,.56-2.22,1.1-4.44,1.61-6.67,.11-.47,.25-.51,.63-.27,1.3,.78,2.61,1.54,3.9,2.33,.46,.27,.42,.8-.12,1.01-2.27,1.05-3.4,3.27-5.3,4.71Zm-4.78,6.16h-5c-.47,0-.64,.12-.64,.62v6.48c0,.45,.14,.59,.59,.59h9.95c.48,0,.57-.19,.57-.61,0-2.17,0-4.33,0-6.48,0-.45-.13-.6-.59-.6-1.67,.02-3.3,0-4.87,0Z"/><path class="cls-3" d="M182.86,45.65c0,1.61-.31,2.78-1.72,3.31-.29,.08-.58,.13-.88,.14-.43,.05-.63-.15-.72-.55-.41-1.83-.91-3.64-1.51-5.42-.17-.53-.37-1.01-.55-1.57-.08-.24-.15-.6,.29-.48,1.81,.48,3.56,1.1,4.61,2.84,.32,.52,.49,1.11,.48,1.72Z"/><path class="cls-3" d="M154.23,62.04v-19.65c0-.3-.13-.44-.45-.32s-.84,.31-1.27,.45c-1.16,.55-2.41,.89-3.69,1.01h-4.05c-.72-.38-1.5-.65-2.3-.8-.43-.1-.43-.11-.43,.32v.74h0v19.56c0,.1,.06,.25,.24,.25,1.09,0,2.17-.17,3.2-.53,.16-.08,.25-.24,.23-.42v-1.23c0-.24,.07-.33,.31-.33h3.71c.15,0,.23,0,.27,.12v11.14c0,.34-.01,.68-.06,1.01,0,.76-.62,1.36-1.38,1.36-.11,0-.21-.01-.31-.04-.52,0-1.01-.1-1.54-.13-.84,0-1.69-.08-2.53-.12v.2l.28,.14c1.4,.55,2.59,1.54,3.38,2.83,.35,.73,.59,1.52,.71,2.32,.06,.25,.06,.54,.46,.44,1.19-.24,2.32-.7,3.34-1.36,1.27-.95,1.96-2.47,1.85-4.05v-12.91Zm-4.26-11.14v.22c0,.24-.06,.34-.33,.33h-3.58c-.26,0-.34-.08-.33-.33v-6.77c-.02-.07-.02-.15,0-.22h3.29c.87,0,.92,0,.93,.75-.02,2.05-.02,3.97-.02,6.03h.04Zm-.45,9.42h-3.36c-.33,0-.45-.09-.45-.44v-7.26c0-.28,.07-.37,.36-.37h3.51c.29,0,.36,.11,.36,.38v7.27c-.03,.34-.11,.43-.44,.43h0Z"/><path class="cls-3" d="M139.74,42.78c-.45,.17-.89,.33-1.35,.47l-.56,.2h-6.35c-.9-.62-1.91-1.06-2.98-1.32-.74-.17-.73-.19-.73,.57v36.96c0,.81,0,.82,.83,.77,.83-.07,1.65-.24,2.44-.52,.93-.29,1.01-.36,1.01-1.35v-17.43c0-.06,.12-.09,.25-.09h3.72c.25,0,.32,.1,.31,.33v1.23c-.02,.2,.08,.39,.25,.5,.91,.37,1.89,.57,2.88,.59,.53,0,.55,0,.55-.54v-20.26c-.03-.14-.09-.18-.28-.11Zm-3.89,17.59h-3.38c-.29,0-.41-.08-.43-.32v-7.49c0-.21,.11-.29,.36-.29h3.52c.3,0,.36,.11,.36,.38v7.28c0,.35-.12,.44-.45,.44Zm.44-9.25c0,.25-.05,.35-.32,.34h-3.6c-.23,0-.31-.07-.33-.26v-4.79h0v-2.03c-.01-.07-.01-.15,0-.22h4.22c0,.06,0,.12,0,.18,.03,2.31,.03,4.45,.03,6.78Z"/><rect class="cls-3" x="171.86" y="77.7" width="30.59" height=".82"/></g></g></g></g></svg>