<?xml version="1.0" encoding="UTF-8"?><svg id="Layer_2" xmlns="http://www.w3.org/2000/svg" viewBox="0 0 231.95 42.53"><defs><style>.cls-1{fill:#00ac5b;}.cls-2{fill:#231f20;}</style></defs><g id="Pages"><g id="P2"><g><path class="cls-2" d="M124.47,26.06l-3.35,.4c-2.92,.36-5.47,1.4-5.47,3.87,0,1.76,1.52,2.96,3.47,2.96,2.32,0,4.23-1.52,5.43-3.04v-4.19h-.08Zm.04,10.66v-2.51c-1.2,1.4-3.11,3.03-6.51,3.03-3.91,0-7.15-2.48-7.15-6.71,0-5.15,4.83-7.03,9.54-7.55l1.84-.2c1.8-.16,2.43-1.16,2.43-2.35,0-1.48-1.4-2.55-3.51-2.55-2.44,0-4.79,1.75-5.67,3.15l-2.8-3.31c1.72-2.24,4.75-3.79,8.71-3.79,5.11,0,8.07,2.64,8.07,7.03v15.77h-4.95Z"/><path class="cls-2" d="M138.76,36.73h-4.91V14.44h4.91v2.51c1.76-1.6,4.39-3.04,7.27-3.04,2.64,0,6.23,1.52,6.23,6.95v15.85h-4.91v-14.58c0-2.2-.92-4.07-3.19-4.07-1.88,0-4.27,1.6-5.39,2.64v16.01Z"/><path class="cls-2" d="M169.54,14.44h4.91v22.28h-5.07v-2.39c-1.36,1.28-3.55,2.91-6.43,2.91s-6.87-1.52-6.87-7.11V14.44h4.91v14.09c0,2.6,1.12,4.39,3.43,4.39,1.92,0,3.71-1.24,5.11-2.8V14.44Z"/><path class="cls-2" d="M184.78,36.73h-4.91V7.42l4.91-4.87V36.73Z"/><path class="cls-2" d="M195.32,36.73h-5.11V14.44h5.11v22.28Zm-2.55-32.31c1.68,0,3.11,1.4,3.11,3.11s-1.44,3.15-3.11,3.15-3.16-1.44-3.16-3.15,1.44-3.11,3.16-3.11Z"/><path class="cls-2" d="M210.9,18.52h-4.67v18.21h-4.91V18.52h-3v-4.07h3v-4.59c0-3.67,2.35-6.99,6.99-6.99,2.16,0,3.95,.6,5.03,1.16l-1.56,3.84c-.68-.4-1.72-.8-2.72-.8-1.56,0-2.84,1.16-2.84,3.07v4.31h5.83l-1.16,4.07Z"/><path class="cls-2" d="M226.79,23.15c0-2.71-1.72-5.27-4.71-5.27s-5.11,2.72-5.19,5.27h9.9Zm-10.06,3.75c.04,3.59,2.64,6.15,5.71,6.15,2.32,0,4.71-1.56,5.75-3.43l3.07,2.87c-1.8,2.64-5.27,4.75-9.3,4.75-6.35,0-10.3-4.79-10.3-11.66s4.27-11.66,10.46-11.66,10.06,3.87,9.82,12.98h-15.21Z"/><path class="cls-2" d="M82.67,36.73h-5.35V5.8h5.79l9.11,15.22h.08l9.06-15.22h5.67v30.93h-5.39V14.82h-.08l-9.39,15.58-9.42-15.58h-.08v21.9Z"/><path class="cls-1" d="M30.93,7.73V42.53l7.73-7.73V0l-7.73,7.73Z"/><path class="cls-1" d="M15.46,42.52l7.73-7.73V0l-7.73,7.73V42.52Z"/><path class="cls-1" d="M0,42.52l7.73-7.73V0L0,7.73V42.52Z"/></g></g></g></svg>