<?xml version="1.0" encoding="UTF-8"?><svg id="Layer_2" xmlns="http://www.w3.org/2000/svg" viewBox="0 0 137.58 91.76"><defs><style>.cls-1{fill:#c6c7c9;}</style></defs><g id="Pages"><g id="P2"><g id="Layer_2-2"><g id="Layer_1-2"><polygon class="cls-1" points="48.39 91.62 49.72 91.62 49.72 88.68 53.04 88.68 53.04 87.47 49.72 87.47 49.72 85.51 53.45 85.51 53.45 84.3 48.39 84.3 48.39 91.62"/><rect class="cls-1" x="54.45" y="84.3" width="1.35" height="7.32"/><polygon class="cls-1" points="56.73 85.54 58.9 85.54 58.9 91.62 60.23 91.62 60.23 85.54 62.39 85.54 62.39 84.3 56.73 84.3 56.73 85.54"/><polygon class="cls-1" points="67.85 89.25 64.73 84.3 63.31 84.3 63.31 91.62 64.62 91.62 64.62 86.59 67.79 91.62 69.16 91.62 69.16 84.3 67.85 84.3 67.85 89.25"/><polygon class="cls-1" points="70.87 91.62 76.08 91.62 76.08 90.41 72.21 90.41 72.21 88.41 75.62 88.41 75.62 87.21 72.21 87.21 72.21 85.51 76.08 85.51 76.08 84.3 70.87 84.3 70.87 91.62"/><path class="cls-1" d="M80.67,87.33c-.49-.06-1.13-.11-1.59-.19-.42-.02-.75-.37-.74-.79,0-.23,.08-.46,.25-.62,.68-.53,1.62-.53,2.3,0,.19,.2,.3,.45,.32,.72h1.36c-.03-.6-.29-1.16-.74-1.56-.57-.48-1.3-.73-2.04-.71-.79-.02-1.55,.25-2.14,.77-.81,.76-.86,2.04-.09,2.86,.34,.37,.81,.59,1.31,.63,.49,.08,1.13,.1,1.62,.2s.87,.33,.87,.87c.01,.26-.09,.52-.29,.7-.36,.29-.81,.43-1.27,.4-.44,.03-.88-.11-1.22-.4-.24-.23-.38-.56-.39-.9h-1.36c0,.65,.28,1.26,.76,1.7,1.33,1.02,3.18,1,4.5-.03,.41-.4,.63-.96,.61-1.53,0-1.26-.91-1.97-2.01-2.12Z"/><path class="cls-1" d="M87.19,87.33c-.49-.06-1.13-.11-1.59-.19-.42-.02-.75-.37-.74-.79,0-.23,.08-.46,.24-.62,.68-.53,1.62-.53,2.3,0,.19,.2,.3,.45,.32,.72h1.36c-.03-.6-.29-1.16-.74-1.56-.57-.48-1.3-.73-2.04-.71-.79-.02-1.55,.25-2.15,.77-.81,.76-.86,2.04-.09,2.86,.34,.37,.81,.59,1.31,.63,.49,.08,1.13,.1,1.62,.2s.87,.33,.87,.87c.01,.26-.09,.52-.29,.7-.35,.29-.81,.43-1.27,.4-.45,.03-.89-.11-1.23-.4-.24-.24-.38-.56-.38-.9h-1.36c.01,.64,.29,1.25,.76,1.68,1.33,1.02,3.18,1,4.5-.03,.41-.4,.63-.96,.61-1.53,0-1.24-.92-1.95-2.02-2.1Z"/><polygon class="cls-1" points="127.18 73.26 137.58 73.26 137.58 66.96 127.18 66.96 127.18 40.25 136.96 40.25 136.96 33.85 127.18 33.85 127.18 7.31 137.58 7.31 137.58 1.01 127.18 1.01 124.08 1.01 120.47 1.01 120.47 73.26 124.08 73.26 127.18 73.26"/><path class="cls-1" d="M88.33,1.01h-13.14l-5.54,72.25h7.12l1.93-25.19h6.66l1.96,25.19h7.09L88.88,1.01h-.55Zm-9.15,40.77l2.31-26.65V3.48h1.08V15.12l2.31,26.65h-5.7Z"/><path class="cls-1" d="M44.16,64.12V10.14c-.12-5.56-4.73-9.96-10.29-9.84-5.39,.12-9.72,4.46-9.84,9.84v53.98c0,5.34,4.17,9.75,9.5,10.05v6.6h10.62v-6.65h-8.89c5.07-.6,8.89-4.89,8.89-9.99Zm-7.34,0c-.06,1.5-1.33,2.66-2.82,2.59-1.41-.06-2.53-1.19-2.59-2.59V10.14c.06-1.5,1.33-2.66,2.82-2.59,1.41,.06,2.53,1.19,2.59,2.59v53.98Z"/><path class="cls-1" d="M60.39,64.12c0,1.49-1.21,2.7-2.71,2.7-1.49,0-2.7-1.21-2.7-2.7V1.01h-7.34v63.1c0,5.56,4.5,10.06,10.06,10.06s10.06-4.5,10.06-10.06V1.01h-7.34l-.04,63.11Z"/><path class="cls-1" d="M103.45,44.49h2.45l4.56,28.77h6.71l-4.71-29.66h-6.47v-1.15h1.16c1.9,.04,3.77-.47,5.38-1.47,1.52-.97,2.72-2.37,3.45-4.02,.85-1.95,1.25-4.07,1.19-6.2V12.66c.05-2.13-.38-4.24-1.25-6.18-.76-1.65-1.98-3.04-3.51-4.03-1.62-.99-3.49-1.49-5.38-1.44h-10.27V73.26h6.66l.02-28.77Zm0-37.08h3.61c.66,0,1.31,.23,1.8,.67,.56,.5,.97,1.14,1.2,1.86,.29,.88,.42,1.81,.41,2.73v11.12h0v6.99c.01,.94-.11,1.88-.36,2.79-.18,.72-.57,1.37-1.13,1.86-.51,.41-1.15,.63-1.8,.62h-3.71V7.41Z"/><path class="cls-1" d="M18.19,38.65c-.45-.81-1.03-1.54-1.71-2.17-.79-.73-1.67-1.36-2.63-1.85l-3.61-1.84c-.48-.27-.94-.6-1.35-.98-.38-.34-.69-.74-.92-1.19-.51-1.1-.79-2.29-.83-3.51-.14-1.58-.21-4.75-.21-9.5,0-3.72,.03-6.15,.1-7.29,0-.84,.17-1.68,.51-2.45,.3-.44,.69-.81,1.14-1.09,.47-.26,1.01-.38,1.55-.36,.96-.07,1.89,.36,2.45,1.14,.49,.75,.77,1.89,.77,3.42v15.16h6.6V11.26c.06-2.11-.29-4.22-1.04-6.2-.63-1.59-1.78-2.91-3.25-3.77C14.04,.37,12.1-.07,10.14,0c-1.81-.06-3.6,.31-5.24,1.09-1.41,.73-2.57,1.86-3.34,3.25C.79,5.56,.32,6.94,.22,8.37,.08,9.89,0,13.2,0,18.29,0,24.08,.09,27.97,.27,29.97c.09,1.71,.57,3.37,1.4,4.86,.42,.77,.96,1.46,1.59,2.06,.73,.67,1.55,1.22,2.45,1.65l3.51,1.76c.61,.36,1.18,.77,1.71,1.24,.4,.35,.73,.77,.98,1.24,.68,1.12,1.11,2.37,1.24,3.67,.14,1.69,.2,5.08,.2,10.17,0,2.13,0,3.91-.05,5.27-.05,1.36-.08,2.37-.15,2.99-.03,.51-.17,1.01-.41,1.47-.26,.47-.66,.85-1.14,1.09-.51,.25-1.08,.37-1.65,.36-.66,.03-1.31-.15-1.86-.51-.51-.38-.88-.9-1.08-1.5-.27-.82-.39-1.67-.36-2.53v-14.72H0v14.39c-.07,2.12,.3,4.23,1.09,6.2,.65,1.57,1.79,2.89,3.25,3.77,1.45,.86,3.31,1.29,5.58,1.29,1.85,.06,3.7-.31,5.38-1.08,1.45-.73,2.67-1.86,3.51-3.25,.42-.78,.73-1.61,.92-2.48,.26-1.4,.4-2.81,.41-4.24,.07-1.93,.11-4.34,.11-7.23,0-6.27-.09-10.4-.26-12.39-.21-1.74-.83-3.4-1.81-4.85Z"/></g></g></g></g></svg>