<?xml version="1.0" encoding="UTF-8"?><svg id="Layer_2" xmlns="http://www.w3.org/2000/svg" viewBox="0 0 217.11 83.57"><defs><style>.cls-1{fill:#040000;}.cls-2{fill:#fff;}</style></defs><g id="Layer_2-2"><g id="Pages"><g id="P2"><g><path class="cls-2" d="M23.1,83.57c-.94,0-1.85-.18-2.72-.54-2.66-1.1-4.38-3.68-4.38-6.56v-8.9h-3.56c-6.86,0-12.44-5.58-12.44-12.44V12.44C0,5.58,5.58,0,12.44,0H108.44c6.86,0,12.44,5.58,12.44,12.44v.47c.56-.3,1.16-.52,1.78-.64,.26-.84,.69-1.62,1.29-2.3,1.2-1.39,2.9-2.15,4.77-2.15h5.83c2.3,0,4.26,1.04,5.4,2.79,1.55-1.71,3.71-2.65,6.08-2.65h12.42c3.57,0,5.73,1.53,6.91,2.82,.04,.04,.08,.09,.12,.13,.66,.77,1.17,1.64,1.53,2.59,.09-.08,.17-.15,.26-.22,.81-.64,1.75-1.06,2.74-1.26,.25-.91,.69-1.76,1.31-2.48,1.2-1.39,2.85-2.16,4.67-2.16h6.26c1.63,0,3.2,.63,4.42,1.76,.84,.79,1.44,1.75,1.76,2.8,.87,.11,1.69,.39,2.41,.82,.2-.84,.55-1.63,1.06-2.35,1.17-1.66,3.02-2.61,5.07-2.61h6.12c1.95,0,3.76,.89,4.97,2.44,.94,1.21,1.43,2.61,1.43,4.05v10.63h1.55c1.53,0,2.99,.55,4.1,1.55,1.27,1.14,1.97,2.73,1.97,4.47v1.83c0,1.93-.88,3.67-2.41,4.79-1.07,.78-2.32,1.19-3.61,1.19h-1.6v14.68c0,1.52-.47,2.92-1.37,4.07-1.17,1.48-2.95,2.33-4.89,2.33h-6.26c-1.8,0-3.47-.77-4.69-2.16-.56-.64-.98-1.35-1.25-2.11-.17,.27-.36,.52-.57,.77-1.12,1.38-3.22,3.03-6.86,3.03h-9.69c-1.79,0-3.43-.49-4.8-1.42-1.04,1.14-2.52,1.79-4.09,1.79h-3.2c-.96,0-1.95-.2-2.92-.6-.75-.31-1.44-.69-2.05-1.15l-.15-.12-1.12-.91-.68,.67c-.66,.66-1.41,1.18-2.21,1.56-.97,.46-2.05,.69-3.19,.69h-8.94c-.75,0-1.48-.14-2.15-.4-.72,.17-1.48,.26-2.27,.26h-9.27c-1.07,0-2.11-.18-3.06-.52-1.07-.39-2.01-.96-2.79-1.72-.11-.1-.22-.21-.32-.31-1,5.87-6.12,10.34-12.26,10.34H42.05l-13.92,13.92c-1.34,1.34-3.13,2.08-5.02,2.08"/><path class="cls-1" d="M23.1,78.35c-.24,0-.49-.05-.72-.14-.7-.29-1.16-.98-1.16-1.74v-14.12H12.43c-3.98,0-7.22-3.24-7.22-7.22V12.44c0-3.98,3.24-7.22,7.22-7.22H108.43c3.98,0,7.22,3.24,7.22,7.22V55.12c0,3.98-3.24,7.22-7.22,7.22H39.88l-15.45,15.45c-.36,.36-.84,.55-1.33,.55M12.43,8.98c-1.9,0-3.45,1.55-3.45,3.45V55.11c0,1.9,1.55,3.45,3.45,3.45h10.67c1.04,0,1.88,.84,1.88,1.88v11.46l12.79-12.79c.35-.35,.83-.55,1.33-.55H108.44c1.9,0,3.45-1.55,3.45-3.45V12.44c0-1.9-1.55-3.45-3.45-3.45H12.43Z"/><path class="cls-1" d="M36.37,22.22h-1.08c-.31,0-.47,.14-.47,.42v15.2c0,.5-.05,1-.14,1.51-.09,.5-.24,.89-.42,1.18l-3.81,5.88c-.13,.16-.17,.35-.14,.56,.03,.22,.11,.39,.24,.52l5.64,6.45c.09,.09,.12,.22,.09,.38-.03,.16-.11,.24-.24,.24h-3.9c-.16,0-.33-.05-.52-.14-.19-.09-.31-.19-.38-.28l-3.01-3.39c-.06-.06-.16-.1-.31-.12-.14-.02-.24,.02-.31,.12l-2.16,3.34c-.09,.16-.24,.27-.42,.35-.19,.08-.36,.12-.52,.12h-8.04c-.13,0-.22-.08-.28-.24-.06-.16-.06-.3,0-.42l6.02-9.22c.09-.16,.12-.32,.07-.49s-.12-.34-.21-.49l-2.73-3.15c-.38-.41-.65-.9-.82-1.48s-.26-1.22-.26-1.91v-14.45c0-.31-.14-.47-.42-.47h-1.03c-.13,0-.24-.07-.33-.21s-.14-.29-.14-.45v-2.12c0-.12,.06-.26,.19-.4,.13-.14,.27-.21,.42-.21h.85c.13,0,.24-.05,.33-.16s.14-.23,.14-.35v-4.94c0-.34,.19-.52,.56-.52h2.3c.13,0,.24,.04,.35,.12,.11,.08,.16,.18,.16,.31v5.03c0,.13,.04,.24,.12,.35,.08,.11,.16,.16,.26,.16h4.42c.09,0,.19-.05,.28-.16s.14-.24,.14-.4v-4.89c0-.34,.17-.52,.52-.52h6.77c.44,0,.66,.22,.66,.66v4.85c0,.31,.17,.47,.52,.47h.99c.16,0,.27,.05,.35,.14s.12,.19,.12,.28v2.4c0,.38-.14,.56-.42,.56m-9.5,.56c0-.13-.06-.25-.16-.38-.11-.13-.24-.19-.4-.19h-4.19c-.13,0-.24,.06-.33,.16-.09,.11-.14,.23-.14,.35v13.41c0,.22,.02,.5,.07,.85s.13,.58,.26,.71l2.3,2.63c.09,.13,.22,.19,.38,.19s.28-.08,.38-.24l1.55-2.4c.09-.16,.16-.35,.21-.59s.07-.48,.07-.73v-13.77Zm31.19,12.16c-.16,.14-.33,.21-.52,.21h-5.13c-.22,0-.42,.07-.61,.21s-.28,.34-.28,.59v14.4c0,1.1-.38,2.05-1.13,2.87-.38,.41-.84,.73-1.39,.96-.55,.24-1.14,.35-1.76,.35h-8c-.25,0-.46-.09-.63-.26-.17-.17-.26-.38-.26-.64v-6.54c0-.22,.09-.42,.28-.59s.39-.26,.61-.26h3.2c.5,0,.75-.22,.75-.66v-9.65c0-.19-.08-.37-.24-.54-.16-.17-.35-.26-.56-.26h-5.64c-.5,0-.75-.22-.75-.66v-2.07c0-.19,.07-.35,.21-.49s.32-.21,.54-.21h5.64c.16,0,.33-.09,.52-.28,.19-.19,.28-.36,.28-.52v-4.42c0-.16,.05-.4,.14-.73s.19-.57,.28-.73l4.75-7.01c.16-.25,.2-.5,.12-.75-.08-.25-.29-.38-.63-.38h-9.22c-.5,0-.75-.22-.75-.66v-2.07c0-.19,.07-.35,.21-.49,.14-.14,.32-.21,.54-.21h18.11c.22,0,.41,.07,.56,.21,.16,.14,.24,.34,.24,.59v4.42c0,.35-.14,.74-.42,1.18l-5.17,7.62c-.13,.16-.23,.32-.31,.49-.08,.17-.12,.37-.12,.59v2.35c0,.25,.09,.45,.26,.59,.17,.14,.38,.21,.64,.21h5.08c.53,0,.8,.27,.8,.8v1.88c0,.22-.08,.4-.24,.54"/><path class="cls-1" d="M82.05,53.23c-.66,.85-1.57,1.27-2.73,1.27h-12.09c-1.16,0-2.05-.39-2.68-1.18-.5-.69-.75-1.62-.75-2.78V22.4c0-1.1,.3-1.98,.89-2.63,.28-.34,.66-.6,1.13-.75,.47-.16,.94-.24,1.41-.24h1.74l1.27-5.03c.06-.22,.21-.41,.45-.56,.24-.16,.48-.24,.73-.24h6.07c.28,0,.5,.09,.66,.28s.2,.42,.14,.71l-1.18,4.28c-.03,.13,0,.25,.07,.38,.08,.13,.18,.19,.31,.19h1.83c.53,0,1.03,.07,1.48,.21,.45,.14,.82,.34,1.11,.59,.69,.66,1.03,1.6,1.03,2.82v28.14c0,1.04-.3,1.93-.89,2.68m-6.73-29.97c0-.28-.1-.53-.31-.73-.2-.2-.43-.31-.68-.31h-6.12c-.28,0-.53,.09-.73,.28-.2,.19-.31,.44-.31,.75v8.38c0,.25,.09,.48,.26,.68,.17,.2,.43,.31,.78,.31h6.12c.31,0,.56-.09,.73-.28,.17-.19,.26-.42,.26-.71v-8.38h0Zm0,13.84c0-.28-.09-.52-.28-.73-.19-.2-.41-.31-.66-.31h-6.12c-.28,0-.53,.09-.75,.28s-.33,.44-.33,.75v8.85c0,.25,.09,.48,.28,.68s.45,.31,.8,.31h6.07c.31,0,.56-.09,.73-.28,.17-.19,.26-.42,.26-.71v-8.85h0Zm28.22,16.38c-.35,.38-.75,.68-1.22,.92s-1,.35-1.6,.35h-11.1c-.25,0-.47-.09-.66-.26-.19-.17-.28-.38-.28-.64v-6.07c0-.25,.09-.45,.28-.61s.41-.24,.66-.24h6.3c.5,0,.75-.24,.75-.71V23.24c0-.28-.13-.56-.4-.82-.27-.27-.54-.4-.82-.4h-5.64c-.22,0-.47,.09-.75,.28-.28,.19-.46,.38-.52,.56l-1.55,5.08c-.06,.19-.17,.32-.33,.4s-.31,.12-.47,.12h-2.35c-.16,0-.31-.07-.45-.21s-.18-.29-.12-.45l4.37-14.16c.13-.41,.36-.61,.71-.61h2.63c.16,0,.27,.08,.35,.24s.09,.31,.02,.47l-1.32,4.23c-.06,.16-.04,.3,.07,.42,.11,.13,.24,.19,.4,.19h10.49c1.16,0,2.09,.35,2.78,1.04,.63,.69,.94,1.62,.94,2.78v27.9c0,1.22-.39,2.27-1.18,3.15m-9.1-10.05c-.08,.14-.2,.21-.35,.21h-2.4c-.19,0-.38-.05-.56-.16-.19-.11-.31-.24-.38-.4l-4.28-13.03c-.03-.09-.02-.21,.05-.35,.06-.14,.16-.21,.28-.21h2.4c.41,0,.67,.2,.8,.61l4.47,12.89c.06,.16,.05,.31-.02,.45"/><path class="cls-1" d="M139.91,20.55c-.19,.17-.42,.26-.71,.26h-15.29c-.31,0-.56-.1-.75-.31-.19-.2-.28-.43-.28-.68v-1.41c0-.34,.1-.6,.31-.78,.2-.17,.45-.26,.73-.26h3.06c.16,0,.3-.07,.42-.21s.19-.29,.19-.45v-2.45c0-.34,.1-.64,.31-.87,.2-.24,.48-.35,.82-.35h5.83c.82,0,1.22,.41,1.22,1.22v2.31c0,.53,.22,.8,.66,.8h2.78c.34,0,.6,.11,.75,.33,.16,.22,.24,.46,.24,.71v1.41c0,.31-.09,.56-.28,.73m-1.46,6.38h-13.88c-.31,0-.56-.09-.75-.28s-.28-.41-.28-.66v-1.46c0-.34,.1-.6,.31-.78,.2-.17,.45-.26,.73-.26h13.88c.34,0,.58,.11,.71,.33s.19,.46,.19,.71v1.46c0,.63-.3,.94-.89,.94m.14,26.73c-.6,.6-1.41,.89-2.45,.89h-9.27c-.47,0-.9-.07-1.29-.21s-.71-.34-.96-.59c-.63-.56-.94-1.38-.94-2.45v-11.9c0-.82,.28-1.54,.85-2.16,.53-.6,1.24-.89,2.12-.89h9.64c.97,0,1.77,.27,2.4,.8,.6,.53,.89,1.29,.89,2.26v11.67c0,1.13-.33,1.99-.99,2.59m.56-20.59c-.19,.17-.42,.26-.71,.26h-13.69c-.31,0-.56-.09-.75-.28s-.28-.41-.28-.66v-1.46c0-.34,.1-.6,.31-.78,.2-.17,.45-.26,.73-.26h13.69c.66,0,.99,.3,.99,.89v1.6c0,.28-.09,.51-.28,.68m-7.2,7.83c0-.28-.1-.52-.31-.73-.2-.2-.43-.31-.68-.31h-2.92c-.25,0-.48,.11-.68,.33s-.31,.46-.31,.71v5.03c0,.69,.3,1.04,.89,1.04h3.06c.25,0,.47-.11,.66-.33s.28-.45,.28-.71v-5.03h0Zm33.42,13.34c-.05,.2-.16,.31-.35,.31h-3.2c-.28,0-.6-.07-.94-.21-.35-.14-.64-.31-.89-.49l-4.19-3.39c-.16-.09-.33-.15-.52-.16-.19-.02-.35,.04-.47,.16l-3.58,3.48c-.25,.25-.51,.44-.78,.56-.27,.13-.59,.19-.96,.19h-8.94c-.28,0-.45-.13-.49-.38-.05-.25,.02-.47,.21-.66l8.61-7.95c.12-.09,.18-.24,.16-.42-.02-.19-.09-.33-.21-.42l-6.63-5.36c-.16-.16-.22-.34-.19-.54,.03-.2,.16-.31,.38-.31h2.49c.69,0,1.25,.17,1.69,.52l4.56,3.58c.16,.13,.34,.17,.56,.14s.41-.13,.56-.28l2.87-2.63c.34-.34,.52-.78,.52-1.32v-1.51c0-.22-.08-.38-.24-.49s-.35-.16-.56-.16h-12.79c-.69,0-1.03-.33-1.03-.99v-1.41c0-.34,.1-.6,.31-.78,.2-.17,.45-.26,.73-.26h19.14c.75,0,1.38,.2,1.88,.61,.53,.44,.8,1.05,.8,1.84v4.52c0,.47-.09,.94-.26,1.41s-.43,.88-.78,1.22l-4.75,4.61c-.13,.13-.19,.28-.19,.47s.06,.33,.19,.42l7.1,5.55c.16,.16,.21,.34,.16,.54m-.73-24.07c-.19,.22-.41,.33-.66,.33h-6.07c-1.1,0-1.99-.3-2.68-.89-.72-.66-1.08-1.55-1.08-2.68v-9.03c0-.38-.1-.69-.31-.94-.2-.25-.53-.38-.96-.38h-5.46c-.35,0-.61,.13-.8,.4s-.28,.57-.28,.92v6.87c0,.35-.07,.8-.21,1.36s-.29,1.02-.45,1.36l-1.36,2.78c-.25,.5-.63,.75-1.13,.75h-2.16c-.16,0-.27-.06-.35-.19-.08-.13-.07-.27,.02-.42l1.98-3.86c.13-.25,.22-.55,.28-.89s.09-.64,.09-.89v-8.56c0-.82,.25-1.51,.75-2.07,.56-.63,1.3-.94,2.21-.94h12.42c1.35,0,2.37,.38,3.06,1.13,.56,.66,.85,1.47,.85,2.45v9.22c0,.31,.09,.57,.28,.78,.19,.2,.44,.31,.75,.31h.61c.22,0,.43,.07,.63,.21,.2,.14,.31,.34,.31,.59v1.55c0,.28-.09,.53-.28,.75"/><path class="cls-1" d="M188.34,20.32c-.2,.17-.45,.26-.73,.26h-16.42c-.31,0-.56-.1-.75-.31-.19-.2-.28-.43-.28-.68v-1.41c0-.34,.11-.6,.33-.78,.22-.17,.47-.26,.75-.26h3.15c.16,0,.3-.07,.42-.21s.19-.29,.19-.45v-2.73c0-.31,.09-.58,.28-.8,.19-.22,.42-.33,.71-.33h6.26c.31,0,.6,.12,.85,.35,.25,.24,.38,.49,.38,.78v2.78c0,.16,.07,.3,.21,.42,.14,.13,.29,.19,.45,.19h3.48c.34,0,.6,.11,.78,.33,.17,.22,.26,.45,.26,.71v1.41c0,.31-.1,.56-.31,.73m-1.18,6.12c-.2,.17-.45,.26-.73,.26h-14.68c-.31,0-.56-.09-.75-.28s-.28-.41-.28-.66v-1.46c0-.34,.11-.6,.33-.78,.22-.17,.47-.26,.75-.26h14.63c.34,0,.6,.11,.78,.33,.17,.22,.26,.46,.26,.71v1.46c0,.28-.1,.51-.31,.68m-.73,26.61c-.6,.75-1.54,1.13-2.82,1.13h-9.69c-1,0-1.79-.31-2.35-.94-.56-.56-.85-1.3-.85-2.21v-12.09c0-.72,.25-1.36,.75-1.93,.5-.6,1.19-.89,2.07-.89h10.4c.97,0,1.76,.25,2.35,.75,.63,.53,.94,1.3,.94,2.31v11.25c0,1.13-.27,2.01-.8,2.63m.82-20.21c-.2,.17-.45,.26-.73,.26h-14.68c-.31,0-.56-.09-.75-.28s-.28-.41-.28-.66v-1.46c0-.34,.11-.6,.33-.78,.22-.17,.47-.26,.75-.26h14.63c.34,0,.6,.11,.78,.33,.17,.22,.26,.46,.26,.71v1.46c0,.28-.1,.51-.31,.68m-7.74,7.55c0-.25-.09-.45-.28-.61s-.39-.24-.61-.24h-3.72c-.19,0-.37,.09-.54,.26-.17,.17-.26,.38-.26,.64v5.36c0,.53,.27,.8,.8,.8h3.81c.22,0,.41-.09,.56-.28,.16-.19,.24-.41,.24-.66v-5.27h0Zm32.1-7.01c-.17,.13-.35,.19-.54,.19h-6.11c-.16,0-.31,.08-.47,.24-.16,.16-.24,.31-.24,.47v19.2c0,.35-.09,.63-.26,.85s-.43,.33-.78,.33h-6.26c-.28,0-.53-.13-.75-.38s-.33-.52-.33-.8v-19.15c0-.19-.06-.36-.19-.52-.13-.16-.3-.24-.52-.24h-6.07c-.19,0-.35-.06-.49-.19-.14-.13-.21-.31-.21-.56v-1.83c0-.19,.07-.37,.21-.54s.31-.26,.49-.26h6.3c.12,0,.24-.05,.33-.16s.14-.23,.14-.35V14.35c0-.31,.09-.6,.28-.87s.45-.4,.8-.4h6.12c.34,0,.63,.14,.85,.42s.33,.56,.33,.85v15.34c0,.16,.06,.28,.19,.38,.12,.09,.25,.14,.38,.14h6.21c.25,0,.45,.07,.61,.21s.24,.34,.24,.59v1.83c0,.25-.09,.44-.26,.56"/></g></g></g></g></svg>