<svg width="36" height="36" viewBox="0 0 36 36" fill="none" xmlns="http://www.w3.org/2000/svg">
<path d="M3.74132e-05 18C-0.0199848 8.07899 7.99891 0.0200596 17.9199 3.74132e-05C17.9499 3.74132e-05 17.97 3.74132e-05 18 3.74132e-05C27.921 -0.0199848 35.9799 7.9989 36 17.9199C36 17.9499 36 17.9699 36 18C36.02 27.921 28.0011 35.9799 18.0801 35.9999C18.0501 35.9999 18.03 35.9999 18 35.9999C8.079 36.03 0.0200596 28.0011 3.74132e-05 18.0801C3.74132e-05 18.05 3.74132e-05 18.03 3.74132e-05 18Z" fill="#4353FF"/>
<path d="M23.2958 15.8674L21.664 21.0131C21.664 20.6227 20.5427 12.0933 20.5427 12.0933C17.9499 12.0933 16.5783 13.9253 15.8575 15.8775L13.8653 21.0332C13.8653 20.6628 13.585 15.9275 13.585 15.9275C13.3848 13.8052 11.6329 12.1633 9.50049 12.1133L11.6128 25.0276C14.3158 25.0276 15.7775 23.1956 16.5283 21.2434L18.2202 16.8585C18.2202 17.0387 19.3414 25.0276 19.3414 25.0276C21.6039 25.0276 23.6061 23.556 24.2969 21.3936L28.1211 12.1033C25.4181 12.1033 24.0066 13.9353 23.2858 15.8875H23.2958V15.8674Z" fill="white"/>
</svg>
