<svg width="36" height="36" viewBox="0 0 36 36" fill="none" xmlns="http://www.w3.org/2000/svg">
<path d="M0 18C0 8.05895 8.05895 0 18 0C27.941 0 36 8.05895 36 18C36 27.941 27.941 36 18 36C8.05895 36 0 27.9511 0 18Z" fill="#00005B"/>
<path d="M14.7465 21.1836H9.66087L8.61972 24.4973C8.58968 24.6275 8.47956 24.7076 8.35943 24.6975H5.78657C5.6364 24.6975 5.59636 24.6175 5.6364 24.4473L10.0413 11.5029C10.0813 11.3627 10.1214 11.2326 10.1815 11.0724C10.2315 10.7821 10.2615 10.4717 10.2615 10.1614C10.2515 10.0913 10.3016 10.0212 10.3717 10.0112H13.9156C14.0157 10.0112 14.0758 10.0513 14.0958 10.1214L19.0914 24.4272C19.1314 24.5774 19.0914 24.6475 18.9512 24.6475H16.098C15.9979 24.6575 15.9078 24.5874 15.8778 24.4973L14.7565 21.1336V21.2037L14.7465 21.1836ZM10.4518 18.3905H13.9256C13.8455 18.1002 13.7354 17.7498 13.6153 17.3794C13.4951 16.999 13.365 16.5985 13.2449 16.1781C13.1047 15.7476 12.9846 15.3271 12.8444 14.8866C12.7043 14.4462 12.5841 14.0457 12.474 13.6353C12.3639 13.2448 12.2738 12.8744 12.1737 12.544H12.1436C12.0235 13.1447 11.8733 13.7454 11.6831 14.3561C11.4829 15.0268 11.2727 15.7276 11.0524 16.4284C10.8722 17.1392 10.652 17.7999 10.4518 18.3905Z" fill="#9999FF"/>
<path d="M27.1302 19.9218H22.7953C22.8454 20.3523 22.9856 20.7928 23.2158 21.1732C23.4661 21.5536 23.8065 21.8439 24.2169 22.0141C24.7675 22.2544 25.3682 22.3745 25.9689 22.3645C26.4494 22.3545 26.9299 22.3044 27.3904 22.2143C27.8109 22.1543 28.2214 22.0442 28.6118 21.894C28.6819 21.8339 28.7219 21.864 28.7219 22.0041V24.1465C28.7219 24.2066 28.7119 24.2566 28.6919 24.3167C28.6619 24.3567 28.6418 24.3868 28.5918 24.4168C28.1513 24.617 27.7008 24.7572 27.2203 24.8373C26.5795 24.9674 25.9388 25.0175 25.2781 25.0074C24.2369 25.0074 23.366 24.8373 22.6552 24.5169C21.9844 24.2266 21.3938 23.7561 20.9333 23.1854C20.4928 22.6348 20.1824 22.0241 19.9922 21.3434C19.802 20.6826 19.7019 20.0019 19.7019 19.2911C19.7019 18.5303 19.812 17.7894 20.0423 17.0586C20.2625 16.3578 20.6029 15.7171 21.0634 15.1365C21.5139 14.5759 22.0745 14.1254 22.7153 13.805C23.356 13.4846 24.1268 13.3745 24.9978 13.3745C25.7186 13.3645 26.4494 13.5047 27.1201 13.805C27.6808 14.0553 28.1713 14.4357 28.5517 14.9262C28.9121 15.4068 29.1924 15.9374 29.3726 16.528C29.5528 17.0887 29.6329 17.6593 29.6329 18.2399C29.6329 18.5803 29.6229 18.8706 29.6029 19.1409C29.5729 19.4112 29.5629 19.6014 29.5528 19.7316C29.5428 19.8317 29.4527 19.9118 29.3626 19.9118C29.2825 19.9118 29.1324 19.9218 28.9121 19.9418C28.6919 19.9719 28.4316 19.9819 28.1213 19.9819C27.8109 19.9819 27.4805 19.9218 27.1201 19.9218H27.1302ZM22.7953 17.8695H25.6785C26.0389 17.8695 26.2892 17.8695 26.4594 17.8595C26.5695 17.8495 26.6797 17.8195 26.7698 17.7494V17.6092C26.7698 17.429 26.7397 17.2588 26.6897 17.0887C26.4394 16.3078 25.7186 15.7672 24.9077 15.7972C24.1569 15.7572 23.4461 16.1576 23.0857 16.8584C22.9255 17.1788 22.8254 17.5191 22.7853 17.8695H22.7953Z" fill="#9999FF"/>
</svg>
