<svg width="36" height="36" viewBox="0 0 36 36" fill="none" xmlns="http://www.w3.org/2000/svg">
<path d="M18.005 0H17.995C8.05663 0 0 8.05663 0 17.995V18.005C0 27.9434 8.05663 36 17.995 36H18.005C27.9434 36 36 27.9434 36 18.005V17.995C36 8.05663 27.9434 0 18.005 0Z" fill="url(#paint0_linear_205_208)"/>
<path d="M29.3845 12.4003C30.7957 14.9925 31.3862 18.1751 30.7757 21.3878C30.5755 22.4287 30.1652 23.5896 29.6748 24.5404C29.6047 24.6505 29.5647 24.6305 29.6547 24.4504C29.7448 24.2502 29.8349 24.05 29.925 23.8298C30.1752 23.1393 30.3954 22.4087 30.5555 21.678C30.5955 21.4078 30.5555 21.4378 30.5155 21.5679C30.4754 21.7481 30.4254 21.8982 30.3853 22.0784C30.3453 22.2085 30.3153 22.3186 30.2753 22.4587L30.1852 22.6989C29.965 23.4996 29.6647 24.2702 29.2844 25.0108C29.1944 25.211 29.0642 25.3011 29.3545 24.6105C29.4646 24.3403 29.7148 23.8599 29.965 23.0792C30.2352 22.2986 30.2753 22.1484 30.3053 21.9883C30.3453 21.7481 30.3253 21.638 30.2853 21.7881C29.7648 23.8499 28.9642 25.4112 27.6631 26.8524C27.6631 26.8724 27.6431 26.8724 27.6431 26.8724C27.3328 27.2227 27.2627 27.2727 27.1026 27.4228C27.0326 27.4629 27.0125 27.4228 27.1026 27.3328C27.2127 27.2227 27.2327 27.1726 27.4429 26.9524C27.513 26.8624 27.573 26.7923 27.6631 26.6622C28.9642 25.0008 29.8649 23.1593 30.3153 20.9374C30.4454 20.0967 30.2953 20.2068 30.2052 20.6072C29.985 21.9383 29.4446 23.5196 28.8341 24.6505C28.4337 25.4312 28.0234 26.0016 27.8032 26.3119C27.7331 26.402 27.6731 26.472 27.623 26.5321L27.553 26.6021C27.553 26.6021 27.513 26.6222 27.553 26.5821L27.8432 26.1618C28.0634 25.8115 28.1535 25.7214 28.4537 25.1209C28.7039 24.5905 29.0642 23.7398 29.1743 23.4295C29.1743 23.4095 29.1944 23.3895 29.1944 23.3895C29.3044 23.0592 29.3945 22.809 29.4145 22.7489C29.5747 22.2585 29.955 21.0575 29.975 19.246C29.975 19.246 29.975 18.6455 29.955 18.4453V18.4654C29.955 18.2652 29.955 18.1551 29.935 18.085C29.915 17.8448 29.8949 17.5946 29.8449 17.3544C29.7348 16.7339 29.5547 16.0433 29.3044 15.3828C29.2844 15.3428 29.2844 15.3628 29.2844 15.4028C29.5947 16.3836 29.7748 17.4045 29.8449 18.4453C29.8649 19.0659 29.8449 19.4662 29.8449 19.4662V19.7364C29.7348 21.7381 29.1043 23.5496 28.4938 24.7506C27.2627 27.1726 24.3403 29.6147 21.1977 30.4153L20.8874 30.4854C20.7273 30.5054 20.7573 30.4453 20.9575 30.3753L21.1777 30.3052C23.9099 29.4845 26.5221 27.4629 27.8232 25.1509C27.9133 24.9908 28.0034 24.8407 28.0734 24.6805C28.0934 24.6405 28.0934 24.5905 28.0534 24.6605C28.0534 24.6605 26.8224 26.7022 25.1109 27.9433C23.99 28.7439 22.8491 29.4045 21.548 29.8549C21.3678 29.8549 21.7081 29.7247 21.8182 29.6747C22.5788 29.3444 23.2994 28.9441 23.97 28.4737C24.2202 28.2936 24.4604 28.1434 24.7106 27.9633C25.141 27.653 25.5413 27.3227 25.8816 26.9424C26.4921 26.3019 26.9825 25.5413 27.4529 24.7906C27.4929 24.7206 27.523 24.6805 27.563 24.6105C28.2836 23.4595 28.774 22.1685 29.0642 20.8373C29.0843 20.6772 29.1343 20.5071 29.1543 20.3269C29.1944 20.0367 29.2444 19.7064 29.2644 19.4662V19.3761C29.2844 19.0859 29.3044 18.7956 29.3044 18.5154C29.2644 17.8248 29.1243 18.025 29.1243 18.1351C29.1944 19.9366 28.814 21.7781 28.0034 23.4395C27.7832 23.9099 27.6631 24.08 27.6631 24.08C27.553 24.2602 27.4829 24.3202 27.7331 23.7898C27.7331 23.7898 27.9833 23.2794 28.1835 22.7289C28.1835 22.7289 28.3436 22.2886 28.4037 21.9783C28.5138 21.4478 28.6539 20.9374 28.6939 20.5771C28.6939 20.447 28.6539 20.487 28.6039 20.5971C28.5138 20.9474 28.2235 22.0383 28.2235 22.0383C27.9533 22.839 27.593 23.6097 27.1727 24.3202C27.0125 24.6105 26.6322 25.1009 26.412 25.4312C26.392 25.4512 26.372 25.4712 26.372 25.5012L26.2119 25.7014C25.2711 26.8323 24.1301 27.7831 22.779 28.4337C22.779 28.4337 22.6689 28.4737 22.5288 28.5438C22.4187 28.5838 22.3486 28.5438 22.4387 28.4537C22.5688 28.2936 22.9592 28.1034 23.1793 27.9633C23.4696 27.7831 23.7398 27.613 24.01 27.4128C24.5505 27.0125 25.0409 26.5721 25.5113 26.0817C25.5513 26.0117 25.6214 25.9716 25.6714 25.9016L25.9817 25.5212C26.5622 24.8107 27.0626 24.03 27.3929 23.2393C27.4829 22.9691 27.5029 22.9091 27.4129 23.0392C27.2127 23.5296 26.9425 23.99 26.6522 24.4604C26.5822 24.5705 26.4921 24.6405 26.6722 24.3503C27.7231 22.4887 28.4237 20.3569 28.4637 18.3753C28.4838 17.7948 28.4437 17.2443 28.3737 16.6839L28.2836 16.1735C27.9934 14.7723 27.4329 13.4912 26.7623 12.4403C26.6522 12.2802 26.6022 12.3102 26.6522 12.3703C26.7223 12.4804 26.7823 12.6105 26.8324 12.7206C26.9225 12.8807 27.1727 13.3611 27.3728 13.9416C27.4429 14.1217 27.6631 14.7823 27.8032 15.583C27.8032 15.623 27.8232 15.673 27.8232 15.7431C27.8432 15.8532 27.8432 15.9633 27.8632 16.0734C27.8632 16.1134 27.8432 16.1634 27.8232 16.0734L27.7532 15.583L27.7131 15.3628V15.3428C27.6431 15.0525 27.533 14.6522 27.3728 14.2318C27.0626 13.4312 26.7223 12.9708 26.6823 12.8807C26.6823 12.8807 25.0209 10.1985 23.0492 9.39781C22.9592 9.35778 23.0092 9.39781 23.0492 9.41783C23.0692 9.43784 23.7698 9.90823 23.7698 9.90823C24.8707 10.6589 25.7215 11.7097 25.7215 11.7097C25.7215 11.7097 26.2819 12.4203 26.8024 13.281C26.9625 13.5513 27.0926 13.7915 27.1827 14.0117C27.3428 14.482 27.2227 14.412 27.1827 14.2819C26.372 12.5304 25.1009 11.0892 23.6798 10.1985C22.739 9.59798 21.3678 8.9074 19.8666 8.6672C19.2561 8.55711 18.6356 8.50707 18.0451 8.53709C18.0451 8.53709 16.9642 8.55711 16.0934 8.80732C15.7532 8.91741 15.8032 8.93743 15.9133 8.93743C15.9833 8.91741 16.4537 8.82733 17.1243 8.73726C17.1643 8.73726 17.2844 8.75728 16.9942 8.84735L16.744 8.88738C16.744 8.88738 16.4337 8.95744 16.1335 8.99748C15.7932 9.06753 15.5029 9.15761 15.0826 9.2677L14.9525 9.30773C13.4012 9.94827 12.0801 10.6889 10.9391 11.9499C8.9675 14.1017 8.17684 17.1643 8.69727 20.0066C8.94748 21.3878 9.50795 22.7189 10.3787 23.8198C10.9391 24.5705 11.6397 25.201 12.4004 25.7514C12.7807 26.0417 13.161 26.2819 13.5713 26.5321C13.7315 26.6422 13.9517 26.8223 14.1518 26.8624C14.312 26.9024 14.4621 26.8824 14.2619 26.7323L13.4312 26.1318C13.3211 26.0016 13.3912 26.0016 13.6314 26.0917C13.6714 26.1117 14.8924 26.7122 15.1126 26.8023C15.3628 26.8924 15.8733 27.1526 15.9633 27.0425C15.9833 27.0225 15.9833 26.9524 15.8933 26.8824C15.8032 26.8123 15.7832 26.7222 15.8733 26.7523C16.0534 26.8223 16.2336 26.8624 16.3036 26.8824C16.3737 26.9024 16.734 26.9925 16.734 26.9925C16.734 26.9925 16.5138 26.9224 16.734 26.9925C16.9542 27.0625 17.6547 27.2827 18.1451 27.4829C18.5755 27.663 18.9959 27.9232 19.176 28.2835C19.3061 28.5538 19.3762 28.774 19.3562 29.0342C19.3361 29.4545 19.3762 29.3845 19.2861 29.7648C19.2861 29.7648 19.2661 29.9649 19.2461 30.035C19.206 30.1951 19.156 30.3252 19.0459 30.4554C18.6856 30.8056 18.5755 30.8357 18.5755 30.8357C18.4854 30.8757 18.3753 30.9057 18.2352 30.9257C17.965 30.9658 17.1143 30.9658 16.8441 30.9958C16.5738 31.0158 16.2336 30.9558 15.9733 30.9057C15.6631 30.8657 15.2828 30.7256 14.9825 30.6355C14.6022 30.5254 13.6114 29.995 13.3912 29.9049C13.2611 29.8649 12.3403 29.4345 12.3403 29.4345C8.52713 27.7731 5.81487 24.3102 5.18434 20.2268C5.07425 19.5363 5.02421 18.8457 5.05424 18.1651C5.0142 14.7423 6.26524 11.5296 8.26691 9.06753C8.30695 9.0275 8.30695 9.08755 8.22688 9.19764C8.22688 9.19764 7.86658 9.70807 7.50628 10.3286C7.2861 10.7489 7.10595 11.1693 6.9258 11.5696C6.90578 11.6097 6.94581 11.6397 6.96583 11.5696C7.81654 9.83818 9.07759 8.32692 10.6189 7.19597L10.6389 7.17596C10.6389 7.17596 10.7089 7.17596 10.5989 7.26603L10.5788 7.28605C10.5088 7.32608 10.3987 7.41616 10.3086 7.48622C9.74815 7.92658 9.0976 8.61716 8.95749 8.74727C8.4871 9.27771 8.08676 9.83818 7.72646 10.4387C7.63639 10.5988 7.54631 10.769 7.45624 10.9291C7.4162 11.0392 7.43622 11.0192 7.5263 10.9291C8.28693 9.70807 9.22771 8.6672 10.3787 7.73642L10.4487 7.69639C12.0401 6.3853 13.9917 5.52458 16.0534 5.1843C18.2753 4.80398 20.2069 5.02416 21.3278 5.27437C21.3278 5.27437 22.1084 5.47454 22.9892 5.82483C23.0793 5.86487 23.6397 6.09506 23.7298 6.17512C23.7498 6.19514 23.7298 6.19514 23.7098 6.19514C22.6089 5.6647 21.598 5.41449 20.387 5.24435C20.0267 5.20431 19.5563 5.15427 19.156 5.17429C18.9758 5.19431 18.9058 5.21432 18.9758 5.21432H19.176C19.8265 5.23434 20.4571 5.37446 21.0576 5.52458C21.3979 5.59464 21.9984 5.79481 21.9984 5.79481C22.0684 5.81482 22.1084 5.86487 21.9984 5.83484C21.6581 5.74477 21.3878 5.70473 21.3878 5.70473C20.2669 5.48455 19.216 5.39447 18.4954 5.48455C18.3653 5.50457 18.4554 5.52458 18.4754 5.52458C19.4162 5.52458 20.1168 5.63467 20.1168 5.63467C21.3278 5.83484 22.5188 6.25519 23.6197 6.81566C23.6597 6.83567 23.7298 6.90573 23.5797 6.83567C22.769 6.43534 21.8082 6.1451 21.2878 6.01499C20.9074 5.92492 20.5471 5.85486 20.1668 5.81482L19.6764 5.77479C19.5863 5.77479 19.226 5.73476 19.116 5.73476H18.9358C18.5555 5.69472 18.1752 5.71474 17.7648 5.71474H17.6347C17.3845 5.73476 17.1143 5.73476 16.8741 5.75477C16.8741 5.75477 16.2235 5.84485 15.9333 5.88488C15.8232 5.9049 15.7532 5.92492 15.7532 5.92492C15.6631 5.94493 15.7732 5.94493 15.8232 5.94493H15.8933C16.1135 5.92492 16.3436 5.87487 16.5638 5.85486C17.1243 5.7848 17.6848 5.76478 18.2052 5.76478C18.2052 5.76478 19.0559 5.7848 19.6864 5.89489C19.9066 5.96495 19.7064 5.96495 19.5763 5.91491C19.3962 5.89489 19.196 5.87487 19.0159 5.87487C17.7348 5.85486 16.4537 5.98497 15.8332 6.05502C15.7431 6.07504 15.6331 6.07504 15.543 6.09506C15.1426 6.18513 13.9517 6.42533 13.2811 6.71557L13.121 6.78563C13.0509 6.80565 13.0509 6.85569 13.0809 6.85569L13.3712 6.7456C14.5622 6.32525 15.8432 6.07504 17.1143 6.03501C17.1143 6.03501 19.9667 5.81482 22.2285 6.7456C22.4287 6.81566 22.8791 6.9858 23.3995 7.27604C23.4396 7.31607 23.4696 7.36612 23.2694 7.27604L23.1793 7.23601C21.8582 6.61549 20.417 6.23517 18.9858 6.17512H18.6756C18.6756 6.17512 18.1151 6.15511 17.7548 6.17512C17.6647 6.17512 17.6247 6.19514 17.6647 6.19514H17.7348C19.4362 6.17512 20.9675 6.52542 22.5388 7.19597C24.5805 8.05669 26.372 9.59798 27.7031 11.3494L28.5738 12.7306C28.6639 12.8907 28.734 13.0208 28.794 13.171L28.9742 13.5012C29.6247 14.8824 29.8949 16.5838 30.1151 17.9449C30.1552 18.1851 30.2052 18.1251 30.1852 17.9049L30.1451 17.5746C30.1451 17.3945 29.985 16.3736 29.7148 15.3528C29.7148 15.3328 29.5346 14.6222 29.3745 14.2218C29.1543 13.6013 28.9241 13.0709 28.814 12.8207C28.6539 12.5104 28.4738 12.0901 28.2936 11.7998C28.2736 11.7798 28.2035 11.6697 28.1635 11.5796C27.8232 10.9791 26.6823 9.57796 26.6823 9.57796C26.5722 9.46787 26.342 9.13759 26.5221 9.28772C27.603 10.2385 28.5238 11.4195 29.1443 12.7506L29.3445 13.221C29.3445 13.221 29.3645 13.241 29.3645 13.221C29.1143 12.5504 28.8441 11.8899 28.4938 11.2494C28.3837 11.0692 28.1535 10.6088 28.4037 10.8991C28.744 11.1192 29.4846 12.4103 29.4846 12.4103L29.3845 12.4003Z" fill="white"/>
<defs>
<linearGradient id="paint0_linear_205_208" x1="5.2744" y1="5.2744" x2="30.7256" y2="30.7256" gradientUnits="userSpaceOnUse">
<stop offset="0.28" stop-color="#B02878"/>
<stop offset="0.33" stop-color="#C03C5E"/>
<stop offset="0.41" stop-color="#D7583C"/>
<stop offset="0.5" stop-color="#E86E22"/>
<stop offset="0.59" stop-color="#F57D0F"/>
<stop offset="0.68" stop-color="#FC8603"/>
<stop offset="0.77" stop-color="#FF8A00"/>
</linearGradient>
</defs>
</svg>
