<svg width="36" height="36" viewBox="0 0 36 36" fill="none" xmlns="http://www.w3.org/2000/svg">
<path d="M18.005 0H17.995C8.05663 0 0 8.05663 0 17.995V18.005C0 27.9434 8.05663 36 17.995 36H18.005C27.9434 36 36 27.9434 36 18.005V17.995C36 8.05663 27.9434 0 18.005 0Z" fill="#FF4A00"/>
<path d="M20.7473 18.0053C20.7473 18.7959 20.6072 19.5866 20.327 20.3272C19.5863 20.6074 18.7957 20.7476 18.005 20.7476H17.995C17.2044 20.7476 16.4137 20.6074 15.6731 20.3272C15.3928 19.5866 15.2527 18.7959 15.2527 18.0053C15.2527 17.2046 15.3928 16.4139 15.6731 15.6733C16.4137 15.3931 17.2044 15.253 17.995 15.253C18.7857 15.253 19.5763 15.3931 20.3169 15.6733C20.5972 16.4139 20.7373 17.2046 20.7373 17.9953L20.7473 18.0053ZM28.8541 16.1737H22.4287L26.9725 11.63C26.6122 11.1295 26.2219 10.6591 25.7815 10.2288C25.3511 9.79843 24.8808 9.3981 24.3803 9.0378L19.8365 13.5816V7.14622C19.236 7.04614 18.6155 6.99609 18.005 6.99609H17.995C17.3845 6.99609 16.774 7.04614 16.1635 7.14622V13.5716L11.6197 9.02779C11.1193 9.38809 10.6489 9.77841 10.2185 10.2188C9.78818 10.6491 9.38784 11.1195 9.02754 11.6199L13.5713 16.1637H7.14597C7.14597 16.1637 6.99585 17.3747 6.99585 17.9953C6.99585 18.6158 7.04589 19.2263 7.14597 19.8368H13.5713L9.02754 24.3806C9.73814 25.3814 10.6189 26.2621 11.6197 26.9727L16.1635 22.429V28.8543C16.764 28.9544 17.3745 29.0044 17.995 29.0044H18.015C18.6255 29.0044 19.236 28.9544 19.8466 28.8543V22.429L24.3903 26.9727C24.8908 26.6124 25.3612 26.2221 25.7915 25.7817C26.2219 25.3514 26.6222 24.881 26.9825 24.3806L22.4387 19.8368H28.8641C28.9642 19.2363 29.0142 18.6258 29.0142 18.0053V17.9853C29.0142 17.3747 28.9642 16.7642 28.8641 16.1537L28.8541 16.1737Z" fill="white"/>
</svg>
