<svg width="36" height="36" viewBox="0 0 36 36" fill="none" xmlns="http://www.w3.org/2000/svg">
<path d="M18.005 0H17.995C8.05663 0 0 8.05663 0 17.995V18.005C0 27.9434 8.05663 36 17.995 36H18.005C27.9434 36 36 27.9434 36 18.005V17.995C36 8.05663 27.9434 0 18.005 0Z" fill="#E44D26"/>
<path d="M10.8291 5.72461H11.95V6.83554H12.9809V5.72461H14.1018V9.0774H12.9809V7.95647H11.96V9.0774H10.8291M15.5731 6.84554H14.5822V5.72461H17.6748V6.84554H16.684V9.0774H15.563M18.1652 5.72461H19.3362L20.0568 6.90559L20.7774 5.72461H21.9484V9.0774H20.8274V7.41602L20.0468 8.61702L19.2661 7.41602V9.0774H18.1652M22.4988 5.72461H23.6198V7.96648H25.2011V9.0774H22.4988" fill="white"/>
<path d="M10.7891 28.6039L9.18774 10.6089H26.8124L25.2111 28.5939L17.9851 30.5955" fill="white"/>
<path d="M17.9951 29.064V12.0898H25.2011L23.83 27.4426" fill="white"/>
<path d="M12.4604 14.2817H17.9951V16.4836H14.8725L15.0726 18.7455H17.9851V20.9473H13.0509M13.151 22.0582H15.3629L15.523 23.8197L17.9951 24.4802V26.7822L13.4713 25.5211" fill="#E44D26"/>
<path d="M23.5197 14.2817H17.9951V16.4836H23.3196M23.1194 18.7455H17.9951V20.9473H20.7174L20.4572 23.8097L17.9951 24.4702V26.7621L22.5089 25.5111" fill="#E44D26"/>
</svg>
