<svg width="36" height="36" viewBox="0 0 36 36" fill="none" xmlns="http://www.w3.org/2000/svg">
<path d="M0 18C0 8.05895 8.05895 0 18 0C27.941 0 36 8.05895 36 18C36 27.941 27.941 36 18 36C8.05895 36 0 27.9511 0 18Z" fill="#320102"/>
<path d="M25.8487 25.7583H23.5061C23.3659 25.7583 23.3059 25.6982 23.3059 25.5781V14.7661C23.3059 14.6559 23.3559 14.6059 23.476 14.6059H25.8387C25.9688 14.6059 26.0089 14.6459 26.0089 14.7661V25.5981C26.0089 25.7082 25.9888 25.7583 25.8387 25.7583H25.8487ZM20.9432 25.7583H18.4605C18.3203 25.7583 18.2603 25.7282 18.2402 25.6381L16.9989 21.5035H12.1735L10.9822 25.6181C10.9621 25.7282 10.9121 25.7583 10.7619 25.7583H8.54946C8.54946 25.7583 8.44935 25.7583 8.41932 25.7282C8.38929 25.6982 8.38929 25.6582 8.3993 25.5581L12.674 11.9129C12.7842 11.5425 12.8342 11.152 12.8242 10.7716C12.8242 10.6915 12.8743 10.6315 12.9544 10.6315H16.1079C16.208 10.6315 16.258 10.6515 16.2781 10.7716L21.0734 25.5781C21.0734 25.5781 21.0834 25.6782 21.0534 25.7282C21.0233 25.7583 20.9833 25.7683 20.9432 25.7683V25.7583ZM14.5561 12.8239C14.2458 14.3956 13.4749 17.0086 12.8643 19.1109V19.1409L12.8142 19.2711H16.3682C16.248 18.8506 16.0979 18.31 15.9177 17.6793V17.6493L15.8876 17.5892V17.5492C15.4171 15.9474 14.8465 13.9652 14.5862 12.8239H14.5662H14.5561ZM24.6674 13.0542C23.8865 13.1042 23.2057 12.5736 23.1457 11.8628C23.1457 11.7928 23.1457 11.7227 23.1457 11.6526C23.0956 10.9218 23.7163 10.2911 24.5172 10.251C24.5773 10.251 24.6373 10.251 24.6874 10.251C25.4883 10.211 26.1791 10.7716 26.2291 11.5024C26.2291 11.5525 26.2291 11.6025 26.2291 11.6526C26.2892 12.3734 25.6885 13.0041 24.8976 13.0542C24.8175 13.0542 24.7374 13.0542 24.6574 13.0542H24.6674Z" fill="#FF7F18"/>
</svg>
