<svg width="36" height="36" viewBox="0 0 36 36" fill="none" xmlns="http://www.w3.org/2000/svg">
<path d="M0 17.98C0 8.05 8.05 0 17.98 0C27.91 0 35.96 8.05 35.96 17.98C35.96 27.91 27.91 35.96 17.98 35.96C8.05 35.96 0 27.92 0 17.98Z" fill="#333333"/>
<path d="M14.39 28.7698C16.38 28.7698 17.99 27.1598 17.99 25.1698V21.5698H14.39C12.4 21.5698 10.79 23.1798 10.79 25.1698C10.79 27.1598 12.4 28.7698 14.39 28.7698V28.7698Z" fill="#0ACF83"/>
<path d="M10.79 17.9799C10.79 15.9899 12.4 14.3799 14.39 14.3799H17.99V21.5699H14.39C12.4 21.5699 10.79 19.9599 10.79 17.9699V17.9799Z" fill="#A259FF"/>
<path d="M10.79 10.7899C10.79 8.79994 12.4 7.18994 14.39 7.18994H17.99V14.3799H14.39C12.4 14.3799 10.79 12.7699 10.79 10.7799V10.7899Z" fill="#F24E1E"/>
<path d="M17.98 7.18994H21.58C23.57 7.18994 25.18 8.79994 25.18 10.7899C25.18 12.7799 23.57 14.3899 21.58 14.3899H17.98V7.18994Z" fill="#FF7262"/>
<path d="M25.18 17.9799C25.18 19.9699 23.57 21.5799 21.58 21.5799C19.59 21.5799 17.98 19.9699 17.98 17.9799C17.98 15.9899 19.59 14.3799 21.58 14.3799C23.57 14.3799 25.18 15.9899 25.18 17.9799Z" fill="#1ABCFE"/>
</svg>
