<svg width="36" height="36" viewBox="0 0 36 36" fill="none" xmlns="http://www.w3.org/2000/svg">
<path d="M36 18C36 8.05887 27.9411 0 18 0C8.05887 0 0 8.05887 0 18C0 27.9411 8.05887 36 18 36C27.9411 36 36 27.9411 36 18Z" fill="white"/>
<path d="M26.0489 10.2531C26.0306 10.1251 25.9208 10.061 25.8294 10.0519C25.7379 10.0519 23.9727 10.0153 23.9727 10.0153C23.9727 10.0153 22.4909 8.57934 22.3446 8.433C22.1983 8.28666 21.9147 8.33239 21.805 8.35983C21.805 8.35983 21.5306 8.44215 21.0641 8.58849C20.9818 8.33239 20.872 8.02141 20.7074 7.71044C20.1769 6.70434 19.4086 6.17385 18.4757 6.17385C18.4117 6.17385 18.3477 6.17385 18.2836 6.183C18.2562 6.14641 18.2287 6.11898 18.2013 6.08239C17.7989 5.64337 17.2775 5.433 16.6464 5.45129C15.4391 5.48788 14.2409 6.35678 13.2714 7.90251C12.5855 8.99093 12.0641 10.3537 11.9178 11.4147C10.5367 11.8446 9.56716 12.1464 9.54887 12.1464C8.85375 12.3659 8.82631 12.3842 8.73485 13.0428C8.67082 13.5367 6.84155 27.6678 6.84155 27.6678L22.1525 30.3202L28.7928 28.6739C28.7928 28.6739 26.0855 10.3629 26.0672 10.244L26.0489 10.2531ZM20.2867 8.82629C19.93 8.93605 19.5367 9.0641 19.0977 9.19215C19.0977 8.57934 19.0153 7.73788 18.7318 6.99702C19.6464 7.17081 20.0946 8.20434 20.2867 8.81715V8.82629ZM18.2928 9.4391C17.4879 9.68605 16.619 9.96044 15.7318 10.2348C15.9787 9.29276 16.4452 8.35068 17.0214 7.72873C17.2318 7.50007 17.5336 7.24398 17.8903 7.09763C18.2196 7.79276 18.2928 8.78056 18.2836 9.44824L18.2928 9.4391ZM16.6556 6.25617C16.9391 6.25617 17.1769 6.31105 17.3781 6.44824C17.0489 6.61288 16.7379 6.85983 16.4452 7.17995C15.6769 8.00312 15.0916 9.27446 14.8629 10.5092C14.1312 10.7379 13.4178 10.9574 12.7592 11.1586C13.1708 9.21959 14.7989 6.3202 16.6556 6.26532V6.25617Z" fill="#95BF47"/>
<path d="M25.8293 10.0517C25.7378 10.0517 23.9726 10.0151 23.9726 10.0151C23.9726 10.0151 22.4909 8.57911 22.3445 8.43277C22.2897 8.37789 22.2165 8.35045 22.1433 8.34131V30.3383L28.7836 28.6919C28.7836 28.6919 26.0762 10.3809 26.0579 10.262C26.0397 10.134 25.9299 10.07 25.8384 10.0608L25.8293 10.0517Z" fill="#5E8E3E"/>
<path d="M18.4574 13.4634L17.6891 16.3445C17.6891 16.3445 16.8293 15.9512 15.8141 16.0152C14.3232 16.1067 14.3049 17.0488 14.3232 17.2866C14.4055 18.5762 17.7988 18.8598 17.9909 21.8781C18.1372 24.2561 16.7287 25.8842 14.6982 26.0122C12.2561 26.1677 10.9116 24.7317 10.9116 24.7317L11.433 22.5366C11.433 22.5366 12.7866 23.561 13.8659 23.4878C14.5702 23.4421 14.8263 22.8659 14.7988 22.4634C14.6891 20.7805 11.9269 20.8811 11.7531 18.1189C11.6067 15.7957 13.1342 13.436 16.5092 13.2256C17.808 13.1433 18.4756 13.4726 18.4756 13.4726L18.4574 13.4634Z" fill="white"/>
</svg>
