<svg width="36" height="36" viewBox="0 0 36 36" fill="none" xmlns="http://www.w3.org/2000/svg">
<path d="M18.005 0H17.995C8.05663 0 0 8.05663 0 17.995V18.005C0 27.9434 8.05663 36 17.995 36H18.005C27.9434 36 36 27.9434 36 18.005V17.995C36 8.05663 27.9434 0 18.005 0Z" fill="white"/>
<path d="M16.6641 7.79641L7.33629 11.6596C7.01602 11.7897 6.8659 12.16 6.99601 12.4803C7.05606 12.6404 7.18616 12.7605 7.3463 12.8206L16.7141 16.5337C17.5348 16.864 18.4556 16.864 19.2762 16.5337L28.644 12.8206C28.9643 12.6905 29.1244 12.3302 28.9943 12.0099C28.9343 11.8498 28.8042 11.7297 28.6541 11.6596L19.3263 7.79641C18.4756 7.44612 17.5148 7.44612 16.6641 7.79641" fill="#FFBF00"/>
<path d="M18.8157 18.5555V27.8332C18.8157 28.1735 19.0959 28.4537 19.4362 28.4537C19.5163 28.4537 19.5963 28.4437 19.6664 28.4137L30.1051 24.3603C30.3453 24.2703 30.4954 24.0401 30.4954 23.7798V14.5121C30.4954 14.1718 30.2152 13.8916 29.8749 13.8916C29.7948 13.8916 29.7148 13.9016 29.6447 13.9316L19.206 17.985C18.9658 18.0751 18.8157 18.3053 18.8157 18.5655" fill="#26B5F8"/>
<path d="M16.3837 19.0359L13.2911 20.5271L12.9709 20.6773L6.43541 23.8099C6.10514 23.97 5.71481 23.8299 5.55468 23.4996C5.51465 23.4196 5.49463 23.3395 5.49463 23.2494V14.5422C5.49463 14.382 5.5747 14.2319 5.6948 14.1218C5.74484 14.0718 5.79488 14.0317 5.85493 14.0017C6.02507 13.9016 6.23525 13.8916 6.4254 13.9617L16.3437 17.895C16.6639 18.0151 16.8241 18.3854 16.704 18.7056C16.6439 18.8558 16.5338 18.9759 16.3937 19.0459" fill="#ED3049"/>
<path d="M16.3835 19.0359L13.2909 20.5271L5.69458 14.1218C5.69458 14.1218 5.79466 14.0317 5.85471 14.0017C6.02486 13.9016 6.23503 13.8916 6.42519 13.9617L16.3435 17.895C16.6637 18.0151 16.8239 18.3854 16.7038 18.7056C16.6437 18.8558 16.5336 18.9759 16.3935 19.0459" fill="#BA1F4B"/>
</svg>
