<svg width="338" height="74" viewBox="0 0 338 74" fill="none" xmlns="http://www.w3.org/2000/svg">
<path d="M5 24.5L9.15021 27.054C18.3165 32.6948 30.0642 31.8359 38.3126 24.9218L44.1106 20.0617C52.6353 12.916 64.8558 12.2621 74.0944 18.4574L87.0762 27.1628C95.4994 32.8114 106.501 32.8114 114.924 27.1628L129.145 17.6261C137.783 11.8335 149.106 11.994 157.576 18.0292L168.901 26.0986C177.628 32.3163 189.347 32.2814 198.036 26.0118L208.085 18.7612C216.957 12.3599 228.961 12.4708 237.713 19.0349L246.89 25.9175C255.35 32.2624 266.887 32.5982 275.702 26.756L289.466 17.6333C298.198 11.8455 309.613 12.1162 318.061 18.3116L326.5 24.5" stroke="#FFDC28" stroke-width="10" stroke-linecap="round"/>
<path d="M11 16.5L15.1502 19.054C24.3165 24.6948 36.0642 23.8359 44.3126 16.9218L50.1106 12.0617C58.6353 4.91602 70.8558 4.26214 80.0944 10.4574L93.0762 19.1628C101.499 24.8114 112.501 24.8114 120.924 19.1628L135.145 9.62608C143.783 3.83346 155.106 3.99398 163.576 10.0292L174.901 18.0986C183.628 24.3163 195.347 24.2814 204.036 18.0118L214.085 10.7612C222.957 4.35985 234.961 4.47077 243.713 11.0349L252.89 17.9175C261.35 24.2624 272.887 24.5982 281.702 18.756L295.466 9.63325C304.198 3.84546 315.613 4.11624 324.061 10.3116L332.5 16.5" stroke="#0B2A2B" stroke-width="10" stroke-linecap="round"/>
<path d="M5 61.5L9.15021 64.054C18.3165 69.6948 30.0642 68.8359 38.3126 61.9218L44.1106 57.0617C52.6353 49.916 64.8558 49.2621 74.0944 55.4574L87.0762 64.1628C95.4994 69.8114 106.501 69.8114 114.924 64.1628L129.145 54.6261C137.783 48.8335 149.106 48.994 157.576 55.0292L168.901 63.0986C177.628 69.3163 189.347 69.2814 198.036 63.0118L208.085 55.7612C216.957 49.3599 228.961 49.4708 237.713 56.0349L246.89 62.9175C255.35 69.2624 266.887 69.5982 275.702 63.756L289.466 54.6333C298.198 48.8455 309.613 49.1162 318.061 55.3116L326.5 61.5" stroke="#FFDC28" stroke-width="10" stroke-linecap="round"/>
<path d="M11 53.5L15.1502 56.054C24.3165 61.6948 36.0642 60.8359 44.3126 53.9218L50.1106 49.0617C58.6353 41.916 70.8558 41.2621 80.0944 47.4574L93.0762 56.1628C101.499 61.8114 112.501 61.8114 120.924 56.1628L135.145 46.6261C143.783 40.8335 155.106 40.994 163.576 47.0292L174.901 55.0986C183.628 61.3163 195.347 61.2814 204.036 55.0118L214.085 47.7612C222.957 41.3599 234.961 41.4708 243.713 48.0349L252.89 54.9175C261.35 61.2624 272.887 61.5982 281.702 55.756L295.466 46.6333C304.198 40.8455 315.613 41.1162 324.061 47.3116L332.5 53.5" stroke="#0B2A2B" stroke-width="10" stroke-linecap="round"/>
</svg>
