<svg width="166" height="160" viewBox="0 0 166 160" fill="none" xmlns="http://www.w3.org/2000/svg">
<path d="M148.55 0V139.43H0L72.3559 71.5358C77.3404 75.6668 83.6615 77.8361 90.1322 77.6365C96.603 77.4369 102.778 74.8821 107.499 70.4517C112.219 66.0213 115.16 60.0201 115.769 53.5749C116.378 47.1298 114.613 40.6841 110.806 35.448L148.55 0Z" fill="#05299E"/>
<path d="M110.806 35.4154L72.3558 71.5032C69.4534 69.0978 67.0961 66.1025 65.4402 62.7162C63.7844 59.3298 62.8679 55.63 62.7517 51.8623C62.6355 48.0945 63.3221 44.3452 64.7661 40.8633C66.2101 37.3813 68.3784 34.2464 71.1269 31.6667C73.8754 29.087 77.1413 27.1216 80.7077 25.901C84.2741 24.6804 88.0594 24.2325 91.8122 24.5871C95.565 24.9416 99.1994 26.0905 102.474 27.9574C105.749 29.8244 108.589 32.3667 110.806 35.4154Z" fill="#05299E"/>
<path d="M115.94 51.0965C115.941 56.1476 114.503 61.0945 111.793 65.3575C109.084 69.6204 105.215 73.0229 100.641 75.1661C96.0675 77.3093 90.9775 78.1045 85.9678 77.4585C80.9582 76.8126 76.2363 74.7522 72.3557 71.5189L110.806 35.4312C114.146 39.9708 115.945 45.4604 115.94 51.0965Z" fill="#3862E9"/>
<path d="M164.986 112.151H55.0006V120.057H164.986V112.151Z" fill="#3862E9"/>
<path d="M110.806 3.31352C92.6529 3.30291 74.8863 8.55453 59.6567 18.4326C44.4271 28.3107 32.3874 42.3917 24.9951 58.971C17.6028 75.5503 15.1749 93.9169 18.0053 111.848C20.8357 129.778 28.8031 146.504 40.9429 160H43.1902C27.561 143.212 18.7473 121.203 18.4692 98.2682C18.191 75.333 26.4682 53.1169 41.6856 35.955C56.9031 18.7931 77.9689 7.91678 100.773 5.44826C123.576 2.97975 146.482 9.09617 165.019 22.6041V20.5701C149.179 9.32599 130.231 3.29448 110.806 3.31352Z" fill="white"/>
</svg>
