<svg width="90" height="95" viewBox="0 0 90 95" fill="none" xmlns="http://www.w3.org/2000/svg">
<path d="M31.6881 8.40895C32.5707 7.99217 33.4533 7.62443 34.3604 7.29346L79.3966 46.8871C79.176 47.8187 78.9185 48.7626 78.6243 49.6819L31.6881 8.40895Z" fill="#F06543"/>
<path d="M21.7345 15.5187C22.3474 14.8936 22.9603 14.2929 23.6222 13.7168L74.3953 58.3608C73.9172 59.0717 73.3901 59.7827 72.8507 60.4692L21.7345 15.5187Z" fill="#F06543"/>
<path d="M26.2825 11.5843C27.018 11.0572 27.7657 10.5669 28.538 10.1011L77.3619 53.0044C76.9942 53.8257 76.6019 54.6347 76.1361 55.456L26.2825 11.5843Z" fill="#F06543"/>
<path d="M38.1358 6.14177C39.2064 5.88026 40.2851 5.67187 41.372 5.5166L80.2546 39.7044C80.2546 40.8077 80.1688 41.8986 80.0462 43.0019L38.1358 6.14177Z" fill="#F06543"/>
<path d="M57.1358 6.97461C61.3881 8.42325 65.3123 10.6978 68.6829 13.6675C72.0619 16.6233 74.8166 20.224 76.7855 24.2585L57.1358 6.97461Z" fill="#F06543"/>
<path d="M46.0056 5.18539C47.4191 5.17539 48.8317 5.25728 50.2346 5.43054L79.1392 30.8538C79.4914 32.2203 79.7535 33.6085 79.9237 35.0093L46.0056 5.18539Z" fill="#F06543"/>
<path d="M17.9711 20.1401C18.4491 19.4291 18.9763 18.7304 19.5156 18.0439L70.6318 62.9821C70.0189 63.6073 69.406 64.2079 68.7441 64.7963L17.9711 20.1401Z" fill="#F06543"/>
<path d="M15.0047 25.4355C15.3725 24.6265 15.7647 23.8174 16.2305 22.9839L66.121 66.8433C65.3855 67.3704 64.6377 67.873 63.8655 68.3388L15.0047 25.4355Z" fill="#F06543"/>
<path d="M13.1662 47.6595C12.8139 46.2888 12.5519 44.8966 12.3817 43.4917L46.2998 73.3279C44.8866 73.3257 43.4747 73.2438 42.0708 73.0827L13.1662 47.6595Z" fill="#F06543"/>
<path d="M12.9088 31.5649C13.1212 30.6332 13.3787 29.7016 13.681 28.77L60.7153 70.092C59.8327 70.5088 58.9502 70.8766 58.0431 71.2198L12.9088 31.5649Z" fill="#F06543"/>
<path d="M12.1119 38.7969C12.1264 37.699 12.1959 36.6026 12.3203 35.5117L54.2307 72.3595C53.1643 72.617 52.0733 72.8253 50.9946 72.9847L12.1119 38.7969Z" fill="#F06543"/>
<path d="M46.2017 83.257C74.6405 83.257 89.105 58.9614 89.9263 42.4988C91.5199 10.6278 66.4398 0.0980647 66.1824 0L64.8095 3.40775C65.7411 3.78775 87.7076 13.0794 86.2489 42.3272C85.5011 57.3679 72.2502 79.5795 46.2017 79.5795H46.0056V83.257H46.2017Z" fill="#FFDC28"/>
<path d="M20.3613 90.6172C9.11607 88.5086 1.70932 77.6832 3.81788 66.438C5.92643 55.1927 16.7518 47.786 27.9971 49.8945C39.2423 52.0031 46.6491 62.8285 44.5405 74.0737C42.432 85.319 31.6066 92.7257 20.3613 90.6172Z" fill="#05299E"/>
</svg>
