<svg width="30" height="30" viewBox="0 0 30 30" fill="none" xmlns="http://www.w3.org/2000/svg">
<path d="M27.4338 11.4738C27.2725 11.0013 26.8463 10.6675 26.3488 10.6288L19.2225 10.0625L16.1388 3.23625C15.9375 2.7875 15.4913 2.5 15 2.5C14.5088 2.5 14.0625 2.7875 13.8613 3.235L10.7775 10.0625L3.65125 10.6288C3.1625 10.6675 2.74125 10.9888 2.575 11.45C2.40875 11.9113 2.52625 12.4275 2.8775 12.77L8.14375 17.9038L6.28125 25.9688C6.16625 26.4675 6.3675 26.9863 6.78875 27.2775C7.00375 27.425 7.25125 27.5 7.5 27.5C7.74125 27.5 7.98375 27.43 8.19375 27.29L15 22.7525L21.8063 27.29C22.2413 27.58 22.8125 27.5688 23.2375 27.26C23.66 26.9513 23.8463 26.41 23.7025 25.9075L21.4163 17.9075L27.0863 12.805C27.4575 12.47 27.5938 11.9475 27.4338 11.4738Z" fill="#FFB800"/>
</svg>
