<svg width="180" height="225" viewBox="0 0 180 225" fill="none" xmlns="http://www.w3.org/2000/svg">
<path d="M47.3279 0L152.373 104.946H47.3279V0Z" fill="#FFDC28"/>
<path d="M88.6217 87.5091C86.7125 86.9718 84.7892 86.5051 82.8518 86.095L5.18539 180.859C5.93491 182.683 6.76927 184.479 7.67434 186.233L88.6217 87.5091Z" fill="#0B2A2B"/>
<path d="M111.008 98.5398C109.594 97.465 108.095 96.4609 106.596 95.5134L19.1291 202.312C20.3453 203.594 21.6181 204.839 22.9474 206.045L111.008 98.5398Z" fill="#0B2A2B"/>
<path d="M100.543 92.1194C98.8886 91.2992 97.2057 90.5496 95.5087 89.8567L11.3936 192.554C12.3977 194.081 13.4583 195.58 14.6038 197.037L100.543 92.1194Z" fill="#0B2A2B"/>
<path d="M74.8476 85.0767C72.6133 84.9212 70.3647 84.8505 68.1162 84.907L1.1409 166.632C1.53687 168.838 2.03183 171.03 2.63993 173.208L74.8476 85.0767Z" fill="#0B2A2B"/>
<path d="M36.8628 93.0952C28.7762 97.4228 21.6224 103.303 15.8107 110.398C9.99896 117.493 5.64344 125.665 2.99335 134.446L36.8628 93.0952Z" fill="#0B2A2B"/>
<path d="M58.5563 85.7839C55.6909 86.2368 52.857 86.8698 50.0712 87.679L0.249895 148.488C0.00745228 151.362 -0.0586656 154.247 0.0519111 157.129L58.5563 85.7839Z" fill="#0B2A2B"/>
<path d="M120.13 106.6C118.913 105.313 117.626 104.069 116.297 102.867L28.2507 210.344C29.6649 211.405 31.1639 212.409 32.6488 213.356L120.13 106.6Z" fill="#0B2A2B"/>
<path d="M127.851 116.358C126.847 114.831 125.786 113.332 124.655 111.875L38.7154 216.793C40.37 217.613 42.0528 218.363 43.7499 219.056L127.851 116.358Z" fill="#0B2A2B"/>
<path d="M102.396 215.846C110.495 211.525 117.663 205.649 123.487 198.553C129.311 191.457 133.677 183.282 136.336 174.495L102.396 215.846Z" fill="#0B2A2B"/>
<path d="M138.938 160.424C139.188 157.551 139.254 154.665 139.136 151.783L80.7024 223.199C83.5677 222.746 86.4017 222.113 89.1874 221.304L138.938 160.424Z" fill="#0B2A2B"/>
<path d="M134.003 128.053C133.253 126.229 132.433 124.433 131.528 122.679L50.6653 221.403C52.5744 221.94 54.4836 222.407 56.421 222.817L134.003 128.053Z" fill="#0B2A2B"/>
<path d="M138.118 142.238C137.722 140.032 137.213 137.84 136.619 135.662L64.3969 223.836C66.6411 224.005 68.8925 224.062 71.1425 224.006L138.118 142.238Z" fill="#0B2A2B"/>
<path d="M179.129 114.577H72.0052C71.9627 114.573 71.923 114.554 71.8942 114.522C71.8654 114.491 71.8495 114.45 71.8496 114.407V7.33995C71.8509 7.31103 71.8602 7.28308 71.8765 7.25916C71.8927 7.23523 71.9154 7.21632 71.9418 7.20456C71.9683 7.19281 71.9975 7.18867 72.0262 7.19261C72.0549 7.19654 72.0819 7.20839 72.1042 7.22683L73.0658 8.24504L179.228 114.308C179.241 114.334 179.249 114.363 179.249 114.393C179.249 114.422 179.241 114.452 179.228 114.478C179.22 114.501 179.207 114.522 179.19 114.539C179.173 114.556 179.152 114.569 179.129 114.577ZM72.1466 114.308H178.804L72.1466 7.70765V114.308ZM176.117 113.332H73.2072C73.1874 113.332 73.1678 113.328 73.1496 113.32C73.1315 113.312 73.1152 113.301 73.1019 113.286C73.0885 113.271 73.0784 113.254 73.0722 113.235C73.066 113.216 73.0638 113.196 73.0658 113.177V10.3663C73.0671 10.3374 73.0764 10.3094 73.0926 10.2855C73.1089 10.2615 73.1316 10.2426 73.158 10.2309C73.1845 10.2191 73.2137 10.215 73.2424 10.2189C73.271 10.2229 73.298 10.2347 73.3204 10.2532L176.3 113.007C176.317 113.032 176.326 113.062 176.326 113.092C176.326 113.122 176.317 113.151 176.3 113.177C176.298 113.197 176.291 113.217 176.279 113.234C176.268 113.251 176.252 113.264 176.234 113.274C176.216 113.284 176.196 113.289 176.176 113.289C176.155 113.29 176.135 113.285 176.117 113.276V113.332ZM73.3628 113.021H175.735L73.3628 10.6916V113.021Z" fill="#0B2A2B"/>
</svg>
