<svg width="86" height="86" viewBox="0 0 86 86" fill="none" xmlns="http://www.w3.org/2000/svg">
<circle cx="41.5001" cy="41.5" r="41.5" fill="#0B2A2B"/>
<circle cx="44.5001" cy="44.5" r="41.5" fill="#FFDC28"/>
<g clip-path="url(#clip0_12_513)">
<path d="M33.6407 54.4961C33.6407 55.2297 34.2352 55.8242 34.9688 55.8242H53.0313C53.7649 55.8242 54.3594 55.2297 54.3594 54.4961C54.3594 53.7625 53.7649 53.168 53.0313 53.168H34.9688C34.2352 53.168 33.6407 53.7625 33.6407 54.4961ZM54.3594 49.1836C54.3594 49.9172 53.7649 50.5117 53.0313 50.5117H34.9688C34.2352 50.5117 33.6407 49.9172 33.6407 49.1836C33.6407 48.45 34.2352 47.8555 34.9688 47.8555H53.0313C53.7649 47.8555 54.3594 48.45 54.3594 49.1836ZM34.9688 45.1992C34.2352 45.1992 33.6407 44.6047 33.6407 43.8711C33.6407 43.1375 34.2352 42.543 34.9688 42.543H41.0782C41.8118 42.543 42.4063 43.1375 42.4063 43.8711C42.4063 44.6047 41.8118 45.1992 41.0782 45.1992H34.9688ZM59.8341 34.8007C61.3866 33.2482 61.3866 30.7206 59.833 29.167C59.0564 28.3904 58.0359 28.0018 57.0157 28.0018C55.9955 28.0018 54.975 28.3904 54.1983 29.167L46.9357 36.4432C46.7738 36.6053 46.6568 36.8064 46.5959 37.0271L45.1108 42.3876C44.9816 42.8545 45.1165 43.3546 45.4633 43.6929C45.8099 44.0309 46.3131 44.1538 46.7767 44.013L52.0046 42.4249C52.2139 42.3614 52.4043 42.2473 52.5587 42.0924L59.8341 34.8007ZM49.0622 38.0727L53.9441 33.1818L55.8227 35.0603L50.9136 39.9804L48.3152 40.7697L49.0622 38.0727ZM57.9547 32.9234L57.6989 33.1799L55.8206 31.3016L56.0774 31.0443C56.5944 30.5273 57.437 30.5273 57.9547 31.0453C58.4727 31.5631 58.4727 32.4056 57.9547 32.9234ZM55.6876 62H32.3126C29.3832 62 27.0001 59.6169 27.0001 56.6875V33.3125C27.0001 30.3831 29.3832 28 32.3126 28H48.5821C49.3157 28 49.9102 28.5945 49.9102 29.3281C49.9102 30.0617 49.3157 30.6562 48.5821 30.6562H32.3126C30.848 30.6562 29.6563 31.8479 29.6563 33.3125V56.6875C29.6563 58.1521 30.848 59.3438 32.3126 59.3438H55.6876C57.1521 59.3438 58.3438 58.1521 58.3438 56.6875V40.3516C58.3438 39.618 58.9384 39.0234 59.6719 39.0234C60.4055 39.0234 61.0001 39.618 61.0001 40.3516V56.6875C61.0001 59.6169 58.617 62 55.6876 62Z" fill="#0B2A2B"/>
</g>
<defs>
<clipPath id="clip0_12_513">
<rect width="34" height="34" fill="white" transform="matrix(1 0 0 -1 27.0001 62)"/>
</clipPath>
</defs>
</svg>
