<svg width="156" height="122" viewBox="0 0 156 122" fill="none" xmlns="http://www.w3.org/2000/svg">
<path d="M64.147 120.543C58.8213 120.541 53.511 119.972 48.3063 118.843C38.8023 116.801 29.7968 112.898 21.8101 107.356C13.8234 101.815 7.01366 94.7465 1.77434 86.5585C0.13943 83.9193 -0.393155 80.7433 0.291307 77.7151C0.975768 74.6869 2.82246 72.0488 5.43354 70.3692C8.04462 68.6897 11.2111 68.1031 14.2505 68.736C17.2899 69.3688 19.9591 71.1704 21.6828 73.7526C29.0264 84.6896 40.3662 92.3107 53.2669 94.9791C66.1675 97.6475 79.6001 95.1503 90.6799 88.024C101.76 80.8976 109.603 69.7104 112.525 56.8649C115.448 44.0193 113.216 30.5401 106.31 19.3218C104.597 16.6818 104.004 13.4696 104.66 10.3919C105.316 7.31427 107.167 4.62322 109.807 2.91077C112.447 1.19832 115.659 0.604745 118.737 1.26064C121.815 1.91654 124.506 3.76817 126.218 6.4082C133.398 17.5777 137.441 30.4724 137.925 43.7414C138.409 57.0105 135.316 70.1655 128.97 81.8285C122.623 93.4914 113.257 103.233 101.853 110.033C90.4481 116.833 77.4248 120.44 64.147 120.478V120.543Z" fill="#F06543"/>
<path d="M80.4829 120.543C75.1573 120.541 69.8469 119.972 64.6422 118.843C55.1382 116.801 46.1327 112.898 38.146 107.356C30.1593 101.815 23.3496 94.7465 18.1103 86.5585C16.4754 83.9193 15.9428 80.7433 16.6272 77.7151C17.3117 74.6869 19.1584 72.0488 21.7695 70.3692C24.3806 68.6897 27.547 68.1031 30.5864 68.736C33.6259 69.3688 36.295 71.1704 38.0187 73.7526C45.3623 84.6896 56.7021 92.3107 69.6028 94.9791C82.5035 97.6475 95.9361 95.1503 107.016 88.024C118.096 80.8976 125.939 69.7104 128.861 56.8649C131.784 44.0193 129.552 30.5401 122.646 19.3218C120.933 16.6818 120.34 13.4696 120.996 10.3919C121.652 7.31427 123.503 4.62322 126.143 2.91077C128.783 1.19832 131.995 0.604745 135.073 1.26064C138.151 1.91654 140.842 3.76817 142.554 6.4082C149.734 17.5777 153.777 30.4724 154.261 43.7414C154.745 57.0105 151.652 70.1655 145.306 81.8285C138.959 93.4914 129.593 103.233 118.189 110.033C106.784 116.833 93.7607 120.44 80.4829 120.478V120.543Z" stroke="#0B2A2B" stroke-width="2" stroke-miterlimit="10"/>
</svg>
