<svg width="194" height="116" viewBox="0 0 194 116" fill="none" xmlns="http://www.w3.org/2000/svg">
<path d="M87.6699 43.7803C87.6699 43.2443 87.8289 42.7204 88.1266 42.2747C88.4244 41.8291 88.8477 41.4817 89.3428 41.2766C89.838 41.0715 90.3829 41.0178 90.9086 41.1224C91.4343 41.2269 91.9172 41.485 92.2962 41.864C92.6752 42.243 92.9333 42.7259 93.0378 43.2516C93.1424 43.7773 93.0887 44.3222 92.8836 44.8174C92.6785 45.3126 92.3312 45.7358 91.8855 46.0336C91.4399 46.3314 90.9159 46.4903 90.3799 46.4903C89.6612 46.4903 88.9719 46.2048 88.4637 45.6966C87.9554 45.1883 87.6699 44.499 87.6699 43.7803Z" fill="#0B2A2B"/>
<path d="M67.75 43.7798C67.748 43.241 67.9061 42.7137 68.2043 42.2649C68.5024 41.816 68.9271 41.4659 69.4245 41.2588C69.9219 41.0517 70.4696 40.9969 70.9982 41.1016C71.5268 41.2062 72.0123 41.4655 72.3933 41.8465C72.7743 42.2275 73.0336 42.713 73.1382 43.2416C73.2429 43.7702 73.1881 44.3179 72.981 44.8153C72.7739 45.3127 72.4237 45.7374 71.9749 46.0355C71.5261 46.3337 70.9988 46.4918 70.46 46.4898C69.7421 46.4872 69.0543 46.2008 68.5467 45.6931C68.039 45.1855 67.7527 44.4977 67.75 43.7798Z" fill="#0B2A2B"/>
<path d="M47.8401 43.7803C47.8401 43.2443 47.999 42.7204 48.2968 42.2747C48.5946 41.8291 49.0178 41.4817 49.513 41.2766C50.0082 41.0715 50.5531 41.0178 51.0788 41.1224C51.6045 41.2269 52.0873 41.485 52.4663 41.864C52.8453 42.243 53.1034 42.7259 53.208 43.2516C53.3126 43.7773 53.2589 44.3222 53.0538 44.8174C52.8487 45.3126 52.5013 45.7358 52.0557 46.0336C51.61 46.3314 51.0861 46.4903 50.5501 46.4903C49.8313 46.4903 49.142 46.2048 48.6338 45.6966C48.1256 45.1883 47.8401 44.499 47.8401 43.7803Z" fill="#0B2A2B"/>
<path d="M27.9199 43.7803C27.9199 43.2443 28.0789 42.7204 28.3766 42.2747C28.6744 41.8291 29.0977 41.4817 29.5928 41.2766C30.088 41.0715 30.6329 41.0178 31.1586 41.1224C31.6843 41.2269 32.1672 41.485 32.5462 41.864C32.9252 42.243 33.1833 42.7259 33.2879 43.2516C33.3924 43.7773 33.3387 44.3222 33.1336 44.8174C32.9285 45.3126 32.5812 45.7358 32.1355 46.0336C31.6899 46.3314 31.1659 46.4903 30.6299 46.4903C29.9112 46.4903 29.2219 46.2048 28.7137 45.6966C28.2054 45.1883 27.9199 44.499 27.9199 43.7803Z" fill="#0B2A2B"/>
<path d="M8.00002 43.7798C7.99804 43.2414 8.15588 42.7145 8.45356 42.2659C8.75123 41.8173 9.17535 41.4671 9.67218 41.2597C10.169 41.0523 10.7162 40.997 11.2445 41.1009C11.7728 41.2047 12.2584 41.4629 12.6398 41.8429C13.0212 42.2229 13.2812 42.7076 13.387 43.2355C13.4928 43.7634 13.4395 44.3108 13.2339 44.8084C13.0283 45.306 12.6797 45.7314 12.2322 46.0307C11.7847 46.33 11.2584 46.4898 10.72 46.4898C10.0004 46.4898 9.31003 46.2046 8.80022 45.6967C8.29041 45.1887 8.00266 44.4994 8.00002 43.7798Z" fill="#0B2A2B"/>
<path d="M87.6699 23.2803C87.6699 22.7443 87.8289 22.2204 88.1266 21.7747C88.4244 21.3291 88.8477 20.9817 89.3428 20.7766C89.838 20.5715 90.3829 20.5178 90.9086 20.6224C91.4343 20.7269 91.9172 20.985 92.2962 21.364C92.6752 21.743 92.9333 22.2259 93.0378 22.7516C93.1424 23.2773 93.0887 23.8222 92.8836 24.3174C92.6785 24.8126 92.3312 25.2358 91.8855 25.5336C91.4399 25.8314 90.9159 25.9903 90.3799 25.9903C89.6612 25.9903 88.9719 25.7048 88.4637 25.1966C87.9554 24.6883 87.6699 23.999 87.6699 23.2803Z" fill="#0B2A2B"/>
<path d="M67.75 23.2798C67.748 22.741 67.9061 22.2137 68.2043 21.7649C68.5024 21.316 68.9271 20.9659 69.4245 20.7588C69.9219 20.5517 70.4696 20.4969 70.9982 20.6016C71.5268 20.7062 72.0123 20.9655 72.3933 21.3465C72.7743 21.7275 73.0336 22.213 73.1382 22.7416C73.2429 23.2702 73.1881 23.8179 72.981 24.3153C72.7739 24.8127 72.4237 25.2374 71.9749 25.5355C71.5261 25.8337 70.9988 25.9918 70.46 25.9898C69.7413 25.9898 69.052 25.7043 68.5438 25.196C68.0355 24.6878 67.75 23.9985 67.75 23.2798Z" fill="#0B2A2B"/>
<path d="M47.8401 23.2803C47.8401 22.7443 47.999 22.2204 48.2968 21.7747C48.5946 21.3291 49.0178 20.9817 49.513 20.7766C50.0082 20.5715 50.5531 20.5178 51.0788 20.6224C51.6045 20.7269 52.0873 20.985 52.4663 21.364C52.8453 21.743 53.1034 22.2259 53.208 22.7516C53.3126 23.2773 53.2589 23.8222 53.0538 24.3174C52.8487 24.8126 52.5013 25.2358 52.0557 25.5336C51.61 25.8314 51.0861 25.9903 50.5501 25.9903C49.8313 25.9903 49.142 25.7048 48.6338 25.1966C48.1256 24.6883 47.8401 23.999 47.8401 23.2803Z" fill="#0B2A2B"/>
<path d="M27.9199 23.2803C27.9199 22.7443 28.0789 22.2204 28.3766 21.7747C28.6744 21.3291 29.0977 20.9817 29.5928 20.7766C30.088 20.5715 30.6329 20.5178 31.1586 20.6224C31.6843 20.7269 32.1672 20.985 32.5462 21.364C32.9252 21.743 33.1833 22.2259 33.2879 22.7516C33.3924 23.2773 33.3387 23.8222 33.1336 24.3174C32.9285 24.8126 32.5812 25.2358 32.1355 25.5336C31.6899 25.8314 31.1659 25.9903 30.6299 25.9903C29.9112 25.9903 29.2219 25.7048 28.7137 25.1966C28.2054 24.6883 27.9199 23.999 27.9199 23.2803Z" fill="#0B2A2B"/>
<path d="M8.00002 23.2798C7.99804 22.7414 8.15588 22.2145 8.45356 21.7659C8.75123 21.3173 9.17535 20.9671 9.67218 20.7597C10.169 20.5523 10.7162 20.497 11.2445 20.6009C11.7728 20.7047 12.2584 20.9629 12.6398 21.3429C13.0212 21.7229 13.2812 22.2076 13.387 22.7355C13.4928 23.2634 13.4395 23.8108 13.2339 24.3084C13.0283 24.806 12.6797 25.2314 12.2322 25.5307C11.7847 25.83 11.2584 25.9898 10.72 25.9898C10.3633 25.9911 10.0098 25.922 9.67987 25.7864C9.34993 25.6508 9.05 25.4514 8.79729 25.1996C8.54458 24.9478 8.34408 24.6486 8.20726 24.3192C8.07045 23.9897 8.00002 23.6365 8.00002 23.2798Z" fill="#0B2A2B"/>
<path d="M87.6699 2.73002C87.6699 2.19404 87.8289 1.6701 88.1266 1.22444C88.4244 0.778782 88.8477 0.431414 89.3428 0.2263C89.838 0.0211869 90.3829 -0.0324709 90.9086 0.072095C91.4343 0.176661 91.9172 0.434763 92.2962 0.813764C92.6752 1.19276 92.9333 1.67565 93.0378 2.20134C93.1424 2.72703 93.0887 3.27191 92.8836 3.7671C92.6785 4.26229 92.3312 4.68554 91.8855 4.98332C91.4399 5.2811 90.9159 5.44001 90.3799 5.44001C89.6612 5.44001 88.9719 5.15451 88.4637 4.64628C87.9554 4.13806 87.6699 3.44876 87.6699 2.73002Z" fill="#0B2A2B"/>
<path d="M67.75 2.72998C67.748 2.19116 67.9061 1.66391 68.2043 1.21508C68.5024 0.766253 68.9271 0.416058 69.4245 0.20895C69.9219 0.00184095 70.4696 -0.0528486 70.9982 0.0517842C71.5268 0.156417 72.0123 0.415657 72.3933 0.796657C72.7743 1.17766 73.0336 1.66324 73.1382 2.1918C73.2429 2.72036 73.1881 3.26808 72.981 3.7655C72.7739 4.26292 72.4237 4.68763 71.9749 4.98574C71.5261 5.28386 70.9988 5.44195 70.46 5.43997C69.7413 5.43997 69.052 5.15446 68.5438 4.64624C68.0355 4.13801 67.75 3.44871 67.75 2.72998Z" fill="#0B2A2B"/>
<path d="M47.8401 2.73002C47.8401 2.19404 47.999 1.6701 48.2968 1.22444C48.5946 0.778782 49.0178 0.431414 49.513 0.2263C50.0082 0.0211869 50.5531 -0.0324709 51.0788 0.072095C51.6045 0.176661 52.0873 0.434763 52.4663 0.813764C52.8453 1.19276 53.1034 1.67565 53.208 2.20134C53.3126 2.72703 53.2589 3.27191 53.0538 3.7671C52.8487 4.26229 52.5013 4.68554 52.0557 4.98332C51.61 5.2811 51.0861 5.44001 50.5501 5.44001C49.8313 5.44001 49.142 5.15451 48.6338 4.64628C48.1256 4.13806 47.8401 3.44876 47.8401 2.73002Z" fill="#0B2A2B"/>
<path d="M27.9199 2.73002C27.9199 2.19404 28.0789 1.6701 28.3766 1.22444C28.6744 0.778782 29.0977 0.431414 29.5928 0.2263C30.088 0.0211869 30.6329 -0.0324709 31.1586 0.072095C31.6843 0.176661 32.1672 0.434763 32.5462 0.813764C32.9252 1.19276 33.1833 1.67565 33.2879 2.20134C33.3924 2.72703 33.3387 3.27191 33.1336 3.7671C32.9285 4.26229 32.5812 4.68554 32.1355 4.98332C31.6899 5.2811 31.1659 5.44001 30.6299 5.44001C29.9112 5.44001 29.2219 5.15451 28.7137 4.64628C28.2054 4.13806 27.9199 3.44876 27.9199 2.73002Z" fill="#0B2A2B"/>
<path d="M8.00002 2.73001C7.99804 2.19162 8.15588 1.66477 8.45356 1.21615C8.75123 0.767538 9.17535 0.417332 9.67218 0.209927C10.169 0.00252266 10.7162 -0.052767 11.2445 0.0510528C11.7728 0.154873 12.2584 0.413151 12.6398 0.793149C13.0212 1.17315 13.2812 1.65777 13.387 2.18567C13.4928 2.71357 13.4395 3.26097 13.2339 3.75857C13.0283 4.25617 12.6797 4.68157 12.2322 4.98089C11.7847 5.28021 11.2584 5.44 10.72 5.44C10.3633 5.44132 10.0098 5.3722 9.67987 5.2366C9.34993 5.101 9.05 4.90159 8.79729 4.64981C8.54458 4.39803 8.34408 4.09885 8.20726 3.76941C8.07045 3.43996 8.00002 3.08673 8.00002 2.73001Z" fill="#0B2A2B"/>
<path d="M87.6699 104.78C87.6699 104.244 87.8289 103.72 88.1266 103.275C88.4244 102.829 88.8477 102.482 89.3428 102.277C89.838 102.072 90.3829 102.018 90.9086 102.122C91.4343 102.227 91.9172 102.485 92.2962 102.864C92.6752 103.243 92.9333 103.726 93.0378 104.252C93.1424 104.777 93.0887 105.322 92.8836 105.817C92.6785 106.313 92.3312 106.736 91.8855 107.034C91.4399 107.331 90.9159 107.49 90.3799 107.49C89.6612 107.49 88.9719 107.205 88.4637 106.697C87.9554 106.188 87.6699 105.499 87.6699 104.78Z" fill="#0B2A2B"/>
<path d="M67.75 104.78C67.748 104.241 67.9061 103.714 68.2043 103.265C68.5024 102.816 68.9271 102.466 69.4245 102.259C69.9219 102.052 70.4696 101.997 70.9982 102.102C71.5268 102.206 72.0123 102.465 72.3933 102.846C72.7743 103.227 73.0336 103.713 73.1382 104.242C73.2429 104.77 73.1881 105.318 72.981 105.815C72.7739 106.313 72.4237 106.737 71.9749 107.036C71.5261 107.334 70.9988 107.492 70.46 107.49C69.7421 107.487 69.0543 107.201 68.5467 106.693C68.039 106.185 67.7527 105.498 67.75 104.78Z" fill="#0B2A2B"/>
<path d="M47.8401 104.78C47.8401 104.244 47.999 103.72 48.2968 103.275C48.5946 102.829 49.0178 102.482 49.513 102.277C50.0082 102.072 50.5531 102.018 51.0788 102.122C51.6045 102.227 52.0873 102.485 52.4663 102.864C52.8453 103.243 53.1034 103.726 53.208 104.252C53.3126 104.777 53.2589 105.322 53.0538 105.817C52.8487 106.313 52.5013 106.736 52.0557 107.034C51.61 107.331 51.0861 107.49 50.5501 107.49C49.8313 107.49 49.142 107.205 48.6338 106.697C48.1256 106.188 47.8401 105.499 47.8401 104.78Z" fill="#0B2A2B"/>
<path d="M27.9199 104.78C27.9199 104.244 28.0789 103.72 28.3766 103.275C28.6744 102.829 29.0977 102.482 29.5928 102.277C30.088 102.072 30.6329 102.018 31.1586 102.122C31.6843 102.227 32.1672 102.485 32.5462 102.864C32.9252 103.243 33.1833 103.726 33.2879 104.252C33.3924 104.777 33.3387 105.322 33.1336 105.817C32.9285 106.313 32.5812 106.736 32.1355 107.034C31.6899 107.331 31.1659 107.49 30.6299 107.49C29.9112 107.49 29.2219 107.205 28.7137 106.697C28.2054 106.188 27.9199 105.499 27.9199 104.78Z" fill="#0B2A2B"/>
<path d="M8.00002 104.78C7.99804 104.241 8.15588 103.715 8.45356 103.266C8.75123 102.817 9.17535 102.467 9.67218 102.26C10.169 102.052 10.7162 101.997 11.2445 102.101C11.7728 102.205 12.2584 102.463 12.6398 102.843C13.0212 103.223 13.2812 103.708 13.387 104.235C13.4928 104.763 13.4395 105.311 13.2339 105.808C13.0283 106.306 12.6797 106.731 12.2322 107.031C11.7847 107.33 11.2584 107.49 10.72 107.49C10.0004 107.49 9.31003 107.205 8.80022 106.697C8.29041 106.189 8.00266 105.499 8.00002 104.78Z" fill="#0B2A2B"/>
<path d="M87.6699 84.2803C87.6699 83.7443 87.8289 83.2204 88.1266 82.7747C88.4244 82.3291 88.8477 81.9817 89.3428 81.7766C89.838 81.5715 90.3829 81.5178 90.9086 81.6224C91.4343 81.7269 91.9172 81.985 92.2962 82.364C92.6752 82.743 92.9333 83.2259 93.0378 83.7516C93.1424 84.2773 93.0887 84.8222 92.8836 85.3174C92.6785 85.8126 92.3312 86.2358 91.8855 86.5336C91.4399 86.8314 90.9159 86.9903 90.3799 86.9903C89.6612 86.9903 88.9719 86.7048 88.4637 86.1966C87.9554 85.6883 87.6699 84.999 87.6699 84.2803Z" fill="#0B2A2B"/>
<path d="M67.75 84.2798C67.748 83.741 67.9061 83.2137 68.2043 82.7649C68.5024 82.316 68.9271 81.9659 69.4245 81.7588C69.9219 81.5517 70.4696 81.4969 70.9982 81.6016C71.5268 81.7062 72.0123 81.9655 72.3933 82.3465C72.7743 82.7275 73.0336 83.213 73.1382 83.7416C73.2429 84.2702 73.1881 84.8179 72.981 85.3153C72.7739 85.8127 72.4237 86.2374 71.9749 86.5355C71.5261 86.8337 70.9988 86.9918 70.46 86.9898C69.7413 86.9898 69.052 86.7043 68.5438 86.196C68.0355 85.6878 67.75 84.9985 67.75 84.2798Z" fill="#0B2A2B"/>
<path d="M47.8401 84.2803C47.8401 83.7443 47.999 83.2204 48.2968 82.7747C48.5946 82.3291 49.0178 81.9817 49.513 81.7766C50.0082 81.5715 50.5531 81.5178 51.0788 81.6224C51.6045 81.7269 52.0873 81.985 52.4663 82.364C52.8453 82.743 53.1034 83.2259 53.208 83.7516C53.3126 84.2773 53.2589 84.8222 53.0538 85.3174C52.8487 85.8126 52.5013 86.2358 52.0557 86.5336C51.61 86.8314 51.0861 86.9903 50.5501 86.9903C49.8313 86.9903 49.142 86.7048 48.6338 86.1966C48.1256 85.6883 47.8401 84.999 47.8401 84.2803Z" fill="#0B2A2B"/>
<path d="M27.9199 84.2803C27.9199 83.7443 28.0789 83.2204 28.3766 82.7747C28.6744 82.3291 29.0977 81.9817 29.5928 81.7766C30.088 81.5715 30.6329 81.5178 31.1586 81.6224C31.6843 81.7269 32.1672 81.985 32.5462 82.364C32.9252 82.743 33.1833 83.2259 33.2879 83.7516C33.3924 84.2773 33.3387 84.8222 33.1336 85.3174C32.9285 85.8126 32.5812 86.2358 32.1355 86.5336C31.6899 86.8314 31.1659 86.9903 30.6299 86.9903C29.9112 86.9903 29.2219 86.7048 28.7137 86.1966C28.2054 85.6883 27.9199 84.999 27.9199 84.2803Z" fill="#0B2A2B"/>
<path d="M8.00002 84.2798C7.99804 83.7414 8.15588 83.2145 8.45356 82.7659C8.75123 82.3173 9.17535 81.9671 9.67218 81.7597C10.169 81.5523 10.7162 81.497 11.2445 81.6009C11.7728 81.7047 12.2584 81.9629 12.6398 82.3429C13.0212 82.7229 13.2812 83.2076 13.387 83.7355C13.4928 84.2634 13.4395 84.8108 13.2339 85.3084C13.0283 85.806 12.6797 86.2314 12.2322 86.5307C11.7847 86.83 11.2584 86.9898 10.72 86.9898C10.3633 86.9911 10.0098 86.922 9.67987 86.7864C9.34993 86.6508 9.05 86.4514 8.79729 86.1996C8.54458 85.9478 8.34408 85.6486 8.20726 85.3192C8.07045 84.9897 8.00002 84.6365 8.00002 84.2798Z" fill="#0B2A2B"/>
<path d="M87.6699 63.73C87.6699 63.194 87.8289 62.6701 88.1266 62.2244C88.4244 61.7788 88.8477 61.4314 89.3428 61.2263C89.838 61.0212 90.3829 60.9675 90.9086 61.0721C91.4343 61.1767 91.9172 61.4348 92.2962 61.8138C92.6752 62.1928 92.9333 62.6756 93.0378 63.2013C93.1424 63.727 93.0887 64.2719 92.8836 64.7671C92.6785 65.2623 92.3312 65.6855 91.8855 65.9833C91.4399 66.2811 90.9159 66.44 90.3799 66.44C89.6612 66.44 88.9719 66.1545 88.4637 65.6463C87.9554 65.1381 87.6699 64.4488 87.6699 63.73Z" fill="#0B2A2B"/>
<path d="M67.75 63.73C67.748 63.1912 67.9061 62.6639 68.2043 62.2151C68.5024 61.7663 68.9271 61.4161 69.4245 61.2089C69.9219 61.0018 70.4696 60.9472 70.9982 61.0518C71.5268 61.1564 72.0123 61.4157 72.3933 61.7967C72.7743 62.1777 73.0336 62.6632 73.1382 63.1918C73.2429 63.7204 73.1881 64.2681 72.981 64.7655C72.7739 65.2629 72.4237 65.6876 71.9749 65.9857C71.5261 66.2839 70.9988 66.4419 70.46 66.44C69.7413 66.44 69.052 66.1545 68.5438 65.6462C68.0355 65.138 67.75 64.4487 67.75 63.73Z" fill="#0B2A2B"/>
<path d="M47.8401 63.73C47.8401 63.194 47.999 62.6701 48.2968 62.2244C48.5946 61.7788 49.0178 61.4314 49.513 61.2263C50.0082 61.0212 50.5531 60.9675 51.0788 61.0721C51.6045 61.1767 52.0873 61.4348 52.4663 61.8138C52.8453 62.1928 53.1034 62.6756 53.208 63.2013C53.3126 63.727 53.2589 64.2719 53.0538 64.7671C52.8487 65.2623 52.5013 65.6855 52.0557 65.9833C51.61 66.2811 51.0861 66.44 50.5501 66.44C49.8313 66.44 49.142 66.1545 48.6338 65.6463C48.1256 65.1381 47.8401 64.4488 47.8401 63.73Z" fill="#0B2A2B"/>
<path d="M27.9199 63.73C27.9199 63.194 28.0789 62.6701 28.3766 62.2244C28.6744 61.7788 29.0977 61.4314 29.5928 61.2263C30.088 61.0212 30.6329 60.9675 31.1586 61.0721C31.6843 61.1767 32.1672 61.4348 32.5462 61.8138C32.9252 62.1928 33.1833 62.6756 33.2879 63.2013C33.3924 63.727 33.3387 64.2719 33.1336 64.7671C32.9285 65.2623 32.5812 65.6855 32.1355 65.9833C31.6899 66.2811 31.1659 66.44 30.6299 66.44C29.9112 66.44 29.2219 66.1545 28.7137 65.6463C28.2054 65.1381 27.9199 64.4488 27.9199 63.73Z" fill="#0B2A2B"/>
<path d="M8.00002 63.73C7.99804 63.1916 8.15588 62.6648 8.45356 62.2162C8.75123 61.7675 9.17535 61.4173 9.67218 61.2099C10.169 61.0025 10.7162 60.9472 11.2445 61.0511C11.7728 61.1549 12.2584 61.4132 12.6398 61.7931C13.0212 62.1731 13.2812 62.6578 13.387 63.1857C13.4928 63.7136 13.4395 64.261 13.2339 64.7586C13.0283 65.2562 12.6797 65.6816 12.2322 65.9809C11.7847 66.2802 11.2584 66.44 10.72 66.44C10.3633 66.4413 10.0098 66.3722 9.67987 66.2366C9.34993 66.101 9.05 65.9016 8.79729 65.6498C8.54458 65.398 8.34408 65.0989 8.20726 64.7694C8.07045 64.44 8.00002 64.0867 8.00002 63.73Z" fill="#0B2A2B"/>
<path d="M187.67 43.7803C187.67 43.2443 187.829 42.7204 188.127 42.2747C188.424 41.8291 188.848 41.4817 189.343 41.2766C189.838 41.0715 190.383 41.0178 190.909 41.1224C191.434 41.2269 191.917 41.485 192.296 41.864C192.675 42.243 192.933 42.7259 193.038 43.2516C193.142 43.7773 193.089 44.3222 192.884 44.8174C192.679 45.3126 192.331 45.7358 191.886 46.0336C191.44 46.3314 190.916 46.4903 190.38 46.4903C189.661 46.4903 188.972 46.2048 188.464 45.6966C187.955 45.1883 187.67 44.499 187.67 43.7803Z" fill="#0B2A2B"/>
<path d="M167.75 43.7798C167.748 43.241 167.906 42.7137 168.204 42.2649C168.502 41.816 168.927 41.4659 169.425 41.2588C169.922 41.0517 170.47 40.9969 170.998 41.1016C171.527 41.2062 172.012 41.4655 172.393 41.8465C172.774 42.2275 173.034 42.713 173.138 43.2416C173.243 43.7702 173.188 44.3179 172.981 44.8153C172.774 45.3127 172.424 45.7374 171.975 46.0355C171.526 46.3337 170.999 46.4918 170.46 46.4898C169.742 46.4872 169.054 46.2008 168.547 45.6931C168.039 45.1855 167.753 44.4977 167.75 43.7798Z" fill="#0B2A2B"/>
<path d="M147.84 43.7803C147.84 43.2443 147.999 42.7204 148.297 42.2747C148.595 41.8291 149.018 41.4817 149.513 41.2766C150.008 41.0715 150.553 41.0178 151.079 41.1224C151.604 41.2269 152.087 41.485 152.466 41.864C152.845 42.243 153.103 42.7259 153.208 43.2516C153.313 43.7773 153.259 44.3222 153.054 44.8174C152.849 45.3126 152.501 45.7358 152.056 46.0336C151.61 46.3314 151.086 46.4903 150.55 46.4903C149.831 46.4903 149.142 46.2048 148.634 45.6966C148.126 45.1883 147.84 44.499 147.84 43.7803Z" fill="#0B2A2B"/>
<path d="M127.92 43.7803C127.92 43.2443 128.079 42.7204 128.377 42.2747C128.674 41.8291 129.098 41.4817 129.593 41.2766C130.088 41.0715 130.633 41.0178 131.159 41.1224C131.684 41.2269 132.167 41.485 132.546 41.864C132.925 42.243 133.183 42.7259 133.288 43.2516C133.392 43.7773 133.339 44.3222 133.134 44.8174C132.929 45.3126 132.581 45.7358 132.136 46.0336C131.69 46.3314 131.166 46.4903 130.63 46.4903C129.911 46.4903 129.222 46.2048 128.714 45.6966C128.205 45.1883 127.92 44.499 127.92 43.7803Z" fill="#0B2A2B"/>
<path d="M108 43.7798C107.998 43.2414 108.156 42.7145 108.454 42.2659C108.751 41.8173 109.175 41.4671 109.672 41.2597C110.169 41.0523 110.716 40.997 111.245 41.1009C111.773 41.2047 112.258 41.4629 112.64 41.8429C113.021 42.2229 113.281 42.7076 113.387 43.2355C113.493 43.7634 113.439 44.3108 113.234 44.8084C113.028 45.306 112.68 45.7314 112.232 46.0307C111.785 46.33 111.258 46.4898 110.72 46.4898C110 46.4898 109.31 46.2046 108.8 45.6967C108.29 45.1887 108.003 44.4994 108 43.7798Z" fill="#0B2A2B"/>
<path d="M187.67 23.2803C187.67 22.7443 187.829 22.2204 188.127 21.7747C188.424 21.3291 188.848 20.9817 189.343 20.7766C189.838 20.5715 190.383 20.5178 190.909 20.6224C191.434 20.7269 191.917 20.985 192.296 21.364C192.675 21.743 192.933 22.2259 193.038 22.7516C193.142 23.2773 193.089 23.8222 192.884 24.3174C192.679 24.8126 192.331 25.2358 191.886 25.5336C191.44 25.8314 190.916 25.9903 190.38 25.9903C189.661 25.9903 188.972 25.7048 188.464 25.1966C187.955 24.6883 187.67 23.999 187.67 23.2803Z" fill="#0B2A2B"/>
<path d="M167.75 23.2798C167.748 22.741 167.906 22.2137 168.204 21.7649C168.502 21.316 168.927 20.9659 169.425 20.7588C169.922 20.5517 170.47 20.4969 170.998 20.6016C171.527 20.7062 172.012 20.9655 172.393 21.3465C172.774 21.7275 173.034 22.213 173.138 22.7416C173.243 23.2702 173.188 23.8179 172.981 24.3153C172.774 24.8127 172.424 25.2374 171.975 25.5355C171.526 25.8337 170.999 25.9918 170.46 25.9898C169.741 25.9898 169.052 25.7043 168.544 25.196C168.036 24.6878 167.75 23.9985 167.75 23.2798Z" fill="#0B2A2B"/>
<path d="M147.84 23.2803C147.84 22.7443 147.999 22.2204 148.297 21.7747C148.595 21.3291 149.018 20.9817 149.513 20.7766C150.008 20.5715 150.553 20.5178 151.079 20.6224C151.604 20.7269 152.087 20.985 152.466 21.364C152.845 21.743 153.103 22.2259 153.208 22.7516C153.313 23.2773 153.259 23.8222 153.054 24.3174C152.849 24.8126 152.501 25.2358 152.056 25.5336C151.61 25.8314 151.086 25.9903 150.55 25.9903C149.831 25.9903 149.142 25.7048 148.634 25.1966C148.126 24.6883 147.84 23.999 147.84 23.2803Z" fill="#0B2A2B"/>
<path d="M127.92 23.2803C127.92 22.7443 128.079 22.2204 128.377 21.7747C128.674 21.3291 129.098 20.9817 129.593 20.7766C130.088 20.5715 130.633 20.5178 131.159 20.6224C131.684 20.7269 132.167 20.985 132.546 21.364C132.925 21.743 133.183 22.2259 133.288 22.7516C133.392 23.2773 133.339 23.8222 133.134 24.3174C132.929 24.8126 132.581 25.2358 132.136 25.5336C131.69 25.8314 131.166 25.9903 130.63 25.9903C129.911 25.9903 129.222 25.7048 128.714 25.1966C128.205 24.6883 127.92 23.999 127.92 23.2803Z" fill="#0B2A2B"/>
<path d="M108 23.2798C107.998 22.7414 108.156 22.2145 108.454 21.7659C108.751 21.3173 109.175 20.9671 109.672 20.7597C110.169 20.5523 110.716 20.497 111.245 20.6009C111.773 20.7047 112.258 20.9629 112.64 21.3429C113.021 21.7229 113.281 22.2076 113.387 22.7355C113.493 23.2634 113.439 23.8108 113.234 24.3084C113.028 24.806 112.68 25.2314 112.232 25.5307C111.785 25.83 111.258 25.9898 110.72 25.9898C110.363 25.9911 110.01 25.922 109.68 25.7864C109.35 25.6508 109.05 25.4514 108.797 25.1996C108.545 24.9478 108.344 24.6486 108.207 24.3192C108.07 23.9897 108 23.6365 108 23.2798Z" fill="#0B2A2B"/>
<path d="M187.67 2.73002C187.67 2.19404 187.829 1.6701 188.127 1.22444C188.424 0.778782 188.848 0.431414 189.343 0.2263C189.838 0.0211869 190.383 -0.0324709 190.909 0.072095C191.434 0.176661 191.917 0.434763 192.296 0.813764C192.675 1.19276 192.933 1.67565 193.038 2.20134C193.142 2.72703 193.089 3.27191 192.884 3.7671C192.679 4.26229 192.331 4.68554 191.886 4.98332C191.44 5.2811 190.916 5.44001 190.38 5.44001C189.661 5.44001 188.972 5.15451 188.464 4.64628C187.955 4.13806 187.67 3.44876 187.67 2.73002Z" fill="#0B2A2B"/>
<path d="M167.75 2.72998C167.748 2.19116 167.906 1.66391 168.204 1.21508C168.502 0.766253 168.927 0.416058 169.425 0.20895C169.922 0.00184095 170.47 -0.0528486 170.998 0.0517842C171.527 0.156417 172.012 0.415657 172.393 0.796657C172.774 1.17766 173.034 1.66324 173.138 2.1918C173.243 2.72036 173.188 3.26808 172.981 3.7655C172.774 4.26292 172.424 4.68763 171.975 4.98574C171.526 5.28386 170.999 5.44195 170.46 5.43997C169.741 5.43997 169.052 5.15446 168.544 4.64624C168.036 4.13801 167.75 3.44871 167.75 2.72998Z" fill="#0B2A2B"/>
<path d="M147.84 2.73002C147.84 2.19404 147.999 1.6701 148.297 1.22444C148.595 0.778782 149.018 0.431414 149.513 0.2263C150.008 0.0211869 150.553 -0.0324709 151.079 0.072095C151.604 0.176661 152.087 0.434763 152.466 0.813764C152.845 1.19276 153.103 1.67565 153.208 2.20134C153.313 2.72703 153.259 3.27191 153.054 3.7671C152.849 4.26229 152.501 4.68554 152.056 4.98332C151.61 5.2811 151.086 5.44001 150.55 5.44001C149.831 5.44001 149.142 5.15451 148.634 4.64628C148.126 4.13806 147.84 3.44876 147.84 2.73002Z" fill="#0B2A2B"/>
<path d="M127.92 2.73002C127.92 2.19404 128.079 1.6701 128.377 1.22444C128.674 0.778782 129.098 0.431414 129.593 0.2263C130.088 0.0211869 130.633 -0.0324709 131.159 0.072095C131.684 0.176661 132.167 0.434763 132.546 0.813764C132.925 1.19276 133.183 1.67565 133.288 2.20134C133.392 2.72703 133.339 3.27191 133.134 3.7671C132.929 4.26229 132.581 4.68554 132.136 4.98332C131.69 5.2811 131.166 5.44001 130.63 5.44001C129.911 5.44001 129.222 5.15451 128.714 4.64628C128.205 4.13806 127.92 3.44876 127.92 2.73002Z" fill="#0B2A2B"/>
<path d="M108 2.73001C107.998 2.19162 108.156 1.66477 108.454 1.21615C108.751 0.767538 109.175 0.417332 109.672 0.209927C110.169 0.00252266 110.716 -0.052767 111.245 0.0510528C111.773 0.154873 112.258 0.413151 112.64 0.793149C113.021 1.17315 113.281 1.65777 113.387 2.18567C113.493 2.71357 113.439 3.26097 113.234 3.75857C113.028 4.25617 112.68 4.68157 112.232 4.98089C111.785 5.28021 111.258 5.44 110.72 5.44C110.363 5.44132 110.01 5.3722 109.68 5.2366C109.35 5.101 109.05 4.90159 108.797 4.64981C108.545 4.39803 108.344 4.09885 108.207 3.76941C108.07 3.43996 108 3.08673 108 2.73001Z" fill="#0B2A2B"/>
<path d="M187.67 104.78C187.67 104.244 187.829 103.72 188.127 103.275C188.424 102.829 188.848 102.482 189.343 102.277C189.838 102.072 190.383 102.018 190.909 102.122C191.434 102.227 191.917 102.485 192.296 102.864C192.675 103.243 192.933 103.726 193.038 104.252C193.142 104.777 193.089 105.322 192.884 105.817C192.679 106.313 192.331 106.736 191.886 107.034C191.44 107.331 190.916 107.49 190.38 107.49C189.661 107.49 188.972 107.205 188.464 106.697C187.955 106.188 187.67 105.499 187.67 104.78Z" fill="#0B2A2B"/>
<path d="M167.75 104.78C167.748 104.241 167.906 103.714 168.204 103.265C168.502 102.816 168.927 102.466 169.425 102.259C169.922 102.052 170.47 101.997 170.998 102.102C171.527 102.206 172.012 102.465 172.393 102.846C172.774 103.227 173.034 103.713 173.138 104.242C173.243 104.77 173.188 105.318 172.981 105.815C172.774 106.313 172.424 106.737 171.975 107.036C171.526 107.334 170.999 107.492 170.46 107.49C169.742 107.487 169.054 107.201 168.547 106.693C168.039 106.185 167.753 105.498 167.75 104.78Z" fill="#0B2A2B"/>
<path d="M147.84 104.78C147.84 104.244 147.999 103.72 148.297 103.275C148.595 102.829 149.018 102.482 149.513 102.277C150.008 102.072 150.553 102.018 151.079 102.122C151.604 102.227 152.087 102.485 152.466 102.864C152.845 103.243 153.103 103.726 153.208 104.252C153.313 104.777 153.259 105.322 153.054 105.817C152.849 106.313 152.501 106.736 152.056 107.034C151.61 107.331 151.086 107.49 150.55 107.49C149.831 107.49 149.142 107.205 148.634 106.697C148.126 106.188 147.84 105.499 147.84 104.78Z" fill="#0B2A2B"/>
<path d="M127.92 104.78C127.92 104.244 128.079 103.72 128.377 103.275C128.674 102.829 129.098 102.482 129.593 102.277C130.088 102.072 130.633 102.018 131.159 102.122C131.684 102.227 132.167 102.485 132.546 102.864C132.925 103.243 133.183 103.726 133.288 104.252C133.392 104.777 133.339 105.322 133.134 105.817C132.929 106.313 132.581 106.736 132.136 107.034C131.69 107.331 131.166 107.49 130.63 107.49C129.911 107.49 129.222 107.205 128.714 106.697C128.205 106.188 127.92 105.499 127.92 104.78Z" fill="#0B2A2B"/>
<path d="M108 104.78C107.998 104.241 108.156 103.715 108.454 103.266C108.751 102.817 109.175 102.467 109.672 102.26C110.169 102.052 110.716 101.997 111.245 102.101C111.773 102.205 112.258 102.463 112.64 102.843C113.021 103.223 113.281 103.708 113.387 104.235C113.493 104.763 113.439 105.311 113.234 105.808C113.028 106.306 112.68 106.731 112.232 107.031C111.785 107.33 111.258 107.49 110.72 107.49C110 107.49 109.31 107.205 108.8 106.697C108.29 106.189 108.003 105.499 108 104.78Z" fill="#0B2A2B"/>
<path d="M187.67 84.2803C187.67 83.7443 187.829 83.2204 188.127 82.7747C188.424 82.3291 188.848 81.9817 189.343 81.7766C189.838 81.5715 190.383 81.5178 190.909 81.6224C191.434 81.7269 191.917 81.985 192.296 82.364C192.675 82.743 192.933 83.2259 193.038 83.7516C193.142 84.2773 193.089 84.8222 192.884 85.3174C192.679 85.8126 192.331 86.2358 191.886 86.5336C191.44 86.8314 190.916 86.9903 190.38 86.9903C189.661 86.9903 188.972 86.7048 188.464 86.1966C187.955 85.6883 187.67 84.999 187.67 84.2803Z" fill="#0B2A2B"/>
<path d="M167.75 84.2798C167.748 83.741 167.906 83.2137 168.204 82.7649C168.502 82.316 168.927 81.9659 169.425 81.7588C169.922 81.5517 170.47 81.4969 170.998 81.6016C171.527 81.7062 172.012 81.9655 172.393 82.3465C172.774 82.7275 173.034 83.213 173.138 83.7416C173.243 84.2702 173.188 84.8179 172.981 85.3153C172.774 85.8127 172.424 86.2374 171.975 86.5355C171.526 86.8337 170.999 86.9918 170.46 86.9898C169.741 86.9898 169.052 86.7043 168.544 86.196C168.036 85.6878 167.75 84.9985 167.75 84.2798Z" fill="#0B2A2B"/>
<path d="M147.84 84.2803C147.84 83.7443 147.999 83.2204 148.297 82.7747C148.595 82.3291 149.018 81.9817 149.513 81.7766C150.008 81.5715 150.553 81.5178 151.079 81.6224C151.604 81.7269 152.087 81.985 152.466 82.364C152.845 82.743 153.103 83.2259 153.208 83.7516C153.313 84.2773 153.259 84.8222 153.054 85.3174C152.849 85.8126 152.501 86.2358 152.056 86.5336C151.61 86.8314 151.086 86.9903 150.55 86.9903C149.831 86.9903 149.142 86.7048 148.634 86.1966C148.126 85.6883 147.84 84.999 147.84 84.2803Z" fill="#0B2A2B"/>
<path d="M127.92 84.2803C127.92 83.7443 128.079 83.2204 128.377 82.7747C128.674 82.3291 129.098 81.9817 129.593 81.7766C130.088 81.5715 130.633 81.5178 131.159 81.6224C131.684 81.7269 132.167 81.985 132.546 82.364C132.925 82.743 133.183 83.2259 133.288 83.7516C133.392 84.2773 133.339 84.8222 133.134 85.3174C132.929 85.8126 132.581 86.2358 132.136 86.5336C131.69 86.8314 131.166 86.9903 130.63 86.9903C129.911 86.9903 129.222 86.7048 128.714 86.1966C128.205 85.6883 127.92 84.999 127.92 84.2803Z" fill="#0B2A2B"/>
<path d="M108 84.2798C107.998 83.7414 108.156 83.2145 108.454 82.7659C108.751 82.3173 109.175 81.9671 109.672 81.7597C110.169 81.5523 110.716 81.497 111.245 81.6009C111.773 81.7047 112.258 81.9629 112.64 82.3429C113.021 82.7229 113.281 83.2076 113.387 83.7355C113.493 84.2634 113.439 84.8108 113.234 85.3084C113.028 85.806 112.68 86.2314 112.232 86.5307C111.785 86.83 111.258 86.9898 110.72 86.9898C110.363 86.9911 110.01 86.922 109.68 86.7864C109.35 86.6508 109.05 86.4514 108.797 86.1996C108.545 85.9478 108.344 85.6486 108.207 85.3192C108.07 84.9897 108 84.6365 108 84.2798Z" fill="#0B2A2B"/>
<path d="M187.67 63.73C187.67 63.194 187.829 62.6701 188.127 62.2244C188.424 61.7788 188.848 61.4314 189.343 61.2263C189.838 61.0212 190.383 60.9675 190.909 61.0721C191.434 61.1767 191.917 61.4348 192.296 61.8138C192.675 62.1928 192.933 62.6756 193.038 63.2013C193.142 63.727 193.089 64.2719 192.884 64.7671C192.679 65.2623 192.331 65.6855 191.886 65.9833C191.44 66.2811 190.916 66.44 190.38 66.44C189.661 66.44 188.972 66.1545 188.464 65.6463C187.955 65.1381 187.67 64.4488 187.67 63.73Z" fill="#0B2A2B"/>
<path d="M167.75 63.73C167.748 63.1912 167.906 62.6639 168.204 62.2151C168.502 61.7663 168.927 61.4161 169.425 61.2089C169.922 61.0018 170.47 60.9472 170.998 61.0518C171.527 61.1564 172.012 61.4157 172.393 61.7967C172.774 62.1777 173.034 62.6632 173.138 63.1918C173.243 63.7204 173.188 64.2681 172.981 64.7655C172.774 65.2629 172.424 65.6876 171.975 65.9857C171.526 66.2839 170.999 66.4419 170.46 66.44C169.741 66.44 169.052 66.1545 168.544 65.6462C168.036 65.138 167.75 64.4487 167.75 63.73Z" fill="#0B2A2B"/>
<path d="M147.84 63.73C147.84 63.194 147.999 62.6701 148.297 62.2244C148.595 61.7788 149.018 61.4314 149.513 61.2263C150.008 61.0212 150.553 60.9675 151.079 61.0721C151.604 61.1767 152.087 61.4348 152.466 61.8138C152.845 62.1928 153.103 62.6756 153.208 63.2013C153.313 63.727 153.259 64.2719 153.054 64.7671C152.849 65.2623 152.501 65.6855 152.056 65.9833C151.61 66.2811 151.086 66.44 150.55 66.44C149.831 66.44 149.142 66.1545 148.634 65.6463C148.126 65.1381 147.84 64.4488 147.84 63.73Z" fill="#0B2A2B"/>
<path d="M127.92 63.73C127.92 63.194 128.079 62.6701 128.377 62.2244C128.674 61.7788 129.098 61.4314 129.593 61.2263C130.088 61.0212 130.633 60.9675 131.159 61.0721C131.684 61.1767 132.167 61.4348 132.546 61.8138C132.925 62.1928 133.183 62.6756 133.288 63.2013C133.392 63.727 133.339 64.2719 133.134 64.7671C132.929 65.2623 132.581 65.6855 132.136 65.9833C131.69 66.2811 131.166 66.44 130.63 66.44C129.911 66.44 129.222 66.1545 128.714 65.6463C128.205 65.1381 127.92 64.4488 127.92 63.73Z" fill="#0B2A2B"/>
<path d="M108 63.73C107.998 63.1916 108.156 62.6648 108.454 62.2162C108.751 61.7675 109.175 61.4173 109.672 61.2099C110.169 61.0025 110.716 60.9472 111.245 61.0511C111.773 61.1549 112.258 61.4132 112.64 61.7931C113.021 62.1731 113.281 62.6578 113.387 63.1857C113.493 63.7136 113.439 64.261 113.234 64.7586C113.028 65.2562 112.68 65.6816 112.232 65.9809C111.785 66.2802 111.258 66.44 110.72 66.44C110.363 66.4413 110.01 66.3722 109.68 66.2366C109.35 66.101 109.05 65.9016 108.797 65.6498C108.545 65.398 108.344 65.0989 108.207 64.7694C108.07 64.44 108 64.0867 108 63.73Z" fill="#0B2A2B"/>
<g opacity="0.2" filter="url(#filter0_f_14_2030)">
<path d="M83.6699 47.7803C83.6699 47.2443 83.8289 46.7204 84.1266 46.2747C84.4244 45.8291 84.8477 45.4817 85.3428 45.2766C85.838 45.0715 86.3829 45.0178 86.9086 45.1224C87.4343 45.2269 87.9172 45.485 88.2962 45.864C88.6752 46.243 88.9333 46.7259 89.0378 47.2516C89.1424 47.7773 89.0887 48.3222 88.8836 48.8174C88.6785 49.3126 88.3312 49.7358 87.8855 50.0336C87.4399 50.3314 86.9159 50.4903 86.3799 50.4903C85.6612 50.4903 84.9719 50.2048 84.4637 49.6966C83.9554 49.1883 83.6699 48.499 83.6699 47.7803Z" fill="#0B2A2B"/>
<path d="M63.75 47.7798C63.748 47.241 63.9061 46.7137 64.2043 46.2649C64.5024 45.816 64.9271 45.4659 65.4245 45.2588C65.9219 45.0517 66.4696 44.9969 66.9982 45.1016C67.5268 45.2062 68.0123 45.4655 68.3933 45.8465C68.7743 46.2275 69.0336 46.713 69.1382 47.2416C69.2429 47.7702 69.1881 48.3179 68.981 48.8153C68.7739 49.3127 68.4237 49.7374 67.9749 50.0355C67.5261 50.3337 66.9988 50.4918 66.46 50.4898C65.7421 50.4872 65.0543 50.2008 64.5467 49.6931C64.039 49.1855 63.7527 48.4977 63.75 47.7798Z" fill="#0B2A2B"/>
<path d="M43.8401 47.7803C43.8401 47.2443 43.999 46.7204 44.2968 46.2747C44.5946 45.8291 45.0178 45.4817 45.513 45.2766C46.0082 45.0715 46.5531 45.0178 47.0788 45.1224C47.6045 45.2269 48.0873 45.485 48.4663 45.864C48.8453 46.243 49.1034 46.7259 49.208 47.2516C49.3126 47.7773 49.2589 48.3222 49.0538 48.8174C48.8487 49.3126 48.5013 49.7358 48.0557 50.0336C47.61 50.3314 47.0861 50.4903 46.5501 50.4903C45.8313 50.4903 45.142 50.2048 44.6338 49.6966C44.1256 49.1883 43.8401 48.499 43.8401 47.7803Z" fill="#0B2A2B"/>
<path d="M23.9199 47.7803C23.9199 47.2443 24.0789 46.7204 24.3766 46.2747C24.6744 45.8291 25.0977 45.4817 25.5928 45.2766C26.088 45.0715 26.6329 45.0178 27.1586 45.1224C27.6843 45.2269 28.1672 45.485 28.5462 45.864C28.9252 46.243 29.1833 46.7259 29.2879 47.2516C29.3924 47.7773 29.3387 48.3222 29.1336 48.8174C28.9285 49.3126 28.5812 49.7358 28.1355 50.0336C27.6899 50.3314 27.1659 50.4903 26.6299 50.4903C25.9112 50.4903 25.2219 50.2048 24.7137 49.6966C24.2054 49.1883 23.9199 48.499 23.9199 47.7803Z" fill="#0B2A2B"/>
<path d="M4.00002 47.7798C3.99804 47.2414 4.15588 46.7145 4.45356 46.2659C4.75123 45.8173 5.17535 45.4671 5.67218 45.2597C6.16902 45.0523 6.71622 44.997 7.24451 45.1009C7.7728 45.2047 8.25839 45.4629 8.63979 45.8429C9.02119 46.2229 9.28123 46.7076 9.387 47.2355C9.49276 47.7634 9.43949 48.3108 9.23392 48.8084C9.02835 49.306 8.67973 49.7314 8.23221 50.0307C7.7847 50.33 7.25841 50.4898 6.72002 50.4898C6.00036 50.4898 5.31003 50.2046 4.80022 49.6967C4.29041 49.1887 4.00266 48.4994 4.00002 47.7798Z" fill="#0B2A2B"/>
<path d="M83.6699 27.2803C83.6699 26.7443 83.8289 26.2204 84.1266 25.7747C84.4244 25.3291 84.8477 24.9817 85.3428 24.7766C85.838 24.5715 86.3829 24.5178 86.9086 24.6224C87.4343 24.7269 87.9172 24.985 88.2962 25.364C88.6752 25.743 88.9333 26.2259 89.0378 26.7516C89.1424 27.2773 89.0887 27.8222 88.8836 28.3174C88.6785 28.8126 88.3312 29.2358 87.8855 29.5336C87.4399 29.8314 86.9159 29.9903 86.3799 29.9903C85.6612 29.9903 84.9719 29.7048 84.4637 29.1966C83.9554 28.6883 83.6699 27.999 83.6699 27.2803Z" fill="#0B2A2B"/>
<path d="M63.75 27.2798C63.748 26.741 63.9061 26.2137 64.2043 25.7649C64.5024 25.316 64.9271 24.9659 65.4245 24.7588C65.9219 24.5517 66.4696 24.4969 66.9982 24.6016C67.5268 24.7062 68.0123 24.9655 68.3933 25.3465C68.7743 25.7275 69.0336 26.213 69.1382 26.7416C69.2429 27.2702 69.1881 27.8179 68.981 28.3153C68.7739 28.8127 68.4237 29.2374 67.9749 29.5355C67.5261 29.8337 66.9988 29.9918 66.46 29.9898C65.7413 29.9898 65.052 29.7043 64.5438 29.196C64.0355 28.6878 63.75 27.9985 63.75 27.2798Z" fill="#0B2A2B"/>
<path d="M43.8401 27.2803C43.8401 26.7443 43.999 26.2204 44.2968 25.7747C44.5946 25.3291 45.0178 24.9817 45.513 24.7766C46.0082 24.5715 46.5531 24.5178 47.0788 24.6224C47.6045 24.7269 48.0873 24.985 48.4663 25.364C48.8453 25.743 49.1034 26.2259 49.208 26.7516C49.3126 27.2773 49.2589 27.8222 49.0538 28.3174C48.8487 28.8126 48.5013 29.2358 48.0557 29.5336C47.61 29.8314 47.0861 29.9903 46.5501 29.9903C45.8313 29.9903 45.142 29.7048 44.6338 29.1966C44.1256 28.6883 43.8401 27.999 43.8401 27.2803Z" fill="#0B2A2B"/>
<path d="M23.9199 27.2803C23.9199 26.7443 24.0789 26.2204 24.3766 25.7747C24.6744 25.3291 25.0977 24.9817 25.5928 24.7766C26.088 24.5715 26.6329 24.5178 27.1586 24.6224C27.6843 24.7269 28.1672 24.985 28.5462 25.364C28.9252 25.743 29.1833 26.2259 29.2879 26.7516C29.3924 27.2773 29.3387 27.8222 29.1336 28.3174C28.9285 28.8126 28.5812 29.2358 28.1355 29.5336C27.6899 29.8314 27.1659 29.9903 26.6299 29.9903C25.9112 29.9903 25.2219 29.7048 24.7137 29.1966C24.2054 28.6883 23.9199 27.999 23.9199 27.2803Z" fill="#0B2A2B"/>
<path d="M4.00002 27.2798C3.99804 26.7414 4.15588 26.2145 4.45356 25.7659C4.75123 25.3173 5.17535 24.9671 5.67218 24.7597C6.16902 24.5523 6.71622 24.497 7.24451 24.6009C7.7728 24.7047 8.25839 24.9629 8.63979 25.3429C9.02119 25.7229 9.28123 26.2076 9.387 26.7355C9.49276 27.2634 9.43949 27.8108 9.23392 28.3084C9.02835 28.806 8.67973 29.2314 8.23221 29.5307C7.7847 29.83 7.25841 29.9898 6.72002 29.9898C6.3633 29.9911 6.00982 29.922 5.67987 29.7864C5.34993 29.6508 5.05 29.4514 4.79729 29.1996C4.54458 28.9478 4.34408 28.6486 4.20726 28.3192C4.07045 27.9897 4.00002 27.6365 4.00002 27.2798Z" fill="#0B2A2B"/>
<path d="M83.6699 6.73002C83.6699 6.19404 83.8289 5.6701 84.1266 5.22444C84.4244 4.77878 84.8477 4.43141 85.3428 4.2263C85.838 4.02119 86.3829 3.96753 86.9086 4.0721C87.4343 4.17666 87.9172 4.43476 88.2962 4.81376C88.6752 5.19276 88.9333 5.67565 89.0378 6.20134C89.1424 6.72703 89.0887 7.27191 88.8836 7.7671C88.6785 8.26229 88.3312 8.68554 87.8855 8.98332C87.4399 9.2811 86.9159 9.44001 86.3799 9.44001C85.6612 9.44001 84.9719 9.15451 84.4637 8.64628C83.9554 8.13806 83.6699 7.44876 83.6699 6.73002Z" fill="#0B2A2B"/>
<path d="M63.75 6.72998C63.748 6.19116 63.9061 5.66391 64.2043 5.21508C64.5024 4.76625 64.9271 4.41606 65.4245 4.20895C65.9219 4.00184 66.4696 3.94715 66.9982 4.05178C67.5268 4.15642 68.0123 4.41566 68.3933 4.79666C68.7743 5.17766 69.0336 5.66324 69.1382 6.1918C69.2429 6.72036 69.1881 7.26808 68.981 7.7655C68.7739 8.26292 68.4237 8.68763 67.9749 8.98574C67.5261 9.28386 66.9988 9.44195 66.46 9.43997C65.7413 9.43997 65.052 9.15446 64.5438 8.64624C64.0355 8.13801 63.75 7.44871 63.75 6.72998Z" fill="#0B2A2B"/>
<path d="M43.8401 6.73002C43.8401 6.19404 43.999 5.6701 44.2968 5.22444C44.5946 4.77878 45.0178 4.43141 45.513 4.2263C46.0082 4.02119 46.5531 3.96753 47.0788 4.0721C47.6045 4.17666 48.0873 4.43476 48.4663 4.81376C48.8453 5.19276 49.1034 5.67565 49.208 6.20134C49.3126 6.72703 49.2589 7.27191 49.0538 7.7671C48.8487 8.26229 48.5013 8.68554 48.0557 8.98332C47.61 9.2811 47.0861 9.44001 46.5501 9.44001C45.8313 9.44001 45.142 9.15451 44.6338 8.64628C44.1256 8.13806 43.8401 7.44876 43.8401 6.73002Z" fill="#0B2A2B"/>
<path d="M23.9199 6.73002C23.9199 6.19404 24.0789 5.6701 24.3766 5.22444C24.6744 4.77878 25.0977 4.43141 25.5928 4.2263C26.088 4.02119 26.6329 3.96753 27.1586 4.0721C27.6843 4.17666 28.1672 4.43476 28.5462 4.81376C28.9252 5.19276 29.1833 5.67565 29.2879 6.20134C29.3924 6.72703 29.3387 7.27191 29.1336 7.7671C28.9285 8.26229 28.5812 8.68554 28.1355 8.98332C27.6899 9.2811 27.1659 9.44001 26.6299 9.44001C25.9112 9.44001 25.2219 9.15451 24.7137 8.64628C24.2054 8.13806 23.9199 7.44876 23.9199 6.73002Z" fill="#0B2A2B"/>
<path d="M4.00002 6.73001C3.99804 6.19162 4.15588 5.66477 4.45356 5.21615C4.75123 4.76754 5.17535 4.41733 5.67218 4.20993C6.16902 4.00252 6.71622 3.94723 7.24451 4.05105C7.7728 4.15487 8.25839 4.41315 8.63979 4.79315C9.02119 5.17315 9.28123 5.65777 9.387 6.18567C9.49276 6.71357 9.43949 7.26097 9.23392 7.75857C9.02835 8.25617 8.67973 8.68157 8.23221 8.98089C7.7847 9.28021 7.25841 9.44 6.72002 9.44C6.3633 9.44132 6.00982 9.3722 5.67987 9.2366C5.34993 9.101 5.05 8.90159 4.79729 8.64981C4.54458 8.39803 4.34408 8.09885 4.20726 7.76941C4.07045 7.43996 4.00002 7.08673 4.00002 6.73001Z" fill="#0B2A2B"/>
<path d="M83.6699 108.78C83.6699 108.244 83.8289 107.72 84.1266 107.275C84.4244 106.829 84.8477 106.482 85.3428 106.277C85.838 106.072 86.3829 106.018 86.9086 106.122C87.4343 106.227 87.9172 106.485 88.2962 106.864C88.6752 107.243 88.9333 107.726 89.0378 108.252C89.1424 108.777 89.0887 109.322 88.8836 109.817C88.6785 110.313 88.3312 110.736 87.8855 111.034C87.4399 111.331 86.9159 111.49 86.3799 111.49C85.6612 111.49 84.9719 111.205 84.4637 110.697C83.9554 110.188 83.6699 109.499 83.6699 108.78Z" fill="#0B2A2B"/>
<path d="M63.75 108.78C63.748 108.241 63.9061 107.714 64.2043 107.265C64.5024 106.816 64.9271 106.466 65.4245 106.259C65.9219 106.052 66.4696 105.997 66.9982 106.102C67.5268 106.206 68.0123 106.465 68.3933 106.846C68.7743 107.227 69.0336 107.713 69.1382 108.242C69.2429 108.77 69.1881 109.318 68.981 109.815C68.7739 110.313 68.4237 110.737 67.9749 111.036C67.5261 111.334 66.9988 111.492 66.46 111.49C65.7421 111.487 65.0543 111.201 64.5467 110.693C64.039 110.185 63.7527 109.498 63.75 108.78Z" fill="#0B2A2B"/>
<path d="M43.8401 108.78C43.8401 108.244 43.999 107.72 44.2968 107.275C44.5946 106.829 45.0178 106.482 45.513 106.277C46.0082 106.072 46.5531 106.018 47.0788 106.122C47.6045 106.227 48.0873 106.485 48.4663 106.864C48.8453 107.243 49.1034 107.726 49.208 108.252C49.3126 108.777 49.2589 109.322 49.0538 109.817C48.8487 110.313 48.5013 110.736 48.0557 111.034C47.61 111.331 47.0861 111.49 46.5501 111.49C45.8313 111.49 45.142 111.205 44.6338 110.697C44.1256 110.188 43.8401 109.499 43.8401 108.78Z" fill="#0B2A2B"/>
<path d="M23.9199 108.78C23.9199 108.244 24.0789 107.72 24.3766 107.275C24.6744 106.829 25.0977 106.482 25.5928 106.277C26.088 106.072 26.6329 106.018 27.1586 106.122C27.6843 106.227 28.1672 106.485 28.5462 106.864C28.9252 107.243 29.1833 107.726 29.2879 108.252C29.3924 108.777 29.3387 109.322 29.1336 109.817C28.9285 110.313 28.5812 110.736 28.1355 111.034C27.6899 111.331 27.1659 111.49 26.6299 111.49C25.9112 111.49 25.2219 111.205 24.7137 110.697C24.2054 110.188 23.9199 109.499 23.9199 108.78Z" fill="#0B2A2B"/>
<path d="M4.00002 108.78C3.99804 108.241 4.15588 107.715 4.45356 107.266C4.75123 106.817 5.17535 106.467 5.67218 106.26C6.16902 106.052 6.71622 105.997 7.24451 106.101C7.7728 106.205 8.25839 106.463 8.63979 106.843C9.02119 107.223 9.28123 107.708 9.387 108.235C9.49276 108.763 9.43949 109.311 9.23392 109.808C9.02835 110.306 8.67973 110.731 8.23221 111.031C7.7847 111.33 7.25841 111.49 6.72002 111.49C6.00036 111.49 5.31003 111.205 4.80022 110.697C4.29041 110.189 4.00266 109.499 4.00002 108.78Z" fill="#0B2A2B"/>
<path d="M83.6699 88.2803C83.6699 87.7443 83.8289 87.2204 84.1266 86.7747C84.4244 86.3291 84.8477 85.9817 85.3428 85.7766C85.838 85.5715 86.3829 85.5178 86.9086 85.6224C87.4343 85.7269 87.9172 85.985 88.2962 86.364C88.6752 86.743 88.9333 87.2259 89.0378 87.7516C89.1424 88.2773 89.0887 88.8222 88.8836 89.3174C88.6785 89.8126 88.3312 90.2358 87.8855 90.5336C87.4399 90.8314 86.9159 90.9903 86.3799 90.9903C85.6612 90.9903 84.9719 90.7048 84.4637 90.1966C83.9554 89.6883 83.6699 88.999 83.6699 88.2803Z" fill="#0B2A2B"/>
<path d="M63.75 88.2798C63.748 87.741 63.9061 87.2137 64.2043 86.7649C64.5024 86.316 64.9271 85.9659 65.4245 85.7588C65.9219 85.5517 66.4696 85.4969 66.9982 85.6016C67.5268 85.7062 68.0123 85.9655 68.3933 86.3465C68.7743 86.7275 69.0336 87.213 69.1382 87.7416C69.2429 88.2702 69.1881 88.8179 68.981 89.3153C68.7739 89.8127 68.4237 90.2374 67.9749 90.5355C67.5261 90.8337 66.9988 90.9918 66.46 90.9898C65.7413 90.9898 65.052 90.7043 64.5438 90.196C64.0355 89.6878 63.75 88.9985 63.75 88.2798Z" fill="#0B2A2B"/>
<path d="M43.8401 88.2803C43.8401 87.7443 43.999 87.2204 44.2968 86.7747C44.5946 86.3291 45.0178 85.9817 45.513 85.7766C46.0082 85.5715 46.5531 85.5178 47.0788 85.6224C47.6045 85.7269 48.0873 85.985 48.4663 86.364C48.8453 86.743 49.1034 87.2259 49.208 87.7516C49.3126 88.2773 49.2589 88.8222 49.0538 89.3174C48.8487 89.8126 48.5013 90.2358 48.0557 90.5336C47.61 90.8314 47.0861 90.9903 46.5501 90.9903C45.8313 90.9903 45.142 90.7048 44.6338 90.1966C44.1256 89.6883 43.8401 88.999 43.8401 88.2803Z" fill="#0B2A2B"/>
<path d="M23.9199 88.2803C23.9199 87.7443 24.0789 87.2204 24.3766 86.7747C24.6744 86.3291 25.0977 85.9817 25.5928 85.7766C26.088 85.5715 26.6329 85.5178 27.1586 85.6224C27.6843 85.7269 28.1672 85.985 28.5462 86.364C28.9252 86.743 29.1833 87.2259 29.2879 87.7516C29.3924 88.2773 29.3387 88.8222 29.1336 89.3174C28.9285 89.8126 28.5812 90.2358 28.1355 90.5336C27.6899 90.8314 27.1659 90.9903 26.6299 90.9903C25.9112 90.9903 25.2219 90.7048 24.7137 90.1966C24.2054 89.6883 23.9199 88.999 23.9199 88.2803Z" fill="#0B2A2B"/>
<path d="M4.00002 88.2798C3.99804 87.7414 4.15588 87.2145 4.45356 86.7659C4.75123 86.3173 5.17535 85.9671 5.67218 85.7597C6.16902 85.5523 6.71622 85.497 7.24451 85.6009C7.7728 85.7047 8.25839 85.9629 8.63979 86.3429C9.02119 86.7229 9.28123 87.2076 9.387 87.7355C9.49276 88.2634 9.43949 88.8108 9.23392 89.3084C9.02835 89.806 8.67973 90.2314 8.23221 90.5307C7.7847 90.83 7.25841 90.9898 6.72002 90.9898C6.3633 90.9911 6.00982 90.922 5.67987 90.7864C5.34993 90.6508 5.05 90.4514 4.79729 90.1996C4.54458 89.9478 4.34408 89.6486 4.20726 89.3192C4.07045 88.9897 4.00002 88.6365 4.00002 88.2798Z" fill="#0B2A2B"/>
<path d="M83.6699 67.73C83.6699 67.194 83.8289 66.6701 84.1266 66.2244C84.4244 65.7788 84.8477 65.4314 85.3428 65.2263C85.838 65.0212 86.3829 64.9675 86.9086 65.0721C87.4343 65.1767 87.9172 65.4348 88.2962 65.8138C88.6752 66.1928 88.9333 66.6756 89.0378 67.2013C89.1424 67.727 89.0887 68.2719 88.8836 68.7671C88.6785 69.2623 88.3312 69.6855 87.8855 69.9833C87.4399 70.2811 86.9159 70.44 86.3799 70.44C85.6612 70.44 84.9719 70.1545 84.4637 69.6463C83.9554 69.1381 83.6699 68.4488 83.6699 67.73Z" fill="#0B2A2B"/>
<path d="M63.75 67.73C63.748 67.1912 63.9061 66.6639 64.2043 66.2151C64.5024 65.7663 64.9271 65.4161 65.4245 65.2089C65.9219 65.0018 66.4696 64.9472 66.9982 65.0518C67.5268 65.1564 68.0123 65.4157 68.3933 65.7967C68.7743 66.1777 69.0336 66.6632 69.1382 67.1918C69.2429 67.7204 69.1881 68.2681 68.981 68.7655C68.7739 69.2629 68.4237 69.6876 67.9749 69.9857C67.5261 70.2839 66.9988 70.4419 66.46 70.44C65.7413 70.44 65.052 70.1545 64.5438 69.6462C64.0355 69.138 63.75 68.4487 63.75 67.73Z" fill="#0B2A2B"/>
<path d="M43.8401 67.73C43.8401 67.194 43.999 66.6701 44.2968 66.2244C44.5946 65.7788 45.0178 65.4314 45.513 65.2263C46.0082 65.0212 46.5531 64.9675 47.0788 65.0721C47.6045 65.1767 48.0873 65.4348 48.4663 65.8138C48.8453 66.1928 49.1034 66.6756 49.208 67.2013C49.3126 67.727 49.2589 68.2719 49.0538 68.7671C48.8487 69.2623 48.5013 69.6855 48.0557 69.9833C47.61 70.2811 47.0861 70.44 46.5501 70.44C45.8313 70.44 45.142 70.1545 44.6338 69.6463C44.1256 69.1381 43.8401 68.4488 43.8401 67.73Z" fill="#0B2A2B"/>
<path d="M23.9199 67.73C23.9199 67.194 24.0789 66.6701 24.3766 66.2244C24.6744 65.7788 25.0977 65.4314 25.5928 65.2263C26.088 65.0212 26.6329 64.9675 27.1586 65.0721C27.6843 65.1767 28.1672 65.4348 28.5462 65.8138C28.9252 66.1928 29.1833 66.6756 29.2879 67.2013C29.3924 67.727 29.3387 68.2719 29.1336 68.7671C28.9285 69.2623 28.5812 69.6855 28.1355 69.9833C27.6899 70.2811 27.1659 70.44 26.6299 70.44C25.9112 70.44 25.2219 70.1545 24.7137 69.6463C24.2054 69.1381 23.9199 68.4488 23.9199 67.73Z" fill="#0B2A2B"/>
<path d="M4.00002 67.73C3.99804 67.1916 4.15588 66.6648 4.45356 66.2162C4.75123 65.7675 5.17535 65.4173 5.67218 65.2099C6.16902 65.0025 6.71622 64.9472 7.24451 65.0511C7.7728 65.1549 8.25839 65.4132 8.63979 65.7931C9.02119 66.1731 9.28123 66.6578 9.387 67.1857C9.49276 67.7136 9.43949 68.261 9.23392 68.7586C9.02835 69.2562 8.67973 69.6816 8.23221 69.9809C7.7847 70.2802 7.25841 70.44 6.72002 70.44C6.3633 70.4413 6.00982 70.3722 5.67987 70.2366C5.34993 70.101 5.05 69.9016 4.79729 69.6498C4.54458 69.398 4.34408 69.0989 4.20726 68.7694C4.07045 68.44 4.00002 68.0867 4.00002 67.73Z" fill="#0B2A2B"/>
<path d="M183.67 47.7803C183.67 47.2443 183.829 46.7204 184.127 46.2747C184.424 45.8291 184.848 45.4817 185.343 45.2766C185.838 45.0715 186.383 45.0178 186.909 45.1224C187.434 45.2269 187.917 45.485 188.296 45.864C188.675 46.243 188.933 46.7259 189.038 47.2516C189.142 47.7773 189.089 48.3222 188.884 48.8174C188.679 49.3126 188.331 49.7358 187.886 50.0336C187.44 50.3314 186.916 50.4903 186.38 50.4903C185.661 50.4903 184.972 50.2048 184.464 49.6966C183.955 49.1883 183.67 48.499 183.67 47.7803Z" fill="#0B2A2B"/>
<path d="M163.75 47.7798C163.748 47.241 163.906 46.7137 164.204 46.2649C164.502 45.816 164.927 45.4659 165.425 45.2588C165.922 45.0517 166.47 44.9969 166.998 45.1016C167.527 45.2062 168.012 45.4655 168.393 45.8465C168.774 46.2275 169.034 46.713 169.138 47.2416C169.243 47.7702 169.188 48.3179 168.981 48.8153C168.774 49.3127 168.424 49.7374 167.975 50.0355C167.526 50.3337 166.999 50.4918 166.46 50.4898C165.742 50.4872 165.054 50.2008 164.547 49.6931C164.039 49.1855 163.753 48.4977 163.75 47.7798Z" fill="#0B2A2B"/>
<path d="M143.84 47.7803C143.84 47.2443 143.999 46.7204 144.297 46.2747C144.595 45.8291 145.018 45.4817 145.513 45.2766C146.008 45.0715 146.553 45.0178 147.079 45.1224C147.604 45.2269 148.087 45.485 148.466 45.864C148.845 46.243 149.103 46.7259 149.208 47.2516C149.313 47.7773 149.259 48.3222 149.054 48.8174C148.849 49.3126 148.501 49.7358 148.056 50.0336C147.61 50.3314 147.086 50.4903 146.55 50.4903C145.831 50.4903 145.142 50.2048 144.634 49.6966C144.126 49.1883 143.84 48.499 143.84 47.7803Z" fill="#0B2A2B"/>
<path d="M123.92 47.7803C123.92 47.2443 124.079 46.7204 124.377 46.2747C124.674 45.8291 125.098 45.4817 125.593 45.2766C126.088 45.0715 126.633 45.0178 127.159 45.1224C127.684 45.2269 128.167 45.485 128.546 45.864C128.925 46.243 129.183 46.7259 129.288 47.2516C129.392 47.7773 129.339 48.3222 129.134 48.8174C128.929 49.3126 128.581 49.7358 128.136 50.0336C127.69 50.3314 127.166 50.4903 126.63 50.4903C125.911 50.4903 125.222 50.2048 124.714 49.6966C124.205 49.1883 123.92 48.499 123.92 47.7803Z" fill="#0B2A2B"/>
<path d="M104 47.7798C103.998 47.2414 104.156 46.7145 104.454 46.2659C104.751 45.8173 105.175 45.4671 105.672 45.2597C106.169 45.0523 106.716 44.997 107.245 45.1009C107.773 45.2047 108.258 45.4629 108.64 45.8429C109.021 46.2229 109.281 46.7076 109.387 47.2355C109.493 47.7634 109.439 48.3108 109.234 48.8084C109.028 49.306 108.68 49.7314 108.232 50.0307C107.785 50.33 107.258 50.4898 106.72 50.4898C106 50.4898 105.31 50.2046 104.8 49.6967C104.29 49.1887 104.003 48.4994 104 47.7798Z" fill="#0B2A2B"/>
<path d="M183.67 27.2803C183.67 26.7443 183.829 26.2204 184.127 25.7747C184.424 25.3291 184.848 24.9817 185.343 24.7766C185.838 24.5715 186.383 24.5178 186.909 24.6224C187.434 24.7269 187.917 24.985 188.296 25.364C188.675 25.743 188.933 26.2259 189.038 26.7516C189.142 27.2773 189.089 27.8222 188.884 28.3174C188.679 28.8126 188.331 29.2358 187.886 29.5336C187.44 29.8314 186.916 29.9903 186.38 29.9903C185.661 29.9903 184.972 29.7048 184.464 29.1966C183.955 28.6883 183.67 27.999 183.67 27.2803Z" fill="#0B2A2B"/>
<path d="M163.75 27.2798C163.748 26.741 163.906 26.2137 164.204 25.7649C164.502 25.316 164.927 24.9659 165.425 24.7588C165.922 24.5517 166.47 24.4969 166.998 24.6016C167.527 24.7062 168.012 24.9655 168.393 25.3465C168.774 25.7275 169.034 26.213 169.138 26.7416C169.243 27.2702 169.188 27.8179 168.981 28.3153C168.774 28.8127 168.424 29.2374 167.975 29.5355C167.526 29.8337 166.999 29.9918 166.46 29.9898C165.741 29.9898 165.052 29.7043 164.544 29.196C164.036 28.6878 163.75 27.9985 163.75 27.2798Z" fill="#0B2A2B"/>
<path d="M143.84 27.2803C143.84 26.7443 143.999 26.2204 144.297 25.7747C144.595 25.3291 145.018 24.9817 145.513 24.7766C146.008 24.5715 146.553 24.5178 147.079 24.6224C147.604 24.7269 148.087 24.985 148.466 25.364C148.845 25.743 149.103 26.2259 149.208 26.7516C149.313 27.2773 149.259 27.8222 149.054 28.3174C148.849 28.8126 148.501 29.2358 148.056 29.5336C147.61 29.8314 147.086 29.9903 146.55 29.9903C145.831 29.9903 145.142 29.7048 144.634 29.1966C144.126 28.6883 143.84 27.999 143.84 27.2803Z" fill="#0B2A2B"/>
<path d="M123.92 27.2803C123.92 26.7443 124.079 26.2204 124.377 25.7747C124.674 25.3291 125.098 24.9817 125.593 24.7766C126.088 24.5715 126.633 24.5178 127.159 24.6224C127.684 24.7269 128.167 24.985 128.546 25.364C128.925 25.743 129.183 26.2259 129.288 26.7516C129.392 27.2773 129.339 27.8222 129.134 28.3174C128.929 28.8126 128.581 29.2358 128.136 29.5336C127.69 29.8314 127.166 29.9903 126.63 29.9903C125.911 29.9903 125.222 29.7048 124.714 29.1966C124.205 28.6883 123.92 27.999 123.92 27.2803Z" fill="#0B2A2B"/>
<path d="M104 27.2798C103.998 26.7414 104.156 26.2145 104.454 25.7659C104.751 25.3173 105.175 24.9671 105.672 24.7597C106.169 24.5523 106.716 24.497 107.245 24.6009C107.773 24.7047 108.258 24.9629 108.64 25.3429C109.021 25.7229 109.281 26.2076 109.387 26.7355C109.493 27.2634 109.439 27.8108 109.234 28.3084C109.028 28.806 108.68 29.2314 108.232 29.5307C107.785 29.83 107.258 29.9898 106.72 29.9898C106.363 29.9911 106.01 29.922 105.68 29.7864C105.35 29.6508 105.05 29.4514 104.797 29.1996C104.545 28.9478 104.344 28.6486 104.207 28.3192C104.07 27.9897 104 27.6365 104 27.2798Z" fill="#0B2A2B"/>
<path d="M183.67 6.73002C183.67 6.19404 183.829 5.6701 184.127 5.22444C184.424 4.77878 184.848 4.43141 185.343 4.2263C185.838 4.02119 186.383 3.96753 186.909 4.0721C187.434 4.17666 187.917 4.43476 188.296 4.81376C188.675 5.19276 188.933 5.67565 189.038 6.20134C189.142 6.72703 189.089 7.27191 188.884 7.7671C188.679 8.26229 188.331 8.68554 187.886 8.98332C187.44 9.2811 186.916 9.44001 186.38 9.44001C185.661 9.44001 184.972 9.15451 184.464 8.64628C183.955 8.13806 183.67 7.44876 183.67 6.73002Z" fill="#0B2A2B"/>
<path d="M163.75 6.72998C163.748 6.19116 163.906 5.66391 164.204 5.21508C164.502 4.76625 164.927 4.41606 165.425 4.20895C165.922 4.00184 166.47 3.94715 166.998 4.05178C167.527 4.15642 168.012 4.41566 168.393 4.79666C168.774 5.17766 169.034 5.66324 169.138 6.1918C169.243 6.72036 169.188 7.26808 168.981 7.7655C168.774 8.26292 168.424 8.68763 167.975 8.98574C167.526 9.28386 166.999 9.44195 166.46 9.43997C165.741 9.43997 165.052 9.15446 164.544 8.64624C164.036 8.13801 163.75 7.44871 163.75 6.72998Z" fill="#0B2A2B"/>
<path d="M143.84 6.73002C143.84 6.19404 143.999 5.6701 144.297 5.22444C144.595 4.77878 145.018 4.43141 145.513 4.2263C146.008 4.02119 146.553 3.96753 147.079 4.0721C147.604 4.17666 148.087 4.43476 148.466 4.81376C148.845 5.19276 149.103 5.67565 149.208 6.20134C149.313 6.72703 149.259 7.27191 149.054 7.7671C148.849 8.26229 148.501 8.68554 148.056 8.98332C147.61 9.2811 147.086 9.44001 146.55 9.44001C145.831 9.44001 145.142 9.15451 144.634 8.64628C144.126 8.13806 143.84 7.44876 143.84 6.73002Z" fill="#0B2A2B"/>
<path d="M123.92 6.73002C123.92 6.19404 124.079 5.6701 124.377 5.22444C124.674 4.77878 125.098 4.43141 125.593 4.2263C126.088 4.02119 126.633 3.96753 127.159 4.0721C127.684 4.17666 128.167 4.43476 128.546 4.81376C128.925 5.19276 129.183 5.67565 129.288 6.20134C129.392 6.72703 129.339 7.27191 129.134 7.7671C128.929 8.26229 128.581 8.68554 128.136 8.98332C127.69 9.2811 127.166 9.44001 126.63 9.44001C125.911 9.44001 125.222 9.15451 124.714 8.64628C124.205 8.13806 123.92 7.44876 123.92 6.73002Z" fill="#0B2A2B"/>
<path d="M104 6.73001C103.998 6.19162 104.156 5.66477 104.454 5.21615C104.751 4.76754 105.175 4.41733 105.672 4.20993C106.169 4.00252 106.716 3.94723 107.245 4.05105C107.773 4.15487 108.258 4.41315 108.64 4.79315C109.021 5.17315 109.281 5.65777 109.387 6.18567C109.493 6.71357 109.439 7.26097 109.234 7.75857C109.028 8.25617 108.68 8.68157 108.232 8.98089C107.785 9.28021 107.258 9.44 106.72 9.44C106.363 9.44132 106.01 9.3722 105.68 9.2366C105.35 9.101 105.05 8.90159 104.797 8.64981C104.545 8.39803 104.344 8.09885 104.207 7.76941C104.07 7.43996 104 7.08673 104 6.73001Z" fill="#0B2A2B"/>
<path d="M183.67 108.78C183.67 108.244 183.829 107.72 184.127 107.275C184.424 106.829 184.848 106.482 185.343 106.277C185.838 106.072 186.383 106.018 186.909 106.122C187.434 106.227 187.917 106.485 188.296 106.864C188.675 107.243 188.933 107.726 189.038 108.252C189.142 108.777 189.089 109.322 188.884 109.817C188.679 110.313 188.331 110.736 187.886 111.034C187.44 111.331 186.916 111.49 186.38 111.49C185.661 111.49 184.972 111.205 184.464 110.697C183.955 110.188 183.67 109.499 183.67 108.78Z" fill="#0B2A2B"/>
<path d="M163.75 108.78C163.748 108.241 163.906 107.714 164.204 107.265C164.502 106.816 164.927 106.466 165.425 106.259C165.922 106.052 166.47 105.997 166.998 106.102C167.527 106.206 168.012 106.465 168.393 106.846C168.774 107.227 169.034 107.713 169.138 108.242C169.243 108.77 169.188 109.318 168.981 109.815C168.774 110.313 168.424 110.737 167.975 111.036C167.526 111.334 166.999 111.492 166.46 111.49C165.742 111.487 165.054 111.201 164.547 110.693C164.039 110.185 163.753 109.498 163.75 108.78Z" fill="#0B2A2B"/>
<path d="M143.84 108.78C143.84 108.244 143.999 107.72 144.297 107.275C144.595 106.829 145.018 106.482 145.513 106.277C146.008 106.072 146.553 106.018 147.079 106.122C147.604 106.227 148.087 106.485 148.466 106.864C148.845 107.243 149.103 107.726 149.208 108.252C149.313 108.777 149.259 109.322 149.054 109.817C148.849 110.313 148.501 110.736 148.056 111.034C147.61 111.331 147.086 111.49 146.55 111.49C145.831 111.49 145.142 111.205 144.634 110.697C144.126 110.188 143.84 109.499 143.84 108.78Z" fill="#0B2A2B"/>
<path d="M123.92 108.78C123.92 108.244 124.079 107.72 124.377 107.275C124.674 106.829 125.098 106.482 125.593 106.277C126.088 106.072 126.633 106.018 127.159 106.122C127.684 106.227 128.167 106.485 128.546 106.864C128.925 107.243 129.183 107.726 129.288 108.252C129.392 108.777 129.339 109.322 129.134 109.817C128.929 110.313 128.581 110.736 128.136 111.034C127.69 111.331 127.166 111.49 126.63 111.49C125.911 111.49 125.222 111.205 124.714 110.697C124.205 110.188 123.92 109.499 123.92 108.78Z" fill="#0B2A2B"/>
<path d="M104 108.78C103.998 108.241 104.156 107.715 104.454 107.266C104.751 106.817 105.175 106.467 105.672 106.26C106.169 106.052 106.716 105.997 107.245 106.101C107.773 106.205 108.258 106.463 108.64 106.843C109.021 107.223 109.281 107.708 109.387 108.235C109.493 108.763 109.439 109.311 109.234 109.808C109.028 110.306 108.68 110.731 108.232 111.031C107.785 111.33 107.258 111.49 106.72 111.49C106 111.49 105.31 111.205 104.8 110.697C104.29 110.189 104.003 109.499 104 108.78Z" fill="#0B2A2B"/>
<path d="M183.67 88.2803C183.67 87.7443 183.829 87.2204 184.127 86.7747C184.424 86.3291 184.848 85.9817 185.343 85.7766C185.838 85.5715 186.383 85.5178 186.909 85.6224C187.434 85.7269 187.917 85.985 188.296 86.364C188.675 86.743 188.933 87.2259 189.038 87.7516C189.142 88.2773 189.089 88.8222 188.884 89.3174C188.679 89.8126 188.331 90.2358 187.886 90.5336C187.44 90.8314 186.916 90.9903 186.38 90.9903C185.661 90.9903 184.972 90.7048 184.464 90.1966C183.955 89.6883 183.67 88.999 183.67 88.2803Z" fill="#0B2A2B"/>
<path d="M163.75 88.2798C163.748 87.741 163.906 87.2137 164.204 86.7649C164.502 86.316 164.927 85.9659 165.425 85.7588C165.922 85.5517 166.47 85.4969 166.998 85.6016C167.527 85.7062 168.012 85.9655 168.393 86.3465C168.774 86.7275 169.034 87.213 169.138 87.7416C169.243 88.2702 169.188 88.8179 168.981 89.3153C168.774 89.8127 168.424 90.2374 167.975 90.5355C167.526 90.8337 166.999 90.9918 166.46 90.9898C165.741 90.9898 165.052 90.7043 164.544 90.196C164.036 89.6878 163.75 88.9985 163.75 88.2798Z" fill="#0B2A2B"/>
<path d="M143.84 88.2803C143.84 87.7443 143.999 87.2204 144.297 86.7747C144.595 86.3291 145.018 85.9817 145.513 85.7766C146.008 85.5715 146.553 85.5178 147.079 85.6224C147.604 85.7269 148.087 85.985 148.466 86.364C148.845 86.743 149.103 87.2259 149.208 87.7516C149.313 88.2773 149.259 88.8222 149.054 89.3174C148.849 89.8126 148.501 90.2358 148.056 90.5336C147.61 90.8314 147.086 90.9903 146.55 90.9903C145.831 90.9903 145.142 90.7048 144.634 90.1966C144.126 89.6883 143.84 88.999 143.84 88.2803Z" fill="#0B2A2B"/>
<path d="M123.92 88.2803C123.92 87.7443 124.079 87.2204 124.377 86.7747C124.674 86.3291 125.098 85.9817 125.593 85.7766C126.088 85.5715 126.633 85.5178 127.159 85.6224C127.684 85.7269 128.167 85.985 128.546 86.364C128.925 86.743 129.183 87.2259 129.288 87.7516C129.392 88.2773 129.339 88.8222 129.134 89.3174C128.929 89.8126 128.581 90.2358 128.136 90.5336C127.69 90.8314 127.166 90.9903 126.63 90.9903C125.911 90.9903 125.222 90.7048 124.714 90.1966C124.205 89.6883 123.92 88.999 123.92 88.2803Z" fill="#0B2A2B"/>
<path d="M104 88.2798C103.998 87.7414 104.156 87.2145 104.454 86.7659C104.751 86.3173 105.175 85.9671 105.672 85.7597C106.169 85.5523 106.716 85.497 107.245 85.6009C107.773 85.7047 108.258 85.9629 108.64 86.3429C109.021 86.7229 109.281 87.2076 109.387 87.7355C109.493 88.2634 109.439 88.8108 109.234 89.3084C109.028 89.806 108.68 90.2314 108.232 90.5307C107.785 90.83 107.258 90.9898 106.72 90.9898C106.363 90.9911 106.01 90.922 105.68 90.7864C105.35 90.6508 105.05 90.4514 104.797 90.1996C104.545 89.9478 104.344 89.6486 104.207 89.3192C104.07 88.9897 104 88.6365 104 88.2798Z" fill="#0B2A2B"/>
<path d="M183.67 67.73C183.67 67.194 183.829 66.6701 184.127 66.2244C184.424 65.7788 184.848 65.4314 185.343 65.2263C185.838 65.0212 186.383 64.9675 186.909 65.0721C187.434 65.1767 187.917 65.4348 188.296 65.8138C188.675 66.1928 188.933 66.6756 189.038 67.2013C189.142 67.727 189.089 68.2719 188.884 68.7671C188.679 69.2623 188.331 69.6855 187.886 69.9833C187.44 70.2811 186.916 70.44 186.38 70.44C185.661 70.44 184.972 70.1545 184.464 69.6463C183.955 69.1381 183.67 68.4488 183.67 67.73Z" fill="#0B2A2B"/>
<path d="M163.75 67.73C163.748 67.1912 163.906 66.6639 164.204 66.2151C164.502 65.7663 164.927 65.4161 165.425 65.2089C165.922 65.0018 166.47 64.9472 166.998 65.0518C167.527 65.1564 168.012 65.4157 168.393 65.7967C168.774 66.1777 169.034 66.6632 169.138 67.1918C169.243 67.7204 169.188 68.2681 168.981 68.7655C168.774 69.2629 168.424 69.6876 167.975 69.9857C167.526 70.2839 166.999 70.4419 166.46 70.44C165.741 70.44 165.052 70.1545 164.544 69.6462C164.036 69.138 163.75 68.4487 163.75 67.73Z" fill="#0B2A2B"/>
<path d="M143.84 67.73C143.84 67.194 143.999 66.6701 144.297 66.2244C144.595 65.7788 145.018 65.4314 145.513 65.2263C146.008 65.0212 146.553 64.9675 147.079 65.0721C147.604 65.1767 148.087 65.4348 148.466 65.8138C148.845 66.1928 149.103 66.6756 149.208 67.2013C149.313 67.727 149.259 68.2719 149.054 68.7671C148.849 69.2623 148.501 69.6855 148.056 69.9833C147.61 70.2811 147.086 70.44 146.55 70.44C145.831 70.44 145.142 70.1545 144.634 69.6463C144.126 69.1381 143.84 68.4488 143.84 67.73Z" fill="#0B2A2B"/>
<path d="M123.92 67.73C123.92 67.194 124.079 66.6701 124.377 66.2244C124.674 65.7788 125.098 65.4314 125.593 65.2263C126.088 65.0212 126.633 64.9675 127.159 65.0721C127.684 65.1767 128.167 65.4348 128.546 65.8138C128.925 66.1928 129.183 66.6756 129.288 67.2013C129.392 67.727 129.339 68.2719 129.134 68.7671C128.929 69.2623 128.581 69.6855 128.136 69.9833C127.69 70.2811 127.166 70.44 126.63 70.44C125.911 70.44 125.222 70.1545 124.714 69.6463C124.205 69.1381 123.92 68.4488 123.92 67.73Z" fill="#0B2A2B"/>
<path d="M104 67.73C103.998 67.1916 104.156 66.6648 104.454 66.2162C104.751 65.7675 105.175 65.4173 105.672 65.2099C106.169 65.0025 106.716 64.9472 107.245 65.0511C107.773 65.1549 108.258 65.4132 108.64 65.7931C109.021 66.1731 109.281 66.6578 109.387 67.1857C109.493 67.7136 109.439 68.261 109.234 68.7586C109.028 69.2562 108.68 69.6816 108.232 69.9809C107.785 70.2802 107.258 70.44 106.72 70.44C106.363 70.4413 106.01 70.3722 105.68 70.2366C105.35 70.101 105.05 69.9016 104.797 69.6498C104.545 69.398 104.344 69.0989 104.207 68.7694C104.07 68.44 104 68.0867 104 67.73Z" fill="#0B2A2B"/>
</g>
<defs>
<filter id="filter0_f_14_2030" x="0" y="0" width="193.09" height="115.49" filterUnits="userSpaceOnUse" color-interpolation-filters="sRGB">
<feFlood flood-opacity="0" result="BackgroundImageFix"/>
<feBlend mode="normal" in="SourceGraphic" in2="BackgroundImageFix" result="shape"/>
<feGaussianBlur stdDeviation="2" result="effect1_foregroundBlur_14_2030"/>
</filter>
</defs>
</svg>
