<?xml version="1.0" encoding="UTF-8"?><svg id="Layer_2" xmlns="http://www.w3.org/2000/svg" viewBox="0 0 670.37 248.63"><defs><style>.cls-1{fill:#323334;}.cls-2{fill:#ad9752;}</style></defs><g id="Calque_1"><g><g><path class="cls-2" d="M29.66,71.82l.5-1.75h30.04c4.84,0,9.12,.61,12.83,1.81,3.71,1.21,6.84,2.86,9.39,4.94,2.54,2.09,4.48,4.51,5.82,7.26,1.33,2.75,2,5.72,2,8.89,0,4.76-1.29,8.91-3.88,12.45-2.59,3.55-5.86,6.53-9.83,8.95-3.96,2.42-8.34,4.24-13.14,5.44-4.8,1.21-9.41,1.81-13.83,1.81-1.92,0-3.96-.1-6.13-.31-2.17-.21-4.01-.44-5.51-.69l-13.27,36.8h14.39l-.63,1.75H0l.5-1.75H13.39l30.66-85.61h-14.39Zm13.39,47.69c1.83,.25,3.71,.38,5.63,.38,4.42,0,8.49-.9,12.2-2.69,3.71-1.79,6.88-4.17,9.51-7.13,2.63-2.96,4.67-6.34,6.13-10.14,1.46-3.8,2.19-7.7,2.19-11.7,0-5.51-1.65-9.62-4.94-12.33-3.3-2.71-7.82-4.07-13.58-4.07h-4.88l-16.77,47.06c1.17,.17,2.67,.38,4.51,.63Z"/><path class="cls-2" d="M108.26,71.82l.5-1.75h69.59l-7.63,21.28h-1.75c.33-.92,.67-2.25,1-4.01,.33-1.75,.5-3.42,.5-5.01,0-3.09-.67-5.61-2-7.57-1.34-1.96-4.01-2.94-8.01-2.94h-26.41l-13.89,38.68h11.77c2.67,0,5.03-.69,7.07-2.06,2.04-1.38,3.8-2.96,5.26-4.76,1.46-1.79,2.65-3.57,3.57-5.32,.92-1.75,1.58-3,2-3.75h1.75l-13.14,36.42h-1.75c.42-1,.79-2.38,1.13-4.13,.33-1.75,.5-3.42,.5-5.01,0-3.17-.92-5.57-2.75-7.2-1.84-1.63-4.34-2.44-7.51-2.44h-8.51l-16.15,45.18h29.29c3.34,0,6.45-.96,9.32-2.88,2.88-1.92,5.42-4.15,7.64-6.7,2.21-2.54,4.07-5.07,5.57-7.57,1.5-2.5,2.59-4.38,3.25-5.63h1.75l-8.76,24.53H78.73l.5-1.75h12.89l30.67-85.61h-14.52Z"/><path class="cls-2" d="M194.13,71.82l.75-1.75h30.41c2.92,0,5.95,.33,9.07,1,3.13,.67,5.96,1.77,8.51,3.32,2.54,1.54,4.65,3.55,6.32,6.01,1.67,2.46,2.5,5.49,2.5,9.07,0,3-.65,5.63-1.94,7.89-1.29,2.25-2.94,4.15-4.94,5.69-2,1.54-4.21,2.82-6.63,3.82-2.42,1-4.76,1.81-7.01,2.44s-4.3,1.06-6.13,1.31c-1.84,.25-3.13,.42-3.88,.5l-.25,.38c1.33,.17,3.04,.5,5.13,1,2.08,.5,4.11,1.34,6.07,2.5,1.96,1.17,3.65,2.71,5.07,4.63,1.42,1.92,2.13,4.38,2.13,7.38,0,2.09-.17,4.11-.5,6.07-.33,1.96-.69,3.88-1.06,5.76s-.73,3.78-1.06,5.7c-.33,1.92-.5,3.92-.5,6.01,0,2.34,.63,4.19,1.88,5.57,1.25,1.38,2.84,2.06,4.76,2.06,.67,0,1.36-.06,2.07-.19,.71-.13,1.23-.27,1.56-.44l.5,1.63c-.42,.08-1.23,.21-2.44,.38-1.21,.17-2.44,.25-3.69,.25-2.25,0-4.32-.23-6.2-.69s-3.53-1.21-4.94-2.25c-1.42-1.04-2.52-2.42-3.32-4.13-.79-1.71-1.19-3.82-1.19-6.32,0-1.25,.15-2.88,.44-4.88,.29-2,.65-4.13,1.06-6.38,.33-2.17,.65-4.34,.94-6.51,.29-2.17,.44-4.05,.44-5.63,0-1.5-.23-2.94-.69-4.32-.46-1.38-1.31-2.57-2.57-3.57-1.25-1-3-1.79-5.26-2.38-2.25-.58-5.17-.88-8.76-.88h-5.13l-16.4,45.56h14.39l-.63,1.75h-38.42l.63-1.75h12.77l30.54-85.61h-14.39Zm20.4,38.3c3.34,0,6.3-.29,8.89-.88,2.59-.58,4.59-1.33,6.01-2.25,1.17-.75,2.38-1.71,3.63-2.88,1.25-1.17,2.38-2.61,3.38-4.32,1-1.71,1.83-3.71,2.5-6.01,.67-2.29,1-4.98,1-8.07,0-4.67-1.42-8.16-4.26-10.45-2.84-2.29-6.34-3.44-10.51-3.44h-5.26l-13.77,38.3h8.39Z"/><path class="cls-2" d="M260.96,134.53c-.42,1.25-.79,2.44-1.13,3.57-.33,1.13-.5,2.4-.5,3.82,0,2.84,.67,5.34,2,7.51,1.33,2.17,3.09,3.96,5.26,5.38,2.17,1.42,4.59,2.5,7.26,3.25,2.67,.75,5.38,1.13,8.14,1.13,3.67,0,6.97-.52,9.89-1.56,2.92-1.04,5.38-2.5,7.38-4.38,2-1.88,3.52-4.09,4.57-6.63,1.04-2.54,1.56-5.32,1.56-8.32s-.69-5.82-2.06-8.2c-1.38-2.38-3.28-4.69-5.7-6.95l-8.89-8.14c-4.01-3.59-7.16-7.15-9.45-10.7-2.3-3.55-3.44-7.57-3.44-12.08,0-3.5,.79-6.72,2.38-9.64,1.58-2.92,3.71-5.42,6.38-7.51,2.67-2.08,5.74-3.71,9.2-4.88,3.46-1.17,7.03-1.75,10.7-1.75,2.59,0,4.86,.23,6.82,.69,1.96,.46,3.75,.98,5.38,1.56,1.63,.58,3.13,1.11,4.51,1.56,1.38,.46,2.77,.69,4.19,.69,1.25,0,2.21-.29,2.88-.88,.67-.58,1.21-1.38,1.63-2.38l1.88,.38-8.64,23.91h-1.5c.17-.67,.4-1.61,.69-2.82,.29-1.21,.44-2.73,.44-4.57,0-3-.5-5.55-1.5-7.63-1-2.08-2.34-3.77-4-5.07-1.67-1.29-3.61-2.23-5.82-2.82-2.21-.58-4.53-.88-6.95-.88-3,0-5.76,.42-8.26,1.25-2.5,.84-4.65,1.96-6.45,3.38-1.8,1.42-3.19,3.13-4.19,5.13-1,2-1.5,4.21-1.5,6.63,0,3.59,1,6.7,3,9.32,2,2.63,4.26,5.07,6.76,7.32l11.14,10.01c3,2.67,5.57,5.68,7.7,9.01,2.13,3.34,3.19,7.05,3.19,11.14,0,3.17-.73,6.38-2.19,9.64-1.46,3.25-3.63,6.2-6.51,8.82s-6.49,4.78-10.83,6.45c-4.34,1.67-9.39,2.5-15.14,2.5-3,0-5.65-.25-7.95-.75-2.3-.5-4.38-1.08-6.26-1.75-1.88-.67-3.63-1.25-5.26-1.75s-3.23-.75-4.82-.75c-1.08,0-2.08,.4-3,1.19-.92,.79-1.46,1.69-1.63,2.69l-1.75-.38,8.76-24.78h1.63Z"/><path class="cls-2" d="M340.56,110.87c1.5-4.67,3.52-9.12,6.07-13.33,2.54-4.21,5.57-8.09,9.07-11.64,3.5-3.55,7.24-6.61,11.2-9.2,3.96-2.59,8.07-4.61,12.33-6.07,4.26-1.46,8.47-2.19,12.64-2.19,5.42,0,9.99,1.11,13.71,3.32,3.71,2.21,6.72,5.07,9.01,8.57,2.29,3.5,3.94,7.41,4.94,11.7,1,4.3,1.5,8.53,1.5,12.7,0,4.51-.69,9.03-2.07,13.58-1.38,4.55-3.3,8.89-5.76,13.02-2.46,4.13-5.4,7.99-8.82,11.58-3.42,3.59-7.13,6.72-11.14,9.39-4,2.67-8.24,4.76-12.7,6.26-4.46,1.5-9.03,2.25-13.71,2.25-4.17,0-8.01-.77-11.52-2.32-3.5-1.54-6.51-3.82-9.01-6.82-2.5-3-4.46-6.74-5.88-11.2-1.42-4.46-2.13-9.62-2.13-15.46,0-4.76,.75-9.47,2.25-14.14Zm8.14,36.05c.58,2.42,1.63,4.53,3.13,6.32,1.5,1.8,3.52,3.23,6.07,4.32,2.54,1.09,5.78,1.63,9.7,1.63,4.92,0,9.41-1.25,13.46-3.75,4.05-2.5,7.68-5.76,10.89-9.76,3.21-4.01,6.03-8.51,8.45-13.52,2.42-5.01,4.4-10.05,5.95-15.14,1.54-5.09,2.71-9.95,3.5-14.58,.79-4.63,1.19-8.53,1.19-11.7,0-6.51-1.54-11.56-4.63-15.14-3.09-3.59-8.01-5.38-14.77-5.38-4.67,0-8.99,1.21-12.95,3.63-3.96,2.42-7.57,5.59-10.83,9.51-3.25,3.92-6.13,8.37-8.64,13.33-2.5,4.97-4.59,10.01-6.26,15.15-1.67,5.13-2.94,10.12-3.82,14.96-.88,4.84-1.31,9.05-1.31,12.64,0,2.59,.29,5.09,.88,7.51Z"/><path class="cls-2" d="M460.59,76.33l-28.91,81.11h14.27l-.5,1.75h-28.91l.5-1.75h12.77l30.54-85.61h-14.27l.5-1.75h23.66l17.77,70.59h.25l24.53-68.84h-14.39l.5-1.75h29.29l-.5,1.75h-12.89l-31.54,88.99h-.88l-21.53-84.49h-.25Z"/><path class="cls-2" d="M509.66,157.43l62.83-89.37h2.88l2.25,89.37h13.52l-.5,1.75h-38.55l.5-1.75h13.64l-.75-35.05h-28.79l-24.53,35.05h12.64l-.5,1.75h-25.78l.5-1.75h10.64Zm55.07-74.85l-26.79,38.05h27.54l-.5-38.05h-.25Z"/><path class="cls-2" d="M618.55,71.82l.5-1.75h38.8l-.5,1.75h-13.14l-30.67,85.61h29.29c3.25,0,6.3-.94,9.14-2.82,2.83-1.88,5.36-4.09,7.57-6.63,2.21-2.54,4.09-5.09,5.63-7.64,1.54-2.54,2.69-4.44,3.44-5.69h1.75l-8.76,24.53h-72.72l.5-1.75h12.89l30.67-85.61h-14.39Z"/></g><g><path class="cls-1" d="M65.82,49.96h7.75V29.93L57.87,2.23h-6.35v-.98h21.35v.98h-6.98l13.96,24.56L93.04,2.23h-7.05v-.98h14.93v.98h-6.77l-13.61,25.47v22.26h7.75v.98h-22.47v-.98Z"/><path class="cls-1" d="M104.27,26.03c0-3.72,.73-7.16,2.2-10.33,1.47-3.16,3.35-5.91,5.65-8.23,2.3-2.33,4.9-4.15,7.78-5.48,2.88-1.33,5.77-1.99,8.65-1.99,3.07,0,6.06,.66,8.97,1.99,2.91,1.33,5.5,3.15,7.78,5.48,2.28,2.33,4.1,5.07,5.48,8.23,1.37,3.16,2.06,6.61,2.06,10.33,0,3.26-.63,6.44-1.88,9.56-1.26,3.12-2.98,5.89-5.16,8.3-2.19,2.42-4.76,4.37-7.71,5.86-2.95,1.49-6.13,2.23-9.52,2.23s-6.72-.72-9.7-2.16c-2.98-1.44-5.55-3.36-7.71-5.76-2.16-2.4-3.85-5.16-5.06-8.3-1.21-3.14-1.81-6.38-1.81-9.73Zm8.02,0c0,4.19,.28,7.84,.84,10.95,.56,3.12,1.49,5.72,2.79,7.81,1.3,2.09,2.98,3.65,5.02,4.67,2.05,1.02,4.58,1.54,7.61,1.54s5.5-.51,7.57-1.54c2.07-1.02,3.76-2.58,5.06-4.67,1.3-2.09,2.23-4.7,2.79-7.81,.56-3.12,.84-6.77,.84-10.95,0-3.21-.21-6.31-.63-9.31-.42-3-1.22-5.67-2.41-8.02-1.19-2.35-2.84-4.22-4.95-5.62-2.12-1.4-4.87-2.09-8.27-2.09s-6.15,.7-8.27,2.09c-2.12,1.4-3.77,3.27-4.95,5.62-1.19,2.35-1.99,5.02-2.41,8.02-.42,3-.63,6.1-.63,9.31Z"/><path class="cls-1" d="M159.04,1.26h22.47v.98h-7.75V35.93c0,2.79,.24,5.15,.73,7.08,.49,1.93,1.22,3.49,2.2,4.67,.98,1.19,2.19,2.04,3.63,2.55,1.44,.51,3.09,.77,4.95,.77,2.6,0,4.91-.38,6.91-1.15,2-.77,3.72-2.13,5.16-4.08,.46-.6,.87-1.21,1.22-1.81,.35-.6,.65-1.31,.91-2.13,.25-.81,.45-1.79,.59-2.93,.14-1.14,.21-2.55,.21-4.22V2.23h-7.75v-.98h16.54v.98h-7.75V36.07c0,1.95-.21,3.73-.63,5.34-.42,1.6-1.28,3.27-2.58,4.99-1.26,1.67-3,3.02-5.23,4.05-2.23,1.02-5.19,1.53-8.86,1.53-5.58,0-9.85-1.37-12.8-4.12-2.95-2.74-4.43-6.95-4.43-12.63V2.23h-7.75v-.98Z"/><path class="cls-1" d="M212.63,49.96h7.75V2.23h-7.75v-.98h13.26c.56,0,1.12-.01,1.67-.03,.56-.02,1.12-.06,1.67-.1,.56,0,1.12-.01,1.67-.03,.56-.02,1.12-.03,1.67-.03,2.74,0,5.16,.15,7.26,.45,2.09,.3,4.05,1.18,5.86,2.62,1.63,1.26,2.78,2.68,3.45,4.26,.67,1.58,1.01,3.07,1.01,4.47,0,.7-.13,1.59-.38,2.69-.26,1.09-.81,2.21-1.67,3.35-.86,1.14-2.1,2.19-3.73,3.14-1.63,.95-3.79,1.59-6.49,1.92v.14c.74,.09,1.76,.27,3.04,.52,1.28,.26,2.58,.69,3.91,1.29,1.33,.6,2.55,1.41,3.66,2.41,1.12,1,1.91,2.29,2.37,3.87,.28,.93,.48,1.99,.59,3.17,.12,1.19,.21,2.41,.28,3.66,.07,1.26,.14,2.47,.21,3.63,.07,1.16,.2,2.14,.38,2.93,.28,1.21,.72,2.3,1.33,3.28,.6,.98,1.58,1.47,2.93,1.47,.6,0,1.23-.12,1.88-.35,.65-.23,1.23-.6,1.74-1.12l.63,.77c-.23,.19-.5,.38-.8,.59-.3,.21-.69,.41-1.15,.59-.46,.19-1.04,.34-1.71,.45-.67,.12-1.5,.17-2.48,.17-1.86,0-3.41-.23-4.64-.7-1.23-.46-2.22-1.15-2.97-2.06-.74-.91-1.29-2.02-1.64-3.35-.35-1.33-.59-2.87-.73-4.64l-.49-6.35c-.19-2.33-.65-4.14-1.4-5.44-.74-1.3-1.62-2.26-2.62-2.86-1-.6-2.04-.96-3.11-1.08-1.07-.12-2-.17-2.79-.17h-6.98v25.19h7.75v.98h-22.47v-.98Zm14.72-26.17h6.42c1.3,0,2.49-.16,3.56-.49,1.07-.33,1.99-.9,2.76-1.71,.77-.81,1.36-1.92,1.78-3.31,.42-1.4,.63-3.16,.63-5.3,0-2.42-.31-4.36-.94-5.83s-1.44-2.57-2.44-3.31c-1-.74-2.12-1.23-3.35-1.47-1.23-.23-2.45-.35-3.66-.35-.84,0-1.69,.01-2.55,.04-.86,.02-1.59,.08-2.2,.17V23.79Z"/></g><g><path class="cls-1" d="M212.02,245.97h10.2v-62.83h-10.2v-1.29h17.27c.86,0,1.71-.01,2.57-.05,.86-.03,1.71-.08,2.57-.14,.86,0,1.7-.01,2.53-.05,.83-.03,1.67-.05,2.53-.05,3.49,0,6.72,.41,9.69,1.24,2.97,.83,5.54,2.01,7.72,3.54,2.17,1.53,3.87,3.37,5.1,5.51,1.22,2.14,1.84,4.53,1.84,7.17s-.7,5.21-2.11,7.35c-1.41,2.14-3.28,3.95-5.6,5.42-2.33,1.47-5.04,2.6-8.13,3.4-3.09,.8-6.32,1.19-9.69,1.19-.86,0-1.96-.08-3.31-.23-1.35-.15-2.54-.32-3.58-.5v30.31h10.2v1.29h-29.58v-1.29Zm19.38-31.6c1.22,.25,2.51,.43,3.86,.55,1.35,.12,2.54,.18,3.58,.18,4.53,0,8.07-1.33,10.61-4,2.54-2.66,3.81-6.69,3.81-12.08,0-3.12-.31-5.73-.92-7.81-.61-2.08-1.58-3.75-2.89-5.01-1.32-1.25-3.03-2.13-5.14-2.62-2.11-.49-4.64-.74-7.58-.74-1.16,0-2.22,.03-3.17,.09-.95,.06-1.67,.12-2.16,.18v31.23Z"/><path class="cls-1" d="M271.54,245.97h10.2v-62.83h-10.2v-1.29h52.54v15.89h-1.01c-.8-2.39-1.65-4.49-2.57-6.29-.92-1.81-2.02-3.34-3.31-4.59-1.29-1.25-2.82-2.19-4.59-2.8-1.78-.61-3.92-.92-6.43-.92h-15.25v28.38h5.97c2.02,0,3.73-.18,5.14-.55,1.41-.37,2.62-1.06,3.63-2.07,1.01-1.01,1.87-2.39,2.57-4.13,.7-1.75,1.39-4,2.07-6.75h1.01v28.57h-1.01c-.43-1.78-.87-3.49-1.33-5.14-.46-1.65-1.1-3.12-1.93-4.41-.83-1.29-1.93-2.31-3.31-3.08s-3.17-1.15-5.37-1.15h-7.44v33.16h17.36c3.37,0,6.17-.72,8.4-2.16,2.23-1.44,4.06-3.15,5.46-5.14,1.41-1.99,2.45-4.06,3.12-6.2,.67-2.14,1.1-3.92,1.29-5.33h1.01v20.12h-56.03v-1.29Z"/><path class="cls-1" d="M336.21,245.97h10.2v-62.83h-10.2v-1.29h17.45c.74,0,1.47-.01,2.2-.05,.74-.03,1.47-.08,2.21-.14,.73,0,1.47-.01,2.2-.05,.74-.03,1.47-.05,2.21-.05,3.61,0,6.8,.2,9.55,.6,2.76,.4,5.33,1.55,7.72,3.44,2.14,1.65,3.66,3.52,4.55,5.6,.89,2.08,1.33,4.04,1.33,5.88,0,.92-.17,2.1-.51,3.54-.34,1.44-1.07,2.91-2.2,4.41-1.13,1.5-2.77,2.88-4.91,4.13-2.14,1.26-4.99,2.1-8.54,2.53v.18c.98,.12,2.31,.35,4,.69,1.68,.34,3.4,.9,5.14,1.7,1.75,.8,3.35,1.85,4.82,3.17,1.47,1.32,2.51,3.02,3.12,5.1,.37,1.23,.63,2.62,.78,4.18,.15,1.56,.28,3.17,.37,4.82s.18,3.25,.28,4.78c.09,1.53,.26,2.82,.51,3.86,.37,1.59,.95,3.03,1.75,4.32,.79,1.29,2.08,1.93,3.86,1.93,.79,0,1.62-.15,2.48-.46,.86-.31,1.62-.79,2.3-1.47l.83,1.01c-.31,.25-.66,.5-1.06,.78-.4,.28-.9,.54-1.52,.78-.61,.24-1.36,.44-2.25,.6-.89,.15-1.98,.23-3.26,.23-2.45,0-4.49-.31-6.11-.92-1.62-.61-2.93-1.52-3.9-2.71-.98-1.19-1.7-2.66-2.16-4.41-.46-1.75-.78-3.78-.96-6.11l-.64-8.36c-.25-3.06-.86-5.45-1.84-7.17-.98-1.71-2.13-2.97-3.44-3.77-1.32-.79-2.68-1.27-4.09-1.42-1.41-.15-2.63-.23-3.67-.23h-9.19v33.16h10.2v1.29h-29.58v-1.29Zm19.38-34.45h8.45c1.71,0,3.28-.21,4.68-.64,1.41-.43,2.62-1.18,3.63-2.25,1.01-1.07,1.79-2.53,2.34-4.36,.55-1.84,.83-4.16,.83-6.98,0-3.18-.41-5.74-1.24-7.67-.83-1.93-1.9-3.38-3.21-4.36-1.32-.98-2.79-1.62-4.41-1.93-1.62-.31-3.23-.46-4.82-.46-1.1,0-2.22,.02-3.35,.05-1.13,.03-2.1,.11-2.89,.23v28.38Z"/><path class="cls-1" d="M402.53,245.97h10.2v-62.83h-10.2v-1.29h52.54v15.89h-1.01c-.8-2.39-1.65-4.49-2.57-6.29-.92-1.81-2.02-3.34-3.31-4.59-1.29-1.25-2.82-2.19-4.59-2.8-1.78-.61-3.92-.92-6.43-.92h-15.25v29.76h5.97c2.02,0,3.73-.18,5.14-.55,1.41-.37,2.62-1.06,3.63-2.07,1.01-1.01,1.87-2.39,2.57-4.13,.7-1.75,1.39-4,2.07-6.75h1.01v28.57h-1.01c-.43-1.78-.87-3.49-1.33-5.14s-1.1-3.12-1.93-4.41c-.83-1.29-1.93-2.31-3.31-3.08-1.38-.76-3.17-1.15-5.37-1.15h-7.44v31.78h10.2v1.29h-29.58v-1.29Z"/><path class="cls-1" d="M462.96,181.86h29.58v1.29h-10.2v44.37c0,3.67,.32,6.78,.96,9.32,.64,2.54,1.61,4.59,2.89,6.15s2.88,2.68,4.78,3.35c1.9,.67,4.07,1.01,6.52,1.01,3.43,0,6.46-.5,9.09-1.52s4.9-2.8,6.8-5.37c.61-.8,1.15-1.59,1.61-2.39,.46-.79,.86-1.73,1.19-2.8,.33-1.07,.6-2.36,.78-3.86,.18-1.5,.28-3.35,.28-5.56v-42.71h-10.2v-1.29h21.77v1.29h-10.2v44.55c0,2.57-.28,4.92-.83,7.03-.55,2.11-1.69,4.3-3.4,6.57-1.65,2.21-3.95,3.98-6.89,5.33-2.94,1.35-6.83,2.02-11.67,2.02-7.35,0-12.97-1.81-16.85-5.42-3.89-3.61-5.83-9.15-5.83-16.62v-43.45h-10.2v-1.29Z"/><path class="cls-1" d="M533.14,245.97h10.2v-62.83h-10.2v-1.29h20.67l16.99,49.42h.18l16.99-49.42h20.3v1.29h-10.2v62.83h10.2v1.29h-29.58v-1.29h10.2v-62.28h-.18l-21.95,63.66-21.86-63.01h-.18v61.63h10.2v1.29h-21.77v-1.29Z"/><path class="cls-1" d="M613.42,245.97h10.2v-62.83h-10.2v-1.29h52.54v15.89h-1.01c-.8-2.39-1.65-4.49-2.57-6.29-.92-1.81-2.02-3.34-3.31-4.59-1.29-1.25-2.82-2.19-4.59-2.8-1.78-.61-3.92-.92-6.43-.92h-15.25v28.38h5.97c2.02,0,3.73-.18,5.14-.55,1.41-.37,2.62-1.06,3.63-2.07s1.87-2.39,2.57-4.13c.7-1.75,1.39-4,2.07-6.75h1.01v28.57h-1.01c-.43-1.78-.87-3.49-1.33-5.14s-1.1-3.12-1.93-4.41c-.83-1.29-1.93-2.31-3.31-3.08-1.38-.77-3.17-1.15-5.37-1.15h-7.44v33.16h17.36c3.37,0,6.17-.72,8.41-2.16,2.23-1.44,4.06-3.15,5.46-5.14,1.41-1.99,2.45-4.06,3.12-6.2,.67-2.14,1.1-3.92,1.29-5.33h1.01v20.12h-56.03v-1.29Z"/></g></g></g></svg>