<svg width="86" height="86" viewBox="0 0 86 86" fill="none" xmlns="http://www.w3.org/2000/svg">
<circle cx="41.5" cy="41.5" r="41.5" fill="#0B2A2B"/>
<circle cx="44.5" cy="44.5" r="41.5" fill="#FFDC28"/>
<path d="M40.4825 63.865C39.4325 63.865 38.435 63.34 37.7525 62.4125L35.6525 59.6125C35.6525 59.63 35.565 59.5775 35.53 59.5775H34.8825C28.8975 59.5775 25.1875 57.95 25.1875 49.8825V42.8825C25.1875 35.515 29.685 33.59 33.465 33.2575C33.885 33.205 34.375 33.1875 34.8825 33.1875H46.0825C52.4175 33.1875 55.7775 36.5475 55.7775 42.8825V49.8825C55.7775 50.39 55.76 50.88 55.69 51.3525C55.375 55.08 53.45 59.5775 46.0825 59.5775H45.3825L43.2125 62.4125C42.53 63.34 41.5325 63.865 40.4825 63.865ZM34.8825 35.8125C34.48 35.8125 34.095 35.83 33.7275 35.865C29.6675 36.215 27.8125 38.4375 27.8125 42.8825V49.8825C27.8125 55.885 29.6675 56.9525 34.8825 56.9525H35.5825C36.37 56.9525 37.2625 57.39 37.7525 58.02L39.8525 60.8375C40.2375 61.3625 40.7275 61.3625 41.1125 60.8375L43.2125 58.0375C43.72 57.355 44.525 56.9525 45.3825 56.9525H46.0825C50.5275 56.9525 52.75 55.08 53.0825 51.09C53.135 50.67 53.1525 50.285 53.1525 49.8825V42.8825C53.1525 38 50.965 35.8125 46.0825 35.8125H34.8825Z" fill="#0B2A2B"/>
<path d="M40.4829 48.8323C39.5029 48.8323 38.7329 48.0448 38.7329 47.0823C38.7329 46.1198 39.5204 45.3323 40.4829 45.3323C41.4454 45.3323 42.2329 46.1198 42.2329 47.0823C42.2329 48.0448 41.4629 48.8323 40.4829 48.8323ZM46.0817 48.8323C45.1017 48.8323 44.3317 48.0448 44.3317 47.0823C44.3317 46.1198 45.1192 45.3323 46.0817 45.3323C47.0442 45.3323 47.8317 46.1198 47.8317 47.0823C47.8317 48.0448 47.0442 48.8323 46.0817 48.8323ZM34.9014 48.8323C33.9214 48.8323 33.1514 48.0448 33.1514 47.0823C33.1514 46.1198 33.9389 45.3323 34.9014 45.3323C35.8639 45.3323 36.6514 46.1198 36.6514 47.0823C36.6514 48.0448 35.8639 48.8323 34.9014 48.8323Z" fill="#0B2A2B"/>
<path d="M54.3943 52.5075C54.0443 52.5075 53.6943 52.3675 53.4493 52.105C53.1693 51.825 53.047 51.4225 53.0995 51.0375C53.152 50.67 53.1693 50.285 53.1693 49.8825V42.8825C53.1693 38 50.982 35.8125 46.0995 35.8125H34.8994C34.4969 35.8125 34.1119 35.83 33.7444 35.865C33.3594 35.9175 32.9569 35.7775 32.6769 35.515C32.3969 35.235 32.2394 34.85 32.2744 34.465C32.5894 30.685 34.5319 26.1875 41.8993 26.1875H53.0995C59.4345 26.1875 62.7943 29.5475 62.7943 35.8825V42.8825C62.7943 50.25 58.297 52.175 54.517 52.5075C54.4645 52.5075 54.4293 52.5075 54.3943 52.5075ZM35.1094 33.1875H46.0818C52.4168 33.1875 55.777 36.5475 55.777 42.8825V49.655C58.752 48.92 60.152 46.7325 60.152 42.8825V35.8825C60.152 31 57.9643 28.8125 53.0818 28.8125H41.882C38.0319 28.8125 35.8619 30.2125 35.1094 33.1875Z" fill="#0B2A2B"/>
</svg>
