<?xml version="1.0" encoding="UTF-8"?><svg id="Layer_2" xmlns="http://www.w3.org/2000/svg" viewBox="0 0 204.26 63.58"><defs><style>.cls-1{fill:#ffab00;}.cls-2{fill:#ff6f00;}.cls-3{fill:#80deea;}.cls-4{fill:#0f172a;}</style></defs><g id="Pages"><g id="P2"><g><path class="cls-4" d="M40.58,48.79h.38c.51,.17,1.02,.29,1.55,.36,.61,.1,1.23,.15,1.84,.15,1.62,0,2.85-.39,3.69-1.18,.84-.78,1.26-1.96,1.26-3.53V23.53l5.95,1.23v19.79c0,2.16-.43,3.96-1.28,5.4-.83,1.43-2.09,2.56-3.58,3.26-1.54,.73-3.34,1.09-5.41,1.09-.81,0-1.61-.05-2.41-.15-.67-.08-1.34-.19-1.99-.36v-5Z"/><path class="cls-4" d="M59.7,42.23c0-2.61,.48-4.8,1.43-6.58,.89-1.72,2.28-3.12,3.98-4.01,1.7-.9,3.66-1.34,5.87-1.34,2.18,0,4.12,.45,5.83,1.34,1.71,.9,3.1,2.3,3.98,4.01,.95,1.78,1.43,3.97,1.43,6.58s-.48,4.83-1.43,6.6c-.89,1.71-2.28,3.11-3.98,4.01-1.7,.91-3.65,1.37-5.83,1.37-2.24,0-4.2-.46-5.89-1.37-1.69-.91-3.08-2.31-3.97-4.01-.95-1.76-1.42-3.96-1.42-6.6Zm6,0c0,2.47,.45,4.32,1.34,5.57,.89,1.25,2.21,1.87,3.94,1.87s3.01-.62,3.9-1.87c.89-1.25,1.34-3.1,1.34-5.57,0-2.46-.45-4.32-1.34-5.57-.89-1.25-2.19-1.87-3.9-1.87s-3.05,.62-3.94,1.87c-.89,1.25-1.34,3.1-1.34,5.57Z"/><path class="cls-4" d="M106.95,30.84v.5l-12.49,32.19h-5.83v-.51l3.66-8.81-8.69-22.88v-.5h6.25l5.35,16.02,5.8-16.02h5.95Z"/><path class="cls-4" d="M108.88,47.99h.33c1.15,.46,2.33,.83,3.54,1.09,1.34,.31,2.71,.46,4.09,.46,.47,0,.99-.02,1.55-.06,.53-.04,1.06-.13,1.57-.27,.47-.13,.89-.39,1.21-.76,.32-.36,.48-.85,.48-1.47,0-.78-.32-1.33-.96-1.64-.64-.31-1.63-.58-2.97-.8l-1.97-.33c-2.24-.39-3.95-1.07-5.16-2.04-1.2-.97-1.8-2.4-1.8-4.31-.01-1.33,.37-2.63,1.11-3.74,.74-1.12,1.9-2.01,3.48-2.67,1.58-.66,3.66-.99,6.23-.99,1.12,0,2.23,.07,3.33,.23,.99,.15,1.96,.36,2.91,.65v4.84h-.33c-.99-.4-2.01-.69-3.06-.88-1-.17-2.01-.26-3.02-.25-1.57,0-2.79,.19-3.67,.57-.88,.38-1.32,1.04-1.32,2-.02,.33,.07,.66,.25,.94,.18,.28,.44,.49,.74,.62,.66,.31,1.62,.58,2.87,.8l1.93,.33c1.24,.18,2.45,.53,3.58,1.05,1.02,.46,1.91,1.18,2.58,2.08,.64,.88,.96,2.01,.96,3.38,0,2.44-.9,4.27-2.7,5.49-1.8,1.22-4.52,1.83-8.15,1.82-1.35,0-2.7-.11-4.03-.33-1.22-.2-2.42-.48-3.6-.84v-4.96Z"/><path class="cls-4" d="M145.48,48.75v4.71c-.57,.21-1.16,.38-1.75,.48-.75,.13-1.51,.2-2.26,.19-1.98,0-3.67-.29-5.05-.88-1.32-.53-2.42-1.48-3.14-2.71-.71-1.22-1.07-2.79-1.07-4.73v-10.25h-3.66v-4.71h3.65v-5.92h5.87v5.93h6.25v4.71h-6.25v9.79c0,1.43,.34,2.45,1.01,3.07,.67,.62,1.71,.92,3.1,.92,1.01,0,2-.2,2.93-.59h.38Z"/><path class="cls-4" d="M160.36,42.23c0-2.66,.54-4.87,1.64-6.64,1.07-1.75,2.65-3.14,4.53-3.98,1.93-.88,4.16-1.33,6.71-1.33,2.01,0,3.72,.27,5.12,.8v4.83h-.42c-.58-.28-1.19-.49-1.82-.63-.79-.18-1.6-.26-2.41-.25-2.29,0-4.09,.61-5.39,1.82-1.3,1.22-1.95,3-1.95,5.36s.65,4.14,1.95,5.36c1.3,1.22,3.09,1.83,5.39,1.82,.81,0,1.62-.07,2.41-.25,.63-.14,1.24-.35,1.82-.63h.42v4.83c-1.4,.56-3.1,.84-5.12,.84-2.62,0-4.9-.44-6.81-1.33-1.86-.84-3.42-2.23-4.46-3.99-1.06-1.77-1.59-3.98-1.59-6.64Z"/><path class="cls-4" d="M204.26,53.29v.5h-6.75l-8.47-10.79v10.79h-5.87V28.95c0-.56-.01-1.28-.04-2.16-.03-.88-.06-1.74-.11-2.58-.02-.68-.11-1.36-.27-2.02l.12-.33,6.16,.87v17.95l8.68-9.83h6.28v.5c-.35,.29-.69,.61-.99,.95l-1.19,1.28c-.42,.45-.83,.88-1.22,1.3l-6.25,6.7,6.55,8.05c.53,.65,1.12,1.33,1.78,2.06,.5,.57,1.03,1.1,1.59,1.6Z"/><path class="cls-4" d="M149.51,53.79v-15.84c0-.56-.01-1.27-.04-2.14-.03-.87-.06-1.73-.1-2.58-.02-.69-.11-1.37-.27-2.04l.13-.33h6.16v22.94h-5.87Z"/><path class="cls-4" d="M152.44,27.67c-1.08,0-1.98-.33-2.69-.98-.71-.65-1.07-1.57-1.07-2.74,0-1.15,.36-2.04,1.07-2.7,.71-.65,1.61-.97,2.68-.97,1.11,0,2.01,.33,2.71,.98,.7,.65,1.05,1.55,1.05,2.7,0,1.18-.35,2.09-1.05,2.74-.7,.65-1.6,.97-2.71,.97Z"/><path class="cls-4" d="M197.57,24.22v-3.36h-1.15v-.58h3.02v.58h-1.15v3.36h-.72Z"/><path class="cls-4" d="M199.98,24.22v-3.94h.85l1.25,2.5,1.24-2.5h.85v3.94h-.72v-2.72l-1.09,2.16h-.57l-1.09-2.16v2.72h-.72Z"/><path class="cls-3" d="M37.42,63.58H16.25l12.62-24.34s-6.06,14.63,8.55,24.34Z"/><path class="cls-2" d="M35.98,7.61c0,.16,0,.32-.02,.48l-1.56,16.61c-.05,.59-.29,1.16-.68,1.61l-3.57,4.2-3.2,3.48c-.7,.77-1.3,1.62-1.79,2.54l-13.23,25.47c-.24,.47-.61,.87-1.07,1.15-.45,.28-.98,.42-1.51,.42H4.71c-.69,0-1.37-.15-2-.45-.63-.29-1.18-.72-1.62-1.25-.44-.53-.76-1.15-.94-1.82-.18-.67-.2-1.37-.08-2.05l4.52-24.99,3.71-2.5,5.4-3.65c.05-.03,.09-.09,.11-.15,.02-.06,.01-.12-.01-.18-.03-.06-.07-.1-.13-.13-.06-.03-.12-.03-.18-.02l-8.77,2.38-1.99-10.38c-.36-1.86-.01-3.78,.97-5.4,.98-1.62,2.52-2.81,4.33-3.35l2.2-.66c.68-.2,1.41,0,2.05,.3,.3,.15,.62,.26,.95,.33,.7,.15,1.44,.13,2.13-.08l10.59-3.17c.69-.21,1.32-.59,1.82-1.1,.25-.25,.46-.54,.64-.84,.34-.59,.82-1.12,1.47-1.32,.7-.22,1.45-.27,2.18-.15,.73,.12,1.42,.42,2.01,.85,.59,.44,1.08,1.01,1.41,1.67,.33,.66,.51,1.39,.51,2.13h0Z"/><path class="cls-1" d="M26.9,1.63c.17,.58,.11,1.2-.18,1.73-.29,.53-.77,.92-1.34,1.1l-5.26,1.58-5.34,1.6c-.29,.09-.59,.11-.88,.08s-.58-.12-.85-.26c-.26-.14-.49-.33-.68-.57-.19-.23-.33-.5-.41-.78-.09-.29-.11-.59-.08-.88,.03-.3,.12-.59,.26-.85,.14-.26,.33-.49,.56-.68,.23-.19,.5-.33,.78-.41L24.08,.09c.58-.17,1.2-.1,1.73,.18,.53,.29,.92,.77,1.09,1.35Z"/></g></g></g></svg>