<svg width="232" height="232" viewBox="0 0 232 232" fill="none" xmlns="http://www.w3.org/2000/svg">
<path d="M111.392 103.35L95.2182 28.952C95.0502 28.1789 94.0934 27.8979 93.534 28.4573L32.3069 89.6844C32.0699 89.9214 31.9674 90.2614 32.0339 90.5899L47.2831 165.912C47.4414 166.694 48.4063 166.985 48.9703 166.421L111.122 104.269C111.362 104.029 111.464 103.682 111.392 103.35Z" stroke="#F06543" stroke-width="5" stroke-linecap="round"/>
<path d="M95.3056 27.6387L182.991 61.2909C183.288 61.4049 183.513 61.6534 183.597 61.9603L203.954 136.287" stroke="#F06543" stroke-width="5" stroke-linecap="round"/>
<path d="M113.061 103.151L202.963 136.224C203.648 136.476 203.841 137.353 203.325 137.869L141.016 200.179C140.746 200.448 140.347 200.541 139.987 200.418L48.2213 169.209C47.52 168.97 47.3124 168.078 47.8361 167.555L112.008 103.382C112.284 103.107 112.695 103.016 113.061 103.151Z" stroke="#F06543" stroke-width="5" stroke-linecap="round"/>
</svg>
