<svg width="27" height="26" viewBox="0 0 27 26" fill="none" xmlns="http://www.w3.org/2000/svg">
<path d="M14.3898 12.3826C14.7864 12.7792 15.4294 12.7792 15.8261 12.3826L20.135 8.07361C20.5317 7.67701 20.5317 7.03392 20.135 6.63731C19.7384 6.24071 19.0953 6.24066 18.6987 6.63731L14.3898 10.9463C13.9931 11.3429 13.9931 11.9859 14.3898 12.3826Z" fill="url(#paint0_linear_19_1199)"/>
<path d="M2.89904 8.07393C1.71106 9.2619 1.71106 11.1949 2.89904 12.3828C3.27711 12.7609 3.74886 13.0336 4.26323 13.1713L11.0636 14.9928C11.4116 15.086 11.6864 15.3608 11.7796 15.7089L13.601 22.509C13.7388 23.0234 14.0114 23.4952 14.3895 23.8733C15.5802 25.064 17.5075 25.0643 18.6984 23.8733C19.0024 23.5694 19.2344 23.2128 19.3878 22.8138L26.5693 4.14178C27.0014 3.0186 26.7308 1.74318 25.88 0.892339C25.0292 0.0414995 23.7536 -0.229114 22.6306 0.202984L3.95849 7.38452C3.55945 7.53803 3.20296 7.76995 2.89904 8.07393ZM4.33534 9.51022C4.437 9.40856 4.55557 9.33122 4.68766 9.28044L23.3598 2.09885C23.7398 1.95265 24.164 2.04898 24.4437 2.32869C24.7275 2.61245 24.8176 3.0379 24.6735 3.41256V3.41261L17.4919 22.0848C17.4411 22.2168 17.3638 22.3353 17.2621 22.437C16.8653 22.8339 16.2229 22.834 15.8258 22.437C15.6978 22.309 15.6094 22.1565 15.5632 21.9836L13.7417 15.1834C13.4613 14.136 12.638 13.3116 11.589 13.0307L4.78866 11.2092C4.61585 11.1629 4.46336 11.0746 4.33534 10.9465C3.93934 10.5505 3.93934 9.90621 4.33534 9.51022Z" fill="url(#paint1_linear_19_1199)"/>
<path d="M1.06991 25.7029C1.46651 26.0995 2.10956 26.0995 2.50621 25.7029L6.81515 21.3939C7.2118 20.9973 7.2118 20.3542 6.81515 19.9576C6.4185 19.561 5.77545 19.561 5.37885 19.9576L1.06991 24.2666C0.673311 24.6632 0.673311 25.3062 1.06991 25.7029Z" fill="url(#paint2_linear_19_1199)"/>
<path d="M8.25161 25.7026L11.1242 22.83C11.5209 22.4333 11.5209 21.7903 11.1242 21.3937C10.7276 20.9971 10.0845 20.997 9.68791 21.3937L6.81531 24.2663C6.41866 24.6629 6.41866 25.306 6.81531 25.7026C7.21196 26.0992 7.85501 26.0992 8.25161 25.7026Z" fill="url(#paint3_linear_19_1199)"/>
<path d="M1.06991 19.9569C1.46651 20.3535 2.10956 20.3536 2.50621 19.9569L5.3788 17.0844C5.77545 16.6877 5.77545 16.0447 5.3788 15.6481C4.98215 15.2515 4.33911 15.2514 3.94251 15.6481L1.06991 18.5206C0.673311 18.9173 0.673311 19.5603 1.06991 19.9569Z" fill="url(#paint4_linear_19_1199)"/>
<defs>
<linearGradient id="paint0_linear_19_1199" x1="17.2631" y1="6.69748" x2="12.2706" y2="4.60289" gradientUnits="userSpaceOnUse">
<stop stop-color="#222244" stop-opacity="0.75"/>
<stop offset="1" stop-color="#222244" stop-opacity="0.2"/>
</linearGradient>
<linearGradient id="paint1_linear_19_1199" x1="14.393" y1="1.39701" x2="-5.10778" y2="-6.78372" gradientUnits="userSpaceOnUse">
<stop stop-color="#222244" stop-opacity="0.75"/>
<stop offset="1" stop-color="#222244" stop-opacity="0.2"/>
</linearGradient>
<linearGradient id="paint2_linear_19_1199" x1="3.94326" y1="20.0178" x2="-1.04921" y2="17.9232" gradientUnits="userSpaceOnUse">
<stop stop-color="#222244" stop-opacity="0.75"/>
<stop offset="1" stop-color="#222244" stop-opacity="0.2"/>
</linearGradient>
<linearGradient id="paint3_linear_19_1199" x1="8.97031" y1="21.3728" x2="5.10884" y2="19.7527" gradientUnits="userSpaceOnUse">
<stop stop-color="#222244" stop-opacity="0.75"/>
<stop offset="1" stop-color="#222244" stop-opacity="0.2"/>
</linearGradient>
<linearGradient id="paint4_linear_19_1199" x1="3.22493" y1="15.6272" x2="-0.63652" y2="14.0071" gradientUnits="userSpaceOnUse">
<stop stop-color="#222244" stop-opacity="0.75"/>
<stop offset="1" stop-color="#222244" stop-opacity="0.2"/>
</linearGradient>
</defs>
</svg>
