<?xml version="1.0" encoding="utf-8"?>
<!-- Generator: Adobe Illustrator 19.2.1, SVG Export Plug-In . SVG Version: 6.00 Build 0)  -->
<svg version="1.1" id="Calque_1" xmlns="http://www.w3.org/2000/svg" xmlns:xlink="http://www.w3.org/1999/xlink" x="0px" y="0px"
	 viewBox="0 0 922.3 314.7" style="enable-background:new 0 0 922.3 314.7;" xml:space="preserve">
<style type="text/css">
	.st0{fill:#323334;}
	.st1{fill:#AF9751;}
</style>
<g>
	<g>
		<g>
			<path class="st0" d="M598.4,194.8h8.9v-54.7h-8.9V139h14.9c0.7,0,1.5,0,2.2,0c0.7,0,1.5-0.1,2.2-0.1c0.7,0,1.5,0,2.2,0
				c0.7,0,1.5,0,2.2,0c1.6,0,3,0,4.3,0.1c1.3,0.1,2.4,0.1,3.5,0.3c1.1,0.1,2.1,0.3,3.1,0.6c1,0.2,2,0.5,3.2,0.9
				c3.3,1.1,6.1,2.5,8.4,4.3c2.4,1.8,4.3,3.9,5.8,6.2c1.5,2.3,2.6,4.9,3.4,7.7s1.1,5.7,1.1,8.7c0,3.5-0.4,6.7-1.3,9.5
				c-0.9,2.8-2,5.3-3.5,7.4c-1.5,2.2-3.2,4-5.2,5.6s-4.1,2.8-6.4,3.8c-1.3,0.6-2.5,1-3.6,1.4c-1.1,0.3-2.3,0.6-3.5,0.7
				s-2.5,0.3-4,0.3c-1.4,0.1-3.1,0.1-5,0.1c-0.8,0-1.7,0-2.6,0c-0.9,0-1.8-0.1-2.7-0.1c-0.9-0.1-1.8-0.1-2.7-0.1s-1.7,0-2.5,0h-13.6
				L598.4,194.8L598.4,194.8z M615.3,194.8c0.9,0.1,2,0.2,3.2,0.2c1.2,0.1,2.5,0.1,4,0.1c1.8,0,3.6-0.1,5.4-0.3
				c1.8-0.2,3.5-0.6,5.1-1.2c1.6-0.6,3.1-1.5,4.6-2.6s2.7-2.7,3.8-4.5c1.7-2.9,2.9-5.8,3.6-8.8c0.7-3,1-6.3,1-9.9
				c0-4.2-0.4-8-1.2-11.5c-0.8-3.4-2.1-6.4-4-8.8c-1.8-2.4-4.3-4.3-7.3-5.6c-3-1.3-6.8-2-11.3-2c-1.3,0-2.5,0-3.6,0.1
				c-1.1,0.1-2.1,0.1-3.2,0.2L615.3,194.8L615.3,194.8z"/>
			<path class="st0" d="M666.6,167.3c0-4.3,0.8-8.2,2.5-11.8c1.7-3.6,3.8-6.8,6.5-9.4c2.6-2.7,5.6-4.8,8.9-6.3
				c3.3-1.5,6.6-2.3,9.9-2.3c3.5,0,6.9,0.8,10.3,2.3c3.3,1.5,6.3,3.6,8.9,6.3c2.6,2.7,4.7,5.8,6.3,9.4c1.6,3.6,2.4,7.6,2.4,11.8
				c0,3.7-0.7,7.4-2.2,11c-1.4,3.6-3.4,6.7-5.9,9.5c-2.5,2.8-5.5,5-8.8,6.7c-3.4,1.7-7,2.6-10.9,2.6c-4,0-7.7-0.8-11.1-2.5
				c-3.4-1.7-6.4-3.9-8.8-6.6c-2.5-2.7-4.4-5.9-5.8-9.5C667.3,174.9,666.6,171.2,666.6,167.3z M675.8,167.3c0,4.8,0.3,9,1,12.6
				c0.6,3.6,1.7,6.6,3.2,9c1.5,2.4,3.4,4.2,5.8,5.4c2.3,1.2,5.2,1.8,8.7,1.8c3.4,0,6.3-0.6,8.7-1.8c2.4-1.2,4.3-3,5.8-5.4
				c1.5-2.4,2.6-5.4,3.2-9c0.6-3.6,1-7.8,1-12.6c0-3.7-0.2-7.2-0.7-10.7c-0.5-3.4-1.4-6.5-2.8-9.2s-3.3-4.8-5.7-6.4
				c-2.4-1.6-5.6-2.4-9.5-2.4c-3.9,0-7.1,0.8-9.5,2.4c-2.4,1.6-4.3,3.7-5.7,6.4s-2.3,5.8-2.8,9.2C676,160.1,675.8,163.7,675.8,167.3
				z"/>
			<path class="st0" d="M758.2,194.8h8.9v-22.9l-18-31.7h-7.3V139h24.5v1.1h-8l16,28.1l15.1-28.1h-8.1V139h17.1v1.1h-7.8L775,169.3
				v25.5h8.9v1.1h-25.7V194.8z"/>
			<path class="st0" d="M802.2,167.3c0-4.3,0.8-8.2,2.5-11.8c1.7-3.6,3.8-6.8,6.5-9.4c2.6-2.7,5.6-4.8,8.9-6.3
				c3.3-1.5,6.6-2.3,9.9-2.3c3.5,0,6.9,0.8,10.3,2.3c3.3,1.5,6.3,3.6,8.9,6.3c2.6,2.7,4.7,5.8,6.3,9.4c1.6,3.6,2.4,7.6,2.4,11.8
				c0,3.7-0.7,7.4-2.2,11c-1.4,3.6-3.4,6.7-5.9,9.5c-2.5,2.8-5.5,5-8.8,6.7c-3.4,1.7-7,2.6-10.9,2.6c-4,0-7.7-0.8-11.1-2.5
				c-3.4-1.7-6.4-3.9-8.8-6.6c-2.5-2.7-4.4-5.9-5.8-9.5C802.9,174.9,802.2,171.2,802.2,167.3z M811.4,167.3c0,4.8,0.3,9,1,12.6
				c0.6,3.6,1.7,6.6,3.2,9c1.5,2.4,3.4,4.2,5.8,5.4c2.3,1.2,5.2,1.8,8.7,1.8c3.4,0,6.3-0.6,8.7-1.8c2.4-1.2,4.3-3,5.8-5.4
				c1.5-2.4,2.6-5.4,3.2-9c0.6-3.6,1-7.8,1-12.6c0-3.7-0.2-7.2-0.7-10.7c-0.5-3.4-1.4-6.5-2.8-9.2s-3.3-4.8-5.7-6.4
				c-2.4-1.6-5.6-2.4-9.5-2.4c-3.9,0-7.1,0.8-9.5,2.4c-2.4,1.6-4.3,3.7-5.7,6.4s-2.3,5.8-2.8,9.2
				C811.6,160.1,811.4,163.7,811.4,167.3z"/>
			<path class="st0" d="M865,139h25.7v1.1h-8.9v38.6c0,3.2,0.3,5.9,0.8,8.1c0.6,2.2,1.4,4,2.5,5.4s2.5,2.3,4.2,2.9
				c1.7,0.6,3.5,0.9,5.7,0.9c3,0,5.6-0.4,7.9-1.3c2.3-0.9,4.3-2.4,5.9-4.7c0.5-0.7,1-1.4,1.4-2.1c0.4-0.7,0.7-1.5,1-2.4
				c0.3-0.9,0.5-2.1,0.7-3.4c0.2-1.3,0.2-2.9,0.2-4.8v-37.2h-8.9V139h18.9v1.1h-8.9v38.8c0,2.2-0.2,4.3-0.7,6.1s-1.5,3.7-3,5.7
				c-1.4,1.9-3.4,3.5-6,4.6s-5.9,1.8-10.2,1.8c-6.4,0-11.3-1.6-14.7-4.7c-3.4-3.1-5.1-8-5.1-14.5v-37.8H865L865,139L865,139z"/>
		</g>
	</g>
	<g>
		<g>
			<path class="st1" d="M346.2,233.5l0.4-1.6h26.7c4.3,0,8.1,0.6,11.4,1.7c3.3,1.1,6.1,2.6,8.3,4.5c2.3,1.9,4,4.1,5.2,6.6
				c1.2,2.5,1.8,5.2,1.8,8.1c0,4.3-1.2,8.1-3.5,11.4c-2.3,3.2-5.2,6-8.7,8.2c-3.5,2.2-7.4,3.9-11.7,5c-4.3,1.1-8.4,1.7-12.3,1.7
				c-1.7,0-3.5-0.1-5.5-0.3c-1.9-0.2-3.6-0.4-4.9-0.6l-11.8,33.6h12.8l-0.6,1.6h-34.2l0.4-1.6h11.5l27.3-78.3L346.2,233.5
				L346.2,233.5z M358.1,277.1c1.6,0.2,3.3,0.3,5,0.3c3.9,0,7.6-0.8,10.9-2.5c3.3-1.6,6.1-3.8,8.5-6.5c2.3-2.7,4.2-5.8,5.5-9.3
				c1.3-3.5,1.9-7,1.9-10.7c0-5-1.5-8.8-4.4-11.3c-2.9-2.5-7-3.7-12.1-3.7H369l-14.9,43C355.1,276.7,356.5,276.9,358.1,277.1z"/>
			<path class="st1" d="M416.2,233.5l0.7-1.6h27.1c2.6,0,5.3,0.3,8.1,0.9c2.8,0.6,5.3,1.6,7.6,3c2.3,1.4,4.1,3.2,5.6,5.5
				c1.5,2.3,2.2,5,2.2,8.3c0,2.7-0.6,5.1-1.7,7.2c-1.2,2.1-2.6,3.8-4.4,5.2c-1.8,1.4-3.7,2.6-5.9,3.5c-2.2,0.9-4.2,1.7-6.2,2.2
				s-3.8,1-5.5,1.2c-1.6,0.2-2.8,0.4-3.5,0.5l-0.2,0.3c1.2,0.2,2.7,0.5,4.6,0.9c1.9,0.5,3.7,1.2,5.4,2.3c1.7,1.1,3.2,2.5,4.5,4.2
				c1.3,1.8,1.9,4,1.9,6.8c0,1.9-0.2,3.8-0.4,5.5c-0.3,1.8-0.6,3.5-0.9,5.3s-0.7,3.5-0.9,5.2c-0.3,1.8-0.4,3.6-0.4,5.5
				c0,2.1,0.6,3.8,1.7,5.1s2.5,1.9,4.2,1.9c0.6,0,1.2-0.1,1.8-0.2c0.6-0.1,1.1-0.2,1.4-0.4l0.4,1.5c-0.4,0.1-1.1,0.2-2.2,0.3
				c-1.1,0.2-2.2,0.2-3.3,0.2c-2,0-3.8-0.2-5.5-0.6c-1.7-0.4-3.1-1.1-4.4-2.1c-1.3-1-2.2-2.2-3-3.8c-0.7-1.6-1.1-3.5-1.1-5.8
				c0-1.1,0.1-2.6,0.4-4.5c0.3-1.8,0.6-3.8,0.9-5.8c0.3-2,0.6-4,0.8-6c0.3-2,0.4-3.7,0.4-5.1c0-1.4-0.2-2.7-0.6-3.9
				c-0.4-1.3-1.2-2.3-2.3-3.3c-1.1-0.9-2.7-1.6-4.7-2.2c-2-0.5-4.6-0.8-7.8-0.8h-4.6l-14.6,41.7h12.8l-0.6,1.6h-34.2l0.6-1.6h11.4
				l27.2-78.3L416.2,233.5L416.2,233.5z M434.3,268.5c3,0,5.6-0.3,7.9-0.8c2.3-0.5,4.1-1.2,5.3-2.1c1-0.7,2.1-1.6,3.2-2.6
				c1.1-1.1,2.1-2.4,3-3.9c0.9-1.6,1.6-3.4,2.2-5.5c0.6-2.1,0.9-4.6,0.9-7.4c0-4.3-1.3-7.5-3.8-9.6c-2.5-2.1-5.6-3.1-9.4-3.1h-4.7
				l-12.2,35L434.3,268.5L434.3,268.5z"/>
			<path class="st1" d="M488.2,233.5l0.4-1.6h61.9l-6.8,19.5h-1.6c0.3-0.8,0.6-2.1,0.9-3.7c0.3-1.6,0.4-3.1,0.4-4.6
				c0-2.8-0.6-5.1-1.8-6.9c-1.2-1.8-3.6-2.7-7.1-2.7h-23.5l-12.4,35.4h10.5c2.4,0,4.5-0.6,6.3-1.9c1.8-1.3,3.4-2.7,4.7-4.3
				c1.3-1.6,2.4-3.3,3.2-4.9c0.8-1.6,1.4-2.7,1.8-3.4h1.6l-11.7,33.3h-1.6c0.4-0.9,0.7-2.2,1-3.8c0.3-1.6,0.4-3.1,0.4-4.6
				c0-2.9-0.8-5.1-2.4-6.6c-1.6-1.5-3.9-2.2-6.7-2.2h-7.6l-14.4,41.3h26.1c3,0,5.7-0.9,8.3-2.6c2.6-1.8,4.8-3.8,6.8-6.1
				c2-2.3,3.6-4.6,5-6.9c1.3-2.3,2.3-4,2.9-5.1h1.6l-7.8,22.4H462l0.4-1.6h11.5l27.3-78.3L488.2,233.5L488.2,233.5z"/>
			<path class="st1" d="M565,233.5l0.4-1.6h62.9l-6.8,19.5H620c0.2-0.9,0.5-2.3,0.7-4.1c0.3-1.8,0.4-3.5,0.4-5.1
				c0-2.7-0.6-4.8-1.8-6.3c-1.2-1.5-3.6-2.3-7.1-2.3H588l-13.1,37.2h15.8c2.3,0,4.3-0.6,6.1-1.8c1.8-1.2,3.3-2.6,4.6-4.2
				c1.3-1.6,2.3-3.2,3.1-4.8c0.8-1.6,1.4-2.8,1.8-3.7h1.6l-11.6,33.4h-1.6c0.2-0.8,0.5-2,0.8-3.5c0.3-1.5,0.5-3.2,0.5-4.9
				c0-3-0.8-5.3-2.5-6.7c-1.7-1.4-4.3-2.1-8-2.1h-11.2l-13.8,39.5h13l-0.4,1.6h-34.3l0.4-1.6h11.2l27.3-78.3L565,233.5L565,233.5z"
				/>
			<path class="st1" d="M638.7,233.5l0.4-1.6h61.9l-6.8,19.5h-1.6c0.3-0.8,0.6-2.1,0.9-3.7c0.3-1.6,0.4-3.1,0.4-4.6
				c0-2.8-0.6-5.1-1.8-6.9c-1.2-1.8-3.6-2.7-7.1-2.7h-23.5l-12.4,35.4h10.5c2.4,0,4.5-0.6,6.3-1.9c1.8-1.3,3.4-2.7,4.7-4.3
				c1.3-1.6,2.4-3.3,3.2-4.9c0.8-1.6,1.4-2.7,1.8-3.4h1.6l-11.7,33.3H664c0.4-0.9,0.7-2.2,1-3.8c0.3-1.6,0.4-3.1,0.4-4.6
				c0-2.9-0.8-5.1-2.4-6.6c-1.6-1.5-3.9-2.2-6.7-2.2h-7.6l-14.4,41.3h26.1c3,0,5.7-0.9,8.3-2.6c2.6-1.8,4.8-3.8,6.8-6.1
				c2-2.3,3.6-4.6,5-6.9c1.3-2.3,2.3-4,2.9-5.1h1.6l-7.8,22.4h-64.7l0.4-1.6h11.5l27.3-78.3L638.7,233.5L638.7,233.5z"/>
			<path class="st1" d="M715.1,233.5l0.7-1.6h27.1c2.6,0,5.3,0.3,8.1,0.9c2.8,0.6,5.3,1.6,7.6,3c2.3,1.4,4.1,3.2,5.6,5.5
				c1.5,2.3,2.2,5,2.2,8.3c0,2.7-0.6,5.1-1.7,7.2c-1.2,2.1-2.6,3.8-4.4,5.2c-1.8,1.4-3.7,2.6-5.9,3.5c-2.2,0.9-4.2,1.7-6.2,2.2
				s-3.8,1-5.5,1.2c-1.6,0.2-2.8,0.4-3.5,0.5l-0.2,0.3c1.2,0.2,2.7,0.5,4.6,0.9c1.9,0.5,3.7,1.2,5.4,2.3c1.7,1.1,3.2,2.5,4.5,4.2
				c1.3,1.8,1.9,4,1.9,6.8c0,1.9-0.2,3.8-0.4,5.5c-0.3,1.8-0.6,3.5-0.9,5.3s-0.7,3.5-0.9,5.2c-0.3,1.8-0.4,3.6-0.4,5.5
				c0,2.1,0.6,3.8,1.7,5.1s2.5,1.9,4.2,1.9c0.6,0,1.2-0.1,1.8-0.2c0.6-0.1,1.1-0.2,1.4-0.4l0.4,1.5c-0.4,0.1-1.1,0.2-2.2,0.3
				c-1.1,0.2-2.2,0.2-3.3,0.2c-2,0-3.8-0.2-5.5-0.6c-1.7-0.4-3.1-1.1-4.4-2.1c-1.3-1-2.2-2.2-2.9-3.8c-0.7-1.6-1.1-3.5-1.1-5.8
				c0-1.1,0.1-2.6,0.4-4.5c0.3-1.8,0.6-3.8,0.9-5.8c0.3-2,0.6-4,0.8-6c0.3-2,0.4-3.7,0.4-5.1c0-1.4-0.2-2.7-0.6-3.9
				c-0.4-1.3-1.2-2.3-2.3-3.3c-1.1-0.9-2.7-1.6-4.7-2.2c-2-0.5-4.6-0.8-7.8-0.8h-4.6l-14.6,41.7h12.8l-0.6,1.6h-34.2l0.6-1.6h11.4
				l27.2-78.3L715.1,233.5L715.1,233.5z M733.3,268.5c3,0,5.6-0.3,7.9-0.8c2.3-0.5,4.1-1.2,5.3-2.1c1-0.7,2.1-1.6,3.2-2.6
				c1.1-1.1,2.1-2.4,3-3.9c0.9-1.6,1.6-3.4,2.2-5.5c0.6-2.1,0.9-4.6,0.9-7.4c0-4.3-1.3-7.5-3.8-9.6c-2.5-2.1-5.6-3.1-9.4-3.1h-4.7
				l-12.2,35L733.3,268.5L733.3,268.5z"/>
			<path class="st1" d="M804.5,305.6c1-1,2.2-1.5,3.7-1.5c1.5,0,2.7,0.5,3.7,1.5c1,1,1.5,2.3,1.5,3.8c0,1.5-0.5,2.8-1.5,3.8
				s-2.2,1.5-3.7,1.5c-1.5,0-2.7-0.5-3.7-1.5s-1.5-2.2-1.5-3.8C803,307.9,803.5,306.7,804.5,305.6z M814.8,281.7
				c0.6-1.7,1.7-3.5,3.3-5.4l8.7-10.3c3.7-4.3,6.3-8.6,7.7-12.8c1.4-4.2,2.1-7.8,2.1-10.8c0-3.8-1-6.5-3.1-8.1
				c-2-1.6-4.4-2.3-7.1-2.3c-3.8,0-6.3,1-7.7,3c-1.3,2-2,4.7-2,8.2c0,1.1-0.3,2.1-1,3c-0.7,0.8-1.9,1.3-3.6,1.3
				c-1.3,0-2.3-0.5-2.9-1.5c-0.6-1-0.9-2-0.9-2.8c0-1.4,0.4-2.8,1.3-4.3c0.9-1.5,2.1-2.9,3.6-4.1s3.4-2.3,5.6-3.1
				c2.2-0.8,4.7-1.2,7.4-1.2c3,0,5.6,0.4,7.8,1.3c2.3,0.8,4.2,2,5.7,3.4c1.5,1.4,2.7,3.1,3.5,5.1s1.2,4.1,1.2,6.4
				c0,0.9-0.1,2.1-0.2,3.4c-0.2,1.4-0.5,2.9-1.1,4.5c-0.6,1.6-1.5,3.3-2.7,5c-1.2,1.7-2.8,3.4-4.8,5l-8.6,6.5
				c-1.1,0.8-2.3,1.7-3.5,2.6c-1.2,0.9-2.3,2-3.4,3.1c-1.1,1.2-2.1,2.5-2.9,3.9c-0.9,1.5-1.6,3.1-2,4.9l-1.9,7.3h-1.4l1.6-6.2
				C813.8,285,814.3,283.3,814.8,281.7z"/>
		</g>
	</g>
	<g>
		<g>
			<path class="st0" d="M657.9,53.3c0-4.3,0.8-8.2,2.5-11.8c1.7-3.6,3.8-6.8,6.5-9.4c2.6-2.7,5.6-4.8,8.9-6.3
				c3.3-1.5,6.6-2.3,9.9-2.3c3.5,0,6.9,0.8,10.3,2.3c3.3,1.5,6.3,3.6,8.9,6.3c2.6,2.7,4.7,5.8,6.3,9.4c1.6,3.6,2.4,7.6,2.4,11.8
				c0,3.7-0.7,7.4-2.2,11s-3.4,6.7-5.9,9.5c-2.5,2.8-5.5,5-8.8,6.7c-3.4,1.7-7,2.6-10.9,2.6c-4,0-7.7-0.8-11.1-2.5
				c-3.4-1.7-6.4-3.9-8.8-6.6c-2.5-2.7-4.4-5.9-5.8-9.5C658.6,60.9,657.9,57.2,657.9,53.3z M667.1,53.3c0,4.8,0.3,9,1,12.6
				c0.6,3.6,1.7,6.6,3.2,9c1.5,2.4,3.4,4.2,5.8,5.4c2.3,1.2,5.2,1.8,8.7,1.8c3.4,0,6.3-0.6,8.7-1.8c2.4-1.2,4.3-3,5.8-5.4
				c1.5-2.4,2.6-5.4,3.2-9c0.6-3.6,1-7.8,1-12.6c0-3.7-0.2-7.2-0.7-10.7c-0.5-3.4-1.4-6.5-2.8-9.2c-1.4-2.7-3.3-4.8-5.7-6.4
				c-2.4-1.6-5.6-2.4-9.5-2.4c-3.9,0-7.1,0.8-9.5,2.4c-2.4,1.6-4.3,3.7-5.7,6.4c-1.4,2.7-2.3,5.8-2.8,9.2
				C667.3,46.1,667.1,49.6,667.1,53.3z"/>
			<path class="st0" d="M721.4,80.8h8.9V26.1h-8.9v-1.1h45.7v13.8h-0.9c-0.7-2.1-1.4-3.9-2.2-5.5c-0.8-1.6-1.8-2.9-2.9-4
				c-1.1-1.1-2.5-1.9-4-2.4c-1.5-0.5-3.4-0.8-5.6-0.8h-13.3V52h5.2c1.8,0,3.3-0.2,4.5-0.5c1.2-0.3,2.3-0.9,3.2-1.8
				c0.9-0.9,1.6-2.1,2.2-3.6c0.6-1.5,1.2-3.5,1.8-5.9h0.9v24.9h-0.9c-0.4-1.5-0.8-3-1.2-4.5c-0.4-1.4-1-2.7-1.7-3.8s-1.7-2-2.9-2.7
				c-1.2-0.7-2.8-1-4.7-1h-6.5v27.7h8.9v1.1h-25.7L721.4,80.8L721.4,80.8z"/>
		</g>
	</g>
	<g>
		<g>
			<path class="st1" d="M377.8,1.6c-3,0-5.8,0.9-8.3,2.6c-2.5,1.8-4.8,3.8-6.7,6.1c-1.9,2.3-3.5,4.7-4.8,7c-1.3,2.3-2.3,4.1-3,5.2
				h-1.6L361.2,0h67.1l-7.8,22.5H419c0.4-1.5,0.6-3.2,0.8-5c0.1-1.8,0.2-3.7,0.2-5.5c0-2.9-0.8-5.4-2.3-7.4c-1.5-2-4.2-3-8-3h-11
				l-27.3,78.3h12.7l-0.4,1.6h-34.4l0.4-1.6h11.7l27.3-78.3L377.8,1.6L377.8,1.6z"/>
			<path class="st1" d="M450.2,44.5l-7.9-42.9h-12.1l0.4-1.6h34.3l-0.4,1.6h-12.4l7.2,39.2l34-39.2h-10.9l0.4-1.6h21.8l-0.4,1.6
				h-8.7l-35.4,41.1l-13,37.2h12.8l-0.4,1.6H425l0.4-1.6h12.5L450.2,44.5z"/>
			<path class="st1" d="M508.1,1.6l0.4-1.6h26.7c4.3,0,8.1,0.6,11.4,1.7c3.3,1.1,6.1,2.6,8.3,4.5c2.3,1.9,4,4.1,5.2,6.6
				c1.2,2.5,1.8,5.2,1.8,8.1c0,4.3-1.2,8.1-3.5,11.4c-2.3,3.2-5.2,6-8.7,8.2c-3.5,2.2-7.4,3.9-11.7,5c-4.3,1.1-8.4,1.7-12.3,1.7
				c-1.7,0-3.5-0.1-5.5-0.3c-1.9-0.2-3.6-0.4-4.9-0.6l-11.8,33.6h12.8l-0.6,1.6h-34.2l0.4-1.6h11.5l27.3-78.3L508.1,1.6L508.1,1.6z
				 M520,45.2c1.6,0.2,3.3,0.3,5,0.3c3.9,0,7.6-0.8,10.9-2.5c3.3-1.6,6.1-3.8,8.5-6.5c2.3-2.7,4.2-5.8,5.5-9.3
				c1.3-3.5,1.9-7,1.9-10.7c0-5-1.5-8.8-4.4-11.3c-2.9-2.5-7-3.7-12.1-3.7h-4.3l-14.9,43C517,44.8,518.3,45,520,45.2z"/>
			<path class="st1" d="M578,1.6l0.4-1.6h61.9l-6.8,19.5H632c0.3-0.8,0.6-2.1,0.9-3.7c0.3-1.6,0.4-3.1,0.4-4.6
				c0-2.8-0.6-5.1-1.8-6.9c-1.2-1.8-3.6-2.7-7.1-2.7h-23.5L588.5,37H599c2.4,0,4.5-0.6,6.3-1.9c1.8-1.3,3.4-2.7,4.7-4.3
				c1.3-1.6,2.4-3.3,3.2-4.9c0.8-1.6,1.4-2.7,1.8-3.4h1.6l-11.7,33.3h-1.6c0.4-0.9,0.7-2.2,1-3.8c0.3-1.6,0.4-3.1,0.4-4.6
				c0-2.9-0.8-5.1-2.4-6.6c-1.6-1.5-3.9-2.2-6.7-2.2H588l-14.4,41.3h26.1c3,0,5.7-0.9,8.3-2.6c2.6-1.8,4.8-3.8,6.8-6.1
				c2-2.3,3.6-4.6,5-6.9s2.3-4,2.9-5.1h1.6l-7.8,22.4h-64.7l0.4-1.6h11.5l27.3-78.3L578,1.6L578,1.6z"/>
		</g>
	</g>
	<g>
		<g>
			<path class="st1" d="M208.9,176.8c-0.4,1.1-0.7,2.2-1,3.3c-0.3,1-0.4,2.2-0.4,3.5c0,2.6,0.6,4.9,1.8,6.9c1.2,2,2.7,3.6,4.7,4.9
				c1.9,1.3,4.1,2.3,6.5,3c2.4,0.7,4.8,1,7.2,1c3.3,0,6.2-0.5,8.8-1.4c2.6-1,4.8-2.3,6.6-4c1.8-1.7,3.1-3.7,4.1-6.1
				c0.9-2.3,1.4-4.9,1.4-7.6c0-2.8-0.6-5.3-1.8-7.5c-1.2-2.2-2.9-4.3-5.1-6.4l-7.9-7.4c-3.6-3.3-6.4-6.5-8.4-9.8
				c-2-3.2-3.1-6.9-3.1-11c0-3.2,0.7-6.1,2.1-8.8c1.4-2.7,3.3-5,5.7-6.9c2.4-1.9,5.1-3.4,8.2-4.5c3.1-1.1,6.3-1.6,9.5-1.6
				c2.3,0,4.3,0.2,6.1,0.6c1.7,0.4,3.3,0.9,4.8,1.4c1.4,0.5,2.8,1,4,1.4c1.2,0.4,2.5,0.6,3.7,0.6c1.1,0,2-0.3,2.6-0.8
				c0.6-0.5,1.1-1.3,1.4-2.2l1.7,0.3l-7.7,21.9h-1.3c0.1-0.6,0.4-1.5,0.6-2.6c0.3-1.1,0.4-2.5,0.4-4.2c0-2.7-0.4-5.1-1.3-7
				c-0.9-1.9-2.1-3.5-3.6-4.6c-1.5-1.2-3.2-2-5.2-2.6c-2-0.5-4-0.8-6.2-0.8c-2.7,0-5.1,0.4-7.3,1.1c-2.2,0.8-4.1,1.8-5.7,3.1
				c-1.6,1.3-2.8,2.9-3.7,4.7c-0.9,1.8-1.3,3.9-1.3,6.1c0,3.3,0.9,6.1,2.7,8.5s3.8,4.6,6,6.7l9.9,9.2c2.7,2.4,5,5.2,6.8,8.2
				c1.9,3.1,2.8,6.4,2.8,10.2c0,2.9-0.7,5.8-1.9,8.8c-1.3,3-3.2,5.7-5.8,8.1c-2.6,2.4-5.8,4.4-9.6,5.9c-3.9,1.5-8.3,2.3-13.5,2.3
				c-2.7,0-5-0.2-7.1-0.7c-2-0.5-3.9-1-5.6-1.6c-1.7-0.6-3.2-1.1-4.7-1.6c-1.4-0.5-2.9-0.7-4.3-0.7c-1,0-1.9,0.4-2.7,1.1
				c-0.8,0.7-1.3,1.5-1.4,2.5l-1.6-0.3l7.8-22.7L208.9,176.8L208.9,176.8z"/>
			<path class="st1" d="M326.4,197.8l27.4-78.3h-0.2l-53.7,79.9l1.6-79.9h-0.3L274,197.8h12.7l-0.4,1.6h-25.8l0.4-1.6h11.5
				l27.3-78.3h-12.8l0.4-1.6h23.8l-1.3,63.5h0.2l42.6-63.5h23l-0.4,1.6h-11.5l-27.3,78.3h12.7l-0.4,1.6h-34.4l0.4-1.6L326.4,197.8
				L326.4,197.8z"/>
			<path class="st1" d="M382.4,119.5l0.4-1.6h61.9l-6.8,19.5h-1.6c0.3-0.8,0.6-2.1,0.9-3.7c0.3-1.6,0.4-3.1,0.4-4.6
				c0-2.8-0.6-5.1-1.8-6.9c-1.2-1.8-3.6-2.7-7.1-2.7h-23.5l-12.4,35.4h10.5c2.4,0,4.5-0.6,6.3-1.9c1.8-1.3,3.4-2.7,4.7-4.3
				c1.3-1.6,2.4-3.3,3.2-4.9c0.8-1.6,1.4-2.7,1.8-3.4h1.6l-11.7,33.3h-1.6c0.4-0.9,0.7-2.2,1-3.8c0.3-1.6,0.4-3.1,0.4-4.6
				c0-2.9-0.8-5.1-2.4-6.6c-1.6-1.5-3.9-2.2-6.7-2.2h-7.6L378,197.8h26.1c3,0,5.7-0.9,8.3-2.6c2.6-1.8,4.8-3.8,6.8-6.1
				c2-2.3,3.6-4.6,5-6.9c1.3-2.3,2.3-4,2.9-5.1h1.6l-7.8,22.4h-64.7l0.4-1.6H368l27.3-78.3L382.4,119.5L382.4,119.5z"/>
			<path class="st1" d="M458.8,119.5l0.4-1.6h34.5l-0.4,1.6h-11.7l-27.3,78.3h26.1c2.9,0,5.6-0.9,8.1-2.6c2.5-1.7,4.8-3.7,6.7-6.1
				c2-2.3,3.6-4.7,5-7c1.4-2.3,2.4-4.1,3.1-5.2h1.6l-7.8,22.4h-64.7l0.4-1.6h11.5l27.3-78.3L458.8,119.5L458.8,119.5z"/>
			<path class="st1" d="M529,119.5l0.4-1.6h34.5l-0.4,1.6h-11.7l-27.3,78.3h26.1c2.9,0,5.6-0.9,8.1-2.6c2.5-1.7,4.8-3.7,6.7-6.1
				c2-2.3,3.6-4.7,5-7c1.4-2.3,2.4-4.1,3.1-5.2h1.6l-7.8,22.4h-64.7l0.4-1.6h11.5l27.3-78.3L529,119.5L529,119.5z"/>
		</g>
	</g>
	<g>
		<g>
			<path class="st0" d="M0,29.7h24.1v1.1h-8.3l16.5,46.4h0.2L43,47.6l-6.1-16.9h-6.7v-1.1h24v1.1h-8.7L62,77.1h0.2l16.8-46.4h-8.6
				v-1.1h17.1v1.1h-7.2l-20.7,57h-2L43.8,49.4h-0.2L29.7,87.8h-2.2l-20.4-57H0L0,29.7L0,29.7z"/>
			<path class="st0" d="M89.1,85.5H98V30.8h-8.9v-1.1h25.7v1.1h-8.9v26.1h26.6V30.8h-8.9v-1.1h25.7v1.1h-8.9v54.7h8.9v1.1h-25.7
				v-1.1h8.9V58h-26.6v27.4h8.9v1.1H89.1V85.5z"/>
			<path class="st0" d="M154.5,85.5h8.9V30.8h-8.9v-1.1h25.7v1.1h-8.9v54.7h8.9v1.1h-25.7V85.5z"/>
			<path class="st0" d="M236.5,86.6h-1.2c-0.4-0.4-0.8-0.8-1.3-1.2c-0.5-0.3-1.2-0.5-2.2-0.5c-0.8,0-1.7,0.1-2.6,0.4
				c-0.9,0.3-2,0.6-3.2,1c-1.2,0.4-2.5,0.7-4,1c-1.5,0.3-3.1,0.4-5,0.4c-3.4,0-6.6-0.6-9.8-1.8c-3.2-1.2-6.2-3.2-9-6
				c-2.6-2.6-4.8-5.7-6.6-9.3c-1.8-3.6-2.6-7.7-2.6-12.4c0-4,0.7-7.8,2.2-11.4c1.4-3.6,3.4-6.8,6-9.6c2.6-2.8,5.6-5,9-6.6
				c3.5-1.6,7.2-2.4,11.4-2.4c1.7,0,3.1,0.2,4.4,0.5c1.3,0.3,2.4,0.7,3.4,1.1c1,0.4,1.9,0.8,2.8,1.1c0.9,0.3,1.7,0.5,2.5,0.5
				c1.1,0,1.8-0.2,2.3-0.5c0.5-0.3,0.9-0.7,1.2-1.2h1.2v16h-0.9c-0.5-2-1.1-4-1.8-6c-0.7-2-1.8-3.7-3.1-5.2c-1.3-1.5-3-2.7-5.1-3.7
				c-2.1-0.9-4.6-1.4-7.6-1.4c-2.8,0-5.3,0.4-7.3,1.3c-2,0.9-3.7,2.1-5.1,3.5c-1.4,1.5-2.5,3.2-3.3,5.1c-0.8,1.9-1.5,4-1.9,6.2
				c-0.4,2.2-0.7,4.3-0.8,6.6c-0.1,2.2-0.2,4.3-0.2,6.3c0,5.6,0.5,10.2,1.4,13.9c0.9,3.7,2.2,6.6,3.8,8.7c1.6,2.1,3.6,3.6,5.9,4.5
				c2.3,0.9,4.8,1.3,7.6,1.3c3.6,0,6.4-0.5,8.6-1.5c2.2-1,3.9-2.3,5.3-4c1.3-1.6,2.3-3.5,3-5.5c0.7-2.1,1.3-4.1,1.8-6.1h0.9
				L236.5,86.6L236.5,86.6z"/>
			<path class="st0" d="M243,85.5h8.9V30.8H243v-1.1h25.7v1.1h-8.9v26.1h26.6V30.8h-8.9v-1.1h25.7v1.1h-8.9v54.7h8.9v1.1h-25.7v-1.1
				h8.9V58h-26.6v27.4h8.9v1.1H243V85.5z"/>
		</g>
	</g>
</g>
</svg>
