<?xml version="1.0" encoding="utf-8"?>
<!-- Generator: Adobe Illustrator 19.2.1, SVG Export Plug-In . SVG Version: 6.00 Build 0)  -->
<svg version="1.1" id="Calque_1" xmlns="http://www.w3.org/2000/svg" xmlns:xlink="http://www.w3.org/1999/xlink" x="0px" y="0px"
	 viewBox="0 0 1559.3 388.7" style="enable-background:new 0 0 1559.3 388.7;" xml:space="preserve">
<style type="text/css">
	.st0{fill:#323334;}
	.st1{fill:#AF9751;}
</style>
<g>
	<g>
		<g>
			<path class="st0" d="M134.2,361.5h8.9v-54.7h-4.6c-1.1,0-2.3,0.1-3.6,0.3c-1.3,0.2-2.7,0.7-4,1.6c-1.4,0.9-2.7,2.2-3.9,4
				c-1.3,1.8-2.3,4.4-3.2,7.6h-0.9v-14.6h48.6v14.6h-0.9c-0.9-3.3-2-5.8-3.2-7.6c-1.3-1.8-2.6-3.2-3.9-4s-2.7-1.4-4-1.6
				c-1.3-0.2-2.5-0.3-3.6-0.3h-4.6v54.7h8.9v1.1h-25.7L134.2,361.5L134.2,361.5z"/>
			<path class="st0" d="M176.8,361.5h8.9v-54.7h-8.9v-1.1h25.7v1.1h-8.9v26.1h26.6v-26.1h-8.9v-1.1h25.7v1.1h-8.9v54.7h8.9v1.1
				h-25.7v-1.1h8.9V334h-26.6v27.4h8.9v1.1h-25.7V361.5z"/>
			<path class="st0" d="M242,361.5h8.9v-54.7H242v-1.1h15.2c0.6,0,1.3,0,1.9,0c0.6,0,1.3-0.1,1.9-0.1c0.6,0,1.3,0,1.9,0
				c0.6,0,1.3,0,1.9,0c3.1,0,5.9,0.2,8.3,0.5c2.4,0.3,4.6,1.3,6.7,3c1.9,1.4,3.2,3.1,4,4.9c0.8,1.8,1.2,3.5,1.2,5.1
				c0,0.8-0.1,1.8-0.4,3.1c-0.3,1.3-0.9,2.5-1.9,3.8c-1,1.3-2.4,2.5-4.3,3.6c-1.9,1.1-4.3,1.8-7.4,2.2v0.2c0.9,0.1,2,0.3,3.5,0.6
				c1.5,0.3,3,0.8,4.5,1.5c1.5,0.7,2.9,1.6,4.2,2.8s2.2,2.6,2.7,4.4c0.3,1.1,0.5,2.3,0.7,3.6c0.1,1.4,0.2,2.8,0.3,4.2
				c0.1,1.4,0.2,2.8,0.2,4.2c0.1,1.3,0.2,2.5,0.4,3.4c0.3,1.4,0.8,2.6,1.5,3.8c0.7,1.1,1.8,1.7,3.4,1.7c0.7,0,1.4-0.1,2.2-0.4
				c0.7-0.3,1.4-0.7,2-1.3l0.7,0.9c-0.3,0.2-0.6,0.4-0.9,0.7s-0.8,0.5-1.3,0.7c-0.5,0.2-1.2,0.4-2,0.5c-0.8,0.1-1.7,0.2-2.8,0.2
				c-2.1,0-3.9-0.3-5.3-0.8c-1.4-0.5-2.5-1.3-3.4-2.4c-0.9-1-1.5-2.3-1.9-3.8c-0.4-1.5-0.7-3.3-0.8-5.3l-0.6-7.3
				c-0.2-2.7-0.7-4.7-1.6-6.2c-0.9-1.5-1.9-2.6-3-3.3c-1.1-0.7-2.3-1.1-3.6-1.2c-1.2-0.1-2.3-0.2-3.2-0.2h-8v28.9h8.9v1.1H242
				L242,361.5L242,361.5z M258.8,331.5h7.4c1.5,0,2.9-0.2,4.1-0.6c1.2-0.4,2.3-1,3.2-2c0.9-0.9,1.6-2.2,2-3.8
				c0.5-1.6,0.7-3.6,0.7-6.1c0-2.8-0.4-5-1.1-6.7c-0.7-1.7-1.7-2.9-2.8-3.8c-1.1-0.9-2.4-1.4-3.8-1.7c-1.4-0.3-2.8-0.4-4.2-0.4
				c-1,0-1.9,0-2.9,0c-1,0-1.8,0.1-2.5,0.2L258.8,331.5L258.8,331.5z"/>
			<path class="st0" d="M302.7,334c0-4.3,0.8-8.2,2.5-11.8c1.7-3.6,3.8-6.8,6.5-9.4c2.6-2.7,5.6-4.8,8.9-6.3
				c3.3-1.5,6.6-2.3,9.9-2.3c3.5,0,6.9,0.8,10.3,2.3c3.3,1.5,6.3,3.6,8.9,6.3c2.6,2.7,4.7,5.8,6.3,9.4c1.6,3.6,2.4,7.6,2.4,11.8
				c0,3.7-0.7,7.4-2.2,11c-1.4,3.6-3.4,6.7-5.9,9.5c-2.5,2.8-5.5,5-8.8,6.7c-3.4,1.7-7,2.6-10.9,2.6c-4,0-7.7-0.8-11.1-2.5
				c-3.4-1.7-6.4-3.9-8.8-6.6c-2.5-2.7-4.4-5.9-5.8-9.5C303.4,341.6,302.7,337.9,302.7,334z M311.9,334c0,4.8,0.3,9,1,12.6
				c0.6,3.6,1.7,6.6,3.2,9c1.5,2.4,3.4,4.2,5.8,5.4c2.3,1.2,5.2,1.8,8.7,1.8c3.4,0,6.3-0.6,8.7-1.8c2.4-1.2,4.3-3,5.8-5.4
				c1.5-2.4,2.6-5.4,3.2-9c0.6-3.6,1-7.8,1-12.6c0-3.7-0.2-7.2-0.7-10.7c-0.5-3.4-1.4-6.5-2.8-9.2c-1.4-2.7-3.3-4.8-5.7-6.4
				c-2.4-1.6-5.6-2.4-9.5-2.4c-3.9,0-7.1,0.8-9.5,2.4c-2.4,1.6-4.3,3.7-5.7,6.4c-1.4,2.7-2.3,5.8-2.8,9.2
				C312.2,326.8,311.9,330.4,311.9,334z"/>
			<path class="st0" d="M365.5,305.7h25.7v1.1h-8.9v38.6c0,3.2,0.3,5.9,0.8,8.1c0.6,2.2,1.4,4,2.5,5.4s2.5,2.3,4.2,2.9
				c1.7,0.6,3.5,0.9,5.7,0.9c3,0,5.6-0.4,7.9-1.3s4.3-2.4,5.9-4.7c0.5-0.7,1-1.4,1.4-2.1c0.4-0.7,0.7-1.5,1-2.4
				c0.3-0.9,0.5-2.1,0.7-3.4c0.2-1.3,0.2-2.9,0.2-4.8v-37.2h-8.9v-1.1h19v1.1H414v38.8c0,2.2-0.2,4.3-0.7,6.1
				c-0.5,1.8-1.5,3.7-3,5.7c-1.4,1.9-3.4,3.5-6,4.6s-5.9,1.8-10.2,1.8c-6.4,0-11.3-1.6-14.7-4.7c-3.4-3.1-5.1-8-5.1-14.5v-37.8h-8.9
				L365.5,305.7L365.5,305.7z"/>
			<path class="st0" d="M486.4,342.2H480v18.2h-1c-0.6-0.6-1.1-1-1.4-1.2c-0.4-0.2-1-0.3-1.8-0.3c-1,0-1.9,0.3-2.9,0.8
				c-1,0.5-2.1,1.1-3.4,1.7c-1.3,0.6-2.8,1.2-4.6,1.7s-3.9,0.8-6.4,0.8c-3.8,0-7.1-0.6-10.1-1.9c-2.9-1.3-5.8-3.2-8.5-6
				c-2.7-2.7-4.9-5.8-6.6-9.4c-1.8-3.6-2.6-7.7-2.6-12.2c0-3,0.3-5.8,1-8.2c0.7-2.4,1.5-4.5,2.5-6.4c1-1.8,2-3.3,3-4.6
				c1-1.2,1.9-2.2,2.6-2.9c2.4-2.4,5.1-4.3,8.2-5.8c3.1-1.5,6.6-2.2,10.6-2.2c2,0,3.7,0.2,5,0.5c1.3,0.3,2.4,0.7,3.4,1.1
				c1,0.4,1.8,0.8,2.6,1.1c0.8,0.3,1.6,0.5,2.6,0.5c1.1,0,1.8-0.1,2.3-0.4c0.5-0.3,0.9-0.7,1.3-1.2h1.2v16h-0.9
				c-0.2-1.4-0.6-3-1.2-4.9c-0.6-1.9-1.6-3.7-2.9-5.4c-1.3-1.7-3-3.1-5.2-4.3s-4.9-1.8-8.3-1.8c-4,0-7.2,0.8-9.6,2.5
				c-2.4,1.7-4.3,3.9-5.7,6.6c-1.4,2.7-2.3,5.9-2.7,9.3c-0.5,3.5-0.7,7-0.7,10.5c0,2.4,0.1,4.8,0.3,7.2s0.6,4.7,1.1,6.8
				c0.5,2.1,1.2,4.1,2.1,5.9c0.9,1.8,2.1,3.4,3.5,4.6c1.6,1.4,3.3,2.4,5,3c1.7,0.6,3.9,0.8,6.6,0.8c1.7,0,3.3-0.3,5-0.8
				c1.7-0.6,3.1-1.4,4.4-2.5c1.3-1.1,2.4-2.5,3.2-4.3c0.8-1.7,1.2-3.8,1.2-6.1v-6.7H462v-1.1h24.4L486.4,342.2L486.4,342.2z"/>
			<path class="st0" d="M490.6,361.5h8.9v-54.7h-8.9v-1.1h25.7v1.1h-8.9v26.1h26.6v-26.1h-8.9v-1.1h25.7v1.1h-8.9v54.7h8.9v1.1
				h-25.7v-1.1h8.9V334h-26.6v27.4h8.9v1.1h-25.7V361.5z"/>
			<path class="st0" d="M567.8,361.5h8.9v-54.7H572c-1.1,0-2.3,0.1-3.6,0.3c-1.3,0.2-2.7,0.7-4,1.6c-1.4,0.9-2.7,2.2-3.9,4
				c-1.3,1.8-2.3,4.4-3.2,7.6h-0.9v-14.6H605v14.6h-0.9c-0.9-3.3-2-5.8-3.2-7.6c-1.3-1.8-2.6-3.2-3.9-4s-2.7-1.4-4-1.6
				c-1.3-0.2-2.5-0.3-3.6-0.3h-4.6v54.7h8.9v1.1h-25.7L567.8,361.5L567.8,361.5z"/>
		</g>
	</g>
	<g>
		<path class="st1" d="M827.6,209.9c-3,0-5.8,0.8-8.3,2.5c-2.5,1.7-4.7,3.7-6.6,5.9c-1.9,2.2-3.5,4.5-4.8,6.7
			c-1.3,2.2-2.3,3.9-2.9,5h-1.5l7.7-21.7h66.5l-7.7,21.7h-1.5c0.4-1.5,0.6-3.1,0.8-4.9c0.1-1.8,0.2-3.5,0.2-5.3
			c0-2.8-0.8-5.2-2.3-7.1c-1.5-1.9-4.1-2.9-7.9-2.9h-10.9l-27,75.5h12.6l-0.4,1.5h-34.1l0.4-1.5h11.6l27-75.5L827.6,209.9
			L827.6,209.9z"/>
		<path class="st1" d="M876.1,244.3c1.3-4.1,3.1-8,5.4-11.8c2.2-3.7,4.9-7.1,8-10.3c3.1-3.1,6.4-5.8,9.9-8.1
			c3.5-2.3,7.1-4.1,10.9-5.4c3.8-1.3,7.5-1.9,11.1-1.9c4.8,0,8.8,1,12.1,2.9c3.3,1.9,5.9,4.5,7.9,7.6c2,3.1,3.5,6.5,4.4,10.3
			c0.9,3.8,1.3,7.5,1.3,11.2c0,4-0.6,8-1.8,12c-1.2,4-2.9,7.8-5.1,11.5c-2.2,3.6-4.8,7-7.8,10.2c-3,3.2-6.3,5.9-9.8,8.3
			c-3.5,2.4-7.3,4.2-11.2,5.5c-3.9,1.3-8,2-12.1,2c-3.7,0-7.1-0.7-10.1-2c-3.1-1.4-5.7-3.4-7.9-6c-2.2-2.6-3.9-5.9-5.2-9.9
			c-1.3-3.9-1.9-8.5-1.9-13.6C874.1,252.6,874.8,248.4,876.1,244.3z M883.3,276.1c0.5,2.1,1.4,4,2.8,5.6c1.3,1.6,3.1,2.9,5.4,3.8
			c2.2,1,5.1,1.4,8.6,1.4c4.3,0,8.3-1.1,11.9-3.3c3.6-2.2,6.8-5.1,9.6-8.6c2.8-3.5,5.3-7.5,7.4-11.9c2.1-4.4,3.9-8.9,5.2-13.4
			c1.4-4.5,2.4-8.8,3.1-12.9c0.7-4.1,1-7.5,1-10.3c0-5.7-1.4-10.2-4.1-13.4c-2.7-3.2-7.1-4.7-13-4.7c-4.1,0-7.9,1.1-11.4,3.2
			c-3.5,2.1-6.7,4.9-9.5,8.4s-5.4,7.4-7.6,11.7c-2.2,4.4-4,8.8-5.5,13.4c-1.5,4.5-2.6,8.9-3.4,13.2c-0.8,4.3-1.2,8-1.2,11.1
			C882.5,271.8,882.8,274,883.3,276.1z"/>
		<path class="st1" d="M996.7,209.9l0.4-1.5h62.3l-6.7,18.8h-1.5c0.2-0.9,0.5-2.2,0.7-4c0.3-1.8,0.4-3.4,0.4-5
			c0-2.6-0.6-4.6-1.8-6.1c-1.2-1.5-3.5-2.2-7.1-2.2h-24.1l-13,35.9h15.7c2.3,0,4.3-0.6,6.1-1.8c1.8-1.2,3.3-2.5,4.5-4.1
			c1.2-1.5,2.3-3.1,3.1-4.6c0.8-1.5,1.4-2.7,1.8-3.5h1.5l-11.5,32.2h-1.5c0.2-0.8,0.5-1.9,0.8-3.4c0.3-1.5,0.5-3.1,0.5-4.7
			c0-2.9-0.8-5.1-2.5-6.5c-1.7-1.4-4.3-2-7.9-2h-11.1l-13.7,38.1h12.9l-0.4,1.5h-34l0.4-1.5h11.1l27-75.5L996.7,209.9L996.7,209.9z"
			/>
		<path class="st1" d="M1069.7,209.9l0.4-1.5h61.3l-6.7,18.8h-1.5c0.3-0.8,0.6-2,0.9-3.5c0.3-1.5,0.4-3,0.4-4.4
			c0-2.7-0.6-4.9-1.8-6.7c-1.2-1.7-3.5-2.6-7.1-2.6h-23.3l-12.2,34.1h10.4c2.4,0,4.4-0.6,6.2-1.8c1.8-1.2,3.3-2.6,4.6-4.2
			c1.3-1.6,2.3-3.1,3.1-4.7c0.8-1.5,1.4-2.6,1.8-3.3h1.5l-11.6,32.1h-1.5c0.4-0.9,0.7-2.1,1-3.6c0.3-1.5,0.4-3,0.4-4.4
			c0-2.8-0.8-4.9-2.4-6.3c-1.6-1.4-3.8-2.2-6.6-2.2h-7.5l-14.2,39.8h25.8c2.9,0,5.7-0.8,8.2-2.5c2.5-1.7,4.8-3.7,6.7-5.9
			c1.9-2.2,3.6-4.5,4.9-6.7c1.3-2.2,2.3-3.9,2.9-5h1.5l-7.7,21.6h-64.1l0.4-1.5h11.4l27-75.5L1069.7,209.9L1069.7,209.9z"/>
		<path class="st1" d="M1145.3,209.9l0.4-1.5h61.3l-6.7,18.8h-1.5c0.3-0.8,0.6-2,0.9-3.5c0.3-1.5,0.4-3,0.4-4.4
			c0-2.7-0.6-4.9-1.8-6.7c-1.2-1.7-3.5-2.6-7.1-2.6H1168l-12.2,34.1h10.4c2.4,0,4.4-0.6,6.2-1.8c1.8-1.2,3.3-2.6,4.6-4.2
			c1.3-1.6,2.3-3.1,3.1-4.7c0.8-1.5,1.4-2.6,1.8-3.3h1.5l-11.6,32.1h-1.5c0.4-0.9,0.7-2.1,1-3.6c0.3-1.5,0.4-3,0.4-4.4
			c0-2.8-0.8-4.9-2.4-6.3c-1.6-1.4-3.8-2.2-6.6-2.2h-7.5l-14.2,39.8h25.8c2.9,0,5.7-0.8,8.2-2.5c2.5-1.7,4.8-3.7,6.7-5.9
			c1.9-2.2,3.6-4.5,4.9-6.7c1.3-2.2,2.3-3.9,2.9-5h1.5l-7.7,21.6h-64.1l0.4-1.5h11.4l27-75.5L1145.3,209.9L1145.3,209.9z"/>
		<path class="st1" d="M1221.1,209.9l0.4-1.5h34.2l-0.4,1.5h-11.6l-27,75.5h25.8c2.9,0,5.6-0.8,8.1-2.5c2.5-1.7,4.7-3.6,6.7-5.8
			c1.9-2.2,3.6-4.5,5-6.7c1.4-2.2,2.4-3.9,3-5h1.5l-7.7,21.6H1195l0.4-1.5h11.4l27-75.5L1221.1,209.9L1221.1,209.9z"/>
	</g>
	<g>
		<g>
			<path class="st0" d="M23.4,207.6h24.1v1.1h-8.3l16.5,46.4h0.2l10.6-29.5l-6.1-16.9h-6.7v-1.1h24v1.1h-8.7l16.5,46.4h0.2
				l16.8-46.4h-8.6v-1.1h17.1v1.1h-7.2l-20.7,57h-2l-13.8-38.4h-0.2l-13.9,38.4H51l-20.4-57h-7.2L23.4,207.6L23.4,207.6z"/>
			<path class="st0" d="M114.1,236c0-4.3,0.8-8.2,2.5-11.8c1.7-3.6,3.8-6.8,6.5-9.4c2.6-2.7,5.6-4.8,8.9-6.3
				c3.3-1.5,6.6-2.3,9.9-2.3c3.5,0,6.9,0.8,10.3,2.3c3.3,1.5,6.3,3.6,8.9,6.3c2.6,2.7,4.7,5.8,6.3,9.4c1.6,3.6,2.4,7.6,2.4,11.8
				c0,3.7-0.7,7.4-2.2,11c-1.4,3.6-3.4,6.7-5.9,9.5c-2.5,2.8-5.5,5-8.8,6.7c-3.4,1.7-7,2.6-10.9,2.6c-4,0-7.7-0.8-11.1-2.5
				c-3.4-1.7-6.4-3.9-8.8-6.6c-2.5-2.7-4.4-5.9-5.8-9.5C114.8,243.6,114.1,239.8,114.1,236z M123.3,236c0,4.8,0.3,9,1,12.6
				c0.6,3.6,1.7,6.6,3.2,9c1.5,2.4,3.4,4.2,5.8,5.4c2.3,1.2,5.2,1.8,8.7,1.8c3.4,0,6.3-0.6,8.7-1.8c2.4-1.2,4.3-3,5.8-5.4
				c1.5-2.4,2.6-5.4,3.2-9c0.6-3.6,1-7.8,1-12.6c0-3.7-0.2-7.2-0.7-10.7c-0.5-3.4-1.4-6.5-2.8-9.2c-1.4-2.7-3.3-4.8-5.7-6.4
				c-2.4-1.6-5.6-2.4-9.5-2.4c-3.9,0-7.1,0.8-9.5,2.4c-2.4,1.6-4.3,3.7-5.7,6.4c-1.4,2.7-2.3,5.8-2.8,9.2
				C123.5,228.8,123.3,232.3,123.3,236z"/>
			<path class="st0" d="M176.9,207.6h25.7v1.1h-8.9v38.6c0,3.2,0.3,5.9,0.8,8.1c0.6,2.2,1.4,4,2.5,5.4s2.5,2.3,4.2,2.9
				c1.7,0.6,3.5,0.9,5.7,0.9c3,0,5.6-0.4,7.9-1.3s4.3-2.4,5.9-4.7c0.5-0.7,1-1.4,1.4-2.1c0.4-0.7,0.7-1.5,1-2.4
				c0.3-0.9,0.5-2.1,0.7-3.4c0.2-1.3,0.2-2.9,0.2-4.8v-37.2h-8.9v-1.1h19v1.1h-8.9v38.8c0,2.2-0.2,4.3-0.7,6.1
				c-0.5,1.8-1.5,3.7-3,5.7c-1.4,1.9-3.4,3.5-6,4.6s-5.9,1.8-10.2,1.8c-6.4,0-11.3-1.6-14.7-4.7c-3.4-3.1-5.1-8-5.1-14.5v-37.8h-8.9
				L176.9,207.6L176.9,207.6z"/>
			<path class="st0" d="M238.3,263.4h8.9v-54.7h-8.9v-1.1H264v1.1h-8.9v54.7h14.2c4.7,0,8.4-1.5,11-4.4c2.7-2.9,4.6-6.9,5.8-12h0.9
				v17.5h-48.9L238.3,263.4L238.3,263.4z"/>
			<path class="st0" d="M293,263.4h8.9v-54.7H293v-1.1h14.9c0.7,0,1.5,0,2.2,0c0.7,0,1.5-0.1,2.2-0.1c0.7,0,1.5,0,2.2,0
				c0.7,0,1.5,0,2.2,0c1.6,0,3,0,4.3,0.1c1.3,0.1,2.4,0.1,3.5,0.3c1.1,0.1,2.1,0.3,3.1,0.6c1,0.2,2,0.5,3.2,0.9
				c3.3,1.1,6.1,2.5,8.4,4.3c2.4,1.8,4.3,3.9,5.8,6.2c1.5,2.3,2.6,4.9,3.4,7.7c0.7,2.8,1.1,5.7,1.1,8.7c0,3.5-0.4,6.7-1.3,9.5
				c-0.9,2.8-2,5.3-3.5,7.4s-3.2,4-5.2,5.6s-4.1,2.8-6.4,3.8c-1.3,0.6-2.5,1-3.6,1.4c-1.1,0.3-2.3,0.6-3.5,0.7
				c-1.2,0.2-2.5,0.3-4,0.3c-1.4,0.1-3.1,0.1-5,0.1c-0.8,0-1.7,0-2.6,0c-0.9,0-1.8-0.1-2.7-0.1c-0.9-0.1-1.8-0.1-2.7-0.1
				c-0.9,0-1.7,0-2.5,0H293L293,263.4L293,263.4z M309.9,263.4c0.9,0.1,2,0.2,3.2,0.2s2.5,0.1,4,0.1c1.8,0,3.6-0.1,5.4-0.3
				c1.8-0.2,3.5-0.6,5.1-1.2c1.6-0.6,3.1-1.5,4.6-2.6c1.4-1.1,2.7-2.6,3.8-4.5c1.7-2.9,2.9-5.8,3.6-8.8c0.7-3,1-6.3,1-9.9
				c0-4.2-0.4-8-1.2-11.5c-0.8-3.4-2.1-6.4-4-8.8c-1.8-2.4-4.3-4.3-7.3-5.6c-3-1.3-6.8-2-11.3-2c-1.3,0-2.5,0-3.6,0.1
				c-1.1,0.1-2.1,0.1-3.2,0.2L309.9,263.4L309.9,263.4z"/>
			<path class="st0" d="M386.3,263.4h8.9v-22.9l-18-31.7h-7.3v-1.1h24.5v1.1h-8l16,28.1l15.1-28.1h-8.1v-1.1h17.1v1.1h-7.8
				l-15.6,29.2v25.5h8.9v1.1h-25.7V263.4z"/>
			<path class="st0" d="M430.3,236c0-4.3,0.8-8.2,2.5-11.8c1.7-3.6,3.8-6.8,6.5-9.4c2.6-2.7,5.6-4.8,8.9-6.3
				c3.3-1.5,6.6-2.3,9.9-2.3c3.5,0,6.9,0.8,10.3,2.3c3.3,1.5,6.3,3.6,8.9,6.3c2.6,2.7,4.7,5.8,6.3,9.4c1.6,3.6,2.4,7.6,2.4,11.8
				c0,3.7-0.7,7.4-2.2,11c-1.4,3.6-3.4,6.7-5.9,9.5c-2.5,2.8-5.5,5-8.8,6.7c-3.4,1.7-7,2.6-10.9,2.6c-4,0-7.7-0.8-11.1-2.5
				c-3.4-1.7-6.4-3.9-8.8-6.6c-2.5-2.7-4.4-5.9-5.8-9.5C431,243.6,430.3,239.8,430.3,236z M439.5,236c0,4.8,0.3,9,1,12.6
				c0.6,3.6,1.7,6.6,3.2,9c1.5,2.4,3.4,4.2,5.8,5.4c2.3,1.2,5.2,1.8,8.7,1.8c3.4,0,6.3-0.6,8.7-1.8c2.4-1.2,4.3-3,5.8-5.4
				c1.5-2.4,2.6-5.4,3.2-9c0.6-3.6,1-7.8,1-12.6c0-3.7-0.2-7.2-0.7-10.7c-0.5-3.4-1.4-6.5-2.8-9.2c-1.4-2.7-3.3-4.8-5.7-6.4
				c-2.4-1.6-5.6-2.4-9.5-2.4c-3.9,0-7.1,0.8-9.5,2.4c-2.4,1.6-4.3,3.7-5.7,6.4c-1.4,2.7-2.3,5.8-2.8,9.2
				C439.8,228.8,439.5,232.3,439.5,236z"/>
			<path class="st0" d="M493.1,207.6h25.7v1.1H510v38.6c0,3.2,0.3,5.9,0.8,8.1c0.6,2.2,1.4,4,2.5,5.4s2.5,2.3,4.2,2.9
				c1.7,0.6,3.5,0.9,5.7,0.9c3,0,5.6-0.4,7.9-1.3s4.3-2.4,5.9-4.7c0.5-0.7,1-1.4,1.4-2.1c0.4-0.7,0.7-1.5,1-2.4
				c0.3-0.9,0.5-2.1,0.7-3.4c0.2-1.3,0.2-2.9,0.2-4.8v-37.2h-8.9v-1.1h19v1.1h-8.9v38.8c0,2.2-0.2,4.3-0.7,6.1
				c-0.5,1.8-1.5,3.7-3,5.7c-1.4,1.9-3.4,3.5-6,4.6s-5.9,1.8-10.2,1.8c-6.4,0-11.3-1.6-14.7-4.7c-3.4-3.1-5.1-8-5.1-14.5v-37.8h-8.9
				L493.1,207.6L493.1,207.6z"/>
			<path class="st0" d="M576.7,263.4h8.9v-54.7h-8.9v-1.1h25.7v1.1h-8.9v54.7h14.2c4.7,0,8.4-1.5,11-4.4c2.7-2.9,4.6-6.9,5.8-12h0.9
				v17.5h-48.9L576.7,263.4L576.7,263.4z"/>
			<path class="st0" d="M631.7,263.4h8.9v-54.7h-8.9v-1.1h25.7v1.1h-8.9v54.7h8.9v1.1h-25.7V263.4z"/>
			<path class="st0" d="M662.5,263.4h8.9v-54.7h-8.9v-1.1h25.1v1.1h-8.2v25.4h0.8l24.1-25.4H696v-1.1h16.6v1.1h-6.6l-20.3,21.5
				l29,33.2h5.3v1.1h-23.1v-1.1h7.2l-24-28.1h-0.6v28.1h8.2v1.1h-25.1L662.5,263.4L662.5,263.4z"/>
			<path class="st0" d="M721.8,263.4h8.9v-54.7h-8.9v-1.1h45.7v13.8h-0.9c-0.7-2.1-1.4-3.9-2.2-5.5c-0.8-1.6-1.8-2.9-2.9-4
				c-1.1-1.1-2.5-1.9-4-2.4c-1.5-0.5-3.4-0.8-5.6-0.8h-13.3v24.7h5.2c1.8,0,3.3-0.2,4.5-0.5c1.2-0.3,2.3-0.9,3.2-1.8
				c0.9-0.9,1.6-2.1,2.2-3.6c0.6-1.5,1.2-3.5,1.8-5.9h0.9v24.9h-0.9c-0.4-1.5-0.8-3-1.2-4.5c-0.4-1.4-1-2.7-1.7-3.8s-1.7-2-2.9-2.7
				c-1.2-0.7-2.8-1-4.7-1h-6.5v28.9h15.1c2.9,0,5.4-0.6,7.3-1.9c1.9-1.3,3.5-2.7,4.8-4.5c1.2-1.7,2.1-3.5,2.7-5.4
				c0.6-1.9,1-3.4,1.1-4.6h0.9v17.5h-48.8L721.8,263.4L721.8,263.4z"/>
		</g>
	</g>
	<g>
		<path class="st0" d="M0,1.4h24.1v1.1h-8.3l16.5,46.4h0.2L43,19.4L36.9,2.6h-6.7V1.4h24v1.1h-8.7L62,48.9h0.2L78.9,2.6h-8.6V1.4
			h17.1v1.1h-7.2l-20.7,57h-2L43.8,21.2h-0.2L29.7,59.6h-2.2L7.2,2.6H0L0,1.4L0,1.4z"/>
		<path class="st0" d="M89.1,57.3H98V2.6h-8.9V1.4h25.7v1.1h-8.9v26.1h26.6V2.6h-8.9V1.4h25.7v1.1h-8.9v54.7h8.9v1.1h-25.7v-1.1h8.9
			V29.8h-26.6v27.4h8.9v1.1H89.1V57.3z"/>
		<path class="st0" d="M154.5,57.3h8.9V2.6h-8.9V1.4h25.7v1.1h-8.9v54.7h8.9v1.1h-25.7V57.3z"/>
		<path class="st0" d="M236.5,58.4h-1.2c-0.4-0.4-0.8-0.8-1.3-1.2c-0.5-0.3-1.2-0.5-2.2-0.5c-0.8,0-1.7,0.1-2.6,0.4
			c-0.9,0.3-2,0.6-3.2,1c-1.2,0.4-2.5,0.7-4,1c-1.5,0.3-3.1,0.4-5,0.4c-3.4,0-6.6-0.6-9.8-1.8c-3.2-1.2-6.2-3.2-9-6
			c-2.6-2.6-4.8-5.7-6.6-9.3c-1.8-3.6-2.6-7.7-2.6-12.4c0-4,0.7-7.8,2.2-11.4c1.4-3.6,3.4-6.8,6-9.6c2.6-2.8,5.6-5,9-6.6
			c3.5-1.6,7.2-2.4,11.4-2.4c1.7,0,3.1,0.2,4.4,0.5s2.4,0.7,3.4,1.1c1,0.4,1.9,0.8,2.8,1.1c0.9,0.3,1.7,0.5,2.5,0.5
			c1.1,0,1.8-0.2,2.3-0.5c0.5-0.3,0.9-0.7,1.2-1.2h1.2v16h-0.9c-0.5-2-1.1-4-1.8-6c-0.7-2-1.8-3.7-3.1-5.2c-1.3-1.5-3-2.7-5.1-3.7
			c-2.1-0.9-4.6-1.4-7.6-1.4c-2.8,0-5.3,0.4-7.3,1.3c-2,0.9-3.7,2.1-5.1,3.5c-1.4,1.5-2.5,3.2-3.3,5.1c-0.8,1.9-1.5,4-1.9,6.2
			s-0.7,4.3-0.8,6.6c-0.1,2.2-0.2,4.3-0.2,6.3c0,5.6,0.5,10.2,1.4,13.9c0.9,3.7,2.2,6.6,3.8,8.7c1.6,2.1,3.6,3.6,5.9,4.5
			c2.3,0.9,4.8,1.3,7.6,1.3c3.6,0,6.4-0.5,8.6-1.5c2.2-1,3.9-2.3,5.3-4c1.3-1.6,2.3-3.5,3-5.5c0.7-2.1,1.3-4.1,1.8-6.1h0.9
			L236.5,58.4L236.5,58.4z"/>
		<path class="st0" d="M243,57.3h8.9V2.6H243V1.4h25.7v1.1h-8.9v26.1h26.6V2.6h-8.9V1.4h25.7v1.1h-8.9v54.7h8.9v1.1h-25.7v-1.1h8.9
			V29.8h-26.6v27.4h8.9v1.1H243L243,57.3L243,57.3z"/>
		<path class="st0" d="M334,41.2h0.9c0.6,2.9,1.3,5.3,2.3,7.3c0.9,2,2,3.6,3.1,4.9c1.1,1.3,2.3,2.3,3.5,3c1.2,0.7,2.5,1.2,3.7,1.5
			c1.3,0.3,2.5,0.5,3.6,0.6c1.1,0.1,2.2,0.1,3.2,0.1c2.8,0,5.1-0.4,7-1.3c1.8-0.9,3.3-1.9,4.3-3.2c1.1-1.3,1.8-2.7,2.2-4.2
			c0.4-1.5,0.6-2.9,0.6-4.2c0-1.9-0.3-3.5-1-4.8c-0.7-1.3-1.6-2.5-2.6-3.4c-1.1-0.9-2.2-1.7-3.5-2.3c-1.3-0.6-2.4-1-3.6-1.4
			l-9.2-2.8c-4.3-1.3-7.6-3.1-9.8-5.3c-2.2-2.2-3.3-5.1-3.3-8.8c0-2.4,0.4-4.6,1.3-6.7c0.9-2.1,2.1-3.8,3.6-5.3s3.4-2.7,5.6-3.5
			c2.2-0.9,4.5-1.3,7.1-1.3c1.9,0,3.4,0.2,4.7,0.5c1.3,0.3,2.3,0.7,3.2,1.1s1.7,0.8,2.4,1.1s1.5,0.5,2.2,0.5c0.7,0,1.2-0.1,1.4-0.3
			c0.2-0.2,0.6-0.7,1-1.4h1.1v14.5h-1c-0.3-1.9-0.9-3.8-1.6-5.6c-0.8-1.8-1.8-3.4-3-4.7c-1.2-1.4-2.7-2.5-4.4-3.3
			c-1.7-0.8-3.7-1.2-6-1.2c-1.3,0-2.7,0.2-4.2,0.5c-1.5,0.3-3,0.9-4.3,1.8c-1.3,0.9-2.4,2-3.3,3.4c-0.9,1.4-1.3,3.1-1.3,5.3
			c0,1.7,0.3,3.2,1,4.4c0.7,1.2,1.6,2.2,2.7,3c1.1,0.8,2.3,1.5,3.7,2.1c1.4,0.6,2.7,1.1,4.1,1.5l9.7,3c1,0.3,2.3,0.7,3.8,1.3
			c1.5,0.5,3.1,1.3,4.5,2.4c1.5,1.1,2.7,2.5,3.8,4.2c1,1.8,1.6,4,1.6,6.7c0,2.5-0.5,4.9-1.4,7.2c-0.9,2.3-2.3,4.3-4,6
			s-3.9,3.1-6.4,4.2c-2.5,1-5.3,1.6-8.5,1.6c-1.1,0-2.1,0-3,0c-0.9,0-1.7-0.1-2.4-0.2c-0.7-0.1-1.5-0.2-2.2-0.4
			c-0.7-0.1-1.6-0.3-2.5-0.6c-1.1-0.3-2.2-0.7-3.4-1.1c-1.2-0.4-2.3-0.6-3.2-0.6c-0.8,0-1.3,0.2-1.6,0.5c-0.3,0.3-0.5,0.7-0.8,1.3
			H334L334,41.2L334,41.2z"/>
		<path class="st0" d="M384,57.3h8.9V2.6H384V1.4h25.7v1.1h-8.9v54.7h8.9v1.1H384V57.3z"/>
		<path class="st0" d="M414.7,57.3h8.9V2.6h-8.9V1.4h14.9c0.7,0,1.5,0,2.2,0c0.7,0,1.5-0.1,2.2-0.1c0.7,0,1.5,0,2.2,0
			c0.7,0,1.5,0,2.2,0c1.6,0,3,0,4.3,0.1c1.3,0.1,2.4,0.1,3.5,0.3c1.1,0.1,2.1,0.3,3.1,0.6c1,0.2,2,0.5,3.2,0.9
			c3.3,1.1,6.1,2.5,8.4,4.3c2.4,1.8,4.3,3.9,5.8,6.2c1.5,2.3,2.6,4.9,3.4,7.7c0.7,2.8,1.1,5.7,1.1,8.7c0,3.5-0.4,6.7-1.3,9.5
			c-0.9,2.8-2,5.3-3.5,7.4c-1.5,2.2-3.2,4-5.2,5.6s-4.1,2.8-6.4,3.8c-1.3,0.6-2.5,1-3.6,1.4s-2.3,0.6-3.5,0.7s-2.5,0.3-4,0.3
			c-1.4,0.1-3.1,0.1-5,0.1c-0.8,0-1.7,0-2.6,0c-0.9,0-1.8-0.1-2.7-0.1c-0.9-0.1-1.8-0.1-2.7-0.1c-0.9,0-1.7,0-2.5,0h-13.6
			L414.7,57.3L414.7,57.3z M431.6,57.3c0.9,0.1,2,0.2,3.2,0.2s2.5,0.1,4,0.1c1.8,0,3.6-0.1,5.4-0.3c1.8-0.2,3.5-0.6,5.1-1.2
			c1.6-0.6,3.1-1.5,4.6-2.6c1.4-1.1,2.7-2.6,3.8-4.5c1.7-2.9,2.9-5.8,3.6-8.8c0.7-3,1-6.3,1-9.9c0-4.2-0.4-8-1.2-11.5
			c-0.8-3.4-2.1-6.4-4-8.8c-1.8-2.4-4.3-4.3-7.3-5.6c-3-1.3-6.8-2-11.3-2c-1.3,0-2.5,0-3.6,0.1c-1.1,0.1-2.1,0.1-3.2,0.2L431.6,57.3
			L431.6,57.3z"/>
		<path class="st0" d="M479.9,57.3h8.9V2.6h-8.9V1.4h45.7v13.8h-0.9c-0.7-2.1-1.4-3.9-2.2-5.5c-0.8-1.6-1.8-2.9-2.9-4
			c-1.1-1.1-2.5-1.9-4-2.4c-1.5-0.5-3.4-0.8-5.6-0.8h-13.3v24.7h5.2c1.8,0,3.3-0.2,4.5-0.5c1.2-0.3,2.3-0.9,3.2-1.8
			c0.9-0.9,1.6-2.1,2.2-3.6c0.6-1.5,1.2-3.5,1.8-5.9h0.9v24.9h-0.9c-0.4-1.5-0.8-3-1.2-4.5c-0.4-1.4-1-2.7-1.7-3.8s-1.7-2-2.9-2.7
			c-1.2-0.7-2.8-1-4.7-1h-6.5v28.9h15.1c2.9,0,5.4-0.6,7.3-1.9c1.9-1.3,3.5-2.7,4.8-4.5c1.2-1.7,2.1-3.5,2.7-5.4
			c0.6-1.9,1-3.4,1.1-4.6h0.9v17.5h-48.8V57.3z"/>
	</g>
	<g>
		<g>
			<path class="st1" d="M314.3,137.4l-7.9-42.9h-12.1l0.4-1.6H329l-0.4,1.6h-12.4l7.2,39.2l34-39.2h-10.9l0.4-1.6h21.8l-0.4,1.6
				h-8.7l-35.4,41.1l-13,37.2H324l-0.4,1.6h-34.4l0.4-1.6h12.5L314.3,137.4z"/>
			<path class="st1" d="M362.2,130.2c1.3-4.3,3.1-8.3,5.4-12.2c2.3-3.9,5-7.4,8.1-10.6s6.4-6,10-8.4c3.5-2.4,7.2-4.2,11-5.5
				c3.8-1.3,7.5-2,11.2-2c4.8,0,8.9,1,12.2,3c3.3,2,6,4.6,8,7.8c2,3.2,3.5,6.8,4.4,10.7c0.9,3.9,1.3,7.8,1.3,11.6
				c0,4.1-0.6,8.3-1.8,12.4c-1.2,4.2-2.9,8.1-5.1,11.9c-2.2,3.8-4.8,7.3-7.8,10.6c-3,3.3-6.3,6.1-9.9,8.6c-3.6,2.4-7.3,4.3-11.3,5.7
				c-4,1.4-8,2.1-12.2,2.1c-3.7,0-7.1-0.7-10.2-2.1c-3.1-1.4-5.8-3.5-8-6.2s-4-6.2-5.2-10.2c-1.3-4.1-1.9-8.8-1.9-14.1
				C360.2,138.8,360.9,134.5,362.2,130.2z M369.4,163.1c0.5,2.2,1.4,4.1,2.8,5.8c1.3,1.6,3.1,3,5.4,3.9c2.3,1,5.1,1.5,8.6,1.5
				c4.4,0,8.4-1.1,12-3.4c3.6-2.3,6.8-5.3,9.7-8.9c2.9-3.7,5.4-7.8,7.5-12.4c2.2-4.6,3.9-9.2,5.3-13.8c1.4-4.7,2.4-9.1,3.1-13.3
				c0.7-4.2,1.1-7.8,1.1-10.7c0-5.9-1.4-10.6-4.1-13.8c-2.7-3.3-7.1-4.9-13.1-4.9c-4.2,0-8,1.1-11.5,3.3c-3.5,2.2-6.7,5.1-9.6,8.7
				c-2.9,3.6-5.5,7.6-7.7,12.2c-2.2,4.5-4.1,9.2-5.6,13.8c-1.5,4.7-2.6,9.3-3.4,13.7c-0.8,4.4-1.2,8.3-1.2,11.6
				C368.6,158.6,368.9,160.9,369.4,163.1z"/>
			<path class="st1" d="M490.9,92.9l-0.4,1.6h-11.7l-17,48.9c-1.1,3.2-2,6-2.6,8.5c-0.6,2.5-0.9,5.2-0.9,8.1c0,1.9,0.3,3.7,0.9,5.5
				c0.6,1.8,1.6,3.3,2.8,4.6c1.2,1.3,2.8,2.4,4.6,3.1c1.9,0.8,4,1.1,6.3,1.1c4.5,0,8.4-0.8,11.7-2.5c3.3-1.7,6.1-3.9,8.5-6.5
				c2.3-2.7,4.3-5.6,5.8-8.9c1.5-3.2,2.8-6.5,3.7-9.7l15.8-52.3h-12.7l0.4-1.6h26.1l-0.4,1.6h-11.6l-16.4,53.8
				c-2.9,9.6-6.9,16.6-11.9,21c-5,4.4-11.7,6.6-19.9,6.6c-4.2,0-7.8-0.6-10.7-1.8c-2.9-1.2-5.2-2.7-7-4.6c-1.8-1.8-3-3.9-3.8-6.1
				c-0.7-2.2-1.1-4.4-1.1-6.5c0-3.3,0.4-6.5,1.2-9.6s1.9-6.7,3.4-10.7l14.7-42.1H456l0.4-1.6L490.9,92.9L490.9,92.9z"/>
			<path class="st1" d="M539.2,94.5l0.7-1.6h27.1c2.6,0,5.3,0.3,8.1,0.9c2.8,0.6,5.3,1.6,7.6,3c2.3,1.4,4.1,3.2,5.6,5.5
				c1.5,2.2,2.2,5,2.2,8.3c0,2.7-0.6,5.1-1.7,7.2c-1.2,2.1-2.6,3.8-4.4,5.2c-1.8,1.4-3.7,2.6-5.9,3.5c-2.2,0.9-4.2,1.7-6.2,2.2
				s-3.8,1-5.5,1.2c-1.6,0.2-2.8,0.4-3.5,0.5l-0.2,0.3c1.2,0.2,2.7,0.5,4.6,0.9c1.9,0.5,3.7,1.2,5.4,2.3c1.7,1.1,3.2,2.5,4.5,4.2
				c1.3,1.8,1.9,4,1.9,6.8c0,1.9-0.2,3.8-0.4,5.6c-0.3,1.8-0.6,3.5-0.9,5.3s-0.7,3.5-0.9,5.2c-0.3,1.8-0.4,3.6-0.4,5.5
				c0,2.1,0.6,3.8,1.7,5.1s2.5,1.9,4.2,1.9c0.6,0,1.2-0.1,1.8-0.2c0.6-0.1,1.1-0.2,1.4-0.4l0.4,1.5c-0.4,0.1-1.1,0.2-2.2,0.3
				c-1.1,0.2-2.2,0.2-3.3,0.2c-2,0-3.8-0.2-5.5-0.6c-1.7-0.4-3.1-1.1-4.4-2.1c-1.3-1-2.2-2.2-3-3.8c-0.7-1.6-1.1-3.5-1.1-5.8
				c0-1.1,0.1-2.6,0.4-4.5c0.3-1.8,0.6-3.8,0.9-5.8c0.3-2,0.6-4,0.8-6c0.3-2,0.4-3.7,0.4-5.1c0-1.4-0.2-2.7-0.6-3.9
				c-0.4-1.3-1.2-2.3-2.3-3.3c-1.1-0.9-2.7-1.6-4.7-2.2c-2-0.5-4.6-0.8-7.8-0.8h-4.6l-14.6,41.7h12.8l-0.6,1.6h-34.2l0.6-1.6h11.4
				L552,94.5L539.2,94.5L539.2,94.5z M557.3,129.5c3,0,5.6-0.3,7.9-0.8c2.3-0.5,4.1-1.2,5.3-2.1c1-0.7,2.1-1.6,3.2-2.6
				c1.1-1.1,2.1-2.4,3-3.9c0.9-1.6,1.6-3.4,2.2-5.5c0.6-2.1,0.9-4.6,0.9-7.4c0-4.3-1.3-7.5-3.8-9.6c-2.5-2.1-5.6-3.1-9.4-3.1h-4.7
				l-12.2,35H557.3z"/>
			<path class="st1" d="M638.2,94.5l0.4-1.6h26.7c4.3,0,8.1,0.6,11.4,1.7c3.3,1.1,6.1,2.6,8.3,4.5c2.3,1.9,4,4.1,5.2,6.6
				c1.2,2.5,1.8,5.2,1.8,8.1c0,4.3-1.2,8.1-3.5,11.4c-2.3,3.2-5.2,6-8.7,8.2c-3.5,2.2-7.4,3.9-11.7,5c-4.3,1.1-8.4,1.7-12.3,1.7
				c-1.7,0-3.5-0.1-5.5-0.3c-1.9-0.2-3.6-0.4-4.9-0.6l-11.8,33.6h12.8l-0.6,1.6h-34.2l0.4-1.6h11.5L651,94.5L638.2,94.5L638.2,94.5z
				 M650.1,138.1c1.6,0.2,3.3,0.3,5,0.3c3.9,0,7.6-0.8,10.9-2.5c3.3-1.6,6.1-3.8,8.5-6.5c2.3-2.7,4.2-5.8,5.5-9.3
				c1.3-3.5,1.9-7,1.9-10.7c0-5-1.5-8.8-4.4-11.3c-2.9-2.5-7-3.7-12.1-3.7H661l-14.9,43C647.1,137.7,648.5,137.9,650.1,138.1z"/>
			<path class="st1" d="M708.1,94.5l0.4-1.6h61.9l-6.8,19.5h-1.6c0.3-0.8,0.6-2.1,0.9-3.7c0.3-1.6,0.4-3.1,0.4-4.6
				c0-2.8-0.6-5.1-1.8-6.9c-1.2-1.8-3.6-2.7-7.1-2.7H731l-12.4,35.4h10.5c2.4,0,4.5-0.6,6.3-1.9c1.8-1.3,3.4-2.7,4.7-4.4
				c1.3-1.6,2.4-3.3,3.2-4.9c0.8-1.6,1.4-2.7,1.8-3.4h1.6l-11.7,33.3h-1.6c0.4-0.9,0.7-2.2,1-3.8c0.3-1.6,0.4-3.1,0.4-4.6
				c0-2.9-0.8-5.1-2.4-6.6c-1.6-1.5-3.9-2.2-6.7-2.2h-7.6l-14.4,41.3h26.1c3,0,5.7-0.9,8.3-2.6c2.6-1.8,4.8-3.8,6.8-6.1
				c2-2.3,3.6-4.6,5-6.9s2.3-4,2.9-5.1h1.6l-7.8,22.4h-64.7l0.4-1.6h11.5L721,94.5H708.1z"/>
			<path class="st1" d="M784.5,94.5l0.7-1.6h27.1c2.6,0,5.3,0.3,8.1,0.9c2.8,0.6,5.3,1.6,7.6,3c2.3,1.4,4.1,3.2,5.6,5.5
				c1.5,2.2,2.2,5,2.2,8.3c0,2.7-0.6,5.1-1.7,7.2c-1.2,2.1-2.6,3.8-4.4,5.2c-1.8,1.4-3.7,2.6-5.9,3.5c-2.2,0.9-4.2,1.7-6.2,2.2
				s-3.8,1-5.5,1.2c-1.6,0.2-2.8,0.4-3.5,0.5l-0.2,0.3c1.2,0.2,2.7,0.5,4.6,0.9c1.9,0.5,3.7,1.2,5.4,2.3c1.7,1.1,3.2,2.5,4.5,4.2
				c1.3,1.8,1.9,4,1.9,6.8c0,1.9-0.2,3.8-0.4,5.6c-0.3,1.8-0.6,3.5-0.9,5.3s-0.7,3.5-0.9,5.2c-0.3,1.8-0.4,3.6-0.4,5.5
				c0,2.1,0.6,3.8,1.7,5.1s2.5,1.9,4.2,1.9c0.6,0,1.2-0.1,1.8-0.2c0.6-0.1,1.1-0.2,1.4-0.4l0.4,1.5c-0.4,0.1-1.1,0.2-2.2,0.3
				c-1.1,0.2-2.2,0.2-3.3,0.2c-2,0-3.8-0.2-5.5-0.6c-1.7-0.4-3.1-1.1-4.4-2.1c-1.3-1-2.2-2.2-2.9-3.8c-0.7-1.6-1.1-3.5-1.1-5.8
				c0-1.1,0.1-2.6,0.4-4.5c0.3-1.8,0.6-3.8,0.9-5.8c0.3-2,0.6-4,0.8-6c0.3-2,0.4-3.7,0.4-5.1c0-1.4-0.2-2.7-0.6-3.9
				c-0.4-1.3-1.2-2.3-2.3-3.3c-1.1-0.9-2.7-1.6-4.7-2.2c-2-0.5-4.6-0.8-7.8-0.8h-4.6l-14.6,41.7h12.8l-0.6,1.6h-34.2l0.6-1.6h11.4
				l27.2-78.3L784.5,94.5L784.5,94.5z M802.6,129.5c3,0,5.6-0.3,7.9-0.8c2.3-0.5,4.1-1.2,5.3-2.1c1-0.7,2.1-1.6,3.2-2.6
				c1.1-1.1,2.1-2.4,3-3.9c0.9-1.6,1.6-3.4,2.2-5.5c0.6-2.1,0.9-4.6,0.9-7.4c0-4.3-1.3-7.5-3.8-9.6c-2.5-2.1-5.6-3.1-9.4-3.1h-4.7
				l-12.2,35H802.6z"/>
			<path class="st1" d="M843.9,151.8c-0.4,1.1-0.7,2.2-1,3.3c-0.3,1-0.4,2.2-0.4,3.5c0,2.6,0.6,4.9,1.8,6.9c1.2,2,2.7,3.6,4.7,4.9
				c1.9,1.3,4.1,2.3,6.5,3c2.4,0.7,4.8,1,7.2,1c3.3,0,6.2-0.5,8.8-1.4c2.6-1,4.8-2.3,6.6-4s3.1-3.7,4.1-6.1c0.9-2.3,1.4-4.9,1.4-7.6
				c0-2.8-0.6-5.3-1.8-7.5s-2.9-4.3-5.1-6.4l-7.9-7.4c-3.6-3.3-6.4-6.5-8.4-9.8c-2-3.2-3.1-6.9-3.1-11c0-3.2,0.7-6.1,2.1-8.8
				c1.4-2.7,3.3-5,5.7-6.9c2.4-1.9,5.1-3.4,8.2-4.5c3.1-1.1,6.3-1.6,9.5-1.6c2.3,0,4.3,0.2,6.1,0.6c1.7,0.4,3.3,0.9,4.8,1.4
				c1.4,0.5,2.8,1,4,1.4c1.2,0.4,2.5,0.6,3.7,0.6c1.1,0,2-0.3,2.6-0.8c0.6-0.5,1.1-1.3,1.4-2.2l1.7,0.3l-7.7,21.9h-1.3
				c0.1-0.6,0.4-1.5,0.6-2.6c0.3-1.1,0.4-2.5,0.4-4.2c0-2.7-0.4-5.1-1.3-7c-0.9-1.9-2.1-3.5-3.6-4.6c-1.5-1.2-3.2-2-5.2-2.6
				c-2-0.5-4-0.8-6.2-0.8c-2.7,0-5.1,0.4-7.3,1.1c-2.2,0.8-4.1,1.8-5.7,3.1c-1.6,1.3-2.8,2.9-3.7,4.7c-0.9,1.8-1.3,3.9-1.3,6.1
				c0,3.3,0.9,6.1,2.7,8.5c1.8,2.4,3.8,4.6,6,6.7l9.9,9.2c2.7,2.4,5,5.2,6.8,8.2c1.9,3.1,2.8,6.4,2.8,10.2c0,2.9-0.7,5.8-1.9,8.8
				c-1.3,3-3.2,5.7-5.8,8.1c-2.6,2.4-5.8,4.4-9.6,5.9c-3.9,1.5-8.3,2.3-13.5,2.3c-2.7,0-5-0.2-7.1-0.7c-2-0.5-3.9-1-5.6-1.6
				c-1.7-0.6-3.2-1.1-4.7-1.6c-1.4-0.5-2.9-0.7-4.3-0.7c-1,0-1.9,0.4-2.7,1.1c-0.8,0.7-1.3,1.5-1.4,2.5l-1.6-0.3l7.8-22.7
				L843.9,151.8L843.9,151.8z"/>
			<path class="st1" d="M914.7,130.2c1.3-4.3,3.1-8.3,5.4-12.2c2.3-3.9,5-7.4,8.1-10.6s6.4-6,10-8.4c3.5-2.4,7.2-4.2,11-5.5
				c3.8-1.3,7.5-2,11.2-2c4.8,0,8.9,1,12.2,3c3.3,2,6,4.6,8,7.8c2,3.2,3.5,6.8,4.4,10.7c0.9,3.9,1.3,7.8,1.3,11.6
				c0,4.1-0.6,8.3-1.8,12.4c-1.2,4.2-2.9,8.1-5.1,11.9c-2.2,3.8-4.8,7.3-7.8,10.6c-3,3.3-6.3,6.1-9.9,8.6c-3.6,2.4-7.3,4.3-11.3,5.7
				c-4,1.4-8,2.1-12.2,2.1c-3.7,0-7.1-0.7-10.2-2.1c-3.1-1.4-5.8-3.5-8-6.2s-4-6.2-5.2-10.2c-1.3-4.1-1.9-8.8-1.9-14.1
				C912.7,138.8,913.4,134.5,914.7,130.2z M921.9,163.1c0.5,2.2,1.4,4.1,2.8,5.8c1.3,1.6,3.1,3,5.4,3.9c2.3,1,5.1,1.5,8.6,1.5
				c4.4,0,8.4-1.1,12-3.4c3.6-2.3,6.8-5.3,9.7-8.9c2.9-3.7,5.4-7.8,7.5-12.4c2.2-4.6,3.9-9.2,5.3-13.8c1.4-4.7,2.4-9.1,3.1-13.3
				c0.7-4.2,1.1-7.8,1.1-10.7c0-5.9-1.4-10.6-4.1-13.8c-2.7-3.3-7.1-4.9-13.1-4.9c-4.2,0-8,1.1-11.5,3.3c-3.5,2.2-6.7,5.1-9.6,8.7
				c-2.9,3.6-5.5,7.6-7.7,12.2c-2.2,4.5-4.1,9.2-5.6,13.8c-1.5,4.7-2.6,9.3-3.4,13.7c-0.8,4.4-1.2,8.3-1.2,11.6
				C921.2,158.6,921.4,160.9,921.9,163.1z"/>
			<path class="st1" d="M1021.5,98.6l-25.7,74.2h12.7l-0.4,1.6h-25.7l0.4-1.6h11.4l27.2-78.3h-12.7l0.4-1.6h21l15.8,64.5h0.2
				l21.8-62.9h-12.8l0.4-1.6h26.1l-0.4,1.6h-11.5l-28.1,81.4h-0.8l-19.1-77.2L1021.5,98.6L1021.5,98.6z"/>
			<path class="st1" d="M1065.1,172.8L1121,91h2.6l2,81.7h12l-0.4,1.6h-34.3l0.4-1.6h12.1l-0.7-32h-25.6l-21.8,32h11.2l-0.4,1.6
				h-22.9l0.4-1.6L1065.1,172.8L1065.1,172.8z M1114.1,104.3l-23.8,34.8h24.5l-0.4-34.8H1114.1z"/>
			<path class="st1" d="M1162,94.5l0.4-1.6h34.5l-0.4,1.6h-11.7l-27.3,78.3h26.1c2.9,0,5.6-0.9,8.1-2.6c2.5-1.7,4.8-3.7,6.7-6.1
				c2-2.3,3.6-4.7,5-7c1.4-2.3,2.4-4.1,3.1-5.2h1.6l-7.8,22.4h-64.7l0.4-1.6h11.5l27.3-78.3L1162,94.5L1162,94.5z"/>
			<path class="st1" d="M1218.1,172.8l27.4-78.3h-12.8l0.4-1.6h34.5l-0.4,1.6h-11.7l-27.3,78.3h12.7l-0.4,1.6h-34.2l0.4-1.6H1218.1z
				"/>
			<path class="st1" d="M1293.6,94.5c-3,0-5.8,0.9-8.3,2.6c-2.5,1.8-4.8,3.8-6.7,6.1c-1.9,2.3-3.5,4.7-4.8,7
				c-1.3,2.3-2.3,4.1-2.9,5.2h-1.6l7.8-22.5h67.1l-7.8,22.5h-1.6c0.4-1.5,0.6-3.2,0.8-5c0.1-1.8,0.2-3.7,0.2-5.5
				c0-2.9-0.8-5.4-2.3-7.4c-1.5-2-4.2-3-8-3h-11l-27.3,78.3h12.7l-0.4,1.6h-34.4l0.4-1.6h11.7l27.3-78.3L1293.6,94.5L1293.6,94.5z"
				/>
			<path class="st1" d="M1365.9,137.4l-7.9-42.9h-12.1l0.4-1.6h34.3l-0.4,1.6h-12.4l7.2,39.2l34-39.2h-10.9l0.4-1.6h21.8l-0.4,1.6
				h-8.7l-35.4,41.1l-13,37.2h12.8l-0.4,1.6h-34.4l0.4-1.6h12.5L1365.9,137.4z"/>
		</g>
	</g>
	<g>
		<g>
			<path class="st1" d="M640.4,351.6l-7.8-41.4h-12l0.4-1.5h34l-0.4,1.5h-12.2l7.2,37.8l33.6-37.8h-10.8l0.4-1.5h21.6l-0.4,1.5h-8.6
				l-35.1,39.6l-12.9,35.9H650l-0.4,1.5h-34.1l0.4-1.5h12.4L640.4,351.6z"/>
			<path class="st1" d="M687.9,344.7c1.3-4.1,3.1-8,5.4-11.7c2.2-3.7,4.9-7.1,8-10.3c3.1-3.1,6.4-5.8,9.9-8.1
				c3.5-2.3,7.1-4.1,10.9-5.4c3.8-1.3,7.5-1.9,11.1-1.9c4.8,0,8.8,1,12.1,2.9c3.3,2,5.9,4.5,7.9,7.6c2,3.1,3.5,6.5,4.4,10.3
				c0.9,3.8,1.3,7.5,1.3,11.2c0,4-0.6,8-1.8,12c-1.2,4-2.9,7.8-5.1,11.5c-2.2,3.6-4.8,7-7.8,10.2c-3,3.2-6.3,5.9-9.8,8.3
				c-3.5,2.4-7.3,4.2-11.2,5.5c-3.9,1.3-8,2-12.1,2c-3.7,0-7.1-0.7-10.1-2c-3.1-1.4-5.7-3.4-7.9-6c-2.2-2.6-3.9-5.9-5.2-9.9
				c-1.3-3.9-1.9-8.5-1.9-13.6C685.9,352.9,686.5,348.8,687.9,344.7z M695,376.4c0.5,2.1,1.4,4,2.8,5.6c1.3,1.6,3.1,2.9,5.4,3.8
				c2.2,1,5.1,1.4,8.5,1.4c4.3,0,8.3-1.1,11.9-3.3c3.6-2.2,6.8-5.1,9.6-8.6c2.8-3.5,5.3-7.5,7.4-11.9c2.1-4.4,3.9-8.9,5.2-13.3
				c1.4-4.5,2.4-8.8,3.1-12.9c0.7-4.1,1-7.5,1-10.3c0-5.7-1.4-10.2-4.1-13.3c-2.7-3.2-7.1-4.7-13-4.7c-4.1,0-7.9,1.1-11.4,3.2
				c-3.5,2.1-6.7,4.9-9.5,8.4c-2.9,3.5-5.4,7.4-7.6,11.8c-2.2,4.4-4,8.8-5.5,13.3c-1.5,4.5-2.6,8.9-3.4,13.2
				c-0.8,4.3-1.2,8-1.2,11.1C694.3,372.1,694.5,374.3,695,376.4z"/>
			<path class="st1" d="M815.4,308.7l-0.4,1.5h-11.6l-16.9,47.1c-1.1,3.1-1.9,5.8-2.5,8.2c-0.6,2.4-0.9,5-0.9,7.8
				c0,1.8,0.3,3.6,0.9,5.3c0.6,1.7,1.5,3.2,2.8,4.5s2.7,2.3,4.6,3c1.8,0.7,3.9,1.1,6.3,1.1c4.5,0,8.4-0.8,11.6-2.4
				c3.3-1.6,6.1-3.7,8.4-6.3c2.3-2.6,4.2-5.4,5.7-8.5c1.5-3.1,2.7-6.2,3.7-9.3l15.7-50.4h-12.6l0.4-1.5h25.8l-0.4,1.5h-11.5
				l-16.2,51.9c-2.9,9.3-6.8,16-11.8,20.2c-5,4.2-11.6,6.3-19.7,6.3c-4.2,0-7.7-0.6-10.6-1.8s-5.2-2.6-7-4.4c-1.8-1.8-3-3.7-3.8-5.9
				c-0.7-2.2-1.1-4.2-1.1-6.2c0-3.2,0.4-6.2,1.2-9.2s1.9-6.4,3.4-10.3l14.6-40.6h-12.6l0.4-1.5L815.4,308.7L815.4,308.7z"/>
			<path class="st1" d="M863.3,310.2l0.7-1.5h26.8c2.6,0,5.2,0.3,8,0.9c2.8,0.6,5.3,1.6,7.5,2.9c2.2,1.4,4.1,3.1,5.6,5.3
				c1.5,2.2,2.2,4.8,2.2,8c0,2.6-0.6,5-1.7,7c-1.1,2-2.6,3.7-4.4,5c-1.8,1.4-3.7,2.5-5.8,3.4c-2.1,0.9-4.2,1.6-6.2,2.2
				c-2,0.6-3.8,0.9-5.4,1.2c-1.6,0.2-2.8,0.4-3.4,0.4l-0.2,0.3c1.2,0.1,2.7,0.4,4.5,0.9c1.8,0.4,3.6,1.2,5.4,2.2
				c1.7,1,3.2,2.4,4.5,4.1c1.2,1.7,1.9,3.9,1.9,6.5c0,1.8-0.1,3.6-0.4,5.4c-0.3,1.7-0.6,3.4-0.9,5.1s-0.6,3.3-0.9,5
				c-0.3,1.7-0.4,3.5-0.4,5.3c0,2.1,0.6,3.7,1.7,4.9c1.1,1.2,2.5,1.8,4.2,1.8c0.6,0,1.2-0.1,1.8-0.2c0.6-0.1,1.1-0.2,1.4-0.4
				l0.4,1.4c-0.4,0.1-1.1,0.2-2.2,0.3c-1.1,0.1-2.2,0.2-3.3,0.2c-2,0-3.8-0.2-5.5-0.6c-1.7-0.4-3.1-1.1-4.4-2
				c-1.3-0.9-2.2-2.1-2.9-3.6c-0.7-1.5-1-3.4-1-5.6c0-1.1,0.1-2.5,0.4-4.3c0.3-1.8,0.6-3.6,0.9-5.6c0.3-1.9,0.6-3.8,0.8-5.7
				c0.3-1.9,0.4-3.6,0.4-5c0-1.3-0.2-2.6-0.6-3.8c-0.4-1.2-1.2-2.3-2.3-3.1c-1.1-0.9-2.6-1.6-4.6-2.1c-2-0.5-4.6-0.8-7.7-0.8h-4.5
				L859,385.7h12.7l-0.6,1.5h-33.9l0.6-1.5h11.3l26.9-75.5L863.3,310.2L863.3,310.2z M881.3,344c2.9,0,5.6-0.3,7.8-0.8
				c2.3-0.5,4-1.2,5.3-2c1-0.7,2.1-1.5,3.2-2.5c1.1-1,2.1-2.3,3-3.8c0.9-1.5,1.6-3.3,2.2-5.3c0.6-2,0.9-4.4,0.9-7.1
				c0-4.1-1.3-7.2-3.8-9.2c-2.5-2-5.6-3-9.3-3H886L873.9,344L881.3,344L881.3,344z"/>
			<path class="st1" d="M961.4,310.2l0.4-1.5h26.5c4.3,0,8,0.5,11.3,1.6c3.3,1.1,6,2.5,8.3,4.4c2.2,1.8,4,4,5.1,6.4
				c1.2,2.4,1.8,5,1.8,7.8c0,4.2-1.1,7.9-3.4,11c-2.3,3.1-5.2,5.8-8.7,7.9c-3.5,2.1-7.4,3.7-11.6,4.8c-4.2,1.1-8.3,1.6-12.2,1.6
				c-1.7,0-3.5-0.1-5.4-0.3c-1.9-0.2-3.5-0.4-4.9-0.6L957,385.7h12.7l-0.6,1.5h-33.9l0.4-1.5H947l27-75.5L961.4,310.2L961.4,310.2z
				 M973.2,352.3c1.6,0.2,3.3,0.3,5,0.3c3.9,0,7.5-0.8,10.8-2.4c3.3-1.6,6.1-3.7,8.4-6.3c2.3-2.6,4.1-5.6,5.4-8.9
				c1.3-3.3,1.9-6.8,1.9-10.3c0-4.9-1.5-8.5-4.4-10.9c-2.9-2.4-6.9-3.6-12-3.6H984l-14.8,41.5C970.2,351.9,971.5,352.1,973.2,352.3z
				"/>
			<path class="st1" d="M1030.6,310.2l0.4-1.5h61.3l-6.7,18.8h-1.5c0.3-0.8,0.6-2,0.9-3.5c0.3-1.5,0.4-3,0.4-4.4
				c0-2.7-0.6-4.9-1.8-6.7c-1.2-1.7-3.5-2.6-7.1-2.6h-23.3l-12.2,34.1h10.4c2.4,0,4.4-0.6,6.2-1.8c1.8-1.2,3.3-2.6,4.6-4.2
				c1.3-1.6,2.3-3.1,3.1-4.7c0.8-1.5,1.4-2.6,1.8-3.3h1.5l-11.6,32.1h-1.5c0.4-0.9,0.7-2.1,1-3.6c0.3-1.5,0.4-3,0.4-4.4
				c0-2.8-0.8-4.9-2.4-6.3c-1.6-1.4-3.8-2.2-6.6-2.2h-7.5l-14.2,39.8h25.8c2.9,0,5.7-0.8,8.2-2.5c2.5-1.7,4.8-3.7,6.7-5.9
				c1.9-2.2,3.6-4.5,4.9-6.7c1.3-2.2,2.3-3.9,2.9-5h1.5l-7.7,21.6h-64.1l0.4-1.5h11.4l27-75.5L1030.6,310.2L1030.6,310.2z"/>
			<path class="st1" d="M1106.3,310.2l0.7-1.5h26.8c2.6,0,5.2,0.3,8,0.9c2.8,0.6,5.3,1.6,7.5,2.9c2.2,1.4,4.1,3.1,5.6,5.3
				c1.5,2.2,2.2,4.8,2.2,8c0,2.6-0.6,5-1.7,7c-1.1,2-2.6,3.7-4.4,5c-1.8,1.4-3.7,2.5-5.8,3.4c-2.1,0.9-4.2,1.6-6.2,2.2
				c-2,0.6-3.8,0.9-5.4,1.2c-1.6,0.2-2.8,0.4-3.4,0.4l-0.2,0.3c1.2,0.1,2.7,0.4,4.5,0.9c1.8,0.4,3.6,1.2,5.4,2.2
				c1.7,1,3.2,2.4,4.5,4.1c1.2,1.7,1.9,3.9,1.9,6.5c0,1.8-0.1,3.6-0.4,5.4c-0.3,1.7-0.6,3.4-0.9,5.1s-0.6,3.3-0.9,5
				c-0.3,1.7-0.4,3.5-0.4,5.3c0,2.1,0.6,3.7,1.7,4.9c1.1,1.2,2.5,1.8,4.2,1.8c0.6,0,1.2-0.1,1.8-0.2c0.6-0.1,1.1-0.2,1.4-0.4
				l0.4,1.4c-0.4,0.1-1.1,0.2-2.2,0.3c-1.1,0.1-2.2,0.2-3.3,0.2c-2,0-3.8-0.2-5.5-0.6c-1.7-0.4-3.1-1.1-4.4-2
				c-1.3-0.9-2.2-2.1-2.9-3.6c-0.7-1.5-1-3.4-1-5.6c0-1.1,0.1-2.5,0.4-4.3c0.3-1.8,0.6-3.6,0.9-5.6c0.3-1.9,0.6-3.8,0.8-5.7
				c0.3-1.9,0.4-3.6,0.4-5c0-1.3-0.2-2.6-0.6-3.8c-0.4-1.2-1.2-2.3-2.3-3.1c-1.1-0.9-2.6-1.6-4.6-2.1c-2-0.5-4.6-0.8-7.7-0.8h-4.5
				l-14.5,40.2h12.7l-0.6,1.5h-33.9l0.6-1.5h11.3l26.9-75.5L1106.3,310.2L1106.3,310.2z M1124.3,344c2.9,0,5.6-0.3,7.8-0.8
				c2.3-0.5,4-1.2,5.3-2c1-0.7,2.1-1.5,3.2-2.5c1.1-1,2.1-2.3,3-3.8c0.9-1.5,1.6-3.3,2.2-5.3c0.6-2,0.9-4.4,0.9-7.1
				c0-4.1-1.3-7.2-3.8-9.2c-2.5-2-5.6-3-9.3-3h-4.6l-12.1,33.8L1124.3,344L1124.3,344z"/>
			<path class="st1" d="M1178.3,310.2l0.4-1.5h62.3l-6.7,18.8h-1.5c0.2-0.9,0.5-2.2,0.7-4c0.3-1.8,0.4-3.4,0.4-5
				c0-2.6-0.6-4.6-1.8-6.1c-1.2-1.5-3.5-2.2-7.1-2.2H1201l-13,35.9h15.7c2.3,0,4.3-0.6,6.1-1.8c1.8-1.2,3.3-2.5,4.5-4.1
				c1.2-1.5,2.3-3.1,3.1-4.6c0.8-1.5,1.4-2.7,1.8-3.5h1.5l-11.5,32.2h-1.5c0.2-0.8,0.5-1.9,0.8-3.4c0.3-1.5,0.5-3.1,0.5-4.7
				c0-2.9-0.8-5.1-2.5-6.5c-1.7-1.4-4.3-2-7.9-2h-11.1l-13.7,38.1h12.9l-0.4,1.5h-34l0.4-1.5h11.1l27-75.5L1178.3,310.2
				L1178.3,310.2z"/>
			<path class="st1" d="M1285.3,308.7l-0.4,1.5h-11.6l-16.9,47.1c-1.1,3.1-1.9,5.8-2.5,8.2c-0.6,2.4-0.9,5-0.9,7.8
				c0,1.8,0.3,3.6,0.9,5.3c0.6,1.7,1.5,3.2,2.8,4.5s2.7,2.3,4.6,3c1.8,0.7,3.9,1.1,6.3,1.1c4.5,0,8.4-0.8,11.6-2.4
				c3.3-1.6,6.1-3.7,8.4-6.3c2.3-2.6,4.2-5.4,5.7-8.5c1.5-3.1,2.7-6.2,3.7-9.3l15.7-50.4h-12.6l0.4-1.5h25.8l-0.4,1.5h-11.5
				l-16.2,51.9c-2.9,9.3-6.8,16-11.8,20.2c-5,4.2-11.6,6.3-19.7,6.3c-4.2,0-7.7-0.6-10.6-1.8s-5.2-2.6-6.9-4.4
				c-1.8-1.8-3-3.7-3.8-5.9c-0.7-2.2-1.1-4.2-1.1-6.2c0-3.2,0.4-6.2,1.2-9.2s1.9-6.4,3.4-10.3l14.6-40.6h-12.6l0.4-1.5L1285.3,308.7
				L1285.3,308.7z"/>
			<path class="st1" d="M1371.5,385.7l27.1-75.5h-0.2l-53.2,77l1.5-77h-0.3l-26.8,75.5h12.6l-0.4,1.5h-25.6l0.4-1.5h11.4l27-75.5
				h-12.7l0.4-1.5h23.6l-1.3,61.2h0.2l42.3-61.2h22.8l-0.4,1.5h-11.4l-27,75.5h12.6l-0.4,1.5h-34.1l0.4-1.5L1371.5,385.7
				L1371.5,385.7z"/>
			<path class="st1" d="M1427,310.2l0.4-1.5h61.3l-6.7,18.8h-1.5c0.3-0.8,0.6-2,0.9-3.5c0.3-1.5,0.4-3,0.4-4.4
				c0-2.7-0.6-4.9-1.8-6.7c-1.2-1.7-3.5-2.6-7.1-2.6h-23.3l-12.2,34.1h10.4c2.4,0,4.4-0.6,6.2-1.8c1.8-1.2,3.3-2.6,4.6-4.2
				c1.3-1.6,2.3-3.1,3.1-4.7c0.8-1.5,1.4-2.6,1.8-3.3h1.5l-11.6,32.1h-1.5c0.4-0.9,0.7-2.1,1-3.6c0.3-1.5,0.4-3,0.4-4.4
				c0-2.8-0.8-4.9-2.4-6.3c-1.6-1.4-3.8-2.2-6.6-2.2h-7.5l-14.2,39.8h25.8c2.9,0,5.7-0.8,8.2-2.5c2.5-1.7,4.8-3.7,6.7-5.9
				c1.9-2.2,3.6-4.5,4.9-6.7c1.3-2.2,2.3-3.9,2.9-5h1.5l-7.7,21.6H1401l0.4-1.5h11.4l27-75.5L1427,310.2L1427,310.2z"/>
			<path class="st1" d="M1519.8,379.8c1-1,2.2-1.5,3.7-1.5s2.7,0.5,3.7,1.5c1,1,1.5,2.2,1.5,3.7c0,1.5-0.5,2.7-1.5,3.6
				s-2.2,1.4-3.7,1.4c-1.5,0-2.7-0.5-3.7-1.4s-1.5-2.2-1.5-3.6C1518.3,382,1518.8,380.8,1519.8,379.8z M1530,356.7
				c0.6-1.6,1.6-3.3,3.3-5.2l8.6-9.9c3.7-4.2,6.2-8.3,7.6-12.4c1.4-4,2.1-7.5,2.1-10.4c0-3.7-1-6.3-3-7.8c-2-1.5-4.4-2.3-7-2.3
				c-3.8,0-6.3,1-7.6,2.9c-1.3,1.9-2,4.6-2,7.9c0,1.1-0.3,2.1-1,2.9c-0.7,0.8-1.8,1.2-3.5,1.2c-1.3,0-2.3-0.5-2.9-1.5
				c-0.6-1-0.9-1.9-0.9-2.7c0-1.3,0.4-2.7,1.3-4.1c0.8-1.4,2-2.8,3.6-4c1.5-1.2,3.4-2.2,5.6-3c2.2-0.8,4.6-1.2,7.3-1.2
				c2.9,0,5.5,0.4,7.8,1.2c2.2,0.8,4.1,1.9,5.6,3.3c1.5,1.4,2.6,3,3.4,4.9s1.2,3.9,1.2,6.1c0,0.9-0.1,2-0.2,3.3
				c-0.1,1.3-0.5,2.8-1.1,4.3c-0.6,1.5-1.5,3.1-2.6,4.8c-1.2,1.7-2.8,3.3-4.7,4.8l-8.5,6.3c-1.1,0.8-2.2,1.7-3.4,2.5
				c-1.2,0.9-2.3,1.9-3.4,3c-1.1,1.1-2,2.4-2.9,3.8c-0.9,1.4-1.5,3-2,4.7l-1.9,7.1h-1.4l1.5-6C1529,359.9,1529.5,358.3,1530,356.7z"
				/>
		</g>
	</g>
	<g>
		<path class="st0" d="M164.2,130.2c0-4.3,0.8-8.2,2.5-11.8c1.7-3.6,3.8-6.8,6.5-9.4c2.6-2.7,5.6-4.8,8.9-6.3
			c3.3-1.5,6.6-2.3,9.9-2.3c3.5,0,6.9,0.8,10.3,2.3c3.3,1.5,6.3,3.6,8.9,6.3c2.6,2.7,4.7,5.8,6.3,9.4c1.6,3.6,2.4,7.6,2.4,11.8
			c0,3.7-0.7,7.4-2.2,11s-3.4,6.7-5.9,9.5c-2.5,2.8-5.5,5-8.8,6.7c-3.4,1.7-7,2.6-10.9,2.6c-4,0-7.7-0.8-11.1-2.5
			c-3.4-1.7-6.4-3.9-8.8-6.6c-2.5-2.7-4.4-5.9-5.8-9.5C164.9,137.7,164.2,134,164.2,130.2z M173.4,130.2c0,4.8,0.3,9,1,12.6
			c0.6,3.6,1.7,6.6,3.2,9c1.5,2.4,3.4,4.2,5.8,5.4c2.3,1.2,5.2,1.8,8.7,1.8c3.4,0,6.3-0.6,8.7-1.8c2.4-1.2,4.3-3,5.8-5.4
			c1.5-2.4,2.6-5.4,3.2-9c0.6-3.6,1-7.8,1-12.6c0-3.7-0.2-7.2-0.7-10.7s-1.4-6.5-2.8-9.2c-1.4-2.7-3.3-4.8-5.7-6.4
			c-2.4-1.6-5.6-2.4-9.5-2.4c-3.9,0-7.1,0.8-9.5,2.4c-2.4,1.6-4.3,3.7-5.7,6.4c-1.4,2.7-2.3,5.8-2.8,9.2S173.4,126.5,173.4,130.2z"
			/>
		<path class="st0" d="M227.7,157.6h8.9v-54.7h-8.9v-1.1h45.7v13.8h-0.9c-0.7-2.1-1.4-3.9-2.2-5.5c-0.8-1.6-1.8-2.9-2.9-4
			c-1.1-1.1-2.5-1.9-4-2.4c-1.5-0.5-3.4-0.8-5.6-0.8h-13.3v25.9h5.2c1.8,0,3.3-0.2,4.5-0.5c1.2-0.3,2.3-0.9,3.2-1.8
			c0.9-0.9,1.6-2.1,2.2-3.6c0.6-1.5,1.2-3.5,1.8-5.9h0.9v24.9h-0.9c-0.4-1.5-0.8-3-1.2-4.5c-0.4-1.4-1-2.7-1.7-3.8s-1.7-2-2.9-2.7
			c-1.2-0.7-2.8-1-4.7-1h-6.5v27.7h8.9v1.1h-25.7L227.7,157.6L227.7,157.6z"/>
	</g>
</g>
</svg>
