<?xml version="1.0" encoding="UTF-8"?><svg id="Layer_2" xmlns="http://www.w3.org/2000/svg" viewBox="0 0 751.24 402.93"><defs><style>.cls-1{fill:#323334;}.cls-2{fill:#ad9752;}</style></defs><g id="Calque_1"><g><g><path class="cls-2" d="M47.08,98.35l.57-2.01h42.17l-.57,2.01h-13.91l-.86,84.48h.29l37.44-56.08,.29-28.4h-15.06l.57-2.01h43.46l-.57,2.01h-16.06l-.86,83.48h.29l55.8-83.48h-13.77l.57-2.01h29.4l-.57,2.01h-12.77l-68.56,101.98h-2.87l.57-69.14h-.29l-46.47,69.14h-3.58l1.15-101.98h-15.78Z"/><path class="cls-2" d="M192.95,143.1c1.72-5.35,4.04-10.45,6.96-15.28,2.92-4.83,6.38-9.27,10.4-13.34,4.02-4.06,8.29-7.58,12.84-10.54,4.54-2.96,9.25-5.28,14.13-6.96,4.88-1.67,9.7-2.51,14.49-2.51,6.21,0,11.45,1.27,15.71,3.8,4.25,2.54,7.7,5.81,10.33,9.83,2.63,4.02,4.52,8.49,5.67,13.41,1.15,4.93,1.72,9.78,1.72,14.56,0,5.16-.79,10.35-2.37,15.56-1.58,5.21-3.78,10.18-6.6,14.92-2.82,4.73-6.19,9.16-10.11,13.27-3.92,4.11-8.18,7.7-12.77,10.76-4.59,3.06-9.44,5.45-14.56,7.17-5.12,1.72-10.35,2.58-15.71,2.58-4.78,0-9.18-.89-13.2-2.65-4.02-1.77-7.46-4.37-10.33-7.82-2.87-3.44-5.12-7.72-6.74-12.84-1.63-5.11-2.44-11.02-2.44-17.71,0-5.45,.86-10.85,2.58-16.21Zm9.32,41.31c.67,2.77,1.87,5.19,3.59,7.24,1.72,2.06,4.04,3.71,6.96,4.95,2.92,1.24,6.62,1.86,11.12,1.86,5.64,0,10.78-1.43,15.42-4.3,4.64-2.87,8.8-6.6,12.48-11.19,3.68-4.59,6.91-9.75,9.68-15.49,2.77-5.74,5.04-11.52,6.81-17.36,1.77-5.83,3.11-11.4,4.02-16.71,.91-5.31,1.36-9.78,1.36-13.41,0-7.46-1.77-13.24-5.31-17.36-3.54-4.11-9.18-6.17-16.92-6.17-5.36,0-10.3,1.39-14.85,4.16-4.54,2.77-8.68,6.41-12.41,10.9-3.73,4.5-7.03,9.59-9.9,15.28-2.87,5.69-5.26,11.48-7.17,17.36-1.91,5.88-3.37,11.6-4.38,17.14-1,5.55-1.51,10.38-1.51,14.49,0,2.96,.33,5.83,1,8.61Z"/><path class="cls-2" d="M364.64,196.46l35.28-98.11h-.29l-69.14,100.12,2.01-100.12h-.43l-34.85,98.11h16.35l-.57,2.01h-33.28l.57-2.01h14.77l35.14-98.11h-16.5l.57-2.01h30.7l-1.72,79.61h.29l54.94-79.61h29.69l-.57,2.01h-14.77l-35.14,98.11h16.35l-.57,2.01h-44.32l.57-2.01h14.92Z"/><path class="cls-2" d="M415.84,196.46l72-102.41h3.3l2.58,102.41h15.49l-.57,2.01h-44.18l.57-2.01h15.63l-.86-40.16h-32.99l-28.11,40.16h14.49l-.57,2.01h-29.55l.57-2.01h12.19Zm63.11-85.77l-30.69,43.6h31.56l-.57-43.6h-.29Z"/><path class="cls-2" d="M556.26,103.51l-33.13,92.95h16.35l-.57,2.01h-33.13l.57-2.01h14.63l35-98.11h-16.35l.57-2.01h27.11l20.37,80.9h.29l28.11-78.89h-16.5l.57-2.01h33.56l-.57,2.01h-14.77l-36.15,101.98h-1l-24.67-96.82h-.29Z"/><path class="cls-1" d="M125.65,273.59c0-4.03,.79-7.75,2.38-11.17,1.58-3.42,3.62-6.39,6.11-8.91,2.49-2.52,5.3-4.49,8.42-5.93,3.12-1.43,6.24-2.15,9.36-2.15,3.32,0,6.55,.72,9.7,2.15,3.14,1.43,5.95,3.41,8.42,5.93,2.47,2.52,4.44,5.49,5.93,8.91,1.48,3.42,2.23,7.15,2.23,11.17,0,3.52-.68,6.97-2.04,10.34-1.36,3.37-3.22,6.37-5.59,8.98-2.37,2.62-5.15,4.73-8.34,6.34-3.2,1.61-6.63,2.42-10.3,2.42s-7.27-.78-10.49-2.34c-3.22-1.56-6-3.64-8.34-6.23-2.34-2.59-4.17-5.59-5.47-8.98-1.31-3.4-1.96-6.91-1.96-10.53Zm8.68,0c0,4.53,.3,8.48,.91,11.85,.6,3.37,1.61,6.19,3.02,8.46,1.41,2.26,3.22,3.95,5.44,5.06,2.21,1.11,4.96,1.66,8.23,1.66s5.95-.55,8.19-1.66c2.24-1.11,4.06-2.79,5.47-5.06,1.41-2.27,2.42-5.08,3.02-8.46,.6-3.37,.91-7.32,.91-11.85,0-3.47-.23-6.83-.68-10.08s-1.32-6.14-2.6-8.68c-1.28-2.54-3.07-4.57-5.36-6.08-2.29-1.51-5.27-2.27-8.95-2.27s-6.66,.75-8.95,2.27c-2.29,1.51-4.08,3.54-5.36,6.08-1.28,2.54-2.15,5.44-2.6,8.68s-.68,6.61-.68,10.08Z"/><path class="cls-1" d="M185.58,299.48h8.38v-51.64h-8.38v-1.06h14.34c.6,0,1.21-.01,1.81-.04,.6-.02,1.21-.06,1.81-.11,.6,0,1.21-.01,1.81-.04,.6-.02,1.21-.04,1.81-.04,2.97,0,5.59,.16,7.85,.49,2.27,.33,4.38,1.27,6.34,2.83,1.76,1.36,3.01,2.89,3.74,4.6,.73,1.71,1.09,3.32,1.09,4.83,0,.75-.14,1.72-.42,2.91-.28,1.18-.88,2.39-1.81,3.62-.93,1.23-2.28,2.37-4.04,3.4-1.76,1.03-4.1,1.72-7.02,2.08v.15c.8,.1,1.9,.29,3.28,.57,1.38,.28,2.79,.74,4.23,1.4,1.43,.65,2.75,1.52,3.96,2.6,1.21,1.08,2.06,2.48,2.57,4.19,.3,1.01,.52,2.15,.64,3.43,.13,1.28,.23,2.6,.3,3.96,.08,1.36,.15,2.67,.23,3.93,.08,1.26,.21,2.32,.42,3.17,.3,1.31,.78,2.49,1.43,3.55,.65,1.06,1.71,1.59,3.17,1.59,.65,0,1.33-.13,2.04-.38,.71-.25,1.33-.65,1.89-1.21l.68,.83c-.25,.2-.54,.42-.87,.64-.33,.23-.74,.44-1.25,.64-.5,.2-1.12,.36-1.85,.49-.73,.12-1.62,.19-2.68,.19-2.01,0-3.69-.25-5.02-.75-1.33-.5-2.4-1.25-3.21-2.23-.81-.98-1.4-2.19-1.77-3.62-.38-1.43-.64-3.11-.79-5.02l-.53-6.87c-.2-2.52-.71-4.48-1.51-5.89-.81-1.41-1.75-2.44-2.83-3.1-1.08-.65-2.2-1.04-3.36-1.17-1.16-.12-2.17-.19-3.02-.19h-7.55v27.25h8.38v1.06h-24.31v-1.06Zm15.93-28.31h6.95c1.41,0,2.69-.18,3.85-.53,1.16-.35,2.15-.97,2.98-1.85,.83-.88,1.47-2.08,1.92-3.59s.68-3.42,.68-5.74c0-2.62-.34-4.72-1.02-6.3-.68-1.59-1.56-2.78-2.64-3.59-1.08-.8-2.29-1.33-3.62-1.58-1.33-.25-2.66-.38-3.96-.38-.91,0-1.83,.01-2.76,.04-.93,.03-1.72,.09-2.38,.19v23.33Z"/><path class="cls-1" d="M258.73,299.42h7.04l21.59-57.25h1.92l21.75,57.25h7.12v1.12h-24.63v-1.12h8.88l-8.4-22.23h-18.55l-8.4,22.23h8.88v1.12h-17.19v-1.12Zm25.99-46.62l-8.8,23.27h17.59l-8.8-23.27Z"/></g><g><path class="cls-1" d="M0,57.25H8.88V2.56H0V1.44H25.75v1.12h-8.88V57.25h8.88v1.12H0v-1.12Z"/><path class="cls-1" d="M34.38,41.18h.88c.59,2.88,1.35,5.3,2.28,7.28,.93,1.97,1.96,3.6,3.08,4.88,1.12,1.28,2.29,2.27,3.52,2.96,1.23,.69,2.46,1.2,3.72,1.52,1.25,.32,2.45,.51,3.6,.56,1.15,.05,2.23,.08,3.24,.08,2.83,0,5.14-.43,6.96-1.28,1.81-.85,3.25-1.93,4.32-3.24,1.07-1.31,1.81-2.72,2.24-4.24,.43-1.52,.64-2.92,.64-4.2,0-1.87-.35-3.46-1.04-4.8-.69-1.33-1.57-2.46-2.64-3.4-1.07-.93-2.23-1.69-3.48-2.28-1.25-.59-2.44-1.04-3.56-1.36l-9.2-2.8c-4.32-1.33-7.58-3.09-9.79-5.28-2.21-2.19-3.32-5.12-3.32-8.8,0-2.4,.43-4.62,1.28-6.68,.85-2.05,2.05-3.82,3.6-5.32,1.55-1.49,3.4-2.67,5.56-3.52,2.16-.85,4.52-1.28,7.08-1.28,1.87,0,3.42,.16,4.68,.48,1.25,.32,2.33,.68,3.24,1.08s1.72,.76,2.44,1.08,1.45,.48,2.2,.48c.69,0,1.16-.09,1.4-.28,.24-.19,.57-.65,1-1.4h1.12V15.91h-.96c-.32-1.92-.87-3.77-1.64-5.56-.77-1.79-1.77-3.36-3-4.72-1.23-1.36-2.71-2.45-4.44-3.28-1.73-.83-3.75-1.24-6.04-1.24-1.28,0-2.69,.17-4.24,.52-1.55,.35-2.99,.95-4.32,1.8-1.33,.85-2.44,1.97-3.32,3.36-.88,1.39-1.32,3.15-1.32,5.28,0,1.71,.35,3.16,1.04,4.36,.69,1.2,1.58,2.21,2.68,3.04,1.09,.83,2.32,1.52,3.68,2.08s2.73,1.05,4.12,1.48l9.67,3.04c1.01,.32,2.29,.75,3.84,1.28,1.54,.53,3.05,1.33,4.52,2.4,1.46,1.07,2.72,2.48,3.76,4.24,1.04,1.76,1.56,4,1.56,6.72,0,2.51-.47,4.89-1.4,7.16-.93,2.27-2.28,4.27-4.04,6-1.76,1.73-3.89,3.12-6.4,4.16-2.51,1.04-5.33,1.56-8.48,1.56-1.12,0-2.11-.01-2.96-.04-.85-.03-1.65-.09-2.4-.2-.75-.11-1.49-.23-2.24-.36-.75-.13-1.57-.33-2.48-.6-1.07-.32-2.21-.69-3.44-1.12-1.23-.43-2.29-.64-3.2-.64-.8,0-1.35,.16-1.64,.48-.29,.32-.55,.75-.76,1.28h-1.2v-17.19Z"/><path class="cls-1" d="M106.58,57.25h8.88V2.56h-8.88V1.44h25.75v1.12h-8.88V57.25h8.88v1.12h-25.75v-1.12Z"/><path class="cls-1" d="M149.44,57.25h8.88V2.56h-4.64c-1.07,0-2.27,.09-3.6,.28-1.33,.19-2.68,.71-4.04,1.56-1.36,.85-2.67,2.2-3.92,4.04-1.25,1.84-2.33,4.39-3.24,7.64h-.88V1.44h48.62v14.63h-.88c-.91-3.25-1.99-5.8-3.24-7.64-1.25-1.84-2.56-3.19-3.92-4.04-1.36-.85-2.71-1.37-4.04-1.56-1.33-.19-2.53-.28-3.6-.28h-4.64V57.25h8.88v1.12h-25.75v-1.12Z"/><path class="cls-1" d="M214.29,57.25h8.88V2.56h-8.88V1.44h45.74V15.27h-.88c-.69-2.08-1.44-3.9-2.24-5.48-.8-1.57-1.76-2.9-2.88-4-1.12-1.09-2.45-1.91-4-2.44-1.55-.53-3.41-.8-5.6-.8h-13.27V28.47h5.2c1.76,0,3.25-.16,4.48-.48,1.23-.32,2.28-.92,3.16-1.8,.88-.88,1.62-2.08,2.24-3.6,.61-1.52,1.21-3.48,1.8-5.88h.88v24.87h-.88c-.37-1.55-.76-3.04-1.16-4.48-.4-1.44-.96-2.72-1.68-3.84-.72-1.12-1.68-2.01-2.88-2.68-1.2-.67-2.76-1-4.68-1h-6.48v27.67h8.88v1.12h-25.75v-1.12Z"/><path class="cls-1" d="M270.66,29.83c0-4.26,.84-8.21,2.52-11.83,1.68-3.62,3.84-6.77,6.48-9.44,2.64-2.67,5.61-4.76,8.92-6.28,3.3-1.52,6.61-2.28,9.92-2.28,3.52,0,6.94,.76,10.27,2.28,3.33,1.52,6.3,3.61,8.92,6.28,2.61,2.67,4.7,5.81,6.28,9.44,1.57,3.63,2.36,7.57,2.36,11.83,0,3.73-.72,7.38-2.16,10.95-1.44,3.57-3.41,6.74-5.92,9.52-2.51,2.77-5.45,5.01-8.84,6.72-3.39,1.71-7.02,2.56-10.91,2.56s-7.7-.83-11.11-2.48c-3.41-1.65-6.36-3.85-8.84-6.6-2.48-2.75-4.41-5.92-5.8-9.52-1.39-3.6-2.08-7.32-2.08-11.15Zm9.2,0c0,4.8,.32,8.98,.96,12.55,.64,3.57,1.71,6.56,3.2,8.96,1.49,2.4,3.41,4.19,5.76,5.36,2.34,1.17,5.25,1.76,8.72,1.76s6.3-.59,8.68-1.76c2.37-1.17,4.3-2.96,5.8-5.36,1.49-2.4,2.56-5.38,3.2-8.96,.64-3.57,.96-7.76,.96-12.55,0-3.68-.24-7.24-.72-10.67-.48-3.44-1.4-6.5-2.76-9.2-1.36-2.69-3.25-4.84-5.68-6.44-2.43-1.6-5.58-2.4-9.48-2.4s-7.05,.8-9.48,2.4c-2.43,1.6-4.32,3.75-5.68,6.44-1.36,2.69-2.28,5.76-2.76,9.2-.48,3.44-.72,7-.72,10.67Z"/><path class="cls-1" d="M334.15,57.25h8.88V2.56h-8.88V1.44h15.19c.64,0,1.28-.01,1.92-.04,.64-.03,1.28-.07,1.92-.12,.64,0,1.28-.01,1.92-.04,.64-.03,1.28-.04,1.92-.04,3.14,0,5.92,.17,8.32,.52,2.4,.35,4.64,1.35,6.72,3,1.87,1.44,3.18,3.07,3.96,4.88,.77,1.81,1.16,3.52,1.16,5.12,0,.8-.15,1.83-.44,3.08-.29,1.25-.93,2.53-1.92,3.84-.99,1.31-2.41,2.51-4.28,3.6-1.87,1.09-4.35,1.83-7.44,2.2v.16c.85,.11,2.01,.31,3.48,.6,1.46,.29,2.96,.79,4.48,1.48,1.52,.69,2.92,1.61,4.2,2.76,1.28,1.15,2.19,2.63,2.72,4.44,.32,1.07,.55,2.28,.68,3.64,.13,1.36,.24,2.76,.32,4.2,.08,1.44,.16,2.83,.24,4.16,.08,1.33,.23,2.45,.44,3.36,.32,1.39,.83,2.64,1.52,3.76,.69,1.12,1.81,1.68,3.36,1.68,.69,0,1.41-.13,2.16-.4,.75-.27,1.41-.69,2-1.28l.72,.88c-.27,.21-.57,.44-.92,.68-.35,.24-.79,.47-1.32,.68-.53,.21-1.19,.39-1.96,.52-.77,.13-1.72,.2-2.84,.2-2.13,0-3.91-.27-5.32-.8-1.41-.53-2.55-1.32-3.4-2.36-.85-1.04-1.48-2.32-1.88-3.84-.4-1.52-.68-3.29-.84-5.32l-.56-7.28c-.21-2.66-.75-4.74-1.6-6.24-.85-1.49-1.85-2.58-3-3.28-1.15-.69-2.33-1.11-3.56-1.24-1.23-.13-2.29-.2-3.2-.2h-8v28.87h8.88v1.12h-25.75v-1.12Zm16.87-29.98h7.36c1.49,0,2.85-.19,4.08-.56,1.23-.37,2.28-1.03,3.16-1.96,.88-.93,1.56-2.2,2.04-3.8s.72-3.62,.72-6.08c0-2.77-.36-5-1.08-6.68-.72-1.68-1.65-2.94-2.8-3.8-1.15-.85-2.43-1.41-3.84-1.68-1.41-.27-2.81-.4-4.2-.4-.96,0-1.93,.01-2.92,.04-.99,.03-1.83,.09-2.52,.2V27.27Z"/><path class="cls-1" d="M407.23,57.25h7.04L435.86,0h1.92l21.75,57.25h7.12v1.12h-24.63v-1.12h8.88l-8.4-22.23h-18.55l-8.4,22.23h8.88v1.12h-17.19v-1.12Zm25.99-46.62l-8.8,23.27h17.59l-8.8-23.27Z"/></g><g><path class="cls-2" d="M400.83,399.06l35.28-98.11h-.29l-69.14,100.12,2.01-100.12h-.43l-34.85,98.11h16.35l-.57,2.01h-33.28l.57-2.01h14.77l35.14-98.11h-16.5l.57-2.01h30.7l-1.72,79.61h.29l54.94-79.61h29.69l-.57,2.01h-14.77l-35.14,98.11h16.35l-.57,2.01h-44.32l.57-2.01h14.92Z"/><path class="cls-2" d="M452.04,399.06l72-102.41h3.3l2.58,102.41h15.49l-.57,2.01h-44.18l.57-2.01h15.63l-.86-40.16h-32.99l-28.11,40.16h14.49l-.57,2.01h-29.55l.57-2.01h12.19Zm63.11-85.77l-30.69,43.6h31.56l-.57-43.6h-.29Z"/><path class="cls-2" d="M592.46,306.11l-33.13,92.95h16.35l-.57,2.01h-33.13l.57-2.01h14.63l35-98.11h-16.35l.57-2.01h27.11l20.37,80.9h.29l28.11-78.89h-16.5l.57-2.01h33.56l-.57,2.01h-14.77l-36.15,101.98h-1l-24.67-96.82h-.29Z"/><path class="cls-2" d="M699.81,391.39c1.29-1.29,2.89-1.94,4.8-1.94s3.51,.65,4.8,1.94c1.29,1.29,1.94,2.89,1.94,4.8s-.65,3.49-1.94,4.73c-1.29,1.24-2.89,1.86-4.8,1.86s-3.51-.62-4.8-1.86-1.94-2.82-1.94-4.73,.65-3.51,1.94-4.8Zm13.34-30.05c.72-2.1,2.13-4.35,4.23-6.74l11.19-12.91c4.78-5.45,8.08-10.8,9.9-16.06,1.82-5.26,2.73-9.75,2.73-13.48,0-4.78-1.32-8.15-3.95-10.11-2.63-1.96-5.67-2.94-9.11-2.94-4.88,0-8.18,1.27-9.9,3.8-1.72,2.53-2.58,5.95-2.58,10.26,0,1.43-.43,2.68-1.29,3.73-.86,1.05-2.39,1.58-4.59,1.58-1.72,0-2.99-.65-3.8-1.94-.81-1.29-1.22-2.46-1.22-3.51,0-1.72,.55-3.51,1.65-5.38,1.1-1.86,2.65-3.59,4.66-5.16,2.01-1.58,4.42-2.87,7.24-3.87,2.82-1,6-1.51,9.54-1.51,3.82,0,7.19,.53,10.11,1.58,2.92,1.05,5.35,2.49,7.32,4.3,1.96,1.82,3.44,3.94,4.45,6.38s1.51,5.09,1.51,7.96c0,1.15-.1,2.58-.29,4.3-.19,1.72-.67,3.59-1.43,5.59-.77,2.01-1.91,4.09-3.44,6.24-1.53,2.15-3.59,4.23-6.17,6.24l-11.04,8.18c-1.43,1.05-2.92,2.15-4.45,3.3-1.53,1.15-2.99,2.46-4.38,3.94-1.39,1.48-2.65,3.13-3.8,4.95-1.15,1.82-2.01,3.87-2.58,6.17l-2.44,9.18h-1.86l2.01-7.75c.48-2.1,1.08-4.21,1.79-6.31Z"/></g></g></g></svg>