<?xml version="1.0" encoding="utf-8"?>
<!-- Generator: Adobe Illustrator 19.2.1, SVG Export Plug-In . SVG Version: 6.00 Build 0)  -->
<svg version="1.1" id="Calque_1" xmlns="http://www.w3.org/2000/svg" xmlns:xlink="http://www.w3.org/1999/xlink" x="0px" y="0px"
	 viewBox="0 0 1147.9 412.8" style="enable-background:new 0 0 1147.9 412.8;" xml:space="preserve">
<style type="text/css">
	.st0{fill:#323334;}
	.st1{fill:#AF9751;}
</style>
<g>
	<g>
		<path class="st0" d="M0,1.4h24.1v1.1h-8.3l16.5,46.4h0.2L43,19.4L36.9,2.6h-6.7V1.4h24v1.1h-8.7L62,48.9h0.2L78.9,2.6h-8.6V1.4
			h17.1v1.1h-7.2l-20.7,57h-2L43.8,21.2h-0.2L29.7,59.6h-2.2L7.2,2.6H0L0,1.4L0,1.4z"/>
		<path class="st0" d="M89.1,57.3H98V2.6h-8.9V1.4h25.7v1.1h-8.9v26.1h26.6V2.6h-8.9V1.4h25.7v1.1h-8.9v54.7h8.9v1.1h-25.7v-1.1h8.9
			V29.8h-26.6v27.4h8.9v1.1H89.1V57.3z"/>
		<path class="st0" d="M151.8,57.3h7L180.4,0h1.9l21.8,57.3h7.1v1.1h-24.6v-1.1h8.9L187,35h-18.5l-8.4,22.2h8.9v1.1h-17.2V57.3z
			 M177.8,10.6L169,33.9h17.6L177.8,10.6z"/>
		<path class="st0" d="M219.6,57.3h8.9V2.6h-4.6c-1.1,0-2.3,0.1-3.6,0.3c-1.3,0.2-2.7,0.7-4,1.6c-1.4,0.9-2.7,2.2-3.9,4
			c-1.3,1.8-2.3,4.4-3.2,7.6h-0.9V1.4h48.6v14.6h-0.9c-0.9-3.3-2-5.8-3.2-7.6c-1.3-1.8-2.6-3.2-3.9-4c-1.4-0.9-2.7-1.4-4-1.6
			c-1.3-0.2-2.5-0.3-3.6-0.3h-4.6v54.7h8.9v1.1h-25.7L219.6,57.3L219.6,57.3z"/>
		<path class="st0" d="M274,1.4h24.1v1.1h-8.3l16.5,46.4h0.2L317,19.4L311,2.6h-6.7V1.4h24v1.1h-8.7L336,48.9h0.2l16.8-46.4h-8.6
			V1.4h17.1v1.1h-7.2l-20.7,57h-2l-13.8-38.4h-0.2l-13.9,38.4h-2.2l-20.4-57H274L274,1.4L274,1.4z"/>
		<path class="st0" d="M364.7,29.8c0-4.3,0.8-8.2,2.5-11.8c1.7-3.6,3.8-6.8,6.5-9.4c2.6-2.7,5.6-4.8,8.9-6.3
			c3.3-1.5,6.6-2.3,9.9-2.3c3.5,0,6.9,0.8,10.3,2.3c3.3,1.5,6.3,3.6,8.9,6.3c2.6,2.7,4.7,5.8,6.3,9.4c1.6,3.6,2.4,7.6,2.4,11.8
			c0,3.7-0.7,7.4-2.2,11s-3.4,6.7-5.9,9.5c-2.5,2.8-5.5,5-8.8,6.7c-3.4,1.7-7,2.6-10.9,2.6c-4,0-7.7-0.8-11.1-2.5
			c-3.4-1.7-6.4-3.9-8.8-6.6c-2.5-2.7-4.4-5.9-5.8-9.5C365.4,37.4,364.7,33.7,364.7,29.8z M373.9,29.8c0,4.8,0.3,9,1,12.6
			c0.6,3.6,1.7,6.6,3.2,9c1.5,2.4,3.4,4.2,5.8,5.4c2.3,1.2,5.2,1.8,8.7,1.8c3.4,0,6.3-0.6,8.7-1.8c2.4-1.2,4.3-3,5.8-5.4
			c1.5-2.4,2.6-5.4,3.2-9c0.6-3.6,1-7.8,1-12.6c0-3.7-0.2-7.2-0.7-10.7c-0.5-3.4-1.4-6.5-2.8-9.2c-1.4-2.7-3.3-4.8-5.7-6.4
			c-2.4-1.6-5.6-2.4-9.5-2.4c-3.9,0-7,0.8-9.5,2.4c-2.4,1.6-4.3,3.7-5.7,6.4c-1.4,2.7-2.3,5.8-2.8,9.2
			C374.1,22.6,373.9,26.1,373.9,29.8z"/>
		<path class="st0" d="M427.5,1.4h25.7v1.1h-8.9v38.6c0,3.2,0.3,5.9,0.8,8.1c0.6,2.2,1.4,4,2.5,5.4s2.5,2.3,4.2,2.9
			c1.7,0.6,3.5,0.9,5.7,0.9c3,0,5.6-0.4,7.9-1.3c2.3-0.9,4.3-2.4,5.9-4.7c0.5-0.7,1-1.4,1.4-2.1c0.4-0.7,0.7-1.5,1-2.4
			c0.3-0.9,0.5-2.1,0.7-3.4s0.2-2.9,0.2-4.8V2.6h-8.9V1.4h19v1.1h-8.9v38.8c0,2.2-0.2,4.3-0.7,6.1c-0.5,1.8-1.5,3.7-3,5.7
			c-1.4,1.9-3.4,3.5-6,4.6s-5.9,1.8-10.2,1.8c-6.4,0-11.3-1.6-14.7-4.7c-3.4-3.1-5.1-8-5.1-14.5V2.6h-8.9L427.5,1.4L427.5,1.4z"/>
		<path class="st0" d="M488.9,57.3h8.9V2.6h-8.9V1.4h25.7v1.1h-8.9v54.7H520c4.7,0,8.4-1.5,11-4.4c2.7-2.9,4.6-6.9,5.8-12h0.9v17.5
			h-48.9L488.9,57.3L488.9,57.3z"/>
		<path class="st0" d="M543.6,57.3h8.9V2.6h-8.9V1.4h14.9c0.7,0,1.5,0,2.2,0c0.7,0,1.5-0.1,2.2-0.1c0.7,0,1.5,0,2.2,0
			c0.7,0,1.5,0,2.2,0c1.6,0,3,0,4.3,0.1c1.3,0.1,2.4,0.1,3.5,0.3c1.1,0.1,2.1,0.3,3.1,0.6c1,0.2,2,0.5,3.2,0.9
			c3.3,1.1,6.1,2.5,8.4,4.3c2.4,1.8,4.3,3.9,5.8,6.2c1.5,2.3,2.6,4.9,3.4,7.7c0.7,2.8,1.1,5.7,1.1,8.7c0,3.5-0.4,6.7-1.3,9.5
			c-0.9,2.8-2,5.3-3.5,7.4c-1.5,2.2-3.2,4-5.2,5.6c-2,1.6-4.1,2.8-6.4,3.8c-1.3,0.6-2.5,1-3.6,1.4c-1.1,0.3-2.3,0.6-3.5,0.7
			c-1.2,0.2-2.5,0.3-4,0.3c-1.4,0.1-3.1,0.1-5,0.1c-0.8,0-1.7,0-2.6,0c-0.9,0-1.8-0.1-2.7-0.1c-0.9-0.1-1.8-0.1-2.7-0.1
			c-0.9,0-1.7,0-2.5,0h-13.6L543.6,57.3L543.6,57.3z M560.5,57.3c0.9,0.1,2,0.2,3.2,0.2c1.2,0.1,2.5,0.1,4,0.1
			c1.8,0,3.6-0.1,5.4-0.3c1.8-0.2,3.5-0.6,5.1-1.2c1.6-0.6,3.1-1.5,4.6-2.6c1.4-1.1,2.7-2.7,3.8-4.5c1.7-2.9,2.9-5.8,3.6-8.8
			c0.7-3,1-6.3,1-9.9c0-4.2-0.4-8-1.2-11.5c-0.8-3.4-2.1-6.4-4-8.8c-1.8-2.4-4.3-4.3-7.3-5.6c-3-1.3-6.8-2-11.3-2
			c-1.3,0-2.5,0-3.6,0.1c-1.1,0.1-2.1,0.1-3.2,0.2L560.5,57.3L560.5,57.3z"/>
		<path class="st0" d="M3.2,153.2h8.9V98.5H3.2v-1.1h14c0.8,0,1.6,0,2.4,0c0.8,0,1.7-0.1,2.5-0.1c0.9,0,1.7,0,2.5,0
			c0.8,0,1.6,0,2.3,0c3.9,0,7.1,0.5,9.6,1.4c2.5,0.9,4.5,2.1,5.9,3.4c1.4,1.4,2.4,2.8,3,4.4c0.5,1.6,0.8,3,0.8,4.3
			c0,1.8-0.4,3.4-1.2,4.9c-0.8,1.5-1.8,2.8-3.1,3.9c-1.3,1.1-2.8,2-4.5,2.7c-1.7,0.7-3.5,1.1-5.4,1.4v0.2c1.9,0.2,3.9,0.6,5.9,1.2
			c2,0.7,3.8,1.6,5.4,2.8c1.6,1.2,2.9,2.7,4,4.4c1,1.8,1.5,3.8,1.5,6.1c0,2.4-0.5,4.6-1.4,6.6c-0.9,2-2.3,3.7-4.1,5.2
			c-1.8,1.4-4.1,2.6-6.9,3.4c-2.8,0.8-6,1.2-9.7,1.2c-0.7,0-1.5,0-2.2,0c-0.7,0-1.5-0.1-2.3-0.1c-0.8-0.1-1.6-0.1-2.5-0.1
			c-0.9,0-1.8,0-2.7,0h-14L3.2,153.2L3.2,153.2z M20.1,123.2h7.4c1.5,0,2.9-0.2,4.1-0.6c1.2-0.4,2.3-1,3.2-2c0.9-0.9,1.6-2.2,2-3.8
			c0.5-1.6,0.7-3.6,0.7-6.1c0-2.8-0.4-5-1.1-6.7s-1.7-2.9-2.8-3.8c-1.1-0.9-2.4-1.4-3.8-1.7c-1.4-0.3-2.8-0.4-4.2-0.4
			c-1,0-1.9,0-2.9,0c-1,0-1.8,0.1-2.5,0.2L20.1,123.2L20.1,123.2z M20.1,153.2c0.6,0.1,1.3,0.1,2.1,0.2c0.8,0.1,1.9,0.1,3.3,0.1
			c2.5,0,4.6-0.2,6.4-0.7c1.8-0.5,3.3-1.3,4.4-2.5c1.1-1.2,2-2.8,2.5-4.8c0.5-2,0.8-4.5,0.8-7.4c0-4.3-0.9-7.6-2.7-10.1
			c-1.8-2.5-4.5-3.7-8.1-3.7h-8.8L20.1,153.2L20.1,153.2z"/>
		<path class="st0" d="M56.5,153.2h8.9V98.5h-8.9v-1.1h45.7v13.8h-0.9c-0.7-2.1-1.4-3.9-2.2-5.5c-0.8-1.6-1.8-2.9-2.9-4
			s-2.5-1.9-4-2.4c-1.5-0.5-3.4-0.8-5.6-0.8H73.4v24.7h5.2c1.8,0,3.3-0.2,4.5-0.5c1.2-0.3,2.3-0.9,3.2-1.8c0.9-0.9,1.6-2.1,2.2-3.6
			c0.6-1.5,1.2-3.5,1.8-5.9h0.9v24.9h-0.9c-0.4-1.5-0.8-3-1.2-4.5c-0.4-1.4-1-2.7-1.7-3.8c-0.7-1.1-1.7-2-2.9-2.7
			c-1.2-0.7-2.8-1-4.7-1h-6.5v28.9h15.1c2.9,0,5.4-0.6,7.3-1.9c1.9-1.3,3.5-2.7,4.8-4.5c1.2-1.7,2.1-3.5,2.7-5.4
			c0.6-1.9,1-3.4,1.1-4.6h0.9v17.5H56.5L56.5,153.2L56.5,153.2z"/>
		<path class="st0" d="M139.9,153.2h8.9V98.5h-4.6c-1.1,0-2.3,0.1-3.6,0.3c-1.3,0.2-2.7,0.7-4,1.6c-1.4,0.9-2.7,2.2-3.9,4
			c-1.3,1.8-2.3,4.4-3.2,7.6h-0.9V97.4h48.6V112h-0.9c-0.9-3.2-2-5.8-3.2-7.6c-1.3-1.8-2.6-3.2-3.9-4c-1.4-0.9-2.7-1.4-4-1.6
			c-1.3-0.2-2.5-0.3-3.6-0.3h-4.6v54.7h8.9v1.1h-25.7L139.9,153.2L139.9,153.2z"/>
		<path class="st0" d="M182.5,153.2h8.9V98.5h-8.9v-1.1h25.7v1.1h-8.9v26.1H226V98.5h-8.9v-1.1h25.7v1.1H234v54.7h8.9v1.1h-25.7
			v-1.1h8.9v-27.4h-26.6v27.4h8.9v1.1h-25.7V153.2z"/>
		<path class="st0" d="M247.7,153.2h8.9V98.5h-8.9v-1.1h45.7v13.8h-0.9c-0.7-2.1-1.4-3.9-2.2-5.5c-0.8-1.6-1.8-2.9-2.9-4
			s-2.5-1.9-4-2.4c-1.5-0.5-3.4-0.8-5.6-0.8h-13.3v24.7h5.2c1.8,0,3.3-0.2,4.5-0.5c1.2-0.3,2.3-0.9,3.2-1.8c0.9-0.9,1.6-2.1,2.2-3.6
			c0.6-1.5,1.2-3.5,1.8-5.9h0.9v24.9h-0.9c-0.4-1.5-0.8-3-1.2-4.5c-0.4-1.4-1-2.7-1.7-3.8c-0.7-1.1-1.7-2-2.9-2.7
			c-1.2-0.7-2.8-1-4.7-1h-6.5v28.9h15.1c2.9,0,5.4-0.6,7.3-1.9c1.9-1.3,3.5-2.7,4.8-4.5c1.2-1.7,2.1-3.5,2.7-5.4
			c0.6-1.9,1-3.4,1.1-4.6h0.9v17.5h-48.8L247.7,153.2L247.7,153.2z"/>
	</g>
	<g>
		<path class="st1" d="M330.3,127.8c1.7-5.4,4-10.4,7-15.3c2.9-4.8,6.4-9.3,10.4-13.3c4-4.1,8.3-7.6,12.8-10.5c4.5-3,9.3-5.3,14.1-7
			c4.9-1.7,9.7-2.5,14.5-2.5c6.2,0,11.4,1.3,15.7,3.8c4.3,2.5,7.7,5.8,10.3,9.8c2.6,4,4.5,8.5,5.7,13.4c1.1,4.9,1.7,9.8,1.7,14.6
			c0,5.2-0.8,10.4-2.4,15.6c-1.6,5.2-3.8,10.2-6.6,14.9c-2.8,4.7-6.2,9.2-10.1,13.3c-3.9,4.1-8.2,7.7-12.8,10.8
			c-4.6,3.1-9.4,5.5-14.6,7.2c-5.1,1.7-10.4,2.6-15.7,2.6c-4.8,0-9.2-0.9-13.2-2.7c-4-1.8-7.5-4.4-10.3-7.8
			c-2.9-3.4-5.1-7.7-6.7-12.8c-1.6-5.1-2.4-11-2.4-17.7C327.7,138.5,328.6,133.1,330.3,127.8z M339.7,169.1c0.7,2.8,1.9,5.2,3.6,7.2
			c1.7,2.1,4,3.7,7,4.9c2.9,1.2,6.6,1.9,11.1,1.9c5.6,0,10.8-1.4,15.4-4.3c4.6-2.9,8.8-6.6,12.5-11.2c3.7-4.6,6.9-9.8,9.7-15.5
			c2.8-5.7,5-11.5,6.8-17.4c1.8-5.8,3.1-11.4,4-16.7c0.9-5.3,1.4-9.8,1.4-13.4c0-7.5-1.8-13.2-5.3-17.4c-3.5-4.1-9.2-6.2-16.9-6.2
			c-5.4,0-10.3,1.4-14.8,4.2c-4.5,2.8-8.7,6.4-12.4,10.9c-3.7,4.5-7,9.6-9.9,15.3c-2.9,5.7-5.3,11.5-7.2,17.4
			c-1.9,5.9-3.4,11.6-4.4,17.1c-1,5.5-1.5,10.4-1.5,14.5C338.7,163.4,339,166.3,339.7,169.1z"/>
		<path class="st1" d="M482.5,83H467v85.1h0.3L526.6,83h-14.2l0.6-2h29l-0.6,2h-11.9l-71.3,102h-3.7l-0.6-102h-15.6l0.6-2h44.3
			L482.5,83z"/>
		<path class="st1" d="M550.4,83l0.6-2h79.7l-8.7,24.4h-2c0.4-1.1,0.8-2.6,1.1-4.6c0.4-2,0.6-3.9,0.6-5.7c0-3.5-0.8-6.4-2.3-8.7
			c-1.5-2.2-4.6-3.4-9.2-3.4h-30.3L564,127.3h13.5c3.1,0,5.8-0.8,8.1-2.4c2.3-1.6,4.3-3.4,6-5.5c1.7-2.1,3-4.1,4.1-6.1
			c1.1-2,1.8-3.4,2.3-4.3h2l-15.1,41.7h-2c0.5-1.1,0.9-2.7,1.3-4.7c0.4-2,0.6-3.9,0.6-5.7c0-3.6-1.1-6.4-3.2-8.2
			c-2.1-1.9-5-2.8-8.6-2.8h-9.8l-18.5,51.8h33.6c3.8,0,7.4-1.1,10.7-3.3c3.3-2.2,6.2-4.8,8.7-7.7c2.5-2.9,4.7-5.8,6.4-8.7
			c1.7-2.9,3-5,3.7-6.5h2l-10,28.1h-83.3l0.6-2h14.8L567,83L550.4,83L550.4,83z"/>
		<path class="st1" d="M648.8,83l0.9-2h34.9c3.3,0,6.8,0.4,10.4,1.1c3.6,0.8,6.8,2,9.8,3.8c2.9,1.8,5.3,4.1,7.2,6.9
			c1.9,2.8,2.9,6.3,2.9,10.4c0,3.4-0.7,6.5-2.2,9c-1.5,2.6-3.4,4.8-5.7,6.5c-2.3,1.8-4.8,3.2-7.6,4.4c-2.8,1.1-5.4,2.1-8,2.8
			c-2.6,0.7-4.9,1.2-7,1.5c-2.1,0.3-3.6,0.5-4.4,0.6l-0.3,0.4c1.5,0.2,3.5,0.6,5.9,1.1c2.4,0.6,4.7,1.5,7,2.9
			c2.2,1.3,4.2,3.1,5.8,5.3c1.6,2.2,2.4,5,2.4,8.5c0,2.4-0.2,4.7-0.6,7c-0.4,2.2-0.8,4.4-1.2,6.6c-0.4,2.1-0.8,4.3-1.2,6.5
			c-0.4,2.2-0.6,4.5-0.6,6.9c0,2.7,0.7,4.8,2.2,6.4c1.4,1.6,3.2,2.4,5.4,2.4c0.8,0,1.6-0.1,2.4-0.2c0.8-0.1,1.4-0.3,1.8-0.5l0.6,1.9
			c-0.5,0.1-1.4,0.2-2.8,0.4c-1.4,0.2-2.8,0.3-4.2,0.3c-2.6,0-4.9-0.3-7.1-0.8c-2.2-0.5-4-1.4-5.7-2.6c-1.6-1.2-2.9-2.8-3.8-4.7
			c-0.9-2-1.4-4.4-1.4-7.2c0-1.4,0.2-3.3,0.5-5.6c0.3-2.3,0.7-4.7,1.2-7.3c0.4-2.5,0.7-5,1.1-7.5c0.3-2.5,0.5-4.6,0.5-6.5
			c0-1.7-0.3-3.4-0.8-4.9c-0.5-1.6-1.5-2.9-2.9-4.1c-1.4-1.1-3.4-2.1-6-2.7c-2.6-0.7-5.9-1-10-1h-5.9l-18.8,52.2h16.5l-0.7,2h-44
			l0.7-2h14.6l35-98.1L648.8,83L648.8,83z M672.1,126.9c3.8,0,7.2-0.3,10.2-1c3-0.7,5.3-1.5,6.9-2.6c1.3-0.9,2.7-2,4.2-3.3
			c1.4-1.3,2.7-3,3.9-4.9c1.1-2,2.1-4.3,2.9-6.9c0.8-2.6,1.1-5.7,1.1-9.3c0-5.4-1.6-9.3-4.9-12c-3.3-2.6-7.3-3.9-12-3.9h-6
			l-15.8,43.9L672.1,126.9L672.1,126.9z"/>
		<path class="st1" d="M720.6,181.1l72-102.4h3.3l2.6,102.4H814l-0.6,2h-44.2l0.6-2h15.6l-0.9-40.2h-33l-28.1,40.2H738l-0.6,2h-29.5
			l0.6-2H720.6z M783.7,95.3L753,138.9h31.6L784,95.3L783.7,95.3L783.7,95.3z"/>
		<path class="st1" d="M845.4,83l0.6-2h44.5l-0.6,2h-15.1l-35.1,98.1h33.6c3.7,0,7.2-1.1,10.5-3.2c3.2-2.2,6.1-4.7,8.7-7.6
			c2.5-2.9,4.7-5.8,6.5-8.8c1.8-2.9,3.1-5.1,3.9-6.5h2l-10,28.1h-83.3l0.6-2h14.8L861.9,83L845.4,83L845.4,83z"/>
		<path class="st1" d="M935.8,83l0.6-2h44.5l-0.6,2h-15.1L930,181.1h33.6c3.7,0,7.2-1.1,10.5-3.2c3.2-2.2,6.1-4.7,8.7-7.6
			c2.5-2.9,4.7-5.8,6.5-8.8c1.8-2.9,3.1-5.1,3.9-6.5h2l-10,28.1h-83.3l0.6-2h14.8L952.3,83L935.8,83L935.8,83z"/>
	</g>
	<g>
		<path class="st1" d="M544.5,331.4l0.4-1.6h26.7c4.3,0,8.1,0.6,11.4,1.7c3.3,1.1,6.1,2.6,8.3,4.5c2.3,1.9,4,4.1,5.2,6.6
			c1.2,2.5,1.8,5.2,1.8,8.1c0,4.3-1.2,8.1-3.5,11.4c-2.3,3.2-5.2,6-8.7,8.2c-3.5,2.2-7.4,3.9-11.7,5c-4.3,1.1-8.4,1.7-12.3,1.7
			c-1.7,0-3.5-0.1-5.5-0.3c-1.9-0.2-3.6-0.4-4.9-0.6l-11.8,33.6h12.8l-0.6,1.6h-34.2l0.4-1.6H530l27.3-78.3L544.5,331.4L544.5,331.4
			z M556.4,375c1.6,0.2,3.3,0.3,5,0.3c3.9,0,7.6-0.8,10.9-2.5c3.3-1.6,6.1-3.8,8.5-6.5c2.3-2.7,4.2-5.8,5.5-9.3
			c1.3-3.5,1.9-7,1.9-10.7c0-5-1.5-8.8-4.4-11.3c-2.9-2.5-7-3.7-12.1-3.7h-4.3l-14.9,43C553.5,374.6,554.8,374.8,556.4,375z"/>
		<path class="st1" d="M614.4,331.4l0.4-1.6h61.9l-6.8,19.5h-1.6c0.3-0.8,0.6-2.1,0.9-3.7c0.3-1.6,0.4-3.1,0.4-4.6
			c0-2.8-0.6-5.1-1.8-6.9c-1.2-1.8-3.6-2.7-7.1-2.7h-23.5L625,366.8h10.5c2.4,0,4.5-0.6,6.3-1.9c1.8-1.3,3.4-2.7,4.7-4.3
			c1.3-1.6,2.4-3.3,3.2-4.9c0.8-1.6,1.4-2.7,1.8-3.4h1.6l-11.7,33.3h-1.6c0.4-0.9,0.7-2.2,1-3.8c0.3-1.6,0.4-3.1,0.4-4.6
			c0-2.9-0.8-5.1-2.4-6.6c-1.6-1.5-3.9-2.2-6.7-2.2h-7.6l-14.4,41.3h26.1c3,0,5.7-0.9,8.3-2.6c2.6-1.8,4.8-3.8,6.8-6.1
			c2-2.3,3.6-4.6,5-6.9c1.3-2.3,2.3-4,2.9-5.1h1.6l-7.8,22.4h-64.7l0.4-1.6h11.5l27.3-78.3L614.4,331.4L614.4,331.4z"/>
		<path class="st1" d="M690.8,331.4l0.7-1.6h27.1c2.6,0,5.3,0.3,8.1,0.9c2.8,0.6,5.3,1.6,7.6,3c2.3,1.4,4.1,3.2,5.6,5.5
			c1.5,2.3,2.2,5,2.2,8.3c0,2.7-0.6,5.1-1.7,7.2c-1.2,2.1-2.6,3.8-4.4,5.2c-1.8,1.4-3.7,2.6-5.9,3.5c-2.2,0.9-4.2,1.7-6.2,2.2
			s-3.8,1-5.5,1.2c-1.6,0.2-2.8,0.4-3.5,0.5l-0.2,0.3c1.2,0.2,2.7,0.5,4.6,0.9c1.9,0.5,3.7,1.2,5.4,2.3c1.7,1.1,3.2,2.5,4.5,4.2
			c1.3,1.8,1.9,4,1.9,6.8c0,1.9-0.1,3.8-0.4,5.5c-0.3,1.8-0.6,3.5-0.9,5.3c-0.3,1.7-0.7,3.5-0.9,5.2c-0.3,1.8-0.4,3.6-0.4,5.5
			c0,2.1,0.6,3.8,1.7,5.1s2.5,1.9,4.2,1.9c0.6,0,1.2-0.1,1.8-0.2c0.6-0.1,1.1-0.2,1.4-0.4l0.4,1.5c-0.4,0.1-1.1,0.2-2.2,0.3
			c-1.1,0.2-2.2,0.2-3.3,0.2c-2,0-3.8-0.2-5.5-0.6c-1.7-0.4-3.1-1.1-4.4-2.1c-1.3-1-2.2-2.2-2.9-3.8c-0.7-1.6-1.1-3.5-1.1-5.8
			c0-1.1,0.1-2.6,0.4-4.5c0.3-1.8,0.6-3.8,0.9-5.8c0.3-2,0.6-4,0.8-6c0.3-2,0.4-3.7,0.4-5.1c0-1.4-0.2-2.7-0.6-3.9
			c-0.4-1.3-1.2-2.3-2.3-3.3c-1.1-0.9-2.7-1.6-4.7-2.2c-2-0.5-4.6-0.8-7.8-0.8h-4.6l-14.6,41.7h12.8l-0.6,1.6h-34.2l0.6-1.6h11.4
			l27.2-78.3L690.8,331.4L690.8,331.4z M709,366.4c3,0,5.6-0.3,7.9-0.8c2.3-0.5,4.1-1.2,5.3-2.1c1-0.7,2.1-1.6,3.2-2.6
			c1.1-1.1,2.1-2.4,3-3.9c0.9-1.6,1.6-3.4,2.2-5.5c0.6-2.1,0.9-4.6,0.9-7.4c0-4.3-1.3-7.5-3.8-9.6c-2.5-2.1-5.6-3.1-9.4-3.1h-4.7
			l-12.2,35L709,366.4L709,366.4z"/>
		<path class="st1" d="M763.4,331.4l0.4-1.6h62.9l-6.8,19.5h-1.6c0.2-0.9,0.5-2.3,0.7-4.1c0.3-1.8,0.4-3.5,0.4-5.1
			c0-2.7-0.6-4.8-1.8-6.3c-1.2-1.5-3.6-2.3-7.1-2.3h-24.3l-13.1,37.2H789c2.3,0,4.3-0.6,6.1-1.8c1.8-1.2,3.3-2.6,4.6-4.2
			c1.3-1.6,2.3-3.2,3.1-4.8c0.8-1.6,1.4-2.8,1.8-3.7h1.6l-11.6,33.4H793c0.2-0.8,0.5-2,0.8-3.5c0.3-1.5,0.5-3.2,0.5-4.9
			c0-3.1-0.8-5.3-2.5-6.7c-1.7-1.4-4.3-2.1-8-2.1h-11.2l-13.8,39.5h13l-0.4,1.6h-34.3l0.4-1.6h11.2l27.3-78.3L763.4,331.4
			L763.4,331.4z"/>
		<path class="st1" d="M871.4,329.8l-0.4,1.6h-11.7l-17,48.9c-1.1,3.2-2,6-2.6,8.5c-0.6,2.5-0.9,5.2-0.9,8.1c0,1.9,0.3,3.7,0.9,5.5
			c0.6,1.8,1.6,3.3,2.8,4.6c1.2,1.3,2.8,2.4,4.6,3.1c1.9,0.8,4,1.1,6.3,1.1c4.5,0,8.4-0.8,11.7-2.5c3.3-1.7,6.1-3.9,8.5-6.5
			s4.3-5.6,5.8-8.9c1.5-3.2,2.8-6.5,3.7-9.7l15.8-52.3h-12.7l0.4-1.6h26.1l-0.4,1.6h-11.6l-16.4,53.8c-2.9,9.6-6.9,16.6-11.9,21
			c-5,4.4-11.7,6.6-19.9,6.6c-4.2,0-7.8-0.6-10.7-1.8c-2.9-1.2-5.2-2.7-7-4.6s-3-3.9-3.8-6.1c-0.7-2.2-1.1-4.4-1.1-6.5
			c0-3.3,0.4-6.5,1.2-9.6s1.9-6.7,3.4-10.7l14.7-42.1h-12.7l0.4-1.6L871.4,329.8L871.4,329.8z"/>
		<path class="st1" d="M958.4,409.7l27.4-78.3h-0.2l-53.7,79.9l1.6-79.9h-0.3l-27.1,78.3h12.7l-0.4,1.6h-25.8l0.4-1.6h11.5
			l27.3-78.3h-12.8l0.4-1.6h23.8l-1.3,63.5h0.2l42.6-63.5h23l-0.4,1.6h-11.5l-27.3,78.3h12.7l-0.4,1.6h-34.4l0.4-1.6H958.4z"/>
		<path class="st1" d="M1014.4,331.4l0.4-1.6h61.9l-6.8,19.5h-1.6c0.3-0.8,0.6-2.1,0.9-3.7c0.3-1.6,0.4-3.1,0.4-4.6
			c0-2.8-0.6-5.1-1.8-6.9c-1.2-1.8-3.6-2.7-7.1-2.7h-23.5l-12.4,35.4h10.5c2.4,0,4.5-0.6,6.3-1.9c1.8-1.3,3.4-2.7,4.7-4.3
			c1.3-1.6,2.4-3.3,3.2-4.9c0.8-1.6,1.4-2.7,1.8-3.4h1.6l-11.7,33.3h-1.6c0.4-0.9,0.7-2.2,1-3.8c0.3-1.6,0.4-3.1,0.4-4.6
			c0-2.9-0.8-5.1-2.4-6.6c-1.6-1.5-3.9-2.2-6.7-2.2h-7.6l-14.4,41.3h26.1c3,0,5.7-0.9,8.3-2.6c2.6-1.8,4.8-3.8,6.8-6.1
			c2-2.3,3.6-4.6,5-6.9c1.3-2.3,2.3-4,2.9-5.1h1.6l-7.8,22.4h-64.7l0.4-1.6h11.5l27.3-78.3L1014.4,331.4L1014.4,331.4z"/>
		<path class="st1" d="M1108,403.5c1-1,2.2-1.5,3.7-1.5c1.5,0,2.7,0.5,3.7,1.5c1,1,1.5,2.3,1.5,3.8c0,1.5-0.5,2.8-1.5,3.8
			c-1,1-2.2,1.5-3.7,1.5c-1.5,0-2.7-0.5-3.7-1.5c-1-1-1.5-2.2-1.5-3.8C1106.5,405.9,1107,404.6,1108,403.5z M1118.4,379.6
			c0.6-1.7,1.7-3.5,3.3-5.4l8.7-10.3c3.7-4.3,6.3-8.6,7.7-12.8c1.4-4.2,2.1-7.8,2.1-10.8c0-3.8-1-6.5-3.1-8.1
			c-2-1.6-4.4-2.3-7.1-2.3c-3.8,0-6.3,1-7.7,3c-1.3,2-2,4.7-2,8.2c0,1.1-0.3,2.1-1,3c-0.7,0.8-1.9,1.3-3.6,1.3
			c-1.3,0-2.3-0.5-2.9-1.5c-0.6-1-0.9-2-0.9-2.8c0-1.4,0.4-2.8,1.3-4.3c0.9-1.5,2.1-2.9,3.6-4.1c1.6-1.3,3.4-2.3,5.6-3.1
			c2.2-0.8,4.7-1.2,7.4-1.2c3,0,5.6,0.4,7.8,1.3c2.3,0.8,4.2,2,5.7,3.4c1.5,1.5,2.7,3.1,3.5,5.1c0.8,1.9,1.2,4.1,1.2,6.4
			c0,0.9-0.1,2.1-0.2,3.4s-0.5,2.9-1.1,4.5c-0.6,1.6-1.5,3.3-2.7,5c-1.2,1.7-2.8,3.4-4.8,5l-8.6,6.5c-1.1,0.8-2.3,1.7-3.5,2.6
			c-1.2,0.9-2.3,2-3.4,3.1c-1.1,1.2-2.1,2.5-2.9,3.9c-0.9,1.5-1.6,3.1-2,4.9l-1.9,7.3h-1.4l1.6-6.2
			C1117.3,382.9,1117.8,381.3,1118.4,379.6z"/>
	</g>
	<g>
		<path class="st0" d="M567,275c0-4.3,0.8-8.2,2.5-11.8c1.7-3.6,3.8-6.8,6.5-9.4c2.6-2.7,5.6-4.8,8.9-6.3c3.3-1.5,6.6-2.3,9.9-2.3
			c3.5,0,6.9,0.8,10.3,2.3c3.3,1.5,6.3,3.6,8.9,6.3c2.6,2.7,4.7,5.8,6.3,9.4c1.6,3.6,2.4,7.6,2.4,11.8c0,3.7-0.7,7.4-2.2,11
			c-1.4,3.6-3.4,6.7-5.9,9.5c-2.5,2.8-5.5,5-8.8,6.7c-3.4,1.7-7,2.6-10.9,2.6c-4,0-7.7-0.8-11.1-2.5c-3.4-1.7-6.4-3.9-8.8-6.6
			c-2.5-2.7-4.4-5.9-5.8-9.5C567.6,282.6,567,278.8,567,275z M576.1,275c0,4.8,0.3,9,1,12.6c0.6,3.6,1.7,6.6,3.2,9
			c1.5,2.4,3.4,4.2,5.8,5.4s5.2,1.8,8.7,1.8c3.4,0,6.3-0.6,8.7-1.8c2.4-1.2,4.3-3,5.8-5.4c1.5-2.4,2.6-5.4,3.2-9
			c0.6-3.6,1-7.8,1-12.6c0-3.7-0.2-7.2-0.7-10.7c-0.5-3.4-1.4-6.5-2.8-9.2c-1.4-2.7-3.3-4.8-5.7-6.4c-2.4-1.6-5.6-2.4-9.5-2.4
			c-3.9,0-7.1,0.8-9.5,2.4c-2.4,1.6-4.3,3.7-5.7,6.4c-1.4,2.7-2.3,5.8-2.8,9.2C576.4,267.8,576.1,271.3,576.1,275z"/>
		<path class="st0" d="M630.4,302.4h8.9v-54.7h-8.9v-1.1h45.7v13.8h-0.9c-0.7-2.1-1.4-3.9-2.2-5.5c-0.8-1.6-1.8-2.9-2.9-4
			c-1.1-1.1-2.5-1.9-4-2.4c-1.5-0.5-3.4-0.8-5.6-0.8h-13.3v25.9h5.2c1.8,0,3.3-0.2,4.5-0.5c1.2-0.3,2.3-0.9,3.2-1.8
			c0.9-0.9,1.6-2.1,2.2-3.6c0.6-1.5,1.2-3.5,1.8-5.9h0.9v24.9h-0.9c-0.4-1.5-0.8-3-1.2-4.5s-1-2.7-1.7-3.8c-0.7-1.1-1.7-2-2.9-2.7
			c-1.2-0.7-2.8-1-4.7-1h-6.5v27.7h8.9v1.1h-25.7L630.4,302.4L630.4,302.4z"/>
		<path class="st0" d="M710.9,302.4h8.9v-54.7h-4.6c-1.1,0-2.3,0.1-3.6,0.3c-1.3,0.2-2.7,0.7-4,1.6c-1.4,0.9-2.7,2.2-3.9,4
			c-1.3,1.8-2.3,4.4-3.2,7.6h-0.9v-14.6h48.6v14.6h-0.9c-0.9-3.3-2-5.8-3.2-7.6c-1.3-1.8-2.6-3.2-3.9-4c-1.4-0.9-2.7-1.4-4-1.6
			c-1.3-0.2-2.5-0.3-3.6-0.3h-4.6v54.7h8.9v1.1h-25.7L710.9,302.4L710.9,302.4z"/>
		<path class="st0" d="M753.5,302.4h8.9v-54.7h-8.9v-1.1h25.7v1.1h-8.9v26.1H797v-26.1h-8.9v-1.1h25.7v1.1H805v54.7h8.9v1.1h-25.7
			v-1.1h8.9V275h-26.6v27.4h8.9v1.1h-25.7V302.4z"/>
		<path class="st0" d="M818.7,302.4h8.9v-54.7h-8.9v-1.1h45.7v13.8h-0.9c-0.7-2.1-1.4-3.9-2.2-5.5c-0.8-1.6-1.8-2.9-2.9-4
			c-1.1-1.1-2.5-1.9-4-2.4c-1.5-0.5-3.4-0.8-5.6-0.8h-13.3v24.7h5.2c1.8,0,3.3-0.2,4.5-0.5c1.2-0.3,2.3-0.9,3.2-1.8
			c0.9-0.9,1.6-2.1,2.2-3.6c0.6-1.5,1.2-3.5,1.8-5.9h0.9v24.9h-0.9c-0.4-1.5-0.8-3-1.2-4.5s-1-2.7-1.7-3.8c-0.7-1.1-1.7-2-2.9-2.7
			c-1.2-0.7-2.8-1-4.7-1h-6.5v28.9h15.1c2.9,0,5.4-0.6,7.3-1.9c1.9-1.3,3.5-2.7,4.8-4.5c1.2-1.7,2.1-3.5,2.7-5.4
			c0.6-1.9,1-3.4,1.1-4.6h0.9v17.5h-48.8L818.7,302.4L818.7,302.4z"/>
	</g>
	<g>
		<path class="st1" d="M86.5,274.3c-0.5,1.4-0.9,2.8-1.3,4.1c-0.4,1.3-0.6,2.8-0.6,4.4c0,3.3,0.8,6.1,2.3,8.6c1.5,2.5,3.5,4.5,6,6.2
			c2.5,1.6,5.3,2.9,8.3,3.7c3.1,0.9,6.2,1.3,9.3,1.3c4.2,0,8-0.6,11.3-1.8c3.3-1.2,6.2-2.9,8.5-5c2.3-2.2,4-4.7,5.2-7.6
			c1.2-2.9,1.8-6.1,1.8-9.5c0-3.5-0.8-6.7-2.4-9.4c-1.6-2.7-3.8-5.4-6.5-8l-10.2-9.3c-4.6-4.1-8.2-8.2-10.8-12.3
			c-2.6-4.1-3.9-8.7-3.9-13.8c0-4,0.9-7.7,2.7-11c1.8-3.3,4.3-6.2,7.3-8.6c3.1-2.4,6.6-4.3,10.5-5.6c4-1.3,8.1-2,12.3-2
			c3,0,5.6,0.3,7.8,0.8c2.2,0.5,4.3,1.1,6.2,1.8c1.9,0.7,3.6,1.3,5.2,1.8c1.6,0.5,3.2,0.8,4.8,0.8c1.4,0,2.5-0.3,3.3-1
			c0.8-0.7,1.4-1.6,1.9-2.7l2.2,0.4l-9.9,27.4H156c0.2-0.8,0.5-1.8,0.8-3.2c0.3-1.4,0.5-3.1,0.5-5.2c0-3.4-0.6-6.4-1.7-8.8
			c-1.1-2.4-2.7-4.3-4.6-5.8c-1.9-1.5-4.1-2.6-6.7-3.2c-2.5-0.7-5.2-1-8-1c-3.4,0-6.6,0.5-9.5,1.4c-2.9,1-5.3,2.2-7.4,3.9
			c-2.1,1.6-3.7,3.6-4.8,5.9s-1.7,4.8-1.7,7.6c0,4.1,1.1,7.7,3.4,10.7c2.3,3,4.9,5.8,7.7,8.4l12.8,11.5c3.4,3.1,6.4,6.5,8.8,10.3
			c2.4,3.8,3.7,8.1,3.7,12.8c0,3.6-0.8,7.3-2.5,11c-1.7,3.7-4.2,7.1-7.5,10.1c-3.3,3-7.4,5.5-12.4,7.4c-5,1.9-10.8,2.9-17.4,2.9
			c-3.4,0-6.5-0.3-9.1-0.9c-2.6-0.6-5-1.2-7.2-2c-2.2-0.8-4.2-1.4-6-2c-1.9-0.6-3.7-0.9-5.5-0.9c-1.2,0-2.4,0.5-3.4,1.4
			c-1.1,0.9-1.7,1.9-1.9,3.1l-2-0.4l10-28.4L86.5,274.3L86.5,274.3z"/>
		<path class="st1" d="M211.4,202.4c-3.9,0-7.5,1.1-10.8,3.3c-3.3,2.2-6.1,4.8-8.6,7.7c-2.5,2.9-4.6,5.8-6.2,8.8
			c-1.7,2.9-2.9,5.1-3.8,6.5h-2l10-28.3h86.5l-10,28.3h-2c0.5-1.9,0.8-4,1-6.3c0.2-2.3,0.3-4.6,0.3-6.9c0-3.6-1-6.7-2.9-9.3
			c-2-2.5-5.4-3.8-10.3-3.8h-14.2l-35.1,98.1h16.4l-0.6,2h-44.3l0.6-2h15.1l35.1-98.1H211.4z"/>
		<path class="st1" d="M304.6,256.2l-10.2-53.8h-15.6l0.6-2h44.2l-0.6,2h-15.9l9.3,49.2l43.7-49.2h-14.1l0.6-2h28.1l-0.6,2H363
			l-45.6,51.5l-16.8,46.6h16.5l-0.6,2h-44.3l0.6-2h16.1L304.6,256.2z"/>
		<path class="st1" d="M379.2,202.4l0.6-2h44.5l-0.6,2h-15.1l-35.1,98.1H407c3.7,0,7.2-1.1,10.5-3.2c3.2-2.2,6.1-4.7,8.7-7.6
			c2.5-2.9,4.7-5.8,6.5-8.8c1.8-2.9,3.1-5.1,3.9-6.5h2l-10,28.1h-83.3l0.6-2h14.8l35.1-98.1H379.2z"/>
		<path class="st1" d="M469.3,202.4l0.6-2h79.8l-8.8,24.4h-2c0.4-1.1,0.8-2.6,1.1-4.6c0.4-2,0.6-3.9,0.6-5.7c0-3.5-0.8-6.4-2.3-8.7
			c-1.5-2.2-4.6-3.4-9.2-3.4h-30.3l-15.9,44.3h13.5c3.1,0,5.8-0.8,8.1-2.4c2.3-1.6,4.3-3.4,6-5.5c1.7-2.1,3-4.1,4.1-6.1
			c1.1-2,1.8-3.4,2.3-4.3h2l-15.1,41.7h-2c0.5-1.1,0.9-2.7,1.3-4.7c0.4-2,0.6-3.9,0.6-5.7c0-3.6-1.1-6.4-3.2-8.2
			c-2.1-1.9-5-2.8-8.6-2.8h-9.8l-18.5,51.8h33.6c3.8,0,7.4-1.1,10.7-3.3c3.3-2.2,6.2-4.8,8.7-7.7c2.5-2.9,4.7-5.8,6.4-8.7
			c1.7-2.9,3-5,3.7-6.5h2l-10,28.1h-83.3l0.6-2h14.8l35.1-98.1L469.3,202.4L469.3,202.4z"/>
	</g>
</g>
</svg>
