<?xml version="1.0" encoding="UTF-8"?><svg id="Layer_2" xmlns="http://www.w3.org/2000/svg" viewBox="0 0 147.94 85.91"><defs><style>.cls-1{fill:#2e2c2d;}</style></defs><g id="Pages"><g id="P2"><g id="RCT"><path class="cls-1" d="M36.48,85.63v-6.13h.75v2.7h3.39v-2.7h.75v6.13h-.75v-2.74h-3.39v2.74h-.75Z"/><path class="cls-1" d="M45.12,82.57c0-.42,.08-.83,.25-1.21,.33-.76,.94-1.36,1.7-1.68,.8-.33,1.69-.33,2.49,0,.38,.16,.73,.39,1.03,.68,.29,.29,.53,.63,.69,1,.34,.77,.34,1.66,0,2.43-.17,.37-.4,.71-.69,.99-.3,.29-.65,.51-1.03,.67-.8,.33-1.69,.33-2.49,0-.76-.31-1.37-.91-1.7-1.66-.17-.38-.25-.8-.25-1.22Zm.74,0c0,.33,.06,.65,.19,.95,.12,.29,.3,.55,.53,.77,.23,.22,.49,.4,.79,.52,.61,.26,1.3,.26,1.92,0,.29-.12,.56-.3,.79-.52,.22-.22,.4-.48,.53-.77,.26-.61,.26-1.29,0-1.9-.12-.29-.3-.55-.53-.78-.23-.22-.49-.4-.79-.53-.61-.25-1.3-.25-1.92,0-.29,.13-.56,.3-.79,.53-.22,.22-.4,.49-.53,.78-.13,.3-.2,.63-.19,.95Z"/><path class="cls-1" d="M60.99,79.5v6.41l-2.3-2.37-2.29-2.37-.09-.12s-.05-.07-.08-.11v.14s0,.09,.01,.14v4.43h-.73v-6.42l2.29,2.43,2.3,2.43s.06,.08,.08,.11l.09,.12s0-.09,0-.14c0-.05,0-.09-.01-.14v-4.53h.73Z"/><path class="cls-1" d="M68.13,83.69v-.69h1.24c.13-.02,.26,.03,.35,.13,.06,.12,.09,.26,.08,.4v1.73c-.24,.14-.5,.24-.77,.32-.28,.08-.57,.12-.87,.12-.43,0-.85-.08-1.24-.25-.38-.16-.72-.38-1.02-.67-.29-.28-.52-.62-.69-.99-.34-.78-.34-1.66,0-2.44,.16-.37,.39-.71,.69-1,.29-.29,.64-.52,1.02-.67,.39-.17,.82-.25,1.24-.25,.29,0,.58,.04,.87,.11,.27,.07,.53,.18,.77,.32-.07,.1-.13,.2-.2,.3s-.14,.19-.21,.3c-.19-.11-.39-.19-.59-.25-.21-.06-.43-.09-.65-.09-.33,0-.65,.06-.95,.19-.29,.12-.56,.3-.78,.53-.22,.22-.4,.49-.53,.78-.39,.91-.18,1.98,.53,2.67,.23,.22,.49,.4,.78,.52,.3,.13,.63,.2,.95,.19,.3,0,.61-.05,.89-.16v-.89c0-.07,0-.14-.03-.21-.02-.04-.08-.06-.18-.06h-.71Z"/><path class="cls-1" d="M83.54,85.63h-.89l-1.28-1.59-1.28-1.6-.28,.26-.28,.26v2.67h-.75v-6.13h.75v2.4s0,.09-.01,.14,0,.09,0,.14l.09-.1,.08-.1,1.33-1.24c.44-.41,.89-.83,1.33-1.24h.91c-.45,.42-.89,.83-1.34,1.24s-.89,.82-1.34,1.24l1.48,1.82c.47,.6,.97,1.21,1.46,1.82Z"/><path class="cls-1" d="M86.78,82.57c0-.42,.08-.83,.25-1.21,.16-.37,.39-.71,.69-1,.29-.29,.64-.52,1.02-.68,.8-.33,1.69-.33,2.49,0,.77,.32,1.39,.92,1.72,1.68,.34,.77,.34,1.66,0,2.43-.17,.37-.4,.71-.69,.99-.3,.28-.65,.51-1.03,.67-.8,.33-1.69,.33-2.49,0-.38-.16-.72-.38-1.02-.67-.29-.28-.52-.62-.69-.99-.17-.38-.26-.8-.25-1.22Zm.75,0c0,.33,.06,.65,.19,.95,.12,.29,.3,.55,.53,.77,.23,.22,.49,.4,.78,.52,.61,.26,1.31,.26,1.92,0,.29-.12,.56-.3,.78-.52,.22-.22,.4-.48,.53-.77,.26-.61,.26-1.29,0-1.9-.12-.29-.3-.55-.53-.78-.23-.22-.49-.4-.78-.53-.62-.25-1.31-.25-1.92,0-.29,.13-.56,.3-.78,.53-.23,.22-.4,.49-.53,.78-.13,.3-.2,.62-.19,.95h0Z"/><path class="cls-1" d="M102.64,79.5v6.41c-.77-.8-1.54-1.59-2.29-2.37l-2.3-2.37-.08-.12-.09-.11v.14s0,.09,.01,.14v4.43h-.75v-6.42l2.3,2.43,2.29,2.43,.09,.11,.08,.12v-.14s0-.09-.01-.14v-4.53h.75Z"/><path class="cls-1" d="M109.79,83.69v-.69h1.24c.13-.02,.26,.03,.34,.13,.07,.12,.1,.26,.09,.4v1.73c-.24,.14-.5,.24-.77,.32-.28,.08-.57,.12-.86,.12-.43,0-.85-.08-1.25-.25-.38-.16-.72-.38-1.02-.67-.29-.28-.52-.62-.69-.99-.34-.78-.34-1.66,0-2.44,.16-.37,.39-.71,.69-1,.29-.29,.64-.52,1.02-.67,.67-.28,1.41-.32,2.11-.14,.27,.07,.53,.18,.78,.32-.07,.1-.14,.2-.21,.3s-.14,.19-.2,.3c-.19-.11-.39-.19-.59-.25-.21-.06-.43-.09-.64-.09-.33,0-.65,.06-.96,.19-.29,.12-.56,.3-.78,.53-.22,.23-.4,.49-.53,.78-.39,.91-.18,1.98,.53,2.67,.23,.22,.49,.4,.78,.52,.3,.13,.63,.19,.96,.19,.3,0,.61-.05,.89-.16v-.89c0-.07,0-.14-.03-.21-.02-.04-.08-.06-.18-.06h-.71Z"/><polygon class="cls-1" points="147.94 .69 146.55 .69 146.55 11.65 130.56 11.65 130.56 66.51 129.25 66.51 130.64 66.51 131.95 66.51 131.95 11.65 147.94 11.65 147.94 .69"/><rect class="cls-1" x="12.35" y="37.37" width="1.39" height="29.83"/><path class="cls-1" d="M45.71,18.69C45.71,8.38,35.81,0,23.64,0h-1.39c12.17,0,22.07,8.38,22.07,18.7,0,8.01-6.1,15.14-14.96,17.69,0,.02,.13,.26,.15,.3l13.85,30.52h1.39l-13.85-30.52s-.13-.28-.15-.3c8.87-2.56,14.96-9.69,14.96-17.7Z"/><path class="cls-1" d="M66.8,18.17c1.95-2,4.27-3.62,6.83-4.75,2.19-.97,4.54-1.53,6.94-1.67-.27-.02-.55-.02-.82-.03-2.59,.08-5.14,.65-7.51,1.69-2.56,1.13-4.88,2.75-6.83,4.75-1.97,2.04-3.55,4.43-4.64,7.04-3.42,8.16-1.6,17.58,4.62,23.88,1.97,1.97,4.29,3.56,6.85,4.68,2.38,1.04,4.93,1.62,7.53,1.69,.27,0,.55,0,.82-.03-2.4-.13-4.76-.7-6.96-1.67-2.55-1.13-4.87-2.71-6.85-4.68-6.19-6.31-8.01-15.71-4.62-23.88,1.09-2.62,2.67-5.01,4.64-7.04Z"/><path class="cls-1" d="M97.19,5.57l1.78,1.04-1.12,1.72c-.64,1-1.33,1.99-2.03,2.97-.66,.89-1.3,1.84-1.91,2.78l-.65,.97,1.01,.59,1.02-1.57c.59-.94,1.24-1.87,1.91-2.78,.7-.96,1.38-1.96,2.02-2.97l1.12-1.72-1.78-1.04c-2.47-1.44-5.1-2.57-7.85-3.36-2.86-.8-5.82-1.2-8.79-1.19h-.55c2.69,.06,5.36,.46,7.96,1.19,2.75,.79,5.39,1.92,7.86,3.37Z"/><path class="cls-1" d="M97.09,61.65c-2.43,1.4-5.03,2.51-7.72,3.3-2.6,.76-5.29,1.17-7.99,1.22,.19,0,.38,.01,.57,.01,2.98,.01,5.95-.4,8.81-1.24,2.69-.8,5.29-1.9,7.72-3.3l1.84-1.06-6.08-8.91-.99,.58,5.68,8.34-1.84,1.05Z"/><polygon class="cls-1" points="145.17 .69 105 .69 103.62 .69 102.23 .69 102.23 11.65 103.62 11.65 105 11.65 118.22 11.65 118.22 66.51 119.61 66.51 120.99 66.51 127.87 66.51 129.18 66.51 129.18 11.65 145.17 11.65 145.17 .69"/><path class="cls-1" d="M27.97,36.38c8.87-2.55,14.96-9.69,14.96-17.69C42.94,8.38,33.04,0,20.87,0H0V10.96H20.87c5.23,0,9.5,3.47,9.5,7.72s-3.94,7.46-8.89,7.72H0v40.81H10.96v-29.83h5.44l13.54,29.83h12.03l-13.85-30.52s-.13-.28-.15-.31Z"/><path class="cls-1" d="M86.14,12.49c-1.63-.47-3.32-.72-5.01-.76l-.57,.03c1.42,.09,2.83,.33,4.19,.73,1.79,.53,3.51,1.27,5.13,2.21l1.62,.94,.38-.59-.61-.36c-1.62-.93-3.34-1.67-5.13-2.2Z"/><path class="cls-1" d="M80.55,55.49c.2,0,.4-.01,.59-.02-.19,0-.38,0-.56-.03-.27,.02-.55,.02-.82,.03,.27,0,.53,.02,.79,.02Z"/><path class="cls-1" d="M80.55,11.71c-.27,0-.53,0-.8,.02,.27,0,.55,0,.82,.03l.57-.03c-.2,0-.39-.02-.59-.02Z"/><path class="cls-1" d="M91.86,52.25l-.4-.58-1.59,.93c-2.83,1.67-6.01,2.65-9.29,2.85,.19,0,.37,.02,.56,.03-.2,0-.4,.02-.59,.02-.26,0-.52,0-.78-.02-.2,0-.4,.02-.59,.02-2.86,.02-5.69-.56-8.31-1.71-2.55-1.12-4.87-2.71-6.85-4.68-6.19-6.31-8.01-15.71-4.62-23.88,1.09-2.62,2.67-5.01,4.64-7.04,1.95-2,4.27-3.62,6.83-4.75,2.62-1.15,5.45-1.73,8.31-1.71,.2,0,.39,0,.59,.02,.27,0,.53-.02,.8-.02,.2,0,.39,0,.59,.02,1.68,.04,3.36,.29,4.98,.76,1.79,.53,3.51,1.27,5.13,2.21l.61,.36,.37-.58,.27-.41c.59-.94,1.25-1.87,1.91-2.78,.7-.96,1.38-1.96,2.03-2.97l1.12-1.72-1.78-1.04c-2.47-1.44-5.1-2.57-7.85-3.36-2.4-.68-4.87-1.06-7.36-1.15l-.59-.02h-.83c-4.36-.02-8.68,.86-12.68,2.6-3.84,1.67-7.34,4.04-10.3,7-2.96,2.98-5.32,6.5-6.96,10.37-1.71,4.02-2.58,8.34-2.56,12.7-.02,4.35,.84,8.66,2.55,12.66,3.3,7.78,9.49,13.97,17.27,17.27,4,1.71,8.31,2.58,12.66,2.56,.27,0,.54,0,.81-.01l.59-.02c2.51-.1,4.99-.5,7.4-1.21,2.69-.8,5.28-1.9,7.72-3.3l1.84-1.06-5.29-7.77-.36-.57Z"/></g></g></g></svg>