<svg width="142" height="148" viewBox="0 0 142 148" fill="none" xmlns="http://www.w3.org/2000/svg">
<path d="M91.3859 13.1786C90.0027 12.5255 88.6195 11.9491 87.1979 11.4304L16.6165 73.4822C16.9623 74.9422 17.3657 76.4215 17.8268 77.8623L91.3859 13.1786Z" fill="#F06543"/>
<path d="M106.985 24.3211C106.025 23.3413 105.064 22.4 104.027 21.4971L24.4547 91.4638C25.2039 92.578 26.03 93.6923 26.8753 94.7681L106.985 24.3211Z" fill="#F06543"/>
<path d="M99.8578 18.1544C98.7051 17.3283 97.5333 16.5599 96.323 15.8298L19.8053 83.0686C20.3816 84.3557 20.9964 85.6237 21.7264 86.9108L99.8578 18.1544Z" fill="#F06543"/>
<path d="M81.2811 9.62454C79.6033 9.21471 77.9127 8.88812 76.2094 8.64478L15.2719 62.2244C15.2719 63.9534 15.4064 65.6632 15.5985 67.3922L81.2811 9.62454Z" fill="#F06543"/>
<path d="M51.504 10.9309C44.8397 13.2012 38.6896 16.7659 33.4071 21.4202C28.1116 26.0525 23.7944 31.6956 20.7086 38.0185L51.504 10.9309Z" fill="#F06543"/>
<path d="M68.9475 8.12603C66.7322 8.11036 64.5182 8.2387 62.3196 8.51025L17.0199 48.354C16.4679 50.4956 16.0572 52.6711 15.7904 54.8666L68.9475 8.12603Z" fill="#F06543"/>
<path d="M112.883 31.5637C112.134 30.4494 111.308 29.3544 110.463 28.2786L30.3527 98.7064C31.3132 99.6861 32.2738 100.627 33.3112 101.55L112.883 31.5637Z" fill="#F06543"/>
<path d="M117.532 39.863C116.956 38.595 116.341 37.3271 115.611 36.0208L37.4222 104.758C38.5749 105.584 39.7468 106.372 40.9571 107.102L117.532 39.863Z" fill="#F06543"/>
<path d="M120.414 74.6924C120.966 72.5444 121.377 70.3624 121.643 68.1606L68.4863 114.92C70.7011 114.917 72.9138 114.789 75.1141 114.536L120.414 74.6924Z" fill="#F06543"/>
<path d="M120.817 49.4685C120.484 48.0085 120.081 46.5484 119.607 45.0884L45.894 109.849C47.2772 110.502 48.6604 111.078 50.082 111.616L120.817 49.4685Z" fill="#F06543"/>
<path d="M122.066 60.8031C122.043 59.0825 121.934 57.3642 121.739 55.6545L56.0568 113.403C57.7281 113.806 59.4379 114.133 61.1285 114.383L122.066 60.8031Z" fill="#F06543"/>
<path d="M68.64 130.482C24.0703 130.482 1.40129 92.4052 0.114153 66.6048C-2.38329 16.656 36.9226 0.153689 37.326 0L39.4776 5.34067C38.0176 5.93622 3.59136 20.4982 5.87747 66.3358C7.04935 89.9078 27.8165 124.718 68.64 124.718H68.9474V130.482H68.64Z" fill="#FFDC28"/>
<path d="M109.137 142.017C126.761 138.712 138.369 121.746 135.065 104.123C131.76 86.4989 114.794 74.891 97.1706 78.1955C79.5469 81.5001 67.9389 98.4658 71.2434 116.09C74.548 133.713 91.5137 145.321 109.137 142.017Z" fill="#05299E"/>
</svg>
