<svg width="86" height="86" viewBox="0 0 86 86" fill="none" xmlns="http://www.w3.org/2000/svg">
<circle cx="41.5" cy="41.5" r="41.5" fill="#0B2A2B"/>
<circle cx="44.5" cy="44.5" r="41.5" fill="#FFDC28"/>
<g clip-path="url(#clip0_12_504)">
<path d="M60.0039 27.9012H33.8052C33.1999 27.9012 32.7091 28.392 32.7091 28.9973V48.2897H27.9961C27.3908 48.2897 26.9 48.7804 26.9 49.3858V61.0031C26.9 61.6085 27.3908 62.0992 27.9961 62.0992H39.6142C40.2196 62.0992 40.7103 61.6085 40.7103 61.0031V56.2905H60.0039C60.6093 56.2905 61.1 55.7998 61.1 55.1944V28.9973C61.1 28.392 60.6093 27.9012 60.0039 27.9012ZM38.5181 59.907H29.0922V50.4819H32.7091V55.1944C32.7091 55.7998 33.1999 56.2905 33.8052 56.2905H38.5181V59.907ZM38.5181 54.0984H34.9013V50.4819H38.5181V54.0984ZM58.9078 54.0984H40.7103V49.3858C40.7103 48.7804 40.2196 48.2897 39.6142 48.2897H34.9013V30.0934H58.9078V54.0984Z" fill="#0B2A2B" stroke="#0B2A2B" stroke-width="0.2"/>
<path d="M42.1965 46.8035C42.3941 47.0012 42.6533 47.1 42.9123 47.1C43.1711 47.1 43.4304 47.0012 43.628 46.8035C43.628 46.8035 43.628 46.8035 43.628 46.8035L54.0755 36.3561V39.5928C54.0755 40.1518 54.5288 40.605 55.0878 40.605C55.6468 40.605 56.1 40.1518 56.1 39.5928V33.9125C56.1 33.6127 56.018 33.3565 55.8422 33.175C55.666 32.993 55.4089 32.9 55.0877 32.9H49.4072C48.8482 32.9 48.395 33.3532 48.395 33.9123C48.395 34.4714 48.8482 34.9246 49.4072 34.9246H52.6439L42.1965 45.3719L42.2672 45.4426L42.1965 45.3719C41.8012 45.7672 41.8012 46.4081 42.1965 46.8035ZM42.1965 46.8035L42.2672 46.7328L42.1965 46.8035C42.1965 46.8035 42.1965 46.8035 42.1965 46.8035ZM54.0755 36.2146L54.1755 36.1146V36.2561L54.0755 36.2146Z" fill="#0B2A2B" stroke="#0B2A2B" stroke-width="0.2"/>
</g>
<defs>
<clipPath id="clip0_12_504">
<rect width="34" height="34" fill="white" transform="translate(27 28)"/>
</clipPath>
</defs>
</svg>
