<svg width="86" height="86" viewBox="0 0 86 86" fill="none" xmlns="http://www.w3.org/2000/svg">
<circle cx="41.5" cy="41.5" r="41.5" fill="#0B2A2B"/>
<circle cx="44.5" cy="44.5" r="41.5" fill="#FFDC28"/>
<path d="M53.1905 32.6043C53.5546 32.9723 53.903 33.3521 54.2319 33.7514C54.3102 33.8454 54.3846 33.9432 54.4629 34.0372C54.5177 34.1077 54.4864 34.0685 54.365 33.9119C54.3885 33.9432 54.412 33.9706 54.4355 34.002C54.4707 34.045 54.502 34.092 54.5373 34.139C54.686 34.3426 54.8348 34.5501 54.9718 34.7576C55.5199 35.5758 55.9858 36.4488 56.3734 37.3532C56.3343 37.2593 56.2951 37.1653 56.256 37.0713C56.7962 38.3555 57.1643 39.7062 57.3521 41.0842C57.3365 40.9785 57.3247 40.8767 57.3091 40.771C57.497 42.1765 57.497 43.6016 57.3091 45.011C57.3247 44.9053 57.3365 44.8035 57.3521 44.6978C57.1642 46.0759 56.7962 47.4266 56.256 48.7107C56.2951 48.6168 56.3343 48.5228 56.3734 48.4288C56.0719 49.1374 55.7196 49.8265 55.3163 50.4842C55.1127 50.817 54.8974 51.1459 54.6664 51.463C54.6116 51.5374 54.5568 51.6157 54.502 51.69C54.4433 51.7683 54.224 52.0385 54.4785 51.7214C54.3493 51.8858 54.2201 52.0463 54.0831 52.2068C53.5742 52.8058 53.0222 53.3696 52.431 53.8903C52.29 54.0156 52.1413 54.1369 51.9964 54.2583C51.922 54.317 51.8476 54.3758 51.7733 54.4345C51.601 54.5715 52.0082 54.2544 51.832 54.3875C51.785 54.4227 51.7419 54.4541 51.695 54.4893C51.3818 54.7242 51.0568 54.9473 50.7279 55.1588C49.9997 55.6207 49.2324 56.024 48.4337 56.3607L48.7156 56.2432C47.4315 56.7835 46.0808 57.1515 44.7027 57.3394C44.8084 57.3237 44.9102 57.312 45.0159 57.2963C43.6104 57.4842 42.1854 57.4842 40.7759 57.2963C40.8816 57.312 40.9834 57.3237 41.0891 57.3394C39.7111 57.1515 38.3604 56.7834 37.0762 56.2432L37.3581 56.3607C36.6495 56.0592 35.9605 55.7069 35.3027 55.3036C34.97 55.1 34.6411 54.8847 34.324 54.6537C34.2496 54.5989 34.1713 54.5441 34.0969 54.4893C34.0186 54.4305 33.7485 54.2113 34.0656 54.4658C33.9012 54.3366 33.7406 54.2074 33.5801 54.0704C32.9811 53.5614 32.4174 53.0094 31.8967 52.4182C31.7714 52.2773 31.65 52.1285 31.5286 51.9837C31.4699 51.9093 31.4112 51.8349 31.3525 51.7605C31.2154 51.5883 31.5326 51.9954 31.3995 51.8192C31.3642 51.7723 31.3329 51.7292 31.2977 51.6822C31.0628 51.369 30.8396 51.0441 30.6282 50.7152C30.1662 49.987 29.763 49.2196 29.4263 48.421L29.5437 48.7029C29.0035 47.4187 28.6354 46.0681 28.4476 44.69C28.4632 44.7957 28.475 44.8975 28.4906 45.0032C28.3027 43.5977 28.3027 42.1726 28.4906 40.7632C28.475 40.8689 28.4632 40.9707 28.4476 41.0764C28.6355 39.6983 29.0035 38.3477 29.5437 37.0635L29.4263 37.3454C29.7277 36.6368 30.0801 35.9478 30.4834 35.29C30.687 34.9572 30.9023 34.6284 31.1333 34.3112C31.1881 34.2369 31.2429 34.1586 31.2977 34.0842C31.3564 34.0059 31.5757 33.7357 31.3212 34.0529C31.4504 33.8884 31.5796 33.7279 31.7166 33.5674C32.2255 32.9684 32.7775 32.4047 33.3687 31.8839C33.5097 31.7586 33.6584 31.6373 33.8033 31.5159C33.8777 31.4572 33.952 31.3985 34.0264 31.3397C34.1987 31.2027 33.7915 31.5198 33.9677 31.3867C34.0147 31.3515 34.0578 31.3202 34.1047 31.2849C34.4179 31.05 34.7429 30.8269 35.0718 30.6155C35.8 30.1535 36.5673 29.7502 37.366 29.4136C37.272 29.4527 37.178 29.4919 37.0841 29.531C38.3682 28.9907 39.7189 28.6227 41.097 28.4348C40.9913 28.4505 40.8895 28.4622 40.7838 28.4779C42.1893 28.29 43.6143 28.29 45.0238 28.4779C44.918 28.4622 44.8163 28.4505 44.7106 28.4348C46.0886 28.6228 47.4393 28.9908 48.7235 29.531C48.6295 29.4919 48.5355 29.4527 48.4416 29.4136C49.3499 29.7972 50.219 30.267 51.0372 30.8151C51.2486 30.9561 51.4522 31.1009 51.6558 31.2497C51.7028 31.2849 51.7458 31.3162 51.7928 31.3515C51.8242 31.375 51.8516 31.3985 51.8829 31.4219C51.832 31.3828 51.785 31.3476 51.7341 31.3084C51.8437 31.3828 51.9416 31.4728 52.0434 31.5551C52.4427 31.8917 52.8264 32.2402 53.1905 32.6043C53.625 33.0388 54.4237 33.0741 54.8505 32.6043C55.2811 32.1345 55.3163 31.4063 54.8505 30.9443C52.4114 28.513 49.2207 26.8178 45.8145 26.2502C44.1467 25.9722 42.4633 25.9135 40.7838 26.1367C39.0025 26.3716 37.3073 26.857 35.6787 27.6165C32.5271 29.0847 29.8453 31.606 28.1504 34.64C26.5022 37.5919 25.7466 41.0567 26.0755 44.4276C26.2399 46.1189 26.6236 47.771 27.2852 49.341C27.9938 51.0283 28.9373 52.5708 30.1314 53.9606C32.3825 56.5798 35.4754 58.4785 38.8309 59.3007C42.1038 60.1033 45.6351 59.931 48.7946 58.737C52.1693 57.4607 55.0625 55.1625 57.0516 52.148C58.9112 49.3332 59.8782 45.9192 59.8038 42.5487C59.7294 39.1466 58.6254 35.7484 56.6052 33.0038C56.0728 32.2795 55.4934 31.5866 54.8591 30.9484C54.4245 30.5139 53.6259 30.4825 53.1991 30.9484C52.7606 31.4143 52.7293 32.1425 53.1913 32.6045L53.1905 32.6043Z" fill="#0B2A2B"/>
<path d="M53.1905 54.8454C54.1223 55.7772 55.0541 56.7089 55.9859 57.6368C57.4775 59.1245 58.9652 60.6161 60.4568 62.1038C60.7974 62.4444 61.138 62.785 61.4786 63.1256C61.9131 63.5601 62.7118 63.5915 63.1386 63.1256C63.5692 62.6558 63.6045 61.9276 63.1386 61.4656C62.2068 60.5338 61.2751 59.6021 60.3433 58.6742C58.8556 57.1826 57.3639 55.6949 55.8723 54.2072C55.5317 53.8666 55.1911 53.526 54.8505 53.1854C54.416 52.7509 53.6173 52.7195 53.1905 53.1854C52.7599 53.6552 52.7286 54.3834 53.1905 54.8454Z" fill="#0B2A2B"/>
<path d="M33.3526 35.2623V36.7774V40.4145V44.811V48.6125C33.3526 49.2272 33.3409 49.8458 33.3526 50.4604V50.4878C33.3526 51.122 33.889 51.6623 34.5271 51.6623H37.9566H41.0025H44.111H47.6815H50.9349H51.1933C51.8079 51.6623 52.3952 51.122 52.3677 50.4878C52.3403 49.8496 51.851 49.3133 51.1933 49.3133H47.8029H44.577H41.5702H38.2425H34.7582H34.535L35.7095 50.4878V48.9727V45.3356V40.9391V37.1376C35.7095 36.5229 35.7212 35.9043 35.7095 35.2897V35.2623C35.7095 34.6477 35.1692 34.0604 34.535 34.0878C33.889 34.1152 33.3526 34.6046 33.3526 35.2623H33.3526Z" fill="#0B2A2B"/>
<path d="M37.0681 47.0431V50.0459V50.4843C37.0681 51.099 37.6084 51.6862 38.2426 51.6588C38.8807 51.6314 39.4171 51.142 39.4171 50.4843V47.4816V47.0431C39.4171 46.4284 38.8768 45.8412 38.2426 45.8686C37.6045 45.8999 37.0681 46.3854 37.0681 47.0431Z" fill="#0B2A2B"/>
<path d="M40.8658 43.8832V49.6578V50.4839C40.8658 51.0985 41.4061 51.6858 42.0403 51.6583C42.6785 51.6309 43.2148 51.1416 43.2148 50.4839V44.7092V43.8832C43.2148 43.2685 42.6745 42.6813 42.0403 42.7087C41.4022 42.7361 40.8658 43.2255 40.8658 43.8832Z" fill="#0B2A2B"/>
<path d="M44.6636 44.6822V49.7678V50.4843C44.6636 51.0989 45.2038 51.6862 45.8381 51.6588C46.4762 51.6314 47.0125 51.142 47.0125 50.4843V45.3987V44.6822C47.0125 44.0676 46.4723 43.4803 45.8381 43.5078C45.2038 43.5391 44.6636 44.0245 44.6636 44.6822Z" fill="#0B2A2B"/>
<path d="M48.4607 41.3978V44.4632V49.3531V50.4846C48.4607 51.0992 49.001 51.6865 49.6352 51.659C50.2733 51.6316 50.8097 51.1423 50.8097 50.4846V47.4191V42.5293V41.3978C50.8097 40.7832 50.2694 40.1959 49.6352 40.2233C49.0009 40.2547 48.4607 40.7401 48.4607 41.3978Z" fill="#0B2A2B"/>
<path d="M35.2318 44.2905C35.9286 43.8089 36.6216 43.3274 37.3184 42.8458C38.4225 42.0824 39.5226 41.315 40.6266 40.5516C40.8811 40.3754 41.1356 40.1992 41.394 40.0192C41.6484 39.843 41.8481 39.6237 41.9342 39.3184C42.0125 39.0365 41.9773 38.6646 41.8168 38.414C41.4958 37.9129 40.748 37.6192 40.2116 37.9912C39.5148 38.4727 38.8218 38.9543 38.125 39.4358C37.0209 40.1993 35.9208 40.9666 34.8168 41.73C34.5623 41.9062 34.3078 42.0824 34.0494 42.2625C33.7949 42.4386 33.5953 42.6579 33.5091 42.9633C33.4308 43.2451 33.4661 43.6171 33.6266 43.8676C33.9476 44.3688 34.6915 44.6624 35.2318 44.2905Z" fill="#0B2A2B"/>
<path d="M40.4856 40.1369C41.6092 40.3523 42.7368 40.5676 43.8604 40.7829C44.0209 40.8142 44.1854 40.8455 44.3459 40.8769C44.6591 40.9356 44.9683 40.9238 45.2502 40.7594C45.493 40.6185 45.7279 40.3366 45.7905 40.0586C45.9236 39.4792 45.6143 38.7393 44.9684 38.614C43.8448 38.3986 42.7173 38.1833 41.5936 37.968C41.4331 37.9367 41.2687 37.9054 41.1082 37.874C40.795 37.8153 40.4857 37.8271 40.2038 37.9915C39.9611 38.1324 39.7262 38.4143 39.6635 38.6923C39.5343 39.2717 39.8397 40.0155 40.4856 40.1369Z" fill="#0B2A2B"/>
<path d="M45.4897 40.575C46.6407 39.3262 47.7917 38.0812 48.9427 36.8323C49.1032 36.6561 49.2677 36.48 49.4282 36.3038C49.8432 35.8536 49.9097 35.0823 49.4282 34.6438C48.974 34.2288 48.2106 34.1622 47.7682 34.6438C46.6172 35.8927 45.4662 37.1377 44.3152 38.3865C44.1546 38.5627 43.9902 38.7389 43.8297 38.915C43.4147 39.3653 43.3482 40.1365 43.8297 40.575C44.2799 40.99 45.0433 41.0566 45.4897 40.575Z" fill="#0B2A2B"/>
<path d="M47.4154 35.4737V37.9245C47.4154 38.5392 47.9557 39.1264 48.5899 39.099C49.228 39.0716 49.7644 38.5822 49.7644 37.9245V35.4737C49.7644 34.8591 49.2241 34.2718 48.5899 34.2993C47.9517 34.3267 47.4154 34.816 47.4154 35.4737Z" fill="#0B2A2B"/>
<path d="M48.5903 34.2996C47.8034 34.3075 47.0165 34.3114 46.2295 34.3192C45.6148 34.3231 45.0276 34.8556 45.055 35.4937C45.0824 36.124 45.5718 36.6721 46.2295 36.6682C47.0164 36.6604 47.8033 36.6564 48.5903 36.6486C49.2049 36.6447 49.7922 36.1123 49.7647 35.4741C49.7373 34.8438 49.248 34.2918 48.5903 34.2996Z" fill="#0B2A2B"/>
</svg>
