<svg width="93" height="93" viewBox="0 0 93 93" fill="none" xmlns="http://www.w3.org/2000/svg">
<path d="M44.2349 40.7849L38.1063 12.5933C37.9383 11.8202 36.9815 11.5392 36.422 12.0986L13.0783 35.4424C12.8413 35.6794 12.7388 36.0194 12.8053 36.3479L18.5837 64.8897C18.7419 65.6715 19.7069 65.9624 20.2709 65.3984L43.9649 41.7044C44.2055 41.4638 44.3072 41.1174 44.2349 40.7849Z" stroke="#05299E" stroke-width="3" stroke-linecap="round"/>
<path d="M37.9068 10.993L72.498 24.2685C72.7951 24.3825 73.0202 24.6311 73.1042 24.938L81.1205 54.2067" stroke="#05299E" stroke-width="3" stroke-linecap="round"/>
<path d="M45.3302 41.1601L79.8424 53.8563C80.5275 54.1083 80.7205 54.9857 80.2043 55.5019L56.3525 79.3537C56.0831 79.6231 55.6841 79.716 55.3234 79.5933L20.0959 67.6124C19.3946 67.3739 19.187 66.4823 19.7107 65.9586L44.2778 41.3915C44.5535 41.1158 44.9643 41.0255 45.3302 41.1601Z" stroke="#05299E" stroke-width="3" stroke-linecap="round"/>
</svg>
