<svg xmlns="http://www.w3.org/2000/svg" viewBox="0 0 132.17 126.35"><defs><style>.cls-1{fill:#fff;}.cls-2{fill:none;stroke:#05299e;stroke-width:10px;}</style></defs><g id="Layer_2" data-name="Layer 2"><g id="Layer_1-2" data-name="Layer 1"><path class="cls-1" d="M68,14a4,4,0,0,1,7.61,0l11.5,35.39A4,4,0,0,0,91,52.13h37.21a4,4,0,0,1,2.35,7.23l-30.1,21.87A4,4,0,0,0,99,85.7l11.5,35.39a4,4,0,0,1-6.15,4.47L74.2,103.69a4,4,0,0,0-4.71,0l-30.1,21.87a4,4,0,0,1-6.15-4.47L44.73,85.7a4,4,0,0,0-1.45-4.47L13.18,59.36a4,4,0,0,1,2.35-7.23H52.74a4,4,0,0,0,3.8-2.77Z"/><path class="cls-2" d="M45.84,34.53,55.2,5.69a1,1,0,0,1,1.91,0l9.37,28.84A10,10,0,0,0,76,41.44h30.32a1,1,0,0,1,.59,1.81L82.37,61.07a10,10,0,0,0-3.63,11.18l9.37,28.84a1,1,0,0,1-1.54,1.12L62,84.39a10,10,0,0,0-11.76,0L25.75,102.21a1,1,0,0,1-1.54-1.12l9.37-28.84a10,10,0,0,0-3.64-11.18L5.41,43.25A1,1,0,0,1,6,41.44H36.32A10,10,0,0,0,45.84,34.53Z"/></g></g></svg>