<svg width="32" height="32" xmlns="http://www.w3.org/2000/svg" xml:space="preserve" version="1.1" enable-background="new 0 0 32 32">
 <g>
  <title>Layer 1</title>
  <g id="earth" stroke="null">
   <path fill="#f4bd03" id="svg_2" d="m15.999,0c-8.835,0.002 -15.997,7.164 -15.999,15.999c0.002,8.838 7.164,16 15.999,16.001c8.838,-0.002 16,-7.163 16.001,-16.001c-0.001,-8.835 -7.163,-15.997 -16.001,-15.999zm-13.947,17.001l4.988,0c0.071,1.859 0.326,3.527 0.72,4.999l-4.387,0c-0.731,-1.534 -1.191,-3.217 -1.321,-4.999zm14.948,-8.999l0,-5.79c0.941,0.705 2.991,2.501 4.433,5.791l-4.433,0l0,-0.001zm5.169,1.999c0.428,1.437 0.714,3.105 0.795,5l-5.964,0l0,-5l5.169,0zm-7.623,-7.436c0.174,-0.144 0.322,-0.258 0.454,-0.356l0,5.793l-4.438,0c0.528,-1.203 1.137,-2.208 1.743,-3.033c0.82,-1.114 1.638,-1.901 2.241,-2.404zm0.454,7.436l0,5l-5.96,0c0.081,-1.904 0.374,-3.563 0.805,-5l5.155,0zm-7.96,5l-4.988,0c0.129,-1.781 0.588,-3.466 1.319,-5l4.389,0c-0.394,1.473 -0.649,3.142 -0.72,5zm1.995,2l5.965,0l0,4.999l-5.17,0c-0.428,-1.436 -0.714,-3.104 -0.795,-4.999zm5.965,7l0,5.789c-0.94,-0.704 -2.991,-2.499 -4.433,-5.789l4.433,0zm2.453,5.435c-0.173,0.144 -0.322,0.257 -0.453,0.356l0,-5.79l4.437,0c-0.527,1.202 -1.137,2.206 -1.743,3.031c-0.819,1.112 -1.638,1.901 -2.241,2.403zm-0.453,-7.436l0,-4.999l5.959,0c-0.081,1.903 -0.374,3.562 -0.804,4.999l-5.155,0zm7.96,-4.999l4.986,0c-0.129,1.781 -0.589,3.465 -1.32,4.999l-4.386,0c0.393,-1.472 0.648,-3.14 0.72,-4.999zm0,-2c-0.072,-1.859 -0.326,-3.527 -0.721,-5l4.388,0c0.731,1.534 1.191,3.219 1.319,5l-4.986,0zm2.513,-6.999l-3.889,0c-0.881,-2.28 -2.037,-4.012 -3.116,-5.255c2.864,0.967 5.309,2.827 7.005,5.255zm-15.942,-5.255c-1.078,1.244 -2.235,2.976 -3.115,5.255l-3.889,0c1.697,-2.428 4.142,-4.288 7.004,-5.255zm-7.001,21.254l3.887,0c0.879,2.276 2.034,4.007 3.112,5.25c-2.86,-0.966 -5.303,-2.824 -6.999,-5.25zm15.94,5.25c1.078,-1.243 2.233,-2.974 3.113,-5.25l3.887,0c-1.696,2.426 -4.139,4.284 -7,5.25z"/>
  </g>
 </g>

</svg>