<svg width="86" height="86" viewBox="0 0 86 86" fill="none" xmlns="http://www.w3.org/2000/svg">
<circle cx="41.5" cy="41.5" r="41.5" fill="#0B2A2B"/>
<circle cx="44.5" cy="44.5" r="41.5" fill="#FFDC28"/>
<path d="M63.2052 31.2634L63.2051 31.2634C63.772 31.8649 64.1119 32.6219 64.1467 33.4262L64.15 33.4265V33.563C64.15 34.4188 63.8041 35.226 63.2085 35.9002L63.2019 35.9077L63.2016 35.9075L61.1865 37.9034C62.3974 40.1807 63.0819 42.8131 63.0819 45.5645C63.0819 54.7208 55.579 62.15 46.3381 62.15C42.7741 62.15 39.3757 61.0415 36.5162 58.9893L36.5142 58.9879C35.9531 58.571 35.8624 57.8288 36.2329 57.2785L36.2375 57.2716L36.2377 57.2717C36.6585 56.716 37.4057 56.6272 37.9596 56.9931L37.9652 56.9967L37.9651 56.9969C40.4033 58.768 43.2887 59.6939 46.3381 59.6939C54.2249 59.6939 60.646 53.332 60.646 45.5239C60.646 43.4247 60.1913 41.4762 59.3547 39.6771L50.2636 48.6816L50.2636 48.6816C49.5913 49.3473 48.7512 49.8882 47.8266 50.2213L41.5444 52.4985C41.328 52.5842 41.1451 52.6303 40.9162 52.6303C40.4648 52.6303 40.0166 52.4514 39.6606 52.0988L39.7661 51.9922L39.6606 52.0988C39.1696 51.6124 38.987 50.899 39.2568 50.2291L41.5971 44.0075C41.5971 44.0073 41.5972 44.0071 41.5973 44.0069C41.9335 43.0915 42.4383 42.3 43.152 41.5931L52.2416 32.5901C50.4616 31.7632 48.4572 31.3131 46.338 31.3131C38.4506 31.3131 32.0307 37.675 32.1123 45.4816L32.1123 45.4832L32.1123 50.0052L34.7731 47.3698C34.7731 47.3698 34.7731 47.3698 34.7731 47.3698C35.2422 46.9049 36.0345 46.905 36.5038 47.3698L63.2052 31.2634ZM63.2052 31.2634L63.2015 31.2597M63.2052 31.2634L63.2015 31.2597M63.2015 31.2597L60.6961 28.7782C59.448 27.542 57.2994 27.539 56.089 28.779C56.0887 28.7794 56.0884 28.7797 56.0881 28.78L54.0734 30.7755C51.774 29.5756 49.1159 28.8974 46.3379 28.8974C37.097 28.8974 29.5942 36.3266 29.5942 45.4829V50.005L26.9333 47.3698C26.4641 46.905 25.6717 46.9049 25.2026 47.3698C24.7325 47.8354 24.7324 48.6227 25.2026 49.0881L29.9672 53.8073C30.1997 54.0376 30.5246 54.1762 30.8532 54.1762C31.1818 54.1762 31.5067 54.0376 31.7392 53.8073L31.6337 53.7007M63.2015 31.2597L31.6337 53.7007M31.6337 53.7007L31.7392 53.8073L36.5039 49.0881C36.9739 48.6225 36.974 47.8352 36.5039 47.3698L31.6337 53.7007ZM44.3126 44.0135L47.8035 47.471C47.5822 47.6522 47.2807 47.8121 46.94 47.9469C46.94 47.9469 46.9399 47.9469 46.9399 47.9469L42.0334 49.7454L43.848 44.8889C43.9821 44.5904 44.1448 44.2908 44.3126 44.0135ZM59.0061 30.4963L59.1117 30.3897L59.0061 30.4963L61.5116 32.9779C61.6479 33.1129 61.7512 33.3151 61.7547 33.5504C61.7163 33.7616 61.6082 33.9709 61.4706 34.1074L61.4176 34.1599L49.6649 45.8006L46.0171 42.1875L57.8208 30.4963C57.9595 30.3589 58.1692 30.2548 58.4135 30.2548C58.6249 30.2548 58.8319 30.3237 59.0061 30.4963Z" fill="#0B2A2B" stroke="#0B2A2B" stroke-width="0.3"/>
</svg>
