<svg width="86" height="86" viewBox="0 0 86 86" fill="none" xmlns="http://www.w3.org/2000/svg">
<circle cx="41.5001" cy="41.5" r="41.5" fill="#0B2A2B"/>
<circle cx="44.5001" cy="44.5" r="41.5" fill="#FFDC28"/>
<path d="M62.0001 32.7644C62.0001 29.5444 59.381 26.9248 56.1613 26.9248H32.7628C29.5431 26.9248 26.9241 29.5444 26.9241 32.7644V56.1622C26.9241 59.3819 29.5431 62.0009 32.7628 62.0009H56.1606C59.3806 62.0009 61.9996 59.3819 61.9996 56.1622V32.7644H62.0001ZM29.8475 32.7644C29.8475 31.156 31.1548 29.8479 32.7632 29.8479H56.161C57.7697 29.8479 59.077 31.156 59.077 32.7644V37.0339H29.847L29.8475 32.7644ZM59.0775 56.1622C59.0775 57.7698 57.7702 59.0779 56.1619 59.0779H32.7634C31.155 59.0779 29.8477 57.7698 29.8477 56.1622V39.957H59.0777L59.0775 56.1622Z" fill="#0B2A2B"/>
<path d="M35.4117 54.8105H44.4622C45.2701 54.8105 45.9237 54.1561 45.9237 53.349C45.9237 52.5418 45.2701 51.8875 44.4622 51.8875H35.4117C34.6038 51.8875 33.9501 52.5419 33.9501 53.349C33.9501 54.1561 34.6038 54.8105 35.4117 54.8105Z" fill="#0B2A2B"/>
<path d="M35.4117 47.1455H53.512C54.3199 47.1455 54.9736 46.491 54.9736 45.6839C54.9736 44.8768 54.3199 44.2224 53.512 44.2224H35.4117C34.6038 44.2224 33.9501 44.8768 33.9501 45.6839C33.9501 46.4911 34.6038 47.1455 35.4117 47.1455Z" fill="#0B2A2B"/>
<path d="M33.0014 32.4027C32.3658 33.111 32.5081 33.9835 33.0014 34.4778C33.5429 34.9902 34.4539 35.0862 35.0622 34.4778C35.6446 33.8971 35.6456 32.9845 35.0622 32.4027C34.5199 31.8386 33.5575 31.8434 33.0014 32.4027Z" fill="#0B2A2B"/>
<path d="M40.5571 32.4027C39.9467 31.7922 39.0031 31.8961 38.4976 32.4027C37.8943 32.9993 37.9651 33.9466 38.4976 34.4778C39.0258 35.0061 39.9647 35.0718 40.5571 34.4778C41.2166 33.8199 41.0528 32.8456 40.5571 32.4027Z" fill="#0B2A2B"/>
<path d="M43.9926 32.4026C43.428 32.9658 43.4278 33.9142 43.9926 34.4777C44.5052 34.9903 45.447 35.0778 46.0535 34.4777C46.635 33.8949 46.6374 32.9878 46.0535 32.4026C45.5127 31.8616 44.5336 31.8616 43.9926 32.4026Z" fill="#0B2A2B"/>
</svg>
