<svg xmlns="http://www.w3.org/2000/svg" viewBox="0 0 645.57 273.45"><defs><style>.cls-1{fill:#050001;}.cls-1,.cls-2,.cls-3{fill-rule:evenodd;}.cls-2{fill:#fcd177;}.cls-3{fill:#f8b737;}</style></defs><g id="Layer_2" data-name="Layer 2"><g id="图层_1" data-name="图层 1"><path class="cls-1" d="M41.4,8.28A16.69,16.69,0,0,1,55.86,0C64.64,0,73.43.08,82.21,0c3.41,0,7,.05,10,1.83,1.69.8,3.2,2.26,5.17,2.21,7.35.16,14.7-.19,22,.12,3,.06,5.51,1.72,8.25,2.63,10-1,19.82-3.08,29.83-3.76,15.55-.62,31.37,0,46.46,4.08a44.45,44.45,0,0,1,15.13,7.4c2.9-1.84,6.08-3.48,9.6-3.51,7.86-.2,15.72,0,23.59-.09,15.48-14,41.49-13.82,57,0,8.46.47,17.12-1,25.4,1.16,2.56-6.43,8.91-11.3,16-11.1,11.59,0,23.18-.12,34.76.07,8.1.4,14.57,7.43,15.48,15.29,7.84.05,15.67-.08,23.51,0,4.56,0,8.66,2.38,11.89,5.43a131.87,131.87,0,0,0,6.33-12.14A16.6,16.6,0,0,1,457.4.35C469,.26,480.66.13,492.29.17c6,.09,11.23,3.91,14.19,8.91,30.81-2,61.82-3,92.57.35,10.49,1.25,21,5.13,28.68,12.59a36.51,36.51,0,0,1,11,25.38,133.84,133.84,0,0,1-1.42,22.45c-.77,3.14,1.44,5.86,1.72,8.9.73,5.34-1.84,10.29-3.2,15.32,4.31,3.74,7.17,9.41,6.31,15.21-1.11,6.85-2.89,13.57-4.2,20.39-.54,2.77.36,5.58.06,8.38a82.42,82.42,0,0,1-1.74,8.23,18.66,18.66,0,0,1,9.35,12.91V163c-1.64,7.78-3.27,15.58-5.18,23.29a16.61,16.61,0,0,1-15.1,11.61c-17.46.21-34.92-.17-52.36.19,2.65,2.4,6.77.58,10,1.19,7.45-.24,14,6.8,13.16,14.22-.29,5.89-5.27,9.71-8.82,13.85,3.31,4.65,7.94,8.51,10,13.94,2.7,7.76-3.57,16.79-11.77,16.93-6.12,0-12.62,1-18.33-1.76-6.26,3-13.4,1.76-20.05,1.36-7.15.29-15,1.93-21.58-1.72-5.29,2.94-11.5,2.29-17.29,2.1-5.53-.93-11.07.57-16.62.13A26.34,26.34,0,0,1,480.11,270c-6.79,3.45-14.71,3.94-22.15,3-8.95-1.21-17.46-6.53-21.62-14.67-4.8.11-9.8.22-14.15-2.15-6.85,3.68-14.86,1.77-22.24,1.65-6.79,1-13.64.07-20.45.46-5.18,0-10.66.67-15.41-1.85-5,2.46-10.61,1.92-16,1.82-3,0-5.66-1.34-8.16-2.78a36.51,36.51,0,0,1-30.27.5,19.74,19.74,0,0,1-6.29,2.16c-8.35.58-17.32.47-24.57-4.27-2.63,2.29-5.75,4.3-9.37,4.35-5.72.11-11.89.9-17.05-2.14-11,4.28-24.12,4.18-34.43-1.93a28.32,28.32,0,0,1-22.43,4.11c-7.46-.75-15.84,2-22.48-2.78-11.35,5.41-25.93,4.87-36-3.11-2.52,3-5.89,5.52-9.92,5.79-5.64.37-11.73.75-16.71-2.46-2.45,1.33-5.06,2.58-7.93,2.56-4.73.05-9.93.7-14.17-1.89a14.58,14.58,0,0,1-6.55-8.88Q78,235.22,74.23,223c-.9-3.46-4.3-5.62-5-9.19-.93-3.75-1.8-7.5-2.7-11.25-7.1-1.62-14.43-.22-21.64-.72-4.33-.48-8.43,1.46-12.75,1.1-5.94-.23-11.87.11-17.79-.37C6.88,201.68.84,195.1,0,187.67v-3.36c.9-4.57,2.76-8.88,4.22-13.29,3.38-9.6,6.56-19.27,10.1-28.81a41,41,0,0,1-2-16.81c.82-10.76,6.24-20.41,12.36-29.05-8.89-5.76-14-16.41-13.5-26.91.28-9,4.39-17.24,8.82-24.87Q30.65,26.41,41.4,8.28Z"/><path class="cls-2" d="M260.35,194.39c3.14-.92,6.67-.34,9.95-.35,2.1.18,1.41,2.83,1.58,4.26-.3,1.74.75,4.45-1.17,5.47a65,65,0,0,1-10.06,0c-1.83-2.35-.7-6-.78-8.81Z"/><path class="cls-2" d="M388.12,194.1a65.58,65.58,0,0,1,10,0l.89.92a31.92,31.92,0,0,1-.17,8.23c-1.87,1.32-4.44.4-6.59.69-1.83-.16-5.45.79-5.17-2.21C387.4,199.26,386.07,195.9,388.12,194.1Z"/><path class="cls-2" d="M181.27,198.22c-.12-1.09.34-2.37,1.62-2.38,3.33-.06,6.76-.43,10,.25.15.22.45.62.61.83.28,5,0,10.1.08,15.14,5.69-5.43,16.15-5.2,21,1.18,3.88,5.09,3.92,11.91,3.38,18-.42,5-2.75,10.24-7.45,12.55-5.66,2.67-13.3,2-17.56-2.92-.19,1.25.33,3.67-1.6,3.74-3.12.06-6.34.4-9.4-.21-1.23-1.18-.6-3.12-.78-4.61.06-13.85,0-27.71,0-41.56ZM197,218.28h0c-2.43,1-3.33,3.86-3.34,6.31-.06,3-.24,6.36,1.47,9,1.62,2.51,5.36,2.71,7.81,1.39,2.29-1.52,2.68-4.51,2.78-7,0-2.83.1-5.93-1.59-8.34C202.46,217.5,199.27,217.37,197,218.28Z"/><path class="cls-2" d="M282.2,197.28c.43-2.25,3.4-1.32,5-1.55,2.15.31,5-.76,6.66,1,.36,4.05.05,8.13.16,12.2,3.27.24,6.79-.61,9.91.48a16,16,0,0,1,0,8.34c-3.13,1.07-6.66.22-9.95.48.21,4.8-.52,9.71.46,14.44,1.73,4.23,7.55.6,10.26,3a33.66,33.66,0,0,1,0,8.21c-1,1.16-2.64.66-4,.82-4.56-.07-9.53.2-13.54-2.4-3.12-1.94-4.68-5.61-4.94-9.17-.39-5-.07-10-.21-15-2.19-.13-4.55.46-6.62-.41a15.22,15.22,0,0,1,0-8.41c2.07-.92,4.47-.33,6.67-.46C282.19,205,282,201.14,282.2,197.28Z"/><path class="cls-2" d="M348.17,198.29c-.17-1.16.29-2.39,1.62-2.45A51,51,0,0,1,359,196c1.33.44.89,2.05,1,3.13q0,10.69,0,21.39c2.8-3.18,5.57-6.4,8.36-9.59.81-.73,1.45-1.95,2.68-1.94,3.36-.17,6.75-.15,10.13,0,1.29-.31,2,1.61,1.14,2.41-4,4.58-8.15,9-12.2,13.52,4.58,5.78,9.32,11.45,13.86,17.26a1.47,1.47,0,0,1-1.19,2.47c-3.38.12-6.77.11-10.15,0-1.27.08-2-1.06-2.79-1.88-3.29-4.06-6.55-8.14-9.85-12.19-.08,4.21.15,8.44-.08,12.66-.49,2.24-3.43,1.23-5,1.5-2.14-.29-4.74.65-6.54-.79a17.62,17.62,0,0,1-.27-4.16C348.18,225.93,348.11,212.12,348.17,198.29Z"/><path class="cls-2" d="M508.24,197.38c.06-2.12,2.93-1.51,4.36-1.64,2.69.3,5.83-.75,8.22.82.37,5.4.06,10.84.14,16.25,5.47-6.09,16.53-6.3,21.59.39,3.8,4.92,3.05,11.46,3.1,17.29-.18,4.47.36,9-.27,13.44-.24.15-.7.46-.93.62a81.55,81.55,0,0,1-10.37,0c-1.44-.31-1.27-1.9-1.31-3-.08-6.27.2-12.55-.11-18.81a5.37,5.37,0,0,0-5.66-5,5.53,5.53,0,0,0-5.88,5c-.5,7,.27,14.12-.37,21.12l-.89.62a68.84,68.84,0,0,1-10.65,0c-1.25-.42-1-2-1.06-3C508.22,226.81,508.06,212.1,508.24,197.38Z"/><path class="cls-2" d="M551.44,197.49c0-2.18,2.83-1.65,4.28-1.76,2.42.31,5.4-.77,7.43.89.32,7.91,0,15.84.16,23.76,3.25-3.33,6.05-7,9.27-10.4,1.25-1.58,3.43-1,5.18-1.11,2.6.14,5.3-.36,7.84.37.08.44.23,1.31.32,1.75-4,4.76-8.36,9.25-12.49,13.9,4.6,5.82,9.39,11.5,13.92,17.37a1.43,1.43,0,0,1-1.11,2.35c-3.41.16-6.82.11-10.22,0-1.52.09-2.35-1.38-3.23-2.34q-4.74-5.91-9.5-11.77c-.15,4.44.28,8.91-.2,13.33-1.7,1.59-4.42.53-6.52.86-1.86-.14-5.48.7-5.18-2.32C551.39,227.43,551.28,212.45,551.44,197.49Z"/><path class="cls-2" d="M146.25,212.32c5.6-4.68,13.9-5.09,20.55-2.65,6.3,2.39,9.83,9.12,9.95,15.63,0,1.58.73,4.64-1.71,4.72-7.32.14-14.64,0-21.95.06.12,3.11,1.51,7.35,5.3,7.25,2.57.35,4.07-2,5.94-3.23a70,70,0,0,1,10.84.09l.68,1.3c-1.06,4.76-5.82,7.55-10.16,8.91C159.51,246,152.35,245.7,147,242c-4-2.78-5.94-7.61-6.27-12.33-.64-6.15.61-13.15,5.55-17.33Zm8.16,5.79h0c-1,1.44-1,3.27-1.32,5,3.72,0,7.45,0,11.17,0-.29-1.65-.28-3.45-1.26-4.86C161.21,215.25,156.26,215.17,154.41,218.11Z"/><path class="cls-2" d="M231.68,209c6.84-1.59,15-.84,20.19,4.27,1.28,1.39,3.15,3.89,1.42,5.61a67.92,67.92,0,0,1-8.44,0c-2.83-.8-5.16-3.81-8.4-2.75-2.5.25-3.2,4-.72,4.88,5.27,2.32,11.73,1.75,16.3,5.69a9.6,9.6,0,0,1,1.83,12.73c-2.64,3.72-7.32,5.19-11.65,5.68-5.82.58-12.17.17-17.08-3.31-1.94-1.45-3.87-3.55-3.83-6.12.32-1.55,2.06-1.2,3.25-1.28,2.26,0,4.53-.1,6.8.09,2.27,1,4.11,3.1,6.76,3,1.76.08,4.61-.53,4.51-2.79.2-1.88-1.9-2.6-3.29-3.12-4.58-1.47-9.78-1.61-13.65-4.78A9.45,9.45,0,0,1,223,215.5C224.66,212.08,228.11,209.89,231.68,209Z"/><path class="cls-2" d="M308.52,219.43a15.63,15.63,0,0,1,11.77-10.62c5.87-1.21,12.64-.71,17.4,3.28s6.44,10.66,5.92,16.66c-.18,1-1.33,1.35-2.24,1.3-7.13.06-14.27,0-21.4,0,.23,2.82,1.09,6.63,4.41,7.17,2.84.75,4.94-1.49,6.79-3.24,3.42,0,6.84-.16,10.25.06,2.31.23,1,3.06.17,4.23-4.12,5.82-12,7.62-18.73,6.86-5.8-.4-11.62-3.74-13.83-9.3a25.61,25.61,0,0,1-.51-16.43Zm12.81-1.35h0c-1.05,1.44-1,3.3-1.34,5,3.72,0,7.45,0,11.16,0-.32-1.83-.33-3.88-1.64-5.34C327.54,215.22,323,215.33,321.33,218.08Z"/><path class="cls-2" d="M417.22,213.17A15.16,15.16,0,0,1,435.67,210c4.43,2.58,6.48,7.91,6.49,12.85q.06,9.74,0,19.51a1.78,1.78,0,0,1-1.71,2.24c-3.41,0-6.93.44-10.27-.29l-.56-1.11c-.34-7,.2-14.05-.26-21.05-.49-4.44-6.52-5.73-9.56-3-1.57,1.31-1.93,3.47-1.92,5.41-.06,5.93.05,11.87,0,17.81.16,1-.56,2.44-1.79,2.28-3.12.1-6.25.17-9.36,0-1.13-.08-1.55-1.36-1.43-2.31,0-10.14,0-20.28,0-30.41.05-1.05-.13-2.85,1.4-2.88a71.53,71.53,0,0,1,9.26,0C417.79,209.42,417,211.79,417.22,213.17Z"/><path class="cls-2" d="M449.28,214.71c4.35-8,17-8.69,22.67-1.74a15.45,15.45,0,0,1,.59-3.78,41.93,41.93,0,0,1,10.26-.13c1.6.38,1,2.48,1.18,3.67-.05,10.15,0,20.29,0,30.44,0,4.13-.94,8.54-3.9,11.6-3.33,3.58-8.39,4.59-13,5.37h-3.22c-5.87-1-12.45-3-15.38-8.71-.61-1.42-1.9-3.73-.11-4.75a42.11,42.11,0,0,1,10.76-.09c1.66,1.19,2.24,3.78,4.46,4.2,2.6.64,6.26.17,7.28-2.72.79-2.54.45-5.25.59-7.86-4.71,4.06-11.74,4.62-17.28,2.07-4.26-2-6.44-6.67-7.06-11.13-.74-5.5-.56-11.48,2.19-16.44Zm13.6,3.45h0c-4.29,2.11-3.77,7.93-3.12,11.9.49,4.29,6,5.75,9.2,3.41,2.14-1.72,2.45-4.66,2.49-7.21s-.24-5.64-2.4-7.4A6.91,6.91,0,0,0,462.88,218.16Z"/><path class="cls-2" d="M85,211.93c-.31-1-.76-2.52.62-2.92a60.52,60.52,0,0,1,8.41,0c1.36-.06,1.7,1.41,2,2.42,1.76,6,3.5,11.94,5.29,17.89,2.31-6.51,4-13.25,6.45-19.7,1.89-1.22,4.37-.6,6.51-.63,1.31-.18,2,1.07,2.33,2.14,2,6.1,3.82,12.24,5.82,18.34,1.72-6.16,3.55-12.31,5.38-18.44.69-3.17,4.52-1.84,6.82-2.12,1.58,0,5.24-.49,4.35,2.22-3,10.2-6.37,20.31-9.47,30.49-.45,1.18-.75,3.11-2.42,3a52.45,52.45,0,0,1-7,0c-1.63,0-2.12-1.76-2.56-3-1.85-5.68-3.79-11.33-5.66-17-2.14,6.13-4.1,12.31-6.3,18.42a2.07,2.07,0,0,1-2.22,1.55,41.81,41.81,0,0,1-7.34-.12c-1.18-.22-1.32-1.67-1.73-2.56C91.29,231.93,88.15,221.93,85,211.93Z"/><path class="cls-2" d="M260.23,209.32c3.22-.9,6.73-.35,10.06-.36,1.59-.06,1.57,1.75,1.56,2.86,0,10.22,0,20.43,0,30.64.12,1-.44,2.19-1.59,2.14-2.84.18-5.72.12-8.56,0a1.87,1.87,0,0,1-1.93-2.27c-.06-9.62,0-19.22,0-28.83C259.84,212.13,259.38,210.55,260.23,209.32Z"/><path class="cls-2" d="M387.46,209.46c3.25-1.2,7.14-.45,10.62-.43l1,1.14c.25,10.42,0,20.86.11,31.28-.13,1,.26,2.61-1,3.06a71.35,71.35,0,0,1-9.25.12,1.83,1.83,0,0,1-1.79-2.23c-.08-9.63,0-19.27,0-28.9C387.15,212.15,386.81,210.69,387.46,209.46Z"/><path class="cls-2" d="M490.26,232.69c3.38-1.31,7.53-.42,11.2-.5l.82,1a60,60,0,0,1-.14,10.72c-1.79,1.47-4.42.5-6.53.79-1.84-.27-4.25.64-5.63-.92C489.82,240.15,489.29,236.14,490.26,232.69Z"/><path class="cls-3" d="M56.53,15.38H85.6C77.21,29.94,69,44.61,60.68,59.22H76.32l9.82,16Q75.06,93.85,64,112.47c-1.33,2.55-3,5.07-3.39,8,.89,1.14,2.56.53,3.79.75q9.12,0,18.22,0c-2,7.58-4.27,15.11-6.47,22.65-9.82,0-19.64,0-29.45,0-4.28-.06-8.84-.79-12.22-3.62s-4.67-7.13-4.88-11.27c-.35-7,2.38-13.67,6.17-19.36q9-13.53,17.93-27C48.37,82.31,43,83,37.74,82c-6.27-1.29-9.75-8.09-9.16-14.1.6-6.2,3.89-11.66,6.89-17C42.49,39.09,49.42,27.17,56.53,15.38Z"/><path class="cls-3" d="M458.62,15.38h33.65A94.3,94.3,0,0,1,489.34,26c32.21-3,64.66-4.65,97-2.41,7.59.64,15.47.77,22.56,3.88a22.25,22.25,0,0,1,12,10.91c2.67,5.53,1.69,11.84,1.58,17.75-.23,7.92-2.09,15.66-4.11,23.28h4.76c-2,6.38-4,12.77-6.05,19.13-50.91-.06-101.83,0-152.74,0-7.56,0-14-6.27-15.29-13.54-2-9.9-.72-20.07-1.08-30.09-3.88-2.54-7.75-5.11-11.61-7.67A89.09,89.09,0,0,0,453.58,25.1c1.83-3.17,3.21-6.56,5-9.72Zm42.14,28.84h0c-6.76.72-13.58,1.22-20.2,2.82,0,2,0,4,0,6q54.51,0,109,0c-.44-2.61-.75-5.77-3.28-7.24-5.18-2.74-11.23-2.64-16.93-3.21-22.85-1.47-45.8-.36-68.59,1.69ZM480.55,79.39H584.4c.93-3.08,1.69-6.21,2.38-9.36q-53.1,0-106.21,0C480.54,73.15,480.54,76.26,480.55,79.39Z"/><path class="cls-3" d="M275.43,16.34c7.43-1.34,15.69-.34,21.87,4.3a14.08,14.08,0,0,1,4.26,5.54c9.1,0,18.21,0,27.32,0q-2.08,11.64-4.16,23.27H234.13c-1.23-7.75-2.5-15.51-3.73-23.26h31C263.79,20.57,269.72,17.5,275.43,16.34Z"/><path class="cls-3" d="M351.32,16.22h33.45V31.59h39.68q-1.87,11.64-3.74,23.27H384.77c0,6.78,0,13.57,0,20.35,8.47-.85,17.17-1,25.51,1,4.07,1.06,8.82,3.21,9.87,7.73,2.27,9.48,1.88,19.35,1.22,29-1.3,15.67-3.78,31.38-8.95,46.28H422q-3.21,11.22-6.45,22.43H345.68c-5.7.1-12.08-2.14-14.86-7.45-2.38-4.82-2.67-10.33-2.77-15.62q0-41.45,0-82.9l23.27-.22q0-29.61,0-59.21Zm10.2,88.1h0c0,18.35,0,36.71,0,55.06q9,0,17.95-.11c4.53-12.82,6.17-26.38,7.94-39.78A146.48,146.48,0,0,0,388.43,101c-.13-2.27-2.61-3.35-4.6-3.12A69.23,69.23,0,0,0,361.52,104.32Z"/><path class="cls-3" d="M118.59,24.09c12.35-2.26,24.81-3.84,37.24-5.57a150.89,150.89,0,0,1,37.73,1.69c5.7,1.17,11.77,2.44,16.27,6.4a14.85,14.85,0,0,1,5,9.79c1.42,11,1.23,22.13,1.42,33.21.19,30,.25,59.91-.26,89.86-.26,5.9.15,12.15-2.48,17.62-1.79,3.86-6.31,4.92-10.11,5.62-6.87.92-13.83.29-20.75.68-1.23-7.38-2.33-14.78-3.87-22.11,2.56,0,5.58.9,7.74-.91,1.47-1.6,1.15-4,1.44-6,.65-14.82.47-29.68.64-44.51-.46,3.35-.73,6.73-1,10.11H148.43c.08,4.42-.43,8.86.1,13.26.17,1.29.7,3.15,2.33,3.08,11.84.18,23.68,0,35.52,0-.58,5.75-1.66,11.43-2,17.21-14,.08-28.07.12-42.1-.1A24.48,24.48,0,0,1,130,150.61c-2.54-2.21-2.81-5.87-3-9-.17-7.22,0-14.45,0-21.66h-7q-.75-7.17-.86-14.38a100.55,100.55,0,0,0-.52,11.51q0,32.78,0,65.57H91.23V19.32h27.35c0,1.59,0,3.18,0,4.77ZM146.5,45.38h0c-9.38,1.73-18.91,3.2-27.93,6.39q0,24.72,0,49.44,12.4,0,24.82,0a11.4,11.4,0,0,1,3.28-6.08c6.44-6.11,19.52-3.34,21,6.07,6.95,0,13.92,0,20.87,0q0-21.75,0-43.48c-.06-3.24-.25-6.68-1.95-9.53-1.29-2.19-3.82-3.24-6.25-3.52C169.12,43.47,157.66,43.27,146.5,45.38Z"/><path class="cls-3" d="M164.6,57.55h19.11a39.36,39.36,0,0,1-8.63,13.21c3.5,0,7,0,10.51,0q-.75,9.39-1.5,18.75-29.91,0-59.8,0l-1.62-18.76c3.33,0,6.67,0,10,0-3.61-3.38-5.79-7.88-7.9-12.27,6.35,0,12.71,0,19.07,0a26,26,0,0,0,6.49,10.86c-.39.34-1.16,1-1.56,1.35,3.42,0,6.84,0,10.27,0A38.66,38.66,0,0,0,164.6,57.55Z"/><path class="cls-3" d="M233.51,59.44h29.71c2.72,27.27,6.72,54.78,16.86,80.4a216.89,216.89,0,0,0,4.75-23.26c2.64-18.92,5-37.88,6.45-56.94,10.6,0,21.21-.06,31.82,0-1.71,18.61-3.91,37.19-7.3,55.57-2.8,14.3-6.81,28.45-13.09,41.64,7.61,0,15.23,0,22.84,0l-5.4,22.24H236.84q-2.72-11.12-5.4-22.25,21.44,0,42.88,0a171.89,171.89,0,0,0,5.53-16.41q-11.75,2.39-23.49,4.78c-6.47-10.21-10.76-21.63-14.1-33.2A255.53,255.53,0,0,1,233.51,59.44Z"/><path class="cls-3" d="M441.49,106h184.7q-2.18,10.29-4.36,20.57-35.94,0-71.89,0v8.32H622q-2.09,8.82-4.15,17.66H549.94V160h79.58q-2.17,9.87-4.36,19.74H441.49q-2.4-9.85-4.78-19.74,40.2,0,80.41,0v-7.47q-34.29,0-68.58,0-1.95-8.84-3.94-17.65h72.52v-8.32H446.07Q443.76,116.27,441.49,106Z"/><path class="cls-3" d="M29.87,148.62c11.54-.12,23.06-.26,34.6-.21q-.1,17.57-.2,35.11l-18.42.17c.29-11.68.92-23.37,1-35.05-1.07,1.05-1.36,2.58-1.81,3.94-3.21,10.72-6.53,21.39-9.76,32.09-6,0-11.91-.11-17.87-.16Q23.64,166.57,29.87,148.62Z"/><path class="cls-3" d="M66,148.25l16.41.2q2.3,17.64,4.56,35.29l-17.1.76Z"/></g></g></svg>