<svg width="186" height="108" viewBox="0 0 186 108" fill="none" xmlns="http://www.w3.org/2000/svg">
<path d="M79.6699 43.7803C79.6699 43.2443 79.8289 42.7204 80.1266 42.2747C80.4244 41.8291 80.8477 41.4817 81.3428 41.2766C81.838 41.0715 82.3829 41.0178 82.9086 41.1224C83.4343 41.2269 83.9172 41.485 84.2962 41.864C84.6752 42.243 84.9333 42.7259 85.0378 43.2516C85.1424 43.7773 85.0887 44.3222 84.8836 44.8174C84.6785 45.3126 84.3312 45.7358 83.8855 46.0336C83.4399 46.3314 82.9159 46.4903 82.3799 46.4903C81.6612 46.4903 80.9719 46.2048 80.4637 45.6966C79.9554 45.1883 79.6699 44.499 79.6699 43.7803Z" fill="#FFDC28"/>
<path d="M59.75 43.7798C59.748 43.241 59.9061 42.7137 60.2043 42.2649C60.5024 41.816 60.9271 41.4659 61.4245 41.2588C61.9219 41.0517 62.4696 40.9969 62.9982 41.1016C63.5268 41.2062 64.0123 41.4655 64.3933 41.8465C64.7743 42.2275 65.0336 42.713 65.1382 43.2416C65.2429 43.7702 65.1881 44.3179 64.981 44.8153C64.7739 45.3127 64.4237 45.7374 63.9749 46.0355C63.5261 46.3337 62.9988 46.4918 62.46 46.4898C61.7421 46.4872 61.0543 46.2008 60.5467 45.6931C60.039 45.1855 59.7527 44.4977 59.75 43.7798Z" fill="#FFDC28"/>
<path d="M39.8401 43.7803C39.8401 43.2443 39.999 42.7204 40.2968 42.2747C40.5946 41.8291 41.0178 41.4817 41.513 41.2766C42.0082 41.0715 42.5531 41.0178 43.0788 41.1224C43.6045 41.2269 44.0873 41.485 44.4663 41.864C44.8453 42.243 45.1034 42.7259 45.208 43.2516C45.3126 43.7773 45.2589 44.3222 45.0538 44.8174C44.8487 45.3126 44.5013 45.7358 44.0557 46.0336C43.61 46.3314 43.0861 46.4903 42.5501 46.4903C41.8313 46.4903 41.142 46.2048 40.6338 45.6966C40.1256 45.1883 39.8401 44.499 39.8401 43.7803Z" fill="#FFDC28"/>
<path d="M19.9199 43.7803C19.9199 43.2443 20.0789 42.7204 20.3766 42.2747C20.6744 41.8291 21.0977 41.4817 21.5928 41.2766C22.088 41.0715 22.6329 41.0178 23.1586 41.1224C23.6843 41.2269 24.1672 41.485 24.5462 41.864C24.9252 42.243 25.1833 42.7259 25.2879 43.2516C25.3924 43.7773 25.3387 44.3222 25.1336 44.8174C24.9285 45.3126 24.5812 45.7358 24.1355 46.0336C23.6899 46.3314 23.1659 46.4903 22.6299 46.4903C21.9112 46.4903 21.2219 46.2048 20.7137 45.6966C20.2054 45.1883 19.9199 44.499 19.9199 43.7803Z" fill="#FFDC28"/>
<path d="M1.83903e-05 43.7798C-0.00196099 43.2414 0.155884 42.7145 0.453555 42.2659C0.751227 41.8173 1.17535 41.4671 1.67218 41.2597C2.16902 41.0523 2.71622 40.997 3.24451 41.1009C3.7728 41.2047 4.25839 41.4629 4.63979 41.8429C5.02119 42.2229 5.28123 42.7076 5.387 43.2355C5.49276 43.7634 5.43949 44.3108 5.23392 44.8084C5.02835 45.306 4.67973 45.7314 4.23221 46.0307C3.7847 46.33 3.25841 46.4898 2.72002 46.4898C2.00036 46.4898 1.31003 46.2046 0.80022 45.6967C0.290407 45.1887 0.0026642 44.4994 1.83903e-05 43.7798Z" fill="#FFDC28"/>
<path d="M79.6699 23.2803C79.6699 22.7443 79.8289 22.2204 80.1266 21.7747C80.4244 21.3291 80.8477 20.9817 81.3428 20.7766C81.838 20.5715 82.3829 20.5178 82.9086 20.6224C83.4343 20.7269 83.9172 20.985 84.2962 21.364C84.6752 21.743 84.9333 22.2259 85.0378 22.7516C85.1424 23.2773 85.0887 23.8222 84.8836 24.3174C84.6785 24.8126 84.3312 25.2358 83.8855 25.5336C83.4399 25.8314 82.9159 25.9903 82.3799 25.9903C81.6612 25.9903 80.9719 25.7048 80.4637 25.1966C79.9554 24.6883 79.6699 23.999 79.6699 23.2803Z" fill="#FFDC28"/>
<path d="M59.75 23.2798C59.748 22.741 59.9061 22.2137 60.2043 21.7649C60.5024 21.316 60.9271 20.9659 61.4245 20.7588C61.9219 20.5517 62.4696 20.4969 62.9982 20.6016C63.5268 20.7062 64.0123 20.9655 64.3933 21.3465C64.7743 21.7275 65.0336 22.213 65.1382 22.7416C65.2429 23.2702 65.1881 23.8179 64.981 24.3153C64.7739 24.8127 64.4237 25.2374 63.9749 25.5355C63.5261 25.8337 62.9988 25.9918 62.46 25.9898C61.7413 25.9898 61.052 25.7043 60.5438 25.196C60.0355 24.6878 59.75 23.9985 59.75 23.2798Z" fill="#FFDC28"/>
<path d="M39.8401 23.2803C39.8401 22.7443 39.999 22.2204 40.2968 21.7747C40.5946 21.3291 41.0178 20.9817 41.513 20.7766C42.0082 20.5715 42.5531 20.5178 43.0788 20.6224C43.6045 20.7269 44.0873 20.985 44.4663 21.364C44.8453 21.743 45.1034 22.2259 45.208 22.7516C45.3126 23.2773 45.2589 23.8222 45.0538 24.3174C44.8487 24.8126 44.5013 25.2358 44.0557 25.5336C43.61 25.8314 43.0861 25.9903 42.5501 25.9903C41.8313 25.9903 41.142 25.7048 40.6338 25.1966C40.1256 24.6883 39.8401 23.999 39.8401 23.2803Z" fill="#FFDC28"/>
<path d="M19.9199 23.2803C19.9199 22.7443 20.0789 22.2204 20.3766 21.7747C20.6744 21.3291 21.0977 20.9817 21.5928 20.7766C22.088 20.5715 22.6329 20.5178 23.1586 20.6224C23.6843 20.7269 24.1672 20.985 24.5462 21.364C24.9252 21.743 25.1833 22.2259 25.2879 22.7516C25.3924 23.2773 25.3387 23.8222 25.1336 24.3174C24.9285 24.8126 24.5812 25.2358 24.1355 25.5336C23.6899 25.8314 23.1659 25.9903 22.6299 25.9903C21.9112 25.9903 21.2219 25.7048 20.7137 25.1966C20.2054 24.6883 19.9199 23.999 19.9199 23.2803Z" fill="#FFDC28"/>
<path d="M1.83903e-05 23.2798C-0.00196099 22.7414 0.155884 22.2145 0.453555 21.7659C0.751227 21.3173 1.17535 20.9671 1.67218 20.7597C2.16902 20.5523 2.71622 20.497 3.24451 20.6009C3.7728 20.7047 4.25839 20.9629 4.63979 21.3429C5.02119 21.7229 5.28123 22.2076 5.387 22.7355C5.49276 23.2634 5.43949 23.8108 5.23392 24.3084C5.02835 24.806 4.67973 25.2314 4.23221 25.5307C3.7847 25.83 3.25841 25.9898 2.72002 25.9898C2.3633 25.9911 2.00982 25.922 1.67987 25.7864C1.34993 25.6508 1.05 25.4514 0.79729 25.1996C0.544583 24.9478 0.344078 24.6486 0.207263 24.3192C0.0704481 23.9897 1.59616e-05 23.6365 1.83903e-05 23.2798Z" fill="#FFDC28"/>
<path d="M79.6699 2.72954C79.6699 2.19355 79.8289 1.66961 80.1266 1.22395C80.4244 0.778293 80.8477 0.430926 81.3428 0.225812C81.838 0.0206986 82.3829 -0.0329592 82.9086 0.0716068C83.4343 0.176173 83.9172 0.434275 84.2962 0.813275C84.6752 1.19228 84.9333 1.67516 85.0378 2.20085C85.1424 2.72654 85.0887 3.27143 84.8836 3.76661C84.6785 4.2618 84.3312 4.68505 83.8855 4.98283C83.4399 5.28061 82.9159 5.43953 82.3799 5.43953C81.6612 5.43953 80.9719 5.15402 80.4637 4.64579C79.9554 4.13757 79.6699 3.44827 79.6699 2.72954Z" fill="#FFDC28"/>
<path d="M59.75 2.72998C59.748 2.19116 59.9061 1.66391 60.2043 1.21508C60.5024 0.766253 60.9271 0.416058 61.4245 0.20895C61.9219 0.00184095 62.4696 -0.0528486 62.9982 0.0517842C63.5268 0.156417 64.0123 0.415657 64.3933 0.796657C64.7743 1.17766 65.0336 1.66324 65.1382 2.1918C65.2429 2.72036 65.1881 3.26808 64.981 3.7655C64.7739 4.26292 64.4237 4.68763 63.9749 4.98574C63.5261 5.28386 62.9988 5.44195 62.46 5.43997C61.7413 5.43997 61.052 5.15446 60.5438 4.64624C60.0355 4.13801 59.75 3.44871 59.75 2.72998Z" fill="#FFDC28"/>
<path d="M39.8401 2.72954C39.8401 2.19355 39.999 1.66961 40.2968 1.22395C40.5946 0.778293 41.0178 0.430926 41.513 0.225812C42.0082 0.0206986 42.5531 -0.0329592 43.0788 0.0716068C43.6045 0.176173 44.0873 0.434275 44.4663 0.813275C44.8453 1.19228 45.1034 1.67516 45.208 2.20085C45.3126 2.72654 45.2589 3.27143 45.0538 3.76661C44.8487 4.2618 44.5013 4.68505 44.0557 4.98283C43.61 5.28061 43.0861 5.43953 42.5501 5.43953C41.8313 5.43953 41.142 5.15402 40.6338 4.64579C40.1256 4.13757 39.8401 3.44827 39.8401 2.72954Z" fill="#FFDC28"/>
<path d="M19.9199 2.72954C19.9199 2.19355 20.0789 1.66961 20.3766 1.22395C20.6744 0.778293 21.0977 0.430926 21.5928 0.225812C22.088 0.0206986 22.6329 -0.0329592 23.1586 0.0716068C23.6843 0.176173 24.1672 0.434275 24.5462 0.813275C24.9252 1.19228 25.1833 1.67516 25.2879 2.20085C25.3924 2.72654 25.3387 3.27143 25.1336 3.76661C24.9285 4.2618 24.5812 4.68505 24.1355 4.98283C23.6899 5.28061 23.1659 5.43953 22.6299 5.43953C21.9112 5.43953 21.2219 5.15402 20.7137 4.64579C20.2054 4.13757 19.9199 3.44827 19.9199 2.72954Z" fill="#FFDC28"/>
<path d="M1.83903e-05 2.73001C-0.00196099 2.19162 0.155884 1.66477 0.453555 1.21615C0.751227 0.767538 1.17535 0.417332 1.67218 0.209927C2.16902 0.00252266 2.71622 -0.052767 3.24451 0.0510528C3.7728 0.154873 4.25839 0.413151 4.63979 0.793149C5.02119 1.17315 5.28123 1.65777 5.387 2.18567C5.49276 2.71357 5.43949 3.26097 5.23392 3.75857C5.02835 4.25617 4.67973 4.68157 4.23221 4.98089C3.7847 5.28021 3.25841 5.44 2.72002 5.44C2.3633 5.44132 2.00982 5.3722 1.67987 5.2366C1.34993 5.101 1.05 4.90159 0.79729 4.64981C0.544583 4.39803 0.344078 4.09885 0.207263 3.76941C0.0704481 3.43996 1.59616e-05 3.08673 1.83903e-05 2.73001Z" fill="#FFDC28"/>
<path d="M79.6699 104.78C79.6699 104.244 79.8289 103.72 80.1266 103.275C80.4244 102.829 80.8477 102.482 81.3428 102.277C81.838 102.072 82.3829 102.018 82.9086 102.122C83.4343 102.227 83.9172 102.485 84.2962 102.864C84.6752 103.243 84.9333 103.726 85.0378 104.252C85.1424 104.777 85.0887 105.322 84.8836 105.817C84.6785 106.313 84.3312 106.736 83.8855 107.034C83.4399 107.331 82.9159 107.49 82.3799 107.49C81.6612 107.49 80.9719 107.205 80.4637 106.697C79.9554 106.188 79.6699 105.499 79.6699 104.78Z" fill="#FFDC28"/>
<path d="M59.75 104.78C59.748 104.241 59.9061 103.714 60.2043 103.265C60.5024 102.816 60.9271 102.466 61.4245 102.259C61.9219 102.052 62.4696 101.997 62.9982 102.102C63.5268 102.206 64.0123 102.465 64.3933 102.846C64.7743 103.227 65.0336 103.713 65.1382 104.242C65.2429 104.77 65.1881 105.318 64.981 105.815C64.7739 106.313 64.4237 106.737 63.9749 107.036C63.5261 107.334 62.9988 107.492 62.46 107.49C61.7421 107.487 61.0543 107.201 60.5467 106.693C60.039 106.185 59.7527 105.498 59.75 104.78Z" fill="#FFDC28"/>
<path d="M39.8401 104.78C39.8401 104.244 39.999 103.72 40.2968 103.275C40.5946 102.829 41.0178 102.482 41.513 102.277C42.0082 102.072 42.5531 102.018 43.0788 102.122C43.6045 102.227 44.0873 102.485 44.4663 102.864C44.8453 103.243 45.1034 103.726 45.208 104.252C45.3126 104.777 45.2589 105.322 45.0538 105.817C44.8487 106.313 44.5013 106.736 44.0557 107.034C43.61 107.331 43.0861 107.49 42.5501 107.49C41.8313 107.49 41.142 107.205 40.6338 106.697C40.1256 106.188 39.8401 105.499 39.8401 104.78Z" fill="#FFDC28"/>
<path d="M19.9199 104.78C19.9199 104.244 20.0789 103.72 20.3766 103.275C20.6744 102.829 21.0977 102.482 21.5928 102.277C22.088 102.072 22.6329 102.018 23.1586 102.122C23.6843 102.227 24.1672 102.485 24.5462 102.864C24.9252 103.243 25.1833 103.726 25.2879 104.252C25.3924 104.777 25.3387 105.322 25.1336 105.817C24.9285 106.313 24.5812 106.736 24.1355 107.034C23.6899 107.331 23.1659 107.49 22.6299 107.49C21.9112 107.49 21.2219 107.205 20.7137 106.697C20.2054 106.188 19.9199 105.499 19.9199 104.78Z" fill="#FFDC28"/>
<path d="M1.83903e-05 104.78C-0.00196099 104.241 0.155884 103.715 0.453555 103.266C0.751227 102.817 1.17535 102.467 1.67218 102.26C2.16902 102.052 2.71622 101.997 3.24451 102.101C3.7728 102.205 4.25839 102.463 4.63979 102.843C5.02119 103.223 5.28123 103.708 5.387 104.235C5.49276 104.763 5.43949 105.311 5.23392 105.808C5.02835 106.306 4.67973 106.731 4.23221 107.031C3.7847 107.33 3.25841 107.49 2.72002 107.49C2.00036 107.49 1.31003 107.205 0.80022 106.697C0.290407 106.189 0.0026642 105.499 1.83903e-05 104.78Z" fill="#FFDC28"/>
<path d="M79.6699 84.2803C79.6699 83.7443 79.8289 83.2204 80.1266 82.7747C80.4244 82.3291 80.8477 81.9817 81.3428 81.7766C81.838 81.5715 82.3829 81.5178 82.9086 81.6224C83.4343 81.7269 83.9172 81.985 84.2962 82.364C84.6752 82.743 84.9333 83.2259 85.0378 83.7516C85.1424 84.2773 85.0887 84.8222 84.8836 85.3174C84.6785 85.8126 84.3312 86.2358 83.8855 86.5336C83.4399 86.8314 82.9159 86.9903 82.3799 86.9903C81.6612 86.9903 80.9719 86.7048 80.4637 86.1966C79.9554 85.6883 79.6699 84.999 79.6699 84.2803Z" fill="#FFDC28"/>
<path d="M59.75 84.2798C59.748 83.741 59.9061 83.2137 60.2043 82.7649C60.5024 82.316 60.9271 81.9659 61.4245 81.7588C61.9219 81.5517 62.4696 81.4969 62.9982 81.6016C63.5268 81.7062 64.0123 81.9655 64.3933 82.3465C64.7743 82.7275 65.0336 83.213 65.1382 83.7416C65.2429 84.2702 65.1881 84.8179 64.981 85.3153C64.7739 85.8127 64.4237 86.2374 63.9749 86.5355C63.5261 86.8337 62.9988 86.9918 62.46 86.9898C61.7413 86.9898 61.052 86.7043 60.5438 86.196C60.0355 85.6878 59.75 84.9985 59.75 84.2798Z" fill="#FFDC28"/>
<path d="M39.8401 84.2803C39.8401 83.7443 39.999 83.2204 40.2968 82.7747C40.5946 82.3291 41.0178 81.9817 41.513 81.7766C42.0082 81.5715 42.5531 81.5178 43.0788 81.6224C43.6045 81.7269 44.0873 81.985 44.4663 82.364C44.8453 82.743 45.1034 83.2259 45.208 83.7516C45.3126 84.2773 45.2589 84.8222 45.0538 85.3174C44.8487 85.8126 44.5013 86.2358 44.0557 86.5336C43.61 86.8314 43.0861 86.9903 42.5501 86.9903C41.8313 86.9903 41.142 86.7048 40.6338 86.1966C40.1256 85.6883 39.8401 84.999 39.8401 84.2803Z" fill="#FFDC28"/>
<path d="M19.9199 84.2803C19.9199 83.7443 20.0789 83.2204 20.3766 82.7747C20.6744 82.3291 21.0977 81.9817 21.5928 81.7766C22.088 81.5715 22.6329 81.5178 23.1586 81.6224C23.6843 81.7269 24.1672 81.985 24.5462 82.364C24.9252 82.743 25.1833 83.2259 25.2879 83.7516C25.3924 84.2773 25.3387 84.8222 25.1336 85.3174C24.9285 85.8126 24.5812 86.2358 24.1355 86.5336C23.6899 86.8314 23.1659 86.9903 22.6299 86.9903C21.9112 86.9903 21.2219 86.7048 20.7137 86.1966C20.2054 85.6883 19.9199 84.999 19.9199 84.2803Z" fill="#FFDC28"/>
<path d="M1.83903e-05 84.2798C-0.00196099 83.7414 0.155884 83.2145 0.453555 82.7659C0.751227 82.3173 1.17535 81.9671 1.67218 81.7597C2.16902 81.5523 2.71622 81.497 3.24451 81.6009C3.7728 81.7047 4.25839 81.9629 4.63979 82.3429C5.02119 82.7229 5.28123 83.2076 5.387 83.7355C5.49276 84.2634 5.43949 84.8108 5.23392 85.3084C5.02835 85.806 4.67973 86.2314 4.23221 86.5307C3.7847 86.83 3.25841 86.9898 2.72002 86.9898C2.3633 86.9911 2.00982 86.922 1.67987 86.7864C1.34993 86.6508 1.05 86.4514 0.79729 86.1996C0.544583 85.9478 0.344078 85.6486 0.207263 85.3192C0.0704481 84.9897 1.59616e-05 84.6365 1.83903e-05 84.2798Z" fill="#FFDC28"/>
<path d="M79.6699 63.7295C79.6699 63.1935 79.8289 62.6696 80.1266 62.224C80.4244 61.7783 80.8477 61.4309 81.3428 61.2258C81.838 61.0207 82.3829 60.967 82.9086 61.0716C83.4343 61.1762 83.9172 61.4343 84.2962 61.8133C84.6752 62.1923 84.9333 62.6752 85.0378 63.2008C85.1424 63.7265 85.0887 64.2714 84.8836 64.7666C84.6785 65.2618 84.3312 65.6851 83.8855 65.9828C83.4399 66.2806 82.9159 66.4395 82.3799 66.4395C81.6612 66.4395 80.9719 66.154 80.4637 65.6458C79.9554 65.1376 79.6699 64.4483 79.6699 63.7295Z" fill="#FFDC28"/>
<path d="M59.75 63.73C59.748 63.1912 59.9061 62.6639 60.2043 62.2151C60.5024 61.7663 60.9271 61.4161 61.4245 61.2089C61.9219 61.0018 62.4696 60.9472 62.9982 61.0518C63.5268 61.1564 64.0123 61.4157 64.3933 61.7967C64.7743 62.1777 65.0336 62.6632 65.1382 63.1918C65.2429 63.7204 65.1881 64.2681 64.981 64.7655C64.7739 65.2629 64.4237 65.6876 63.9749 65.9857C63.5261 66.2839 62.9988 66.4419 62.46 66.44C61.7413 66.44 61.052 66.1545 60.5438 65.6462C60.0355 65.138 59.75 64.4487 59.75 63.73Z" fill="#FFDC28"/>
<path d="M39.8401 63.7295C39.8401 63.1935 39.999 62.6696 40.2968 62.224C40.5946 61.7783 41.0178 61.4309 41.513 61.2258C42.0082 61.0207 42.5531 60.967 43.0788 61.0716C43.6045 61.1762 44.0873 61.4343 44.4663 61.8133C44.8453 62.1923 45.1034 62.6752 45.208 63.2008C45.3126 63.7265 45.2589 64.2714 45.0538 64.7666C44.8487 65.2618 44.5013 65.6851 44.0557 65.9828C43.61 66.2806 43.0861 66.4395 42.5501 66.4395C41.8313 66.4395 41.142 66.154 40.6338 65.6458C40.1256 65.1376 39.8401 64.4483 39.8401 63.7295Z" fill="#FFDC28"/>
<path d="M19.9199 63.7295C19.9199 63.1935 20.0789 62.6696 20.3766 62.224C20.6744 61.7783 21.0977 61.4309 21.5928 61.2258C22.088 61.0207 22.6329 60.967 23.1586 61.0716C23.6843 61.1762 24.1672 61.4343 24.5462 61.8133C24.9252 62.1923 25.1833 62.6752 25.2879 63.2008C25.3924 63.7265 25.3387 64.2714 25.1336 64.7666C24.9285 65.2618 24.5812 65.6851 24.1355 65.9828C23.6899 66.2806 23.1659 66.4395 22.6299 66.4395C21.9112 66.4395 21.2219 66.154 20.7137 65.6458C20.2054 65.1376 19.9199 64.4483 19.9199 63.7295Z" fill="#FFDC28"/>
<path d="M1.83903e-05 63.73C-0.00196099 63.1916 0.155884 62.6648 0.453555 62.2162C0.751227 61.7675 1.17535 61.4173 1.67218 61.2099C2.16902 61.0025 2.71622 60.9472 3.24451 61.0511C3.7728 61.1549 4.25839 61.4132 4.63979 61.7931C5.02119 62.1731 5.28123 62.6578 5.387 63.1857C5.49276 63.7136 5.43949 64.261 5.23392 64.7586C5.02835 65.2562 4.67973 65.6816 4.23221 65.9809C3.7847 66.2802 3.25841 66.44 2.72002 66.44C2.3633 66.4413 2.00982 66.3722 1.67987 66.2366C1.34993 66.101 1.05 65.9016 0.79729 65.6498C0.544583 65.398 0.344078 65.0989 0.207263 64.7694C0.0704481 64.44 1.59616e-05 64.0867 1.83903e-05 63.73Z" fill="#FFDC28"/>
<path d="M179.67 43.7803C179.67 43.2443 179.829 42.7204 180.127 42.2747C180.424 41.8291 180.848 41.4817 181.343 41.2766C181.838 41.0715 182.383 41.0178 182.909 41.1224C183.434 41.2269 183.917 41.485 184.296 41.864C184.675 42.243 184.933 42.7259 185.038 43.2516C185.142 43.7773 185.089 44.3222 184.884 44.8174C184.679 45.3126 184.331 45.7358 183.886 46.0336C183.44 46.3314 182.916 46.4903 182.38 46.4903C181.661 46.4903 180.972 46.2048 180.464 45.6966C179.955 45.1883 179.67 44.499 179.67 43.7803Z" fill="#FFDC28"/>
<path d="M159.75 43.7798C159.748 43.241 159.906 42.7137 160.204 42.2649C160.502 41.816 160.927 41.4659 161.425 41.2588C161.922 41.0517 162.47 40.9969 162.998 41.1016C163.527 41.2062 164.012 41.4655 164.393 41.8465C164.774 42.2275 165.034 42.713 165.138 43.2416C165.243 43.7702 165.188 44.3179 164.981 44.8153C164.774 45.3127 164.424 45.7374 163.975 46.0355C163.526 46.3337 162.999 46.4918 162.46 46.4898C161.742 46.4872 161.054 46.2008 160.547 45.6931C160.039 45.1855 159.753 44.4977 159.75 43.7798Z" fill="#FFDC28"/>
<path d="M139.84 43.7803C139.84 43.2443 139.999 42.7204 140.297 42.2747C140.595 41.8291 141.018 41.4817 141.513 41.2766C142.008 41.0715 142.553 41.0178 143.079 41.1224C143.604 41.2269 144.087 41.485 144.466 41.864C144.845 42.243 145.103 42.7259 145.208 43.2516C145.313 43.7773 145.259 44.3222 145.054 44.8174C144.849 45.3126 144.501 45.7358 144.056 46.0336C143.61 46.3314 143.086 46.4903 142.55 46.4903C141.831 46.4903 141.142 46.2048 140.634 45.6966C140.126 45.1883 139.84 44.499 139.84 43.7803Z" fill="#FFDC28"/>
<path d="M119.92 43.7803C119.92 43.2443 120.079 42.7204 120.377 42.2747C120.674 41.8291 121.098 41.4817 121.593 41.2766C122.088 41.0715 122.633 41.0178 123.159 41.1224C123.684 41.2269 124.167 41.485 124.546 41.864C124.925 42.243 125.183 42.7259 125.288 43.2516C125.392 43.7773 125.339 44.3222 125.134 44.8174C124.929 45.3126 124.581 45.7358 124.136 46.0336C123.69 46.3314 123.166 46.4903 122.63 46.4903C121.911 46.4903 121.222 46.2048 120.714 45.6966C120.205 45.1883 119.92 44.499 119.92 43.7803Z" fill="#FFDC28"/>
<path d="M100 43.7798C99.998 43.2414 100.156 42.7145 100.454 42.2659C100.751 41.8173 101.175 41.4671 101.672 41.2597C102.169 41.0523 102.716 40.997 103.245 41.1009C103.773 41.2047 104.258 41.4629 104.64 41.8429C105.021 42.2229 105.281 42.7076 105.387 43.2355C105.493 43.7634 105.439 44.3108 105.234 44.8084C105.028 45.306 104.68 45.7314 104.232 46.0307C103.785 46.33 103.258 46.4898 102.72 46.4898C102 46.4898 101.31 46.2046 100.8 45.6967C100.29 45.1887 100.003 44.4994 100 43.7798Z" fill="#FFDC28"/>
<path d="M179.67 23.2803C179.67 22.7443 179.829 22.2204 180.127 21.7747C180.424 21.3291 180.848 20.9817 181.343 20.7766C181.838 20.5715 182.383 20.5178 182.909 20.6224C183.434 20.7269 183.917 20.985 184.296 21.364C184.675 21.743 184.933 22.2259 185.038 22.7516C185.142 23.2773 185.089 23.8222 184.884 24.3174C184.679 24.8126 184.331 25.2358 183.886 25.5336C183.44 25.8314 182.916 25.9903 182.38 25.9903C181.661 25.9903 180.972 25.7048 180.464 25.1966C179.955 24.6883 179.67 23.999 179.67 23.2803Z" fill="#FFDC28"/>
<path d="M159.75 23.2798C159.748 22.741 159.906 22.2137 160.204 21.7649C160.502 21.316 160.927 20.9659 161.425 20.7588C161.922 20.5517 162.47 20.4969 162.998 20.6016C163.527 20.7062 164.012 20.9655 164.393 21.3465C164.774 21.7275 165.034 22.213 165.138 22.7416C165.243 23.2702 165.188 23.8179 164.981 24.3153C164.774 24.8127 164.424 25.2374 163.975 25.5355C163.526 25.8337 162.999 25.9918 162.46 25.9898C161.741 25.9898 161.052 25.7043 160.544 25.196C160.036 24.6878 159.75 23.9985 159.75 23.2798Z" fill="#FFDC28"/>
<path d="M139.84 23.2803C139.84 22.7443 139.999 22.2204 140.297 21.7747C140.595 21.3291 141.018 20.9817 141.513 20.7766C142.008 20.5715 142.553 20.5178 143.079 20.6224C143.604 20.7269 144.087 20.985 144.466 21.364C144.845 21.743 145.103 22.2259 145.208 22.7516C145.313 23.2773 145.259 23.8222 145.054 24.3174C144.849 24.8126 144.501 25.2358 144.056 25.5336C143.61 25.8314 143.086 25.9903 142.55 25.9903C141.831 25.9903 141.142 25.7048 140.634 25.1966C140.126 24.6883 139.84 23.999 139.84 23.2803Z" fill="#FFDC28"/>
<path d="M119.92 23.2803C119.92 22.7443 120.079 22.2204 120.377 21.7747C120.674 21.3291 121.098 20.9817 121.593 20.7766C122.088 20.5715 122.633 20.5178 123.159 20.6224C123.684 20.7269 124.167 20.985 124.546 21.364C124.925 21.743 125.183 22.2259 125.288 22.7516C125.392 23.2773 125.339 23.8222 125.134 24.3174C124.929 24.8126 124.581 25.2358 124.136 25.5336C123.69 25.8314 123.166 25.9903 122.63 25.9903C121.911 25.9903 121.222 25.7048 120.714 25.1966C120.205 24.6883 119.92 23.999 119.92 23.2803Z" fill="#FFDC28"/>
<path d="M100 23.2798C99.998 22.7414 100.156 22.2145 100.454 21.7659C100.751 21.3173 101.175 20.9671 101.672 20.7597C102.169 20.5523 102.716 20.497 103.245 20.6009C103.773 20.7047 104.258 20.9629 104.64 21.3429C105.021 21.7229 105.281 22.2076 105.387 22.7355C105.493 23.2634 105.439 23.8108 105.234 24.3084C105.028 24.806 104.68 25.2314 104.232 25.5307C103.785 25.83 103.258 25.9898 102.72 25.9898C102.363 25.9911 102.01 25.922 101.68 25.7864C101.35 25.6508 101.05 25.4514 100.797 25.1996C100.545 24.9478 100.344 24.6486 100.207 24.3192C100.07 23.9897 100 23.6365 100 23.2798Z" fill="#FFDC28"/>
<path d="M179.67 2.72954C179.67 2.19355 179.829 1.66961 180.127 1.22395C180.424 0.778293 180.848 0.430926 181.343 0.225812C181.838 0.0206986 182.383 -0.0329592 182.909 0.0716068C183.434 0.176173 183.917 0.434275 184.296 0.813275C184.675 1.19228 184.933 1.67516 185.038 2.20085C185.142 2.72654 185.089 3.27143 184.884 3.76661C184.679 4.2618 184.331 4.68505 183.886 4.98283C183.44 5.28061 182.916 5.43953 182.38 5.43953C181.661 5.43953 180.972 5.15402 180.464 4.64579C179.955 4.13757 179.67 3.44827 179.67 2.72954Z" fill="#FFDC28"/>
<path d="M159.75 2.72998C159.748 2.19116 159.906 1.66391 160.204 1.21508C160.502 0.766253 160.927 0.416058 161.425 0.20895C161.922 0.00184095 162.47 -0.0528486 162.998 0.0517842C163.527 0.156417 164.012 0.415657 164.393 0.796657C164.774 1.17766 165.034 1.66324 165.138 2.1918C165.243 2.72036 165.188 3.26808 164.981 3.7655C164.774 4.26292 164.424 4.68763 163.975 4.98574C163.526 5.28386 162.999 5.44195 162.46 5.43997C161.741 5.43997 161.052 5.15446 160.544 4.64624C160.036 4.13801 159.75 3.44871 159.75 2.72998Z" fill="#FFDC28"/>
<path d="M139.84 2.72954C139.84 2.19355 139.999 1.66961 140.297 1.22395C140.595 0.778293 141.018 0.430926 141.513 0.225812C142.008 0.0206986 142.553 -0.0329592 143.079 0.0716068C143.604 0.176173 144.087 0.434275 144.466 0.813275C144.845 1.19228 145.103 1.67516 145.208 2.20085C145.313 2.72654 145.259 3.27143 145.054 3.76661C144.849 4.2618 144.501 4.68505 144.056 4.98283C143.61 5.28061 143.086 5.43953 142.55 5.43953C141.831 5.43953 141.142 5.15402 140.634 4.64579C140.126 4.13757 139.84 3.44827 139.84 2.72954Z" fill="#FFDC28"/>
<path d="M119.92 2.72954C119.92 2.19355 120.079 1.66961 120.377 1.22395C120.674 0.778293 121.098 0.430926 121.593 0.225812C122.088 0.0206986 122.633 -0.0329592 123.159 0.0716068C123.684 0.176173 124.167 0.434275 124.546 0.813275C124.925 1.19228 125.183 1.67516 125.288 2.20085C125.392 2.72654 125.339 3.27143 125.134 3.76661C124.929 4.2618 124.581 4.68505 124.136 4.98283C123.69 5.28061 123.166 5.43953 122.63 5.43953C121.911 5.43953 121.222 5.15402 120.714 4.64579C120.205 4.13757 119.92 3.44827 119.92 2.72954Z" fill="#FFDC28"/>
<path d="M100 2.73001C99.998 2.19162 100.156 1.66477 100.454 1.21615C100.751 0.767538 101.175 0.417332 101.672 0.209927C102.169 0.00252266 102.716 -0.052767 103.245 0.0510528C103.773 0.154873 104.258 0.413151 104.64 0.793149C105.021 1.17315 105.281 1.65777 105.387 2.18567C105.493 2.71357 105.439 3.26097 105.234 3.75857C105.028 4.25617 104.68 4.68157 104.232 4.98089C103.785 5.28021 103.258 5.44 102.72 5.44C102.363 5.44132 102.01 5.3722 101.68 5.2366C101.35 5.101 101.05 4.90159 100.797 4.64981C100.545 4.39803 100.344 4.09885 100.207 3.76941C100.07 3.43996 100 3.08673 100 2.73001Z" fill="#FFDC28"/>
<path d="M179.67 104.78C179.67 104.244 179.829 103.72 180.127 103.275C180.424 102.829 180.848 102.482 181.343 102.277C181.838 102.072 182.383 102.018 182.909 102.122C183.434 102.227 183.917 102.485 184.296 102.864C184.675 103.243 184.933 103.726 185.038 104.252C185.142 104.777 185.089 105.322 184.884 105.817C184.679 106.313 184.331 106.736 183.886 107.034C183.44 107.331 182.916 107.49 182.38 107.49C181.661 107.49 180.972 107.205 180.464 106.697C179.955 106.188 179.67 105.499 179.67 104.78Z" fill="#FFDC28"/>
<path d="M159.75 104.78C159.748 104.241 159.906 103.714 160.204 103.265C160.502 102.816 160.927 102.466 161.425 102.259C161.922 102.052 162.47 101.997 162.998 102.102C163.527 102.206 164.012 102.465 164.393 102.846C164.774 103.227 165.034 103.713 165.138 104.242C165.243 104.77 165.188 105.318 164.981 105.815C164.774 106.313 164.424 106.737 163.975 107.036C163.526 107.334 162.999 107.492 162.46 107.49C161.742 107.487 161.054 107.201 160.547 106.693C160.039 106.185 159.753 105.498 159.75 104.78Z" fill="#FFDC28"/>
<path d="M139.84 104.78C139.84 104.244 139.999 103.72 140.297 103.275C140.595 102.829 141.018 102.482 141.513 102.277C142.008 102.072 142.553 102.018 143.079 102.122C143.604 102.227 144.087 102.485 144.466 102.864C144.845 103.243 145.103 103.726 145.208 104.252C145.313 104.777 145.259 105.322 145.054 105.817C144.849 106.313 144.501 106.736 144.056 107.034C143.61 107.331 143.086 107.49 142.55 107.49C141.831 107.49 141.142 107.205 140.634 106.697C140.126 106.188 139.84 105.499 139.84 104.78Z" fill="#FFDC28"/>
<path d="M119.92 104.78C119.92 104.244 120.079 103.72 120.377 103.275C120.674 102.829 121.098 102.482 121.593 102.277C122.088 102.072 122.633 102.018 123.159 102.122C123.684 102.227 124.167 102.485 124.546 102.864C124.925 103.243 125.183 103.726 125.288 104.252C125.392 104.777 125.339 105.322 125.134 105.817C124.929 106.313 124.581 106.736 124.136 107.034C123.69 107.331 123.166 107.49 122.63 107.49C121.911 107.49 121.222 107.205 120.714 106.697C120.205 106.188 119.92 105.499 119.92 104.78Z" fill="#FFDC28"/>
<path d="M100 104.78C99.998 104.241 100.156 103.715 100.454 103.266C100.751 102.817 101.175 102.467 101.672 102.26C102.169 102.052 102.716 101.997 103.245 102.101C103.773 102.205 104.258 102.463 104.64 102.843C105.021 103.223 105.281 103.708 105.387 104.235C105.493 104.763 105.439 105.311 105.234 105.808C105.028 106.306 104.68 106.731 104.232 107.031C103.785 107.33 103.258 107.49 102.72 107.49C102 107.49 101.31 107.205 100.8 106.697C100.29 106.189 100.003 105.499 100 104.78Z" fill="#FFDC28"/>
<path d="M179.67 84.2803C179.67 83.7443 179.829 83.2204 180.127 82.7747C180.424 82.3291 180.848 81.9817 181.343 81.7766C181.838 81.5715 182.383 81.5178 182.909 81.6224C183.434 81.7269 183.917 81.985 184.296 82.364C184.675 82.743 184.933 83.2259 185.038 83.7516C185.142 84.2773 185.089 84.8222 184.884 85.3174C184.679 85.8126 184.331 86.2358 183.886 86.5336C183.44 86.8314 182.916 86.9903 182.38 86.9903C181.661 86.9903 180.972 86.7048 180.464 86.1966C179.955 85.6883 179.67 84.999 179.67 84.2803Z" fill="#FFDC28"/>
<path d="M159.75 84.2798C159.748 83.741 159.906 83.2137 160.204 82.7649C160.502 82.316 160.927 81.9659 161.425 81.7588C161.922 81.5517 162.47 81.4969 162.998 81.6016C163.527 81.7062 164.012 81.9655 164.393 82.3465C164.774 82.7275 165.034 83.213 165.138 83.7416C165.243 84.2702 165.188 84.8179 164.981 85.3153C164.774 85.8127 164.424 86.2374 163.975 86.5355C163.526 86.8337 162.999 86.9918 162.46 86.9898C161.741 86.9898 161.052 86.7043 160.544 86.196C160.036 85.6878 159.75 84.9985 159.75 84.2798Z" fill="#FFDC28"/>
<path d="M139.84 84.2803C139.84 83.7443 139.999 83.2204 140.297 82.7747C140.595 82.3291 141.018 81.9817 141.513 81.7766C142.008 81.5715 142.553 81.5178 143.079 81.6224C143.604 81.7269 144.087 81.985 144.466 82.364C144.845 82.743 145.103 83.2259 145.208 83.7516C145.313 84.2773 145.259 84.8222 145.054 85.3174C144.849 85.8126 144.501 86.2358 144.056 86.5336C143.61 86.8314 143.086 86.9903 142.55 86.9903C141.831 86.9903 141.142 86.7048 140.634 86.1966C140.126 85.6883 139.84 84.999 139.84 84.2803Z" fill="#FFDC28"/>
<path d="M119.92 84.2803C119.92 83.7443 120.079 83.2204 120.377 82.7747C120.674 82.3291 121.098 81.9817 121.593 81.7766C122.088 81.5715 122.633 81.5178 123.159 81.6224C123.684 81.7269 124.167 81.985 124.546 82.364C124.925 82.743 125.183 83.2259 125.288 83.7516C125.392 84.2773 125.339 84.8222 125.134 85.3174C124.929 85.8126 124.581 86.2358 124.136 86.5336C123.69 86.8314 123.166 86.9903 122.63 86.9903C121.911 86.9903 121.222 86.7048 120.714 86.1966C120.205 85.6883 119.92 84.999 119.92 84.2803Z" fill="#FFDC28"/>
<path d="M100 84.2798C99.998 83.7414 100.156 83.2145 100.454 82.7659C100.751 82.3173 101.175 81.9671 101.672 81.7597C102.169 81.5523 102.716 81.497 103.245 81.6009C103.773 81.7047 104.258 81.9629 104.64 82.3429C105.021 82.7229 105.281 83.2076 105.387 83.7355C105.493 84.2634 105.439 84.8108 105.234 85.3084C105.028 85.806 104.68 86.2314 104.232 86.5307C103.785 86.83 103.258 86.9898 102.72 86.9898C102.363 86.9911 102.01 86.922 101.68 86.7864C101.35 86.6508 101.05 86.4514 100.797 86.1996C100.545 85.9478 100.344 85.6486 100.207 85.3192C100.07 84.9897 100 84.6365 100 84.2798Z" fill="#FFDC28"/>
<path d="M179.67 63.7295C179.67 63.1935 179.829 62.6696 180.127 62.224C180.424 61.7783 180.848 61.4309 181.343 61.2258C181.838 61.0207 182.383 60.967 182.909 61.0716C183.434 61.1762 183.917 61.4343 184.296 61.8133C184.675 62.1923 184.933 62.6752 185.038 63.2008C185.142 63.7265 185.089 64.2714 184.884 64.7666C184.679 65.2618 184.331 65.6851 183.886 65.9828C183.44 66.2806 182.916 66.4395 182.38 66.4395C181.661 66.4395 180.972 66.154 180.464 65.6458C179.955 65.1376 179.67 64.4483 179.67 63.7295Z" fill="#FFDC28"/>
<path d="M159.75 63.73C159.748 63.1912 159.906 62.6639 160.204 62.2151C160.502 61.7663 160.927 61.4161 161.425 61.2089C161.922 61.0018 162.47 60.9472 162.998 61.0518C163.527 61.1564 164.012 61.4157 164.393 61.7967C164.774 62.1777 165.034 62.6632 165.138 63.1918C165.243 63.7204 165.188 64.2681 164.981 64.7655C164.774 65.2629 164.424 65.6876 163.975 65.9857C163.526 66.2839 162.999 66.4419 162.46 66.44C161.741 66.44 161.052 66.1545 160.544 65.6462C160.036 65.138 159.75 64.4487 159.75 63.73Z" fill="#FFDC28"/>
<path d="M139.84 63.7295C139.84 63.1935 139.999 62.6696 140.297 62.224C140.595 61.7783 141.018 61.4309 141.513 61.2258C142.008 61.0207 142.553 60.967 143.079 61.0716C143.604 61.1762 144.087 61.4343 144.466 61.8133C144.845 62.1923 145.103 62.6752 145.208 63.2008C145.313 63.7265 145.259 64.2714 145.054 64.7666C144.849 65.2618 144.501 65.6851 144.056 65.9828C143.61 66.2806 143.086 66.4395 142.55 66.4395C141.831 66.4395 141.142 66.154 140.634 65.6458C140.126 65.1376 139.84 64.4483 139.84 63.7295Z" fill="#FFDC28"/>
<path d="M119.92 63.7295C119.92 63.1935 120.079 62.6696 120.377 62.224C120.674 61.7783 121.098 61.4309 121.593 61.2258C122.088 61.0207 122.633 60.967 123.159 61.0716C123.684 61.1762 124.167 61.4343 124.546 61.8133C124.925 62.1923 125.183 62.6752 125.288 63.2008C125.392 63.7265 125.339 64.2714 125.134 64.7666C124.929 65.2618 124.581 65.6851 124.136 65.9828C123.69 66.2806 123.166 66.4395 122.63 66.4395C121.911 66.4395 121.222 66.154 120.714 65.6458C120.205 65.1376 119.92 64.4483 119.92 63.7295Z" fill="#FFDC28"/>
<path d="M100 63.73C99.998 63.1916 100.156 62.6648 100.454 62.2162C100.751 61.7675 101.175 61.4173 101.672 61.2099C102.169 61.0025 102.716 60.9472 103.245 61.0511C103.773 61.1549 104.258 61.4132 104.64 61.7931C105.021 62.1731 105.281 62.6578 105.387 63.1857C105.493 63.7136 105.439 64.261 105.234 64.7586C105.028 65.2562 104.68 65.6816 104.232 65.9809C103.785 66.2802 103.258 66.44 102.72 66.44C102.363 66.4413 102.01 66.3722 101.68 66.2366C101.35 66.101 101.05 65.9016 100.797 65.6498C100.545 65.398 100.344 65.0989 100.207 64.7694C100.07 64.44 100 64.0867 100 63.73Z" fill="#FFDC28"/>
</svg>
